<?xml version="1.0" encoding="utf-8"?>
<!-- Generator: Adobe Illustrator 23.0.1, SVG Export Plug-In . SVG Version: 6.00 Build 0)  -->
<svg version="1.1" id="Layer_1" xmlns="http://www.w3.org/2000/svg" xmlns:xlink="http://www.w3.org/1999/xlink" x="0px" y="0px"
	 viewBox="0 0 100 99.1" style="enable-background:new 0 0 100 99.1;" xml:space="preserve">
<style type="text/css">
	.st0{fill:#15D2A3;}
</style>
<path class="st0" d="M57.6,3.5c-2.3-0.6-5.2-0.6-7.6-0.6c-1.2,0-1.7,0-2.3,0C22,4.1,6.9,33.2,20.9,55.4l21.6,36.1
	c1.7,2.9,4.7,4.7,8.2,4.7s6.4-1.7,8.2-4.7l21-36.7C91.4,34.4,80.3,8.2,57.6,3.5z M50,52.5c-8.7,0-16.3-7-16.3-16.3
	c0-9.3,7.6-16.3,16.3-16.3s16.3,7.6,16.3,16.3C66.3,45.5,58.8,52.5,50,52.5z"/>
</svg>
