<?xml version="1.0" encoding="utf-8"?>
<!-- Generator: Adobe Illustrator 23.0.2, SVG Export Plug-In . SVG Version: 6.00 Build 0)  -->
<svg version="1.1" id="Capa_1" xmlns="http://www.w3.org/2000/svg" xmlns:xlink="http://www.w3.org/1999/xlink" x="0px" y="0px"
	 viewBox="0 0 384.8 371.3" style="enable-background:new 0 0 384.8 371.3;" xml:space="preserve">
<style type="text/css">
	.st0{fill:#4B5BA4;}
	.st1{fill:#FFFFFF;}
	.st2{fill:#EB6181;}
	.st3{fill:#DCDDF9;}
</style>
<g>
	<g>
		<path class="st0" d="M20,211.6L20,211.6c-5,0-9-4-9-9v0c0-5,4-9,9-9h0c5,0,9,4,9,9v0C29,207.5,25,211.6,20,211.6z"/>
		<path class="st0" d="M20,267.5L20,267.5c-5,0-9-4-9-9l0,0c0-5,4-9,9-9h0c5,0,9,4,9,9l0,0C29,263.4,25,267.5,20,267.5z"/>
		<path class="st0" d="M20,323.3L20,323.3c-5,0-9-4-9-9l0,0c0-5,4-9,9-9h0c5,0,9,4,9,9l0,0C29,319.3,25,323.3,20,323.3z"/>
	</g>
	<path class="st0" d="M193.7,346.1v4.1c0,5.4,4.4,9.8,9.8,9.8h0c5.4,0,9.8-4.4,9.8-9.8v-4.1c0-5.4-4.4-9.8-9.8-9.8h0
		C198.1,336.3,193.7,340.7,193.7,346.1z"/>
	<path class="st0" d="M193.7,314.1v4.1c0,5.4,4.4,9.8,9.8,9.8h0c5.4,0,9.8-4.4,9.8-9.8v-4.1c0-5.4-4.4-9.8-9.8-9.8h0
		C198.1,304.3,193.7,308.7,193.7,314.1z"/>
	<g>
		<rect x="231.1" y="237.7" class="st1" width="134" height="128.5"/>
		<rect x="231.1" y="171.7" class="st2" width="134" height="61.5"/>
		<rect x="202.3" y="9.8" class="st2" width="37.7" height="43.9"/>
		<rect x="16.1" y="171.7" class="st2" width="134" height="61.5"/>
		<polygon class="st2" points="259.1,146.1 125.1,146.1 175.1,104.7 209.1,104.7 		"/>
		<rect x="24.1" y="237.7" class="st1" width="134" height="128.5"/>
		<rect x="132.5" y="150.2" class="st3" width="134" height="212"/>
		<path class="st0" d="M10.4,242h0.4v117.4c0,6.6,5.3,11.9,11.9,11.9h339.4c6.6,0,11.9-5.3,11.9-11.9V242h0.4c2.3,0,4.6-0.7,6.5-2.1
			c3.1-2.4,4.5-6.3,3.7-10l-10.8-54.1c-0.9-4.7-5.1-8.1-9.9-8.1h-96.5v-6.8h0.4c3.9,0,7.5-2,9.3-5.5c2.3-4.6,0.9-10-3.1-12.8
			l-71.5-51.1v-28h44c5.6,0,10.1-4.5,10.1-10.1V10.1c0-5.6-4.5-10.1-10.1-10.1h-54.1c-5.6,0-10.1,4.5-10.1,10.1v81.4l-71.5,51.1
			c-4,2.9-5.4,8.3-3.1,12.8c1.8,3.4,5.4,5.5,9.3,5.5h0.4v6.8H20.9c-4.8,0-9,3.4-9.9,8.1L0.2,229.9c-0.7,3.7,0.6,7.6,3.7,10
			C5.8,241.3,8.1,242,10.4,242z M202.5,20.2h33.9v23.1h-33.9V20.2z M117.4,356.6H31V242h86.4V356.6z M203.9,356.6h-23.1v-33.9h23.1
			V356.6z M267.4,187.9h88.2l6.8,33.9h-95V187.9z M267.4,242h86.4v114.6h-86.4V242z M192.4,109.1l44.2,31.6h-88.4L192.4,109.1z
			 M137.6,160.9h109.6v195.7h-23.1v-44c0-5.6-4.5-10.1-10.1-10.1h-43.3c-5.6,0-10.1,4.5-10.1,10.1v44h-23.1V160.9z M29.2,187.9h88.2
			v33.9h-95L29.2,187.9z"/>
		<path class="st0" d="M284,318.8v13c0,2.2,1.8,3.9,3.9,3.9h12.2c2.2,0,3.9-1.8,3.9-3.9v-13c0-2.2-1.8-3.9-3.9-3.9h-12.2
			C285.8,314.9,284,316.7,284,318.8z"/>
		<path class="st0" d="M314,318.8v13c0,2.2,1.8,3.9,3.9,3.9h12.2c2.2,0,3.9-1.8,3.9-3.9v-13c0-2.2-1.8-3.9-3.9-3.9h-12.2
			C315.8,314.9,314,316.7,314,318.8z"/>
		<path class="st0" d="M49.2,318.8v13c0,2.2,1.8,3.9,3.9,3.9h12.2c2.2,0,3.9-1.8,3.9-3.9v-13c0-2.2-1.8-3.9-3.9-3.9H53.2
			C51,314.9,49.2,316.7,49.2,318.8z"/>
		<path class="st0" d="M79.2,318.8v13c0,2.2,1.8,3.9,3.9,3.9h12.2c2.2,0,3.9-1.8,3.9-3.9v-13c0-2.2-1.8-3.9-3.9-3.9H83.2
			C81,314.9,79.2,316.7,79.2,318.8z"/>
		<g>
			<path class="st0" d="M284,271.2v26.9c0,2.2,1.8,3.9,3.9,3.9h12.2c2.2,0,3.9-1.8,3.9-3.9v-26.9c0-5.5-4.5-10-10-10h0
				C288.5,261.2,284,265.7,284,271.2z"/>
			<path class="st0" d="M314,271.2v26.9c0,2.2,1.8,3.9,3.9,3.9h12.2c2.2,0,3.9-1.8,3.9-3.9v-26.9c0-5.5-4.5-10-10-10h0
				C318.5,261.2,314,265.7,314,271.2z"/>
			<path class="st0" d="M49.2,271.2v26.9c0,2.2,1.8,3.9,3.9,3.9h12.2c2.2,0,3.9-1.8,3.9-3.9v-26.9c0-5.5-4.5-10-10-10h0
				C53.7,261.2,49.2,265.7,49.2,271.2z"/>
			<path class="st0" d="M79.2,271.2v26.9c0,2.2,1.8,3.9,3.9,3.9h12.2c2.2,0,3.9-1.8,3.9-3.9v-26.9c0-5.5-4.5-10-10-10h0
				C83.7,261.2,79.2,265.7,79.2,271.2z"/>
			<path class="st0" d="M163.6,238.8v13c0,2.2,1.8,3.9,3.9,3.9h12.2c2.2,0,3.9-1.8,3.9-3.9v-13c0-2.2-1.8-3.9-3.9-3.9h-12.2
				C165.3,234.9,163.6,236.7,163.6,238.8z"/>
			<path class="st0" d="M199.6,238.8v13c0,2.2,1.8,3.9,3.9,3.9h12.2c2.2,0,3.9-1.8,3.9-3.9v-13c0-2.2-1.8-3.9-3.9-3.9h-12.2
				C201.3,234.9,199.6,236.7,199.6,238.8z"/>
			<path class="st0" d="M163.6,271.8v13c0,2.2,1.8,3.9,3.9,3.9h12.2c2.2,0,3.9-1.8,3.9-3.9v-13c0-2.2-1.8-3.9-3.9-3.9h-12.2
				C165.3,267.9,163.6,269.7,163.6,271.8z"/>
			<path class="st0" d="M199.6,271.8v13c0,2.2,1.8,3.9,3.9,3.9h12.2c2.2,0,3.9-1.8,3.9-3.9v-13c0-2.2-1.8-3.9-3.9-3.9h-12.2
				C201.3,267.9,199.6,269.7,199.6,271.8z"/>
			<path class="st0" d="M163.6,191.2v26.9c0,2.2,1.8,3.9,3.9,3.9h12.2c2.2,0,3.9-1.8,3.9-3.9v-26.9c0-5.5-4.5-10-10-10h0
				C168.1,181.2,163.6,185.7,163.6,191.2z"/>
			<path class="st0" d="M199.6,191.2v26.9c0,2.2,1.8,3.9,3.9,3.9h12.2c2.2,0,3.9-1.8,3.9-3.9v-26.9c0-5.5-4.5-10-10-10h0
				C204.1,181.2,199.6,185.7,199.6,191.2z"/>
		</g>
	</g>
</g>
</svg>
