<?xml version="1.0" encoding="utf-8"?>
<!-- Generator: Adobe Illustrator 23.0.1, SVG Export Plug-In . SVG Version: 6.00 Build 0)  -->
<svg version="1.1" id="Layer_1" xmlns="http://www.w3.org/2000/svg" xmlns:xlink="http://www.w3.org/1999/xlink" x="0px" y="0px"
	 viewBox="0 0 100 97.39" style="enable-background:new 0 0 100 97.39;" xml:space="preserve">
<style type="text/css">
	.st0{fill:#15D2A3;}
</style>
<g>
	<path class="st0" d="M86.39,30.19c-2.75-7.44-7.64-13.81-14.14-18.41c-6.65-4.71-14.48-7.2-22.65-7.2
		c-10.48,0-20.32,4.08-27.73,11.49c-6.98,6.98-11.05,16.26-11.45,26.1l-0.04,0.97l-0.8,0.55c-4,2.77-6.39,7.31-6.39,12.15v12.22
		c0,8.14,6.63,14.77,14.77,14.77h7.19c2.2,0,3.98-1.79,3.98-3.98V45.05c0-2.2-1.79-3.98-3.98-3.98h-6.77l0.36-2.25
		c2.41-14.98,15.68-26.27,30.85-26.27c13.02,0,24.8,8.2,29.32,20.41c0.37,1,1.1,1.79,2.07,2.24c0.97,0.45,2.05,0.49,3.05,0.12
		C86.1,34.55,87.15,32.25,86.39,30.19z M21.17,49.04v25.83h-3.21c-3.75,0-6.8-3.05-6.8-6.8V55.84c0-3.75,3.05-6.8,6.8-6.8H21.17z"/>
	<path class="st0" d="M78.15,82.83h3.09c8.14,0,14.77-6.63,14.77-14.77V55.84c0-8.14-6.63-14.77-14.77-14.77h-7.19
		c-2.2,0-3.98,1.79-3.98,3.98v37.57c0,1.77-1.44,3.21-3.21,3.21H56.11l-0.58-0.73c-1.45-1.82-3.61-2.86-5.93-2.86
		c-4.18,0-7.58,3.4-7.58,7.58c0,4.18,3.4,7.58,7.58,7.58c2.32,0,4.48-1.04,5.93-2.86l0.58-0.73h10.74c5.49,0,10.13-3.93,11.02-9.34
		L78.15,82.83z M78.03,49.04h3.21c3.75,0,6.8,3.05,6.8,6.8v12.22c0,3.75-3.05,6.8-6.8,6.8h-3.21V49.04z"/>
</g>
</svg>
