<?xml version="1.0" encoding="utf-8"?>
<!-- Generator: Adobe Illustrator 21.1.0, SVG Export Plug-In . SVG Version: 6.00 Build 0)  -->
<svg version="1.1" id="Capa_1" xmlns="http://www.w3.org/2000/svg" xmlns:xlink="http://www.w3.org/1999/xlink" x="0px" y="0px"
	 viewBox="0 0 618 355.2" style="enable-background:new 0 0 618 355.2;" xml:space="preserve">
<style type="text/css">
	.st0{fill:#2BD2A6;}
	.st1{fill:#4B5BA4;}
	.st2{fill:#DCDDF9;}
	.st3{fill:#EB6181;}
	.st4{fill:#FFFFFF;}
</style>
<g>
	<path class="st0" d="M580.7,353.3H369c-10.5,0-18.9-8.5-18.9-18.9V183c0-5.9,2.3-11.5,6.5-15.7L461.8,61.5c7.2-7.3,18.9-7.3,26.2,0
		l105.2,105.8c4.2,4.2,6.5,9.8,6.5,15.7v151.3C599.7,344.8,591.2,353.3,580.7,353.3z"/>
	<g>
		<path class="st1" d="M42,194.4L42,194.4c-5,0-9-4-9-9v0c0-5,4-9,9-9h0c5,0,9,4,9,9v0C51,190.4,46.9,194.4,42,194.4z"/>
		<path class="st1" d="M42,250.3L42,250.3c-5,0-9-4-9-9v0c0-5,4-9,9-9h0c5,0,9,4,9,9v0C51,246.3,46.9,250.3,42,250.3z"/>
		<path class="st1" d="M42,306.2L42,306.2c-5,0-9-4-9-9v0c0-5,4-9,9-9h0c5,0,9,4,9,9v0C51,302.2,46.9,306.2,42,306.2z"/>
		<path class="st1" d="M102,194.4L102,194.4c-5,0-9-4-9-9v0c0-5,4-9,9-9h0c5,0,9,4,9,9v0C111,190.4,107,194.4,102,194.4z"/>
		<path class="st1" d="M102,250.3L102,250.3c-5,0-9-4-9-9v0c0-5,4-9,9-9h0c5,0,9,4,9,9v0C111,246.3,107,250.3,102,250.3z"/>
		<path class="st1" d="M102,306.2L102,306.2c-5,0-9-4-9-9v0c0-5,4-9,9-9h0c5,0,9,4,9,9v0C111,302.2,107,306.2,102,306.2z"/>
		<path class="st1" d="M162,194.4L162,194.4c-5,0-9-4-9-9v0c0-5,4-9,9-9h0c5,0,9,4,9,9v0C171,190.4,167,194.4,162,194.4z"/>
		<path class="st1" d="M162,250.3L162,250.3c-5,0-9-4-9-9v0c0-5,4-9,9-9h0c5,0,9,4,9,9v0C171,246.3,167,250.3,162,250.3z"/>
		<path class="st1" d="M162,306.2L162,306.2c-5,0-9-4-9-9v0c0-5,4-9,9-9h0c5,0,9,4,9,9v0C171,302.2,167,306.2,162,306.2z"/>
	</g>
	<path class="st1" d="M610.2,339.7H7.8c-4.3,0-7.8,3.5-7.8,7.8l0,0c0,4.3,3.5,7.8,7.8,7.8h602.5c4.3,0,7.8-3.5,7.8-7.8l0,0
		C618,343.2,614.5,339.7,610.2,339.7z"/>
	<g>
		<g>
			<g>
				<g>
					<polygon class="st2" points="317.5,137.1 310.6,168 325.3,211.6 344.2,233.1 328,239.4 377.8,307.1 431.8,236.8 405.1,231.5 
						435.5,204.8 448.6,146.5 437.6,135 					"/>
					<path class="st2" d="M506.9,340.9V294c0-32.8-26.6-59.4-59.4-59.4h-26.1c-11.1,21-18.8,45-41.1,56.9c-1.9,1-4.5,0.5-5.5-1.5
						c-10.1-18.4-20.9-37.5-37.4-51c-1.7-1.4-1.7-3.1-0.8-4.5h-21c-32.8,0-59.4,26.6-59.4,59.4v46.9H506.9z"/>
					<rect x="316.8" y="55.8" class="st3" width="127" height="77.7"/>
					<path class="st1" d="M245.7,303.1v37.8h18.6v-37.8c0-32.1,24-58.6,55.1-62.6l62,83.8l62-83.8c31,4,55.1,30.6,55.1,62.6v37.8
						h18.6v-37.8c0-45.1-36.7-81.7-81.7-81.7h-6.5c15.8-13.8,25.8-34.1,25.8-56.7V66h17.2v53.3h18.6V66h16.4V47.4H255.9V66H304v98.8
						c0,22.6,10,42.9,25.8,56.7h-2.4C282.4,221.4,245.7,258.1,245.7,303.1z M381.3,293.1L342.1,240h78.5L381.3,293.1z M322.6,66
						h113.3v61.3H322.6V66z M322.6,164.8v-18.9h113.3v18.9c0,31.2-25.4,56.7-56.7,56.7S322.6,196,322.6,164.8z"/>
					<path class="st1" d="M459.2,340.9v-24.6c0-5.1-4.2-9.3-9.3-9.3s-9.3,4.2-9.3,9.3v24.6H459.2z"/>
					<path class="st1" d="M503.7,340.9v-1h-49.1c-1.5,0-2.9,0.4-4.2,1H503.7z"/>
					<path class="st1" d="M313.5,340.9v-1h-49.1c-1.5,0-2.9,0.4-4.2,1H313.5z"/>
					<path class="st1" d="M322.1,340.9v-24.6c0-5.1-4.2-9.3-9.3-9.3s-9.3,4.2-9.3,9.3v24.6H322.1z"/>
				</g>
			</g>
			<path class="st1" d="M382.8,340.9c-1.5-1-3.3-1.6-5.3-1.6s-3.8,0.6-5.3,1.6H382.8z"/>
		</g>
		<g>
			<g>
				<g>
					<polygon class="st2" points="202,137.1 195.2,168 209.9,211.6 228.8,233.1 212.5,239.4 262.4,307.1 316.4,236.8 289.6,231.5 
						320.1,204.8 333.2,146.5 322.2,135 					"/>
					<path class="st2" d="M391.5,340.9V294c0-32.8-26.6-59.4-59.4-59.4H306c-11.1,21-18.8,45-41.1,56.9c-1.9,1-4.5,0.5-5.5-1.5
						c-10.1-18.4-20.9-37.5-37.4-51c-1.7-1.4-1.7-3.1-0.8-4.5h-21c-32.8,0-59.4,26.6-59.4,59.4v46.9H391.5z"/>
					<rect x="201.4" y="55.8" class="st3" width="127" height="77.7"/>
					<path class="st1" d="M130.3,303.1v37.8h18.6v-37.8c0-32.1,24-58.6,55.1-62.6l62,83.8l62-83.8c31,4,55.1,30.6,55.1,62.6v37.8
						h18.6v-37.8c0-45.1-36.7-81.7-81.7-81.7h-6.5c15.8-13.8,25.8-34.1,25.8-56.7V66h17.2v53.3h18.6V66h16.4V47.4H140.5V66h48.1
						v98.8c0,22.6,10,42.9,25.8,56.7H212C167,221.4,130.3,258.1,130.3,303.1z M265.9,293.1L226.6,240h78.5L265.9,293.1z M207.2,66
						h113.3v61.3H207.2V66z M207.2,164.8v-18.9h113.3v18.9c0,31.2-25.4,56.7-56.7,56.7S207.2,196,207.2,164.8z"/>
					<path class="st1" d="M343.8,340.9v-24.6c0-5.1-4.2-9.3-9.3-9.3s-9.3,4.2-9.3,9.3v24.6H343.8z"/>
					<path class="st1" d="M388.3,340.9v-1h-49.1c-1.5,0-2.9,0.4-4.2,1H388.3z"/>
					<path class="st1" d="M198.1,340.9v-1H149c-1.5,0-2.9,0.4-4.2,1H198.1z"/>
					<path class="st1" d="M206.7,340.9v-24.6c0-5.1-4.2-9.3-9.3-9.3c-5.1,0-9.3,4.2-9.3,9.3v24.6H206.7z"/>
				</g>
			</g>
			<path class="st1" d="M267.4,340.9c-1.5-1-3.3-1.6-5.3-1.6s-3.8,0.6-5.3,1.6H267.4z"/>
		</g>
		<g>
			<g>
				<g>
					<polygon class="st2" points="260.6,89.7 253.8,120.6 268.5,164.2 287.4,185.7 271.1,192 320.9,259.7 375,189.4 348.2,184.1 
						378.6,157.4 391.8,99.1 380.7,87.6 					"/>
					<path class="st4" d="M390.6,187.2h-26.1c-11.1,21-18.8,45-41.1,56.9c-1.9,1-4.5,0.5-5.5-1.5c-10.1-18.4-20.9-37.5-37.4-51
						c-1.7-1.4-1.7-3.1-0.8-4.5h-21c-32.8,0-59.4,26.6-59.4,59.4v98.9h250.8v-98.9C450.1,213.8,423.5,187.2,390.6,187.2z"/>
					<rect x="199.2" y="307.8" class="st2" width="51.1" height="37.6"/>
					<path class="st2" d="M448.4,305.3h-50.9c0,0.1,0,0.2,0,0.3v39.9h52.5V305C449.6,305.2,449,305.3,448.4,305.3z"/>
					<rect x="259.9" y="8.4" class="st3" width="127" height="77.7"/>
					<path class="st1" d="M188.9,255.8v98.1h271.2v-98.1c0-45.1-36.7-81.7-81.7-81.7h-6.5c15.8-13.8,25.8-34.1,25.8-56.7V18.6h17.2
						v53.3h18.6V18.6h16.4V0H199.1v18.6h48.1v98.8c0,22.6,10,42.9,25.8,56.7h-2.4C225.5,174,188.9,210.7,188.9,255.8z M265.7,18.6
						h113.3v61.3H265.7V18.6z M265.7,117.4V98.5h113.3v18.9c0,31.2-25.4,56.7-56.7,56.7S265.7,148.6,265.7,117.4z M363.7,192.6
						l-39.3,53.1l-39.3-53.1H363.7z M324.5,276.9l62-83.8c31,4,55.1,30.6,55.1,62.6v82.1H207.4v-82.1c0-32.1,24-58.6,55.1-62.6
						L324.5,276.9z"/>
					<path class="st1" d="M362.9,353.8h36.5c1.8-1.7,2.9-4.1,2.9-6.7V269c0-5.1-4.2-9.3-9.3-9.3c-5.1,0-9.3,4.2-9.3,9.3v68.9h-14.5
						c-5.1,0-9.3,4.2-9.3,9.3v0C360,349.7,361.1,352.1,362.9,353.8z"/>
					<path class="st1" d="M446.9,292.5h-49.1c-5.1,0-9.3,4.2-9.3,9.3v0c0,5.1,4.2,9.3,9.3,9.3h49.1V292.5z"/>
					<path class="st1" d="M256.7,292.5h-49.1c-5.1,0-9.3,4.2-9.3,9.3v0c0,5.1,4.2,9.3,9.3,9.3h49.1V292.5z"/>
					<path class="st1" d="M249.6,353.8h36.5c1.8-1.7,2.9-4.1,2.9-6.7v0c0-5.1-4.2-9.3-9.3-9.3h-14.5V269c0-5.1-4.2-9.3-9.3-9.3
						s-9.3,4.2-9.3,9.3v78.1C246.7,349.7,247.8,352.1,249.6,353.8z"/>
				</g>
			</g>
			<path class="st1" d="M311.4,331.5v3.8c0,5.1,4.2,9.3,9.3,9.3h0c5.1,0,9.3-4.2,9.3-9.3v-3.8c0-5.1-4.2-9.3-9.3-9.3h0
				C315.5,322.2,311.4,326.4,311.4,331.5z"/>
			<path class="st1" d="M311.4,301.2v3.8c0,5.1,4.2,9.3,9.3,9.3h0c5.1,0,9.3-4.2,9.3-9.3v-3.8c0-5.1-4.2-9.3-9.3-9.3h0
				C315.5,291.9,311.4,296,311.4,301.2z"/>
		</g>
	</g>
</g>
</svg>
