<?xml version="1.0" standalone="no"?>
<!DOCTYPE svg PUBLIC "-//W3C//DTD SVG 20010904//EN"
 "http://www.w3.org/TR/2001/REC-SVG-20010904/DTD/svg10.dtd">
<svg version="1.0" xmlns="http://www.w3.org/2000/svg"
 width="819.000000pt" height="194.000000pt" viewBox="0 0 819.000000 194.000000"
 preserveAspectRatio="xMidYMid meet">
<metadata>
Created by potrace 1.16, written by Peter Selinger 2001-2019
</metadata>
<g transform="translate(0.000000,194.000000) scale(0.100000,-0.100000)"
fill="#000000" stroke="none">
<path d="M5010 1030 l0 -320 50 0 49 0 3 91 3 90 78 -90 79 -91 65 0 65 0
-106 116 -106 116 82 86 82 87 -64 3 -64 3 -58 -63 -57 -63 -1 178 0 177 -50
0 -50 0 0 -320z"/>
<path d="M5930 1030 l0 -320 50 0 50 0 0 320 0 320 -50 0 -50 0 0 -320z"/>
<path d="M4654 1111 c-45 -28 -64 -59 -64 -109 0 -34 6 -49 28 -72 25 -25 112
-60 148 -60 14 0 44 -27 44 -40 0 -20 -34 -40 -70 -40 -29 0 -43 6 -58 25 -16
20 -29 25 -65 25 l-46 0 10 -32 c29 -107 205 -141 289 -57 25 25 30 39 30 78
0 75 -32 106 -138 131 -75 17 -98 43 -66 74 21 22 56 20 87 -4 34 -27 107 -28
107 -1 0 27 -39 71 -76 87 -48 20 -123 18 -160 -5z"/>
<path d="M6543 1111 c-18 -12 -33 -25 -33 -31 0 -5 -4 -10 -10 -10 -5 0 -10
11 -10 25 0 23 -3 25 -50 25 l-50 0 0 -205 0 -205 50 0 50 0 0 131 0 131 29
29 c20 19 40 29 59 29 78 0 92 -30 92 -195 l0 -125 50 0 50 0 0 141 c0 159
-10 206 -51 245 -39 38 -128 45 -176 15z"/>
<path d="M6980 1108 c-129 -69 -149 -257 -38 -352 83 -71 213 -70 291 3 l40
38 -36 22 -35 22 -39 -27 c-32 -22 -46 -25 -87 -21 -40 4 -55 11 -78 36 -15
17 -28 36 -28 41 0 5 66 11 158 12 l157 3 -1 50 c-3 113 -77 187 -193 193 -55
3 -74 -1 -111 -20z m145 -72 c36 -15 71 -59 60 -76 -10 -16 -215 -13 -215 3 0
22 32 59 64 73 40 17 49 17 91 0z"/>
<path d="M5429 1098 c5 -13 41 -98 80 -189 l70 -167 -44 -111 c-25 -61 -45
-113 -45 -116 0 -4 23 -5 52 -3 l52 3 123 295 c67 162 123 299 123 303 0 4
-23 7 -52 5 l-52 -3 -49 -122 c-27 -68 -52 -123 -56 -123 -3 0 -28 56 -55 125
l-49 125 -53 0 c-51 0 -53 -1 -45 -22z"/>
<path d="M6160 915 l0 -205 50 0 50 0 0 205 0 205 -50 0 -50 0 0 -205z"/>
</g>
</svg>
