<?xml version="1.0" encoding="utf-8"?>
<!-- Generator: Adobe Illustrator 22.0.1, SVG Export Plug-In . SVG Version: 6.00 Build 0)  -->
<svg version="1.1" id="Capa_1" xmlns="http://www.w3.org/2000/svg" xmlns:xlink="http://www.w3.org/1999/xlink" x="0px" y="0px"
	 viewBox="0 0 73.6 100" style="enable-background:new 0 0 73.6 100;" xml:space="preserve">
<style type="text/css">
	.st0{fill:#4B5BA4;}
	.st1{fill:#47D7E2;}
	.st2{fill:#FFFFFF;}
</style>
<path class="st0" d="M37.7,100L37.7,100c3.7,0,7.2-2,9-5.2l22-38.8c12.3-21.7,0.7-50-23.7-55.1C42.2,0.3,39.4,0,36.6,0
	c-0.7,0-1.4,0-2.1,0.1C6.7,1.5-9,32.8,5.5,56.5L28.8,95C30.7,98.1,34,100,37.7,100z"/>
<path class="st1" d="M36.6,23c0,0,0.1,0,0.2,0c0.1,0,0.2,0,0.2,0s-0.1,0-0.2,0C36.7,23,36.6,23,36.6,23z"/>
<path class="st2" d="M54.4,35.9c0,9.7-7.9,17.6-17.6,17.6s-17.6-7.9-17.6-17.6s7.9-17.6,17.6-17.6S54.4,26.2,54.4,35.9z"/>
</svg>
