<?xml version="1.0" encoding="utf-8"?>
<!-- Generator: Adobe Illustrator 23.0.1, SVG Export Plug-In . SVG Version: 6.00 Build 0)  -->
<svg version="1.1" id="Layer_1" xmlns="http://www.w3.org/2000/svg" xmlns:xlink="http://www.w3.org/1999/xlink" x="0px" y="0px"
	 viewBox="0 0 100 99.11" style="enable-background:new 0 0 100 99.11;" xml:space="preserve">
<style type="text/css">
	.st0{fill:#15D2A3;}
</style>
<g>
	<path class="st0" d="M63.59,18.82H35.9c-1.87,0-3.38,1.52-3.38,3.38s1.52,3.38,3.38,3.38h27.69c1.87,0,3.38-1.52,3.38-3.38
		S65.45,18.82,63.59,18.82z"/>
	<path class="st0" d="M63.59,36H35.9c-1.87,0-3.38,1.52-3.38,3.38c0,1.87,1.52,3.38,3.38,3.38h27.69c1.87,0,3.38-1.52,3.38-3.38
		C66.97,37.52,65.45,36,63.59,36z"/>
	<path class="st0" d="M100,38.06c-0.02-1.12-0.57-2.19-1.47-2.86L82.67,23.43V3.65c0-2.01-1.64-3.65-3.65-3.65H21.88
		c-2.01,0-3.65,1.64-3.65,3.65v19.78L2.37,35.19c-0.92,0.69-1.47,1.78-1.47,2.93v57.33c0,2.01,1.64,3.65,3.65,3.65h91.81
		c2.01,0,3.65-1.64,3.65-3.65V38.12L100,38.06z M10.65,38.13l7.58-5.62v11.28L10.65,38.13z M82.67,43.79V32.52l7.58,5.62
		L82.67,43.79z M50.45,67.86c-0.65-0.49-2.01-1.51-4.4-3.29L25.52,49.24V7.3h49.85v41.95L50.45,67.86z M15.88,80.92
		c-0.78,0.59-1.29,1.44-1.42,2.4c-0.14,0.96,0.11,1.92,0.69,2.71c1.21,1.61,3.5,1.94,5.11,0.73l21.61-16.21l6.4,4.78
		c1.27,0.95,3.09,0.95,4.37,0l6.4-4.78l21.61,16.21c0.78,0.59,1.74,0.83,2.71,0.69c0.96-0.14,1.81-0.64,2.4-1.42
		c0.58-0.78,0.83-1.74,0.69-2.71c-0.14-0.96-0.64-1.82-1.42-2.4L65.12,66L92.7,45.4v46.41H8.19V45.4L35.77,66L15.88,80.92z"/>
</g>
</svg>
