<?xml version="1.0" encoding="utf-8"?>
<!-- Generator: Adobe Illustrator 23.0.1, SVG Export Plug-In . SVG Version: 6.00 Build 0)  -->
<svg version="1.1" id="Capa_1" xmlns="http://www.w3.org/2000/svg" xmlns:xlink="http://www.w3.org/1999/xlink" x="0px" y="0px"
	 viewBox="0 0 384.82 379.39" style="enable-background:new 0 0 384.82 379.39;" xml:space="preserve">
<style type="text/css">
	.st0{fill:#4C5DA2;}
	.st1{fill:#FFFFFF;}
	.st2{fill:#17D3A5;}
	.st3{fill:#DCDDF9;}
</style>
<g>
	<g>
		<path class="st0" d="M20.03,216.69L20.03,216.69c-4.97,0-9-4.03-9-9v0c0-4.97,4.03-9,9-9h0c4.97,0,9,4.03,9,9v0
			C29.03,212.66,25,216.69,20.03,216.69z"/>
		<path class="st0" d="M20.03,272.58L20.03,272.58c-4.97,0-9-4.03-9-9l0,0c0-4.97,4.03-9,9-9h0c4.97,0,9,4.03,9,9l0,0
			C29.03,268.55,25,272.58,20.03,272.58z"/>
		<path class="st0" d="M20.03,328.47L20.03,328.47c-4.97,0-9-4.03-9-9l0,0c0-4.97,4.03-9,9-9h0c4.97,0,9,4.03,9,9l0,0
			C29.03,324.44,25,328.47,20.03,328.47z"/>
	</g>
	<path class="st0" d="M193.74,351.19v4.05c0,5.41,4.39,9.8,9.8,9.8h0c5.41,0,9.8-4.39,9.8-9.8v-4.05c0-5.41-4.39-9.8-9.8-9.8h0
		C198.12,341.39,193.74,345.78,193.74,351.19z"/>
	<path class="st0" d="M193.74,319.19v4.05c0,5.41,4.39,9.8,9.8,9.8h0c5.41,0,9.8-4.39,9.8-9.8v-4.05c0-5.41-4.39-9.8-9.8-9.8h0
		C198.12,309.39,193.74,313.78,193.74,319.19z"/>
	<g>
		<polygon class="st1" points="365.14,373.31 231.11,371.31 231.11,242.8 365.14,242.8 		"/>
		<rect x="231.11" y="176.8" class="st2" width="134.03" height="61.46"/>
		<rect x="202.3" y="14.94" class="st2" width="37.7" height="43.86"/>
		<rect x="16.11" y="176.8" class="st2" width="134.03" height="61.46"/>
		<polygon class="st2" points="259.14,151.27 125.11,151.27 175.11,109.8 209.14,109.8 		"/>
		<rect x="24.11" y="242.8" class="st1" width="134.03" height="130.51"/>
		<rect x="132.46" y="155.28" class="st3" width="134.03" height="212.03"/>
		<path class="st0" d="M10.41,247.15l0.41,0v117.77c0,7.99,6.48,14.47,14.47,14.47h334.23c7.99,0,14.47-6.48,14.47-14.47V247.15
			l0.41,0c2.32,0,4.63-0.68,6.47-2.1c3.1-2.39,4.49-6.28,3.75-9.99l-10.82-54.1c-0.94-4.72-5.09-8.12-9.91-8.12h-96.46v-6.85h0.41
			c3.86,0,7.54-2.04,9.29-5.48c2.32-4.55,0.91-9.97-3.11-12.84l-71.51-51.08V68.61h44c5.58,0,10.1-4.52,10.1-10.1V15.23
			c0-5.58-4.52-10.1-10.1-10.1h-54.1c-5.58,0-10.1,4.52-10.1,10.1v81.36l-71.51,51.08c-4.02,2.87-5.44,8.29-3.11,12.84
			c1.76,3.44,5.43,5.48,9.29,5.48h0.41v6.85H20.92c-4.81,0-8.96,3.4-9.9,8.12L0.2,235.06c-0.74,3.71,0.64,7.59,3.74,9.99
			C5.78,246.47,8.08,247.15,10.41,247.15z M202.51,25.33h33.9v23.08h-33.9V25.33z M117.38,361.74H31.02V247.15h86.36V361.74z
			 M203.95,361.74h-23.08v-33.9h23.08V361.74z M267.43,193.05h88.18l6.78,33.9h-94.96V193.05z M267.43,247.15h86.36v114.59h-86.36
			V247.15z M192.41,114.21l44.22,31.58h-88.44L192.41,114.21z M137.59,165.99h109.64v195.74h-23.08v-44c0-5.58-4.52-10.1-10.1-10.1
			h-43.28c-5.58,0-10.1,4.52-10.1,10.1v44h-23.08V165.99z M29.2,193.05h88.18v33.9H22.42L29.2,193.05z"/>
		<path class="st0" d="M284,323.97v12.99c0,2.17,1.76,3.92,3.92,3.92h12.15c2.17,0,3.92-1.76,3.92-3.92v-12.99
			c0-2.17-1.76-3.92-3.92-3.92h-12.15C285.75,320.05,284,321.81,284,323.97z"/>
		<path class="st0" d="M314,323.97v12.99c0,2.17,1.76,3.92,3.92,3.92h12.15c2.17,0,3.92-1.76,3.92-3.92v-12.99
			c0-2.17-1.76-3.92-3.92-3.92h-12.15C315.75,320.05,314,321.81,314,323.97z"/>
		<path class="st0" d="M49.25,323.97v12.99c0,2.17,1.76,3.92,3.92,3.92h12.15c2.17,0,3.92-1.76,3.92-3.92v-12.99
			c0-2.17-1.76-3.92-3.92-3.92H53.17C51,320.05,49.25,321.81,49.25,323.97z"/>
		<path class="st0" d="M79.25,323.97v12.99c0,2.17,1.76,3.92,3.92,3.92h12.15c2.17,0,3.92-1.76,3.92-3.92v-12.99
			c0-2.17-1.76-3.92-3.92-3.92H83.17C81,320.05,79.25,321.81,79.25,323.97z"/>
		<g>
			<path class="st0" d="M284,276.3v26.91c0,2.17,1.76,3.92,3.92,3.92h12.15c2.17,0,3.92-1.76,3.92-3.92V276.3c0-5.52-4.48-10-10-10
				h0C288.48,266.3,284,270.78,284,276.3z"/>
			<path class="st0" d="M314,276.3v26.91c0,2.17,1.76,3.92,3.92,3.92h12.15c2.17,0,3.92-1.76,3.92-3.92V276.3c0-5.52-4.48-10-10-10
				h0C318.48,266.3,314,270.78,314,276.3z"/>
			<path class="st0" d="M49.25,276.3v26.91c0,2.17,1.76,3.92,3.92,3.92h12.15c2.17,0,3.92-1.76,3.92-3.92V276.3
				c0-5.52-4.48-10-10-10h0C53.73,266.3,49.25,270.78,49.25,276.3z"/>
			<path class="st0" d="M79.25,276.3v26.91c0,2.17,1.76,3.92,3.92,3.92h12.15c2.17,0,3.92-1.76,3.92-3.92V276.3
				c0-5.52-4.48-10-10-10h0C83.73,266.3,79.25,270.78,79.25,276.3z"/>
			<path class="st0" d="M163.58,243.97v12.99c0,2.17,1.76,3.92,3.92,3.92h12.15c2.17,0,3.92-1.76,3.92-3.92v-12.99
				c0-2.17-1.76-3.92-3.92-3.92H167.5C165.34,240.05,163.58,241.81,163.58,243.97z"/>
			<path class="st0" d="M199.58,243.97v12.99c0,2.17,1.76,3.92,3.92,3.92h12.15c2.17,0,3.92-1.76,3.92-3.92v-12.99
				c0-2.17-1.76-3.92-3.92-3.92H203.5C201.34,240.05,199.58,241.81,199.58,243.97z"/>
			<path class="st0" d="M163.58,276.97v12.99c0,2.17,1.76,3.92,3.92,3.92h12.15c2.17,0,3.92-1.76,3.92-3.92v-12.99
				c0-2.17-1.76-3.92-3.92-3.92H167.5C165.34,273.05,163.58,274.81,163.58,276.97z"/>
			<path class="st0" d="M199.58,276.97v12.99c0,2.17,1.76,3.92,3.92,3.92h12.15c2.17,0,3.92-1.76,3.92-3.92v-12.99
				c0-2.17-1.76-3.92-3.92-3.92H203.5C201.34,273.05,199.58,274.81,199.58,276.97z"/>
			<path class="st0" d="M163.58,196.3v26.91c0,2.17,1.76,3.92,3.92,3.92h12.15c2.17,0,3.92-1.76,3.92-3.92V196.3
				c0-5.52-4.48-10-10-10h0C168.06,186.3,163.58,190.78,163.58,196.3z"/>
			<path class="st0" d="M199.58,196.3v26.91c0,2.17,1.76,3.92,3.92,3.92h12.15c2.17,0,3.92-1.76,3.92-3.92V196.3
				c0-5.52-4.48-10-10-10h0C204.06,186.3,199.58,190.78,199.58,196.3z"/>
		</g>
	</g>
</g>
</svg>
