<?xml version="1.0" encoding="utf-8"?>
<!-- Generator: Adobe Illustrator 23.0.4, SVG Export Plug-In . SVG Version: 6.00 Build 0)  -->
<svg version="1.0" id="Capa_1" xmlns="http://www.w3.org/2000/svg" xmlns:xlink="http://www.w3.org/1999/xlink" x="0px" y="0px"
	 viewBox="0 0 603.7 372.4" style="enable-background:new 0 0 603.7 372.4;" xml:space="preserve">
<style type="text/css">
	.st0{fill:#2BD2A6;}
	.st1{fill:#4467C6;}
	.st2{fill:#FFFFFF;}
	.st3{fill:#DCDDF9;}
	.st4{fill:#17D3A5;}
	.st5{fill:#4B5BA4;}
	.st6{fill:#EB6181;}
	.st7{opacity:0.31;fill:#DCDDF9;}
</style>
<g>
	<path class="st0" d="M1277.1,746.2h-211.7c-10.5,0-18.9-8.5-18.9-18.9V576c0-5.9,2.3-11.5,6.5-15.7l105.2-105.8
		c7.2-7.3,18.9-7.3,26.2,0l105.2,105.8c4.2,4.2,6.5,9.8,6.5,15.7v151.3C1296,737.7,1287.5,746.2,1277.1,746.2z"/>
	<g>
		<path class="st1" d="M738.3,587.4L738.3,587.4c-5,0-9-4-9-9l0,0c0-5,4-9,9-9l0,0c5,0,9,4,9,9l0,0
			C747.3,583.4,743.3,587.4,738.3,587.4z"/>
		<path class="st1" d="M738.3,643.3L738.3,643.3c-5,0-9-4-9-9l0,0c0-5,4-9,9-9l0,0c5,0,9,4,9,9l0,0
			C747.3,639.3,743.3,643.3,738.3,643.3z"/>
		<path class="st1" d="M738.3,699.2L738.3,699.2c-5,0-9-4-9-9l0,0c0-5,4-9,9-9l0,0c5,0,9,4,9,9l0,0
			C747.3,695.1,743.3,699.2,738.3,699.2z"/>
		<path class="st1" d="M798.3,587.4L798.3,587.4c-5,0-9-4-9-9l0,0c0-5,4-9,9-9l0,0c5,0,9,4,9,9l0,0
			C807.3,583.4,803.3,587.4,798.3,587.4z"/>
		<path class="st1" d="M798.3,643.3L798.3,643.3c-5,0-9-4-9-9l0,0c0-5,4-9,9-9l0,0c5,0,9,4,9,9l0,0
			C807.3,639.3,803.3,643.3,798.3,643.3z"/>
		<path class="st1" d="M798.3,699.2L798.3,699.2c-5,0-9-4-9-9l0,0c0-5,4-9,9-9l0,0c5,0,9,4,9,9l0,0
			C807.3,695.1,803.3,699.2,798.3,699.2z"/>
		<path class="st1" d="M858.3,587.4L858.3,587.4c-5,0-9-4-9-9l0,0c0-5,4-9,9-9l0,0c5,0,9,4,9,9l0,0
			C867.3,583.4,863.3,587.4,858.3,587.4z"/>
		<path class="st1" d="M858.3,643.3L858.3,643.3c-5,0-9-4-9-9l0,0c0-5,4-9,9-9l0,0c5,0,9,4,9,9l0,0
			C867.3,639.3,863.3,643.3,858.3,643.3z"/>
		<path class="st1" d="M858.3,699.2L858.3,699.2c-5,0-9-4-9-9l0,0c0-5,4-9,9-9l0,0c5,0,9,4,9,9l0,0
			C867.3,695.1,863.3,699.2,858.3,699.2z"/>
	</g>
	<path class="st1" d="M1032,721.9v4.1c0,5.4,4.4,9.8,9.8,9.8l0,0c5.4,0,9.8-4.4,9.8-9.8v-4.1c0-5.4-4.4-9.8-9.8-9.8l0,0
		C1036.4,712.1,1032,716.5,1032,721.9z"/>
	<path class="st1" d="M1032,689.9v4.1c0,5.4,4.4,9.8,9.8,9.8l0,0c5.4,0,9.8-4.4,9.8-9.8v-4.1c0-5.4-4.4-9.8-9.8-9.8l0,0
		C1036.4,680.1,1032,684.5,1032,689.9z"/>
	<path class="st1" d="M1306.6,732.7H704.1c-4.3,0-7.8,3.5-7.8,7.8l0,0c0,4.3,3.5,7.8,7.8,7.8h602.5c4.3,0,7.8-3.5,7.8-7.8l0,0
		C1314.3,736.2,1310.8,732.7,1306.6,732.7z"/>
	<g>
		<rect x="1069.4" y="613.5" class="st2" width="134" height="128.5"/>
		<rect x="1069.4" y="547.5" class="st0" width="134" height="61.5"/>
		<rect x="1040.6" y="385.6" class="st0" width="37.7" height="43.9"/>
		<rect x="854.4" y="547.5" class="st0" width="134" height="61.5"/>
		<polygon class="st0" points="1097.4,522 963.4,522 1013.4,480.5 1047.4,480.5 		"/>
		<rect x="862.4" y="613.5" class="st2" width="134" height="128.5"/>
		<rect x="970.8" y="526" class="st3" width="134" height="212"/>
		<path class="st1" d="M848.4,617.9h0.7v125.2h363.2V617.9h0.7c3,0,5.9-1.4,7.8-3.7c1.9-2.3,2.7-5.4,2.1-8.4l-10.8-54.1
			c-0.9-4.7-5.1-8.1-9.9-8.1h-96.5v-6.8h0.7c4.4,0,8.3-2.8,9.6-7c1.3-4.2-0.2-8.8-3.7-11.3l-71.5-51.1v-28h44
			c5.6,0,10.1-4.5,10.1-10.1v-43.3c0-5.6-4.5-10.1-10.1-10.1h-54.1c-5.6,0-10.1,4.5-10.1,10.1v81.4l-71.5,51.1
			c-3.6,2.6-5.1,7.1-3.7,11.3c1.3,4.2,5.2,7,9.6,7h0.7v6.8h-96.5c-4.8,0-9,3.4-9.9,8.1l-10.8,54.1c-0.6,3,0.2,6,2.1,8.4
			C842.5,616.5,845.4,617.9,848.4,617.9z M1040.8,396h33.9v23.1h-33.9V396z M955.7,732.4h-86.4V617.9h86.4V732.4z M1042.2,732.4
			h-23.1v-33.9h23.1V732.4z M1105.7,563.7h88.2l6.8,33.9h-95V563.7z M1105.7,617.9h86.4v114.6h-86.4V617.9z M1030.7,484.9l44.2,31.6
			h-88.4L1030.7,484.9z M975.9,536.7h109.6v195.7h-23.1v-44c0-5.6-4.5-10.1-10.1-10.1h-43.3c-5.6,0-10.1,4.5-10.1,10.1v44h-23.1
			V536.7z M867.5,563.7h88.2v33.9h-95L867.5,563.7z"/>
		<path class="st1" d="M1122.3,694.7v13c0,2.2,1.8,3.9,3.9,3.9h12.2c2.2,0,3.9-1.8,3.9-3.9v-13c0-2.2-1.8-3.9-3.9-3.9h-12.2
			C1124,690.8,1122.3,692.5,1122.3,694.7z"/>
		<path class="st1" d="M1152.3,694.7v13c0,2.2,1.8,3.9,3.9,3.9h12.2c2.2,0,3.9-1.8,3.9-3.9v-13c0-2.2-1.8-3.9-3.9-3.9h-12.2
			C1154,690.8,1152.3,692.5,1152.3,694.7z"/>
		<path class="st1" d="M887.5,694.7v13c0,2.2,1.8,3.9,3.9,3.9h12.2c2.2,0,3.9-1.8,3.9-3.9v-13c0-2.2-1.8-3.9-3.9-3.9h-12.2
			C889.3,690.8,887.5,692.5,887.5,694.7z"/>
		<path class="st1" d="M917.5,694.7v13c0,2.2,1.8,3.9,3.9,3.9h12.2c2.2,0,3.9-1.8,3.9-3.9v-13c0-2.2-1.8-3.9-3.9-3.9h-12.2
			C919.3,690.8,917.5,692.5,917.5,694.7z"/>
		<g>
			<path class="st1" d="M1122.3,647v26.9c0,2.2,1.8,3.9,3.9,3.9h12.2c2.2,0,3.9-1.8,3.9-3.9V647c0-5.5-4.5-10-10-10h0
				C1126.8,637,1122.3,641.5,1122.3,647z"/>
			<path class="st1" d="M1152.3,647v26.9c0,2.2,1.8,3.9,3.9,3.9h12.2c2.2,0,3.9-1.8,3.9-3.9V647c0-5.5-4.5-10-10-10h0
				C1156.8,637,1152.3,641.5,1152.3,647z"/>
			<path class="st1" d="M887.5,647v26.9c0,2.2,1.8,3.9,3.9,3.9h12.2c2.2,0,3.9-1.8,3.9-3.9V647c0-5.5-4.5-10-10-10l0,0
				C892,637,887.5,641.5,887.5,647z"/>
			<path class="st1" d="M917.5,647v26.9c0,2.2,1.8,3.9,3.9,3.9h12.2c2.2,0,3.9-1.8,3.9-3.9V647c0-5.5-4.5-10-10-10l0,0
				C922,637,917.5,641.5,917.5,647z"/>
			<path class="st1" d="M1001.9,614.7v13c0,2.2,1.8,3.9,3.9,3.9h12.2c2.2,0,3.9-1.8,3.9-3.9v-13c0-2.2-1.8-3.9-3.9-3.9h-12.2
				C1003.6,610.8,1001.9,612.5,1001.9,614.7z"/>
			<path class="st1" d="M1037.9,614.7v13c0,2.2,1.8,3.9,3.9,3.9h12.2c2.2,0,3.9-1.8,3.9-3.9v-13c0-2.2-1.8-3.9-3.9-3.9h-12.2
				C1039.6,610.8,1037.9,612.5,1037.9,614.7z"/>
			<path class="st1" d="M1001.9,647.7v13c0,2.2,1.8,3.9,3.9,3.9h12.2c2.2,0,3.9-1.8,3.9-3.9v-13c0-2.2-1.8-3.9-3.9-3.9h-12.2
				C1003.6,643.8,1001.9,645.5,1001.9,647.7z"/>
			<path class="st1" d="M1037.9,647.7v13c0,2.2,1.8,3.9,3.9,3.9h12.2c2.2,0,3.9-1.8,3.9-3.9v-13c0-2.2-1.8-3.9-3.9-3.9h-12.2
				C1039.6,643.8,1037.9,645.5,1037.9,647.7z"/>
			<path class="st1" d="M1001.9,567v26.9c0,2.2,1.8,3.9,3.9,3.9h12.2c2.2,0,3.9-1.8,3.9-3.9V567c0-5.5-4.5-10-10-10l0,0
				C1006.3,557,1001.9,561.5,1001.9,567z"/>
			<path class="st1" d="M1037.9,567v26.9c0,2.2,1.8,3.9,3.9,3.9h12.2c2.2,0,3.9-1.8,3.9-3.9V567c0-5.5-4.5-10-10-10l0,0
				C1042.3,557,1037.9,561.5,1037.9,567z"/>
		</g>
	</g>
</g>
<g>
	<path class="st4" d="M33.9,369.8h206.2c10.2,0,18.4-8.3,18.4-18.4V204.1c0-5.7-2.2-11.2-6.3-15.3l-102.4-103
		c-7-7.1-18.4-7.1-25.5,0l-102.4,103c-4.1,4.1-6.3,9.5-6.3,15.3v147.3C15.5,361.6,23.8,369.8,33.9,369.8z"/>
	<path class="st5" d="M8.2,356.6h586.5c4.2,0,7.6,3.4,7.6,7.6l0,0c0,4.2-3.4,7.6-7.6,7.6H8.2c-4.2,0-7.6-3.4-7.6-7.6l0,0
		C0.6,360,4,356.6,8.2,356.6z"/>
	<path class="st5" d="M567.5,212.6h1.3c4.4,0,8-3.6,8-8v-1.3c0-4.4-3.6-8-8-8h-1.3c-4.4,0-8,3.6-8,8v1.3
		C559.5,209,563.1,212.6,567.5,212.6z"/>
	<path class="st5" d="M567.5,266.3h1.3c4.4,0,8-3.6,8-8V257c0-4.4-3.6-8-8-8h-1.3c-4.4,0-8,3.6-8,8v1.3
		C559.5,262.7,563.1,266.3,567.5,266.3z"/>
	<path class="st5" d="M567.5,320h1.3c4.4,0,8-3.6,8-8v-1.3c0-4.4-3.6-8-8-8h-1.3c-4.4,0-8,3.6-8,8v1.3
		C559.5,316.5,563.1,320,567.5,320z"/>
	<path class="st5" d="M512.7,212.2h1.4c4.5,0,8.1-3.6,8.1-8.1v-1.4c0-4.5-3.6-8.1-8.1-8.1h-1.4c-4.5,0-8.1,3.6-8.1,8.1v1.4
		C504.6,208.6,508.3,212.2,512.7,212.2z"/>
	<path class="st5" d="M512.7,266.6h1.4c4.5,0,8.1-3.6,8.1-8.1v-1.4c0-4.5-3.6-8.1-8.1-8.1h-1.4c-4.5,0-8.1,3.6-8.1,8.1v1.4
		C504.6,263,508.3,266.6,512.7,266.6z"/>
	<path class="st5" d="M512.7,321h1.4c4.5,0,8.1-3.6,8.1-8.1v-1.4c0-4.5-3.6-8.1-8.1-8.1h-1.4c-4.5,0-8.1,3.6-8.1,8.1v1.4
		C504.6,317.4,508.3,321,512.7,321z"/>
	<g>
		<rect x="332.7" y="251.8" class="st2" width="117.3" height="112.5"/>
		<rect x="332.7" y="194" class="st6" width="117.3" height="53.8"/>
		<rect x="307.4" y="52.3" class="st6" width="33" height="38.4"/>
		<rect x="144.5" y="194" class="st6" width="117.3" height="53.8"/>
		<polygon class="st6" points="357.2,171.7 239.9,171.7 283.6,135.4 313.4,135.4 		"/>
		<rect x="151.5" y="251.8" class="st2" width="117.3" height="112.5"/>
		<rect x="246.3" y="175.2" class="st3" width="117.3" height="185.6"/>
		<path class="st5" d="M139.2,255.6h0.6v109.6h317.9V255.6h0.6c2.7,0,5.2-1.2,6.8-3.2c1.7-2,2.4-4.7,1.8-7.3l-9.5-47.4
			c-0.8-4.1-4.5-7.1-8.7-7.1h-84.4v-6h0.6c3.8,0,7.2-2.5,8.4-6.1c1.2-3.7-0.2-7.7-3.3-9.9l-62.6-44.7V99.3h38.5c4.9,0,8.8-4,8.8-8.8
			V52.6c0-4.9-4-8.8-8.8-8.8h-47.4c-4.9,0-8.8,4-8.8,8.8v71.2l-62.6,44.7c-3.1,2.2-4.5,6.2-3.3,9.9c1.2,3.7,4.6,6.1,8.4,6.1h0.6v6
			h-84.4c-4.2,0-7.8,3-8.7,7.1l-9.5,47.4c-0.5,2.6,0.2,5.3,1.8,7.3C134.1,254.4,136.6,255.6,139.2,255.6z M307.6,61.4h29.7v20.2
			h-29.7V61.4z M233.1,355.9h-75.6V255.6h75.6V355.9z M308.9,355.9h-20.2v-29.7h20.2V355.9z M364.4,208.2h77.2l5.9,29.7h-83.1V208.2
			z M364.4,255.6H440v100.3h-75.6V255.6z M298.8,139.2l38.7,27.6h-77.4L298.8,139.2z M250.8,184.5h96v171.3h-20.2v-38.5
			c0-4.9-4-8.8-8.8-8.8h-37.9c-4.9,0-8.8,4-8.8,8.8v38.5h-20.2V184.5z M155.9,208.2h77.2v29.7H150L155.9,208.2z"/>
		<path class="st5" d="M378.9,322.8v11.4c0,1.9,1.5,3.4,3.4,3.4H393c1.9,0,3.4-1.5,3.4-3.4v-11.4c0-1.9-1.5-3.4-3.4-3.4h-10.6
			C380.5,319.4,378.9,320.9,378.9,322.8z"/>
		<path class="st5" d="M405.2,322.8v11.4c0,1.9,1.5,3.4,3.4,3.4h10.6c1.9,0,3.4-1.5,3.4-3.4v-11.4c0-1.9-1.5-3.4-3.4-3.4h-10.6
			C406.7,319.4,405.2,320.9,405.2,322.8z"/>
		<path class="st5" d="M173.5,322.8v11.4c0,1.9,1.5,3.4,3.4,3.4h10.6c1.9,0,3.4-1.5,3.4-3.4v-11.4c0-1.9-1.5-3.4-3.4-3.4h-10.6
			C175,319.4,173.5,320.9,173.5,322.8z"/>
		<path class="st5" d="M199.7,322.8v11.4c0,1.9,1.5,3.4,3.4,3.4h10.6c1.9,0,3.4-1.5,3.4-3.4v-11.4c0-1.9-1.5-3.4-3.4-3.4h-10.6
			C201.3,319.4,199.7,320.9,199.7,322.8z"/>
		<g>
			<path class="st5" d="M378.9,281.1v23.6c0,1.9,1.5,3.4,3.4,3.4H393c1.9,0,3.4-1.5,3.4-3.4v-23.6c0-4.8-3.9-8.8-8.8-8.8l0,0
				C382.9,272.3,378.9,276.3,378.9,281.1z"/>
			<path class="st5" d="M405.2,281.1v23.6c0,1.9,1.5,3.4,3.4,3.4h10.6c1.9,0,3.4-1.5,3.4-3.4v-23.6c0-4.8-3.9-8.8-8.8-8.8h0
				C409.1,272.3,405.2,276.3,405.2,281.1z"/>
			<path class="st5" d="M173.5,281.1v23.6c0,1.9,1.5,3.4,3.4,3.4h10.6c1.9,0,3.4-1.5,3.4-3.4v-23.6c0-4.8-3.9-8.8-8.8-8.8h0
				C177.4,272.3,173.5,276.3,173.5,281.1z"/>
			<path class="st5" d="M199.7,281.1v23.6c0,1.9,1.5,3.4,3.4,3.4h10.6c1.9,0,3.4-1.5,3.4-3.4v-23.6c0-4.8-3.9-8.8-8.8-8.8h0
				C203.7,272.3,199.7,276.3,199.7,281.1z"/>
			<path class="st5" d="M273.5,252.8v11.4c0,1.9,1.5,3.4,3.4,3.4h10.6c1.9,0,3.4-1.5,3.4-3.4v-11.4c0-1.9-1.5-3.4-3.4-3.4H277
				C275.1,249.4,273.5,250.9,273.5,252.8z"/>
			<path class="st5" d="M305.1,252.8v11.4c0,1.9,1.5,3.4,3.4,3.4h10.6c1.9,0,3.4-1.5,3.4-3.4v-11.4c0-1.9-1.5-3.4-3.4-3.4h-10.6
				C306.6,249.4,305.1,250.9,305.1,252.8z"/>
			<path class="st5" d="M273.5,281.7V293c0,1.9,1.5,3.4,3.4,3.4h10.6c1.9,0,3.4-1.5,3.4-3.4v-11.4c0-1.9-1.5-3.4-3.4-3.4H277
				C275.1,278.2,273.5,279.8,273.5,281.7z"/>
			<path class="st5" d="M305.1,281.7V293c0,1.9,1.5,3.4,3.4,3.4h10.6c1.9,0,3.4-1.5,3.4-3.4v-11.4c0-1.9-1.5-3.4-3.4-3.4h-10.6
				C306.6,278.2,305.1,279.8,305.1,281.7z"/>
			<path class="st5" d="M273.5,211.1v23.6c0,1.9,1.5,3.4,3.4,3.4h10.6c1.9,0,3.4-1.5,3.4-3.4v-23.6c0-4.8-3.9-8.8-8.8-8.8h0
				C277.5,202.3,273.5,206.2,273.5,211.1z"/>
			<path class="st5" d="M305.1,211.1v23.6c0,1.9,1.5,3.4,3.4,3.4h10.6c1.9,0,3.4-1.5,3.4-3.4v-23.6c0-4.8-3.9-8.8-8.8-8.8l0,0
				C309,202.3,305.1,206.2,305.1,211.1z"/>
		</g>
	</g>
	<circle class="st7" cx="307.6" cy="123.8" r="115.9"/>
	<g>
		<g>
			<g>
				<path class="st5" d="M308.1,253.4c-32.4,0-64.7-12.3-89.4-37c-49.3-49.3-49.3-129.5,0-178.8c49.3-49.3,129.5-49.3,178.8,0
					c49.3,49.3,49.3,129.5,0,178.8C372.9,241.1,340.5,253.4,308.1,253.4z M308.1,19.3c-27.6,0-55.2,10.5-76.3,31.5
					c-42.1,42.1-42.1,110.5,0,152.5c42.1,42.1,110.5,42.1,152.5,0c42.1-42.1,42.1-110.5,0-152.5C363.4,29.8,335.8,19.3,308.1,19.3z"
					/>
			</g>
			<g>
				<path class="st5" d="M482.4,310.6c-2.4,0-4.8-0.9-6.6-2.7l-91.5-91.5c-3.6-3.6-3.6-9.5,0-13.1c3.6-3.6,9.5-3.6,13.1,0l91.5,91.5
					c3.6,3.6,3.6,9.5,0,13.1C487.2,309.7,484.8,310.6,482.4,310.6z"/>
			</g>
		</g>
	</g>
</g>
</svg>
