<?xml version="1.0" encoding="utf-8"?>
<!-- Generator: Adobe Illustrator 23.0.1, SVG Export Plug-In . SVG Version: 6.00 Build 0)  -->
<svg version="1.1" id="Layer_1" xmlns="http://www.w3.org/2000/svg" xmlns:xlink="http://www.w3.org/1999/xlink" x="0px" y="0px"
	 viewBox="0 0 48 55.5" style="enable-background:new 0 0 48 55.5;" xml:space="preserve">
<style type="text/css">
	.st0{fill:#EB6081;stroke:#EB6081;stroke-miterlimit:10;}
</style>
<g>
	<g transform="translate(-436.000000, -543.000000)">
		<g transform="translate(436.000000, 543.000000)">
			<path class="st0" d="M8.67,25v13.42H4.83V25H8.67z M1,23.08v17.25c0,1.06,0.86,1.92,1.92,1.92h7.67c1.06,0,1.92-0.86,1.92-1.92
				V23.08c0-1.06-0.86-1.92-1.92-1.92H2.92C1.86,21.17,1,22.02,1,23.08z"/>
			<path class="st0" d="M23.04,48v1.92h-4.79V48H23.04z M14.42,46.08v5.75c0,1.06,0.86,1.92,1.92,1.92h8.62
				c1.06,0,1.92-0.86,1.92-1.92v-5.75c0-1.06-0.86-1.92-1.92-1.92h-8.62C15.27,44.17,14.42,45.02,14.42,46.08z"/>
			<path class="st0" d="M14.42,50.88c1.06,0,1.92-0.86,1.92-1.92s-0.86-1.92-1.92-1.92c-3.18,0-5.75-2.57-5.75-5.75
				c0-1.06-0.86-1.92-1.92-1.92s-1.92,0.86-1.92,1.92C4.83,46.58,9.12,50.88,14.42,50.88z"/>
			<path class="st0" d="M43.17,25v13.42h-3.83V25H43.17z M35.5,23.08v17.25c0,1.06,0.86,1.92,1.92,1.92h7.67
				c1.06,0,1.92-0.86,1.92-1.92V23.08c0-1.06-0.86-1.92-1.92-1.92h-7.67C36.36,21.17,35.5,22.02,35.5,23.08z"/>
			<path class="st0" d="M24,2C13.41,2,4.83,10.58,4.83,21.17c0,1.06,0.86,1.92,1.92,1.92s1.92-0.86,1.92-1.92
				C8.67,12.7,15.53,5.83,24,5.83s15.33,6.86,15.33,15.33c0,1.06,0.86,1.92,1.92,1.92s1.92-0.86,1.92-1.92C43.17,10.58,34.59,2,24,2
				z"/>
		</g>
	</g>
</g>
</svg>
