<?xml version="1.0" encoding="utf-8"?>
<!-- Generator: Adobe Illustrator 23.0.1, SVG Export Plug-In . SVG Version: 6.00 Build 0)  -->
<svg version="1.1" id="Layer_1" xmlns="http://www.w3.org/2000/svg" xmlns:xlink="http://www.w3.org/1999/xlink" x="0px" y="0px"
	 viewBox="0 0 100 73.5" style="enable-background:new 0 0 100 73.5;" xml:space="preserve">
<style type="text/css">
	.st0{fill:#EB6080;}
</style>
<g transform="translate(0,-952.36218)">
	<path class="st0" d="M4.84,955.91c-1.58,0.02-2.85,1.31-2.84,2.9c0,0.01,0,0.02,0,0.03v59.23c-0.02,1.58,1.24,2.88,2.83,2.91
		c1.58,0.02,2.88-1.24,2.91-2.83c0-0.03,0-0.05,0-0.08v-10.51H91.8v10.51c-0.02,1.58,1.24,2.88,2.83,2.91
		c1.58,0.02,2.88-1.24,2.91-2.83c0-0.03,0-0.05,0-0.08v-42.03c0.03-1.58-1.22-2.89-2.81-2.93c-0.03,0-0.06,0-0.09,0
		c-1.58,0.02-2.85,1.31-2.84,2.9c0,0.01,0,0.02,0,0.03v8.6H35.44v-6c0-4.05-3.36-7.37-7.4-7.37H7.73v-12.42
		c0.03-1.58-1.22-2.89-2.81-2.93C4.9,955.91,4.87,955.91,4.84,955.91z M7.73,976.98h20.3c0.98,0,1.67,0.68,1.67,1.64v6H7.73V976.98z
		 M7.73,990.36H91.8v11.46H7.73V990.36z"/>
</g>
</svg>
