<?xml version="1.0" encoding="utf-8"?>
<!-- Generator: Adobe Illustrator 23.0.1, SVG Export Plug-In . SVG Version: 6.00 Build 0)  -->
<svg version="1.1" id="Capa_1" xmlns="http://www.w3.org/2000/svg" xmlns:xlink="http://www.w3.org/1999/xlink" x="0px" y="0px"
	 viewBox="0 0 494.79 283.41" style="enable-background:new 0 0 494.79 283.41;" xml:space="preserve">
<style type="text/css">
	.st0{fill:#17D3A5;}
	.st1{fill:#4C5DA2;}
	.st2{fill:#FFFFFF;}
	.st3{fill:#EB6181;}
	.st4{fill:#DCDDF9;}
</style>
<g>
	<path class="st0" d="M479.12,286.67H303.99c-8.66,0-15.67-6.57-15.67-14.67V154.92c0-4.56,1.93-8.93,5.36-12.16l87.06-81.88
		c5.97-5.61,15.67-5.61,21.64,0l87.06,81.88c3.43,3.23,5.36,7.6,5.36,12.16V272C494.79,280.1,487.77,286.67,479.12,286.67z"/>
	<g>
		<path class="st1" d="M33.96,163.74H33c-3.85,0-6.97-3.12-6.97-6.97v0c0-3.85,3.12-6.97,6.97-6.97h0.96c3.85,0,6.97,3.12,6.97,6.97
			v0C40.93,160.62,37.81,163.74,33.96,163.74z"/>
		<path class="st1" d="M33.96,207H33c-3.85,0-6.97-3.12-6.97-6.97v0c0-3.85,3.12-6.97,6.97-6.97h0.96c3.85,0,6.97,3.12,6.97,6.97v0
			C40.93,203.88,37.81,207,33.96,207z"/>
		<path class="st1" d="M33.96,250.25H33c-3.85,0-6.97-3.12-6.97-6.97v0c0-3.85,3.12-6.97,6.97-6.97h0.96c3.85,0,6.97,3.12,6.97,6.97
			v0C40.93,247.13,37.81,250.25,33.96,250.25z"/>
		<path class="st1" d="M83.6,163.74h-0.96c-3.85,0-6.97-3.12-6.97-6.97v0c0-3.85,3.12-6.97,6.97-6.97h0.96
			c3.85,0,6.97,3.12,6.97,6.97v0C90.57,160.62,87.45,163.74,83.6,163.74z"/>
		<path class="st1" d="M83.6,207h-0.96c-3.85,0-6.97-3.12-6.97-6.97v0c0-3.85,3.12-6.97,6.97-6.97h0.96c3.85,0,6.97,3.12,6.97,6.97
			v0C90.57,203.88,87.45,207,83.6,207z"/>
		<path class="st1" d="M83.6,250.25h-0.96c-3.85,0-6.97-3.12-6.97-6.97v0c0-3.85,3.12-6.97,6.97-6.97h0.96
			c3.85,0,6.97,3.12,6.97,6.97v0C90.57,247.13,87.45,250.25,83.6,250.25z"/>
		<path class="st1" d="M133.25,163.74h-0.96c-3.85,0-6.97-3.12-6.97-6.97v0c0-3.85,3.12-6.97,6.97-6.97h0.96
			c3.85,0,6.97,3.12,6.97,6.97v0C140.21,160.62,137.09,163.74,133.25,163.74z"/>
		<path class="st1" d="M133.25,207h-0.96c-3.85,0-6.97-3.12-6.97-6.97v0c0-3.85,3.12-6.97,6.97-6.97h0.96
			c3.85,0,6.97,3.12,6.97,6.97v0C140.21,203.88,137.09,207,133.25,207z"/>
		<path class="st1" d="M133.25,250.25h-0.96c-3.85,0-6.97-3.12-6.97-6.97v0c0-3.85,3.12-6.97,6.97-6.97h0.96
			c3.85,0,6.97,3.12,6.97,6.97v0C140.21,247.13,137.09,250.25,133.25,250.25z"/>
	</g>
	<path class="st1" d="M276.45,267.84v3.14c0,4.19,3.63,7.58,8.11,7.58h0c4.48,0,8.11-3.4,8.11-7.58v-3.14
		c0-4.19-3.63-7.58-8.11-7.58h0C280.08,260.25,276.45,263.65,276.45,267.84z"/>
	<path class="st1" d="M276.45,243.07v3.14c0,4.19,3.63,7.58,8.11,7.58h0c4.48,0,8.11-3.4,8.11-7.58v-3.14
		c0-4.19-3.63-7.58-8.11-7.58h0C280.08,235.49,276.45,238.88,276.45,243.07z"/>
	<path class="st1" d="M503.53,276.19H5.19c-3.54,0-6.41,2.69-6.41,6v0c0,3.31,2.87,6,6.41,6h498.35c3.54,0,6.41-2.69,6.41-6v0
		C509.94,278.88,507.07,276.19,503.53,276.19z"/>
	<g>
		<rect x="307.36" y="183.95" class="st2" width="110.86" height="99.46"/>
		<rect x="307.36" y="132.87" class="st3" width="110.86" height="47.57"/>
		<rect x="283.53" y="7.59" class="st3" width="31.18" height="33.95"/>
		<rect x="129.53" y="132.87" class="st3" width="110.86" height="47.57"/>
		<polygon class="st3" points="330.55,113.1 219.69,113.1 261.04,81.02 289.19,81.02 		"/>
		<rect x="136.15" y="183.95" class="st2" width="110.86" height="99.46"/>
		<rect x="225.77" y="116.22" class="st4" width="110.86" height="164.1"/>
		<path class="st1" d="M124.56,187.31h0.59v96.93h300.4v-96.93h0.59c2.5,0,4.87-1.05,6.46-2.86c1.59-1.81,2.22-4.19,1.73-6.49
			l-8.95-41.87c-0.78-3.65-4.21-6.28-8.19-6.28h-79.79v-5.3H338c3.63,0,6.85-2.2,7.96-5.43c1.11-3.24-0.14-6.77-3.1-8.75
			l-59.15-39.53V49.13h36.4c4.61,0,8.36-3.5,8.36-7.82V7.82c0-4.32-3.74-7.82-8.36-7.82h-44.75c-4.62,0-8.36,3.5-8.36,7.82v62.97
			l-59.15,39.53c-2.96,1.97-4.21,5.51-3.1,8.75c1.11,3.24,4.32,5.43,7.96,5.43h0.59v5.3h-79.79c-3.98,0-7.41,2.63-8.19,6.28
			l-8.95,41.87c-0.49,2.3,0.14,4.68,1.73,6.49C119.68,186.26,122.05,187.31,124.56,187.31z M283.71,15.64h28.04V33.5h-28.04V15.64z
			 M213.29,276h-71.43v-88.69h71.43V276z M284.89,276h-19.09v-26.23h19.09V276z M337.41,145.44h72.94l5.61,26.23h-78.54V145.44z
			 M337.41,187.31h71.43V276h-71.43V187.31z M275.35,84.42l36.58,24.44h-73.15L275.35,84.42z M230.01,124.5h90.69V276H301.6v-34.05
			c0-4.32-3.74-7.82-8.36-7.82h-35.8c-4.62,0-8.36,3.5-8.36,7.82V276h-19.09V124.5z M140.36,145.44h72.94v26.23h-78.55
			L140.36,145.44z"/>
		<path class="st1" d="M351.11,246.77v10.05c0,1.68,1.45,3.04,3.24,3.04h10.05c1.79,0,3.24-1.36,3.24-3.04v-10.05
			c0-1.68-1.45-3.04-3.24-3.04h-10.05C352.56,243.73,351.11,245.09,351.11,246.77z"/>
		<path class="st1" d="M375.92,246.77v10.05c0,1.68,1.45,3.04,3.24,3.04h10.05c1.79,0,3.24-1.36,3.24-3.04v-10.05
			c0-1.68-1.45-3.04-3.24-3.04h-10.05C377.37,243.73,375.92,245.09,375.92,246.77z"/>
		<path class="st1" d="M156.94,246.77v10.05c0,1.68,1.45,3.04,3.24,3.04h10.05c1.79,0,3.24-1.36,3.24-3.04v-10.05
			c0-1.68-1.45-3.04-3.24-3.04h-10.05C158.39,243.73,156.94,245.09,156.94,246.77z"/>
		<path class="st1" d="M181.75,246.77v10.05c0,1.68,1.45,3.04,3.24,3.04h10.05c1.79,0,3.24-1.36,3.24-3.04v-10.05
			c0-1.68-1.45-3.04-3.24-3.04H185C183.2,243.73,181.75,245.09,181.75,246.77z"/>
		<g>
			<path class="st1" d="M351.11,209.87v20.83c0,1.68,1.45,3.04,3.24,3.04h10.05c1.79,0,3.24-1.36,3.24-3.04v-20.83
				c0-4.27-3.7-7.74-8.27-7.74h0C354.81,202.14,351.11,205.6,351.11,209.87z"/>
			<path class="st1" d="M375.92,209.87v20.83c0,1.68,1.45,3.04,3.24,3.04h10.05c1.79,0,3.24-1.36,3.24-3.04v-20.83
				c0-4.27-3.7-7.74-8.27-7.74h0C379.63,202.14,375.92,205.6,375.92,209.87z"/>
			<path class="st1" d="M156.94,209.87v20.83c0,1.68,1.45,3.04,3.24,3.04h10.05c1.79,0,3.24-1.36,3.24-3.04v-20.83
				c0-4.27-3.7-7.74-8.27-7.74h0C160.64,202.14,156.94,205.6,156.94,209.87z"/>
			<path class="st1" d="M181.75,209.87v20.83c0,1.68,1.45,3.04,3.24,3.04h10.05c1.79,0,3.24-1.36,3.24-3.04v-20.83
				c0-4.27-3.7-7.74-8.27-7.74h0C185.45,202.14,181.75,205.6,181.75,209.87z"/>
			<path class="st1" d="M251.51,184.86v10.05c0,1.68,1.45,3.04,3.24,3.04h10.05c1.79,0,3.24-1.36,3.24-3.04v-10.05
				c0-1.68-1.45-3.04-3.24-3.04h-10.05C252.96,181.82,251.51,183.18,251.51,184.86z"/>
			<path class="st1" d="M281.28,184.86v10.05c0,1.68,1.45,3.04,3.24,3.04h10.05c1.79,0,3.24-1.36,3.24-3.04v-10.05
				c0-1.68-1.45-3.04-3.24-3.04h-10.05C282.74,181.82,281.28,183.18,281.28,184.86z"/>
			<path class="st1" d="M251.51,210.4v10.05c0,1.68,1.45,3.04,3.24,3.04h10.05c1.79,0,3.24-1.36,3.24-3.04V210.4
				c0-1.68-1.45-3.04-3.24-3.04h-10.05C252.96,207.36,251.51,208.72,251.51,210.4z"/>
			<path class="st1" d="M281.28,210.4v10.05c0,1.68,1.45,3.04,3.24,3.04h10.05c1.79,0,3.24-1.36,3.24-3.04V210.4
				c0-1.68-1.45-3.04-3.24-3.04h-10.05C282.74,207.36,281.28,208.72,281.28,210.4z"/>
			<path class="st1" d="M251.51,147.96v20.83c0,1.68,1.45,3.04,3.24,3.04h10.05c1.79,0,3.24-1.36,3.24-3.04v-20.83
				c0-4.27-3.7-7.74-8.27-7.74h0C255.21,140.22,251.51,143.68,251.51,147.96z"/>
			<path class="st1" d="M281.28,147.96v20.83c0,1.68,1.45,3.04,3.24,3.04h10.05c1.79,0,3.24-1.36,3.24-3.04v-20.83
				c0-4.27-3.7-7.74-8.27-7.74l0,0C284.99,140.22,281.28,143.68,281.28,147.96z"/>
		</g>
	</g>
</g>
</svg>
