<?xml version="1.0" encoding="utf-8"?>
<!-- Generator: Adobe Illustrator 23.0.1, SVG Export Plug-In . SVG Version: 6.00 Build 0)  -->
<svg version="1.1" id="Capa_1" xmlns="http://www.w3.org/2000/svg" xmlns:xlink="http://www.w3.org/1999/xlink" x="0px" y="0px"
	 viewBox="0 0 512 292.24" style="enable-background:new 0 0 512 292.24;" xml:space="preserve">
<style type="text/css">
	.st0{fill:#17D3A5;}
	.st1{fill:#4C5DA2;}
	.st2{fill:#DCDDF9;}
	.st3{fill:#EB6181;}
	.st4{fill:#FFFFFF;}
</style>
<g>
	<path class="st0" d="M481.34,290.62H307.16c-8.61,0-15.59-6.98-15.59-15.59V150.58c0-4.84,1.92-9.49,5.33-12.92l86.58-87.03
		c5.93-5.96,15.59-5.96,21.52,0l86.58,87.03c3.42,3.43,5.33,8.08,5.33,12.92v124.45C496.93,283.64,489.95,290.62,481.34,290.62z"/>
	<g>
		<path class="st1" d="M38.77,159.95h-1.3c-3.73,0-6.75-3.02-6.75-6.75v-1.3c0-3.73,3.02-6.75,6.75-6.75h1.3
			c3.73,0,6.75,3.02,6.75,6.75v1.3C45.53,156.93,42.5,159.95,38.77,159.95z"/>
		<path class="st1" d="M38.77,205.93h-1.3c-3.73,0-6.75-3.02-6.75-6.75v-1.3c0-3.73,3.02-6.75,6.75-6.75h1.3
			c3.73,0,6.75,3.02,6.75,6.75v1.3C45.53,202.91,42.5,205.93,38.77,205.93z"/>
		<path class="st1" d="M38.77,251.91h-1.3c-3.73,0-6.75-3.02-6.75-6.75v-1.3c0-3.73,3.02-6.75,6.75-6.75h1.3
			c3.73,0,6.75,3.02,6.75,6.75v1.3C45.53,248.89,42.5,251.91,38.77,251.91z"/>
		<path class="st1" d="M88.15,159.95h-1.3c-3.73,0-6.75-3.02-6.75-6.75v-1.3c0-3.73,3.02-6.75,6.75-6.75h1.3
			c3.73,0,6.75,3.02,6.75,6.75v1.3C94.9,156.93,91.88,159.95,88.15,159.95z"/>
		<path class="st1" d="M88.15,205.93h-1.3c-3.73,0-6.75-3.02-6.75-6.75v-1.3c0-3.73,3.02-6.75,6.75-6.75h1.3
			c3.73,0,6.75,3.02,6.75,6.75v1.3C94.9,202.91,91.88,205.93,88.15,205.93z"/>
		<path class="st1" d="M88.15,251.91h-1.3c-3.73,0-6.75-3.02-6.75-6.75v-1.3c0-3.73,3.02-6.75,6.75-6.75h1.3
			c3.73,0,6.75,3.02,6.75,6.75v1.3C94.9,248.89,91.88,251.91,88.15,251.91z"/>
		<path class="st1" d="M137.52,159.95h-1.3c-3.73,0-6.75-3.02-6.75-6.75v-1.3c0-3.73,3.02-6.75,6.75-6.75h1.3
			c3.73,0,6.75,3.02,6.75,6.75v1.3C144.28,156.93,141.25,159.95,137.52,159.95z"/>
		<path class="st1" d="M137.52,205.93h-1.3c-3.73,0-6.75-3.02-6.75-6.75v-1.3c0-3.73,3.02-6.75,6.75-6.75h1.3
			c3.73,0,6.75,3.02,6.75,6.75v1.3C144.28,202.91,141.25,205.93,137.52,205.93z"/>
		<path class="st1" d="M137.52,251.91h-1.3c-3.73,0-6.75-3.02-6.75-6.75v-1.3c0-3.73,3.02-6.75,6.75-6.75h1.3
			c3.73,0,6.75,3.02,6.75,6.75v1.3C144.28,248.89,141.25,251.91,137.52,251.91z"/>
	</g>
	<path class="st1" d="M505.62,279.49H9.98c-3.52,0-6.38,2.86-6.38,6.38l0,0c0,3.52,2.86,6.38,6.38,6.38h495.64
		c3.52,0,6.38-2.86,6.38-6.38l0,0C512,282.34,509.14,279.49,505.62,279.49z"/>
	<g>
		<g>
			<g>
				<g>
					<polygon class="st2" points="264.76,112.77 259.15,138.23 271.24,174.05 286.77,191.74 273.4,196.92 314.39,252.59 
						358.84,194.77 336.83,190.45 361.86,168.44 372.65,120.54 363.59,111.04 					"/>
					<path class="st2" d="M420.62,280.45v-38.59c0-27-21.88-48.88-48.88-48.88h-21.46c-9.14,17.28-15.45,37.03-33.81,46.8
						c-1.55,0.83-3.67,0.43-4.55-1.19c-8.29-15.18-17.15-30.85-30.76-41.92c-1.36-1.11-1.37-2.55-0.68-3.68h-17.31
						c-27,0-48.88,21.88-48.88,48.88v38.59H420.62z"/>
					<rect x="264.21" y="45.88" class="st3" width="104.49" height="63.89"/>
					<path class="st1" d="M205.75,249.38v31.07h15.28v-31.07c0-26.39,19.78-48.24,45.29-51.52l50.99,68.94l50.99-68.94
						c25.51,3.28,45.29,25.13,45.29,51.52v31.07h15.28v-31.07c0-37.07-30.16-67.23-67.23-67.23h-5.36
						c13-11.35,21.22-28.04,21.22-46.61V54.26h14.19v43.81h15.28V54.26h13.5V38.98H214.15v15.28h39.56v81.27
						c0,18.57,8.22,35.26,21.22,46.61h-1.95C235.9,182.15,205.75,212.31,205.75,249.38z M317.3,241.1l-32.29-43.67h64.59
						L317.3,241.1z M268.99,54.26h93.22v50.43h-93.22V54.26z M268.99,135.54v-15.56h93.22v15.56c0,25.7-20.91,46.61-46.61,46.61
						S268.99,161.24,268.99,135.54z"/>
					<path class="st1" d="M381.39,280.45v-20.21c0-4.22-3.42-7.64-7.64-7.64s-7.64,3.42-7.64,7.64v20.21H381.39z"/>
					<path class="st1" d="M417.99,280.45v-0.81h-40.43c-1.23,0-2.39,0.3-3.41,0.81H417.99z"/>
					<path class="st1" d="M261.54,280.45v-0.81h-40.43c-1.23,0-2.39,0.3-3.41,0.81H261.54z"/>
					<path class="st1" d="M268.61,280.45v-20.21c0-4.22-3.42-7.64-7.64-7.64c-4.22,0-7.64,3.42-7.64,7.64v20.21H268.61z"/>
				</g>
			</g>
			<path class="st1" d="M318.51,280.45c-1.23-0.85-2.73-1.35-4.34-1.35c-1.61,0-3.1,0.5-4.34,1.35H318.51z"/>
		</g>
		<g>
			<g>
				<g>
					<polygon class="st2" points="169.8,112.77 164.19,138.23 176.28,174.05 191.81,191.74 178.43,196.92 219.43,252.59 
						263.88,194.77 241.87,190.45 266.9,168.44 277.69,120.54 268.63,111.04 					"/>
					<path class="st2" d="M325.65,280.45v-38.59c0-27-21.88-48.88-48.88-48.88h-21.46c-9.14,17.28-15.45,37.03-33.81,46.8
						c-1.55,0.83-3.67,0.43-4.55-1.19c-8.29-15.18-17.15-30.85-30.76-41.92c-1.36-1.11-1.37-2.55-0.68-3.68h-17.31
						c-27,0-48.88,21.88-48.88,48.88v38.59H325.65z"/>
					<rect x="169.25" y="45.88" class="st3" width="104.49" height="63.89"/>
					<path class="st1" d="M110.79,249.38v31.07h15.28v-31.07c0-26.39,19.78-48.24,45.29-51.52l50.99,68.94l50.99-68.94
						c25.51,3.28,45.29,25.13,45.29,51.52v31.07h15.28v-31.07c0-37.07-30.16-67.23-67.23-67.23h-5.36
						c13-11.35,21.22-28.04,21.22-46.61V54.26h14.19v43.81H312V54.26h13.5V38.98H119.19v15.28h39.56v81.27
						c0,18.57,8.22,35.26,21.22,46.61h-1.95C140.94,182.15,110.79,212.31,110.79,249.38z M222.34,241.1l-32.29-43.67h64.59
						L222.34,241.1z M174.03,54.26h93.22v50.43h-93.22V54.26z M174.03,135.54v-15.56h93.22v15.56c0,25.7-20.91,46.61-46.61,46.61
						S174.03,161.24,174.03,135.54z"/>
					<path class="st1" d="M286.43,280.45v-20.21c0-4.22-3.42-7.64-7.64-7.64s-7.64,3.42-7.64,7.64v20.21H286.43z"/>
					<path class="st1" d="M323.03,280.45v-0.81H282.6c-1.23,0-2.39,0.3-3.41,0.81H323.03z"/>
					<path class="st1" d="M166.58,280.45v-0.81h-40.43c-1.23,0-2.39,0.3-3.41,0.81H166.58z"/>
					<path class="st1" d="M173.65,280.45v-20.21c0-4.22-3.42-7.64-7.64-7.64s-7.64,3.42-7.64,7.64v20.21H173.65z"/>
				</g>
			</g>
			<path class="st1" d="M223.55,280.45c-1.23-0.85-2.73-1.35-4.34-1.35s-3.1,0.5-4.34,1.35H223.55z"/>
		</g>
		<g>
			<g>
				<g>
					<polygon class="st2" points="217.99,73.79 212.38,99.25 224.46,135.07 240,152.76 226.62,157.94 267.62,213.61 312.07,155.78 
						290.06,151.47 315.09,129.46 325.88,81.55 316.82,72.06 					"/>
					<path class="st4" d="M324.96,153.99H303.5c-9.14,17.28-15.45,37.03-33.81,46.8c-1.55,0.83-3.67,0.43-4.55-1.19
						c-8.29-15.18-17.15-30.85-30.76-41.92c-1.36-1.11-1.37-2.55-0.68-3.68h-17.31c-27,0-48.88,21.88-48.88,48.88v81.33h206.33
						v-81.33C373.84,175.87,351.96,153.99,324.96,153.99z"/>
					<rect x="167.51" y="253.23" class="st2" width="42.06" height="30.97"/>
					<path class="st2" d="M372.52,251.15h-41.85c0,0.09,0.01,0.17,0.01,0.26v32.79h43.16v-33.26
						C373.45,251.07,373.01,251.15,372.52,251.15z"/>
					<rect x="217.43" y="6.9" class="st3" width="104.49" height="63.89"/>
					<path class="st1" d="M158.97,210.39v80.69h223.12v-80.69c0-37.07-30.16-67.23-67.23-67.23h-5.36
						c13-11.35,21.22-28.04,21.22-46.61V15.28h14.19v43.81h15.28V15.28h13.5V0H167.38v15.28h39.56v81.27
						c0,18.57,8.22,35.26,21.22,46.61h-1.95C189.13,143.16,158.97,173.32,158.97,210.39z M222.21,15.28h93.22v50.43h-93.22V15.28z
						 M222.21,96.55V80.99h93.22v15.56c0,25.7-20.91,46.61-46.61,46.61C243.12,143.16,222.21,122.26,222.21,96.55z M302.82,158.45
						l-32.29,43.67l-32.29-43.67H302.82z M270.53,227.82l50.99-68.94c25.51,3.28,45.29,25.13,45.29,51.52v67.5H174.25v-67.5
						c0-26.39,19.78-48.24,45.29-51.52L270.53,227.82z"/>
					<path class="st1" d="M302.16,291.08h30.07c1.47-1.39,2.39-3.36,2.39-5.54v-64.28c0-4.22-3.42-7.64-7.64-7.64
						c-4.22,0-7.64,3.42-7.64,7.64v56.64h-11.92c-4.22,0-7.64,3.42-7.64,7.64v0C299.77,287.72,300.69,289.69,302.16,291.08z"/>
					<path class="st1" d="M371.22,240.65h-40.43c-4.22,0-7.64,3.42-7.64,7.64v0c0,4.22,3.42,7.64,7.64,7.64h40.43V240.65z"/>
					<path class="st1" d="M214.77,240.65h-40.43c-4.22,0-7.64,3.42-7.64,7.64v0c0,4.22,3.42,7.64,7.64,7.64h40.43V240.65z"/>
					<path class="st1" d="M208.94,291.08h30.07c1.47-1.39,2.39-3.36,2.39-5.54v0c0-4.22-3.42-7.64-7.64-7.64h-11.92v-56.64
						c0-4.22-3.42-7.64-7.64-7.64c-4.22,0-7.64,3.42-7.64,7.64v64.28C206.55,287.72,207.47,289.69,208.94,291.08z"/>
				</g>
			</g>
			<path class="st1" d="M259.76,272.7v3.16c0,4.22,3.42,7.64,7.64,7.64h0c4.22,0,7.64-3.42,7.64-7.64l0-3.16
				c0-4.22-3.42-7.64-7.64-7.64h0C263.18,265.06,259.76,268.48,259.76,272.7z"/>
			<path class="st1" d="M259.76,247.75v3.16c0,4.22,3.42,7.64,7.64,7.64h0c4.22,0,7.64-3.42,7.64-7.64l0-3.16
				c0-4.22-3.42-7.64-7.64-7.64h0C263.18,240.11,259.76,243.53,259.76,247.75z"/>
		</g>
	</g>
</g>
</svg>
