<?xml version="1.0" encoding="utf-8"?>
<!-- Generator: Adobe Illustrator 23.0.1, SVG Export Plug-In . SVG Version: 6.00 Build 0)  -->
<svg version="1.1" id="Capa_1" xmlns="http://www.w3.org/2000/svg" xmlns:xlink="http://www.w3.org/1999/xlink" x="0px" y="0px"
	 viewBox="0 0 512 301.72" style="enable-background:new 0 0 512 301.72;" xml:space="preserve">
<style type="text/css">
	.st0{fill:#17D3A5;}
	.st1{fill:#4C5DA2;}
	.st2{fill:#FFFFFF;}
	.st3{fill:#EB6181;}
	.st4{fill:#DCDDF9;stroke:#000000;stroke-miterlimit:10;}
</style>
<g>
	<g>
		<path class="st0" d="M485.04,300.09H306.57c-8.82,0-15.97-7.15-15.97-15.97V156.61c0-4.96,1.96-9.72,5.47-13.24l88.71-89.18
			c6.08-6.11,15.97-6.11,22.05,0l88.71,89.18c3.5,3.52,5.47,8.28,5.47,13.24v127.51C501.01,292.94,493.86,300.09,485.04,300.09z"/>
		<g>
			<path class="st1" d="M30.92,166.21L30.92,166.21c-4.19,0-7.59-3.4-7.59-7.59v0c0-4.19,3.4-7.59,7.59-7.59h0
				c4.19,0,7.59,3.4,7.59,7.59v0C38.5,162.81,35.11,166.21,30.92,166.21z"/>
			<path class="st1" d="M30.92,213.32L30.92,213.32c-4.19,0-7.59-3.4-7.59-7.59v0c0-4.19,3.4-7.59,7.59-7.59h0
				c4.19,0,7.59,3.4,7.59,7.59v0C38.5,209.92,35.11,213.32,30.92,213.32z"/>
			<path class="st1" d="M30.92,260.43L30.92,260.43c-4.19,0-7.59-3.4-7.59-7.59v0c0-4.19,3.4-7.59,7.59-7.59h0
				c4.19,0,7.59,3.4,7.59,7.59v0C38.5,257.03,35.11,260.43,30.92,260.43z"/>
			<path class="st1" d="M81.5,166.21L81.5,166.21c-4.19,0-7.59-3.4-7.59-7.59v0c0-4.19,3.4-7.59,7.59-7.59h0
				c4.19,0,7.59,3.4,7.59,7.59v0C89.09,162.81,85.7,166.21,81.5,166.21z"/>
			<path class="st1" d="M81.5,213.32L81.5,213.32c-4.19,0-7.59-3.4-7.59-7.59v0c0-4.19,3.4-7.59,7.59-7.59h0
				c4.19,0,7.59,3.4,7.59,7.59v0C89.09,209.92,85.7,213.32,81.5,213.32z"/>
			<path class="st1" d="M81.5,260.43L81.5,260.43c-4.19,0-7.59-3.4-7.59-7.59v0c0-4.19,3.4-7.59,7.59-7.59h0
				c4.19,0,7.59,3.4,7.59,7.59v0C89.09,257.03,85.7,260.43,81.5,260.43z"/>
			<path class="st1" d="M132.09,166.21L132.09,166.21c-4.19,0-7.59-3.4-7.59-7.59v0c0-4.19,3.4-7.59,7.59-7.59h0
				c4.19,0,7.59,3.4,7.59,7.59v0C139.68,162.81,136.28,166.21,132.09,166.21z"/>
			<path class="st1" d="M132.09,213.32L132.09,213.32c-4.19,0-7.59-3.4-7.59-7.59v0c0-4.19,3.4-7.59,7.59-7.59h0
				c4.19,0,7.59,3.4,7.59,7.59v0C139.68,209.92,136.28,213.32,132.09,213.32z"/>
			<path class="st1" d="M132.09,260.43L132.09,260.43c-4.19,0-7.59-3.4-7.59-7.59v0c0-4.19,3.4-7.59,7.59-7.59h0
				c4.19,0,7.59,3.4,7.59,7.59v0C139.68,257.03,136.28,260.43,132.09,260.43z"/>
		</g>
		<path class="st1" d="M278.51,279.58V283c0,4.56,3.7,8.26,8.26,8.26h0c4.56,0,8.26-3.7,8.26-8.26v-3.42c0-4.56-3.7-8.26-8.26-8.26
			l0,0C282.21,271.32,278.51,275.02,278.51,279.58z"/>
		<path class="st1" d="M278.51,252.61v3.42c0,4.56,3.7,8.26,8.26,8.26h0c4.56,0,8.26-3.7,8.26-8.26v-3.42c0-4.56-3.7-8.26-8.26-8.26
			l0,0C282.21,244.35,278.51,248.05,278.51,252.61z"/>
		<path class="st1" d="M509.92,288.65H2.08c-3.61,0-6.53,2.93-6.53,6.53v0c0,3.61,2.93,6.53,6.53,6.53h507.83
			c3.61,0,6.53-2.93,6.53-6.53v0C516.45,291.58,513.53,288.65,509.92,288.65z"/>
	</g>
	<g>
		<path class="st2" d="M410.24,220.27h-292.2V90.85c0-13.01,10.54-23.55,23.55-23.55h245.1c13.01,0,23.55,10.54,23.55,23.55V220.27z
			"/>
		<rect x="119.26" y="222.45" class="st3" width="289.75" height="31.03"/>
		<rect x="225.13" y="257.41" class="st2" width="78.02" height="31.03"/>
		<path class="st1" d="M384.95,56.52h-27.02v14.87h27.02c9.02,0,16.36,7.34,16.36,16.36v129.4H126.15V87.75
			c0-9.02,7.34-16.36,16.36-16.36h28.51V56.52h-28.51c-17.22,0-31.23,14.01-31.23,31.23v148.74c0,17.22,14.01,31.23,31.23,31.23
			h75.86v20.82h-23.8v10.74h138.32v-10.74h-23.8v-20.82h75.86c17.22,0,31.23-14.01,31.23-31.23V87.75
			C416.18,70.53,402.17,56.52,384.95,56.52z M294.22,288.54h-60.98v-20.82h60.98V288.54z M401.31,236.49
			c0,9.02-7.34,16.36-16.36,16.36H142.51c-9.02,0-16.36-7.34-16.36-16.36v-4.46h275.16V236.49z"/>
		<path class="st1" d="M367.67,180.91H228.5c-0.67,0-1.22,0.55-1.22,1.22v12.43c0,0.67,0.55,1.22,1.22,1.22h139.17
			c0.67,0,1.22-0.55,1.22-1.22v-12.43C368.89,181.45,368.34,180.91,367.67,180.91z"/>
		<path class="st1" d="M161.07,180.91c-0.67,0-1.22,0.55-1.22,1.22v12.36c0,0,0,0.01,0,0.01c0,0.7,0.52,1.28,1.22,1.28h39.71
			c0.67,0,1.22-0.55,1.22-1.22v-12.43c0-0.67-0.55-1.22-1.22-1.22H161.07z"/>
		<path class="st1" d="M368.22,145.51h-75.71c-0.37,0-0.66,0.55-0.66,1.22v12.43c0,0.67,0.3,1.22,0.66,1.22h75.71
			c0.37,0,0.66-0.55,0.66-1.22v-12.43C368.89,146.05,368.59,145.51,368.22,145.51z"/>
		<path class="st1" d="M161.07,145.51c-0.67,0-1.22,0.55-1.22,1.22v12.36c0,0,0,0.01,0,0.01c0,0.7,0.52,1.28,1.22,1.28h39.71
			c0.67,0,1.22-0.55,1.22-1.22v-12.43c0-0.67-0.55-1.22-1.22-1.22H161.07z"/>
		<path class="st1" d="M244.09,150.28H228.5c-0.67,0-1.22,0.55-1.22,1.22v12.43c0,0.67,0.55,1.22,1.22,1.22h9.65
			C241.22,160.69,243.43,155.55,244.09,150.28z"/>
		<g>
			<g id="XMLID_1_">
				<g>
					<path class="st3" d="M168.64,68.47c-3.81-6.18-5.95-13.32-5.95-20.93c0-22.35,18.31-40.67,40.67-40.67
						c22.35,0,40.67,18.31,40.67,40.67c0,1.66,0,3.33-0.24,4.99c-2.38,20.21-19.5,35.67-40.43,35.67
						C188.62,88.21,175.54,80.36,168.64,68.47z"/>
					<path class="st3" d="M287.55,52.54c-0.24-1.66-0.24-3.33-0.24-4.99c0-22.35,18.31-40.67,40.67-40.67
						c22.35,0,40.67,18.31,40.67,40.67c0,7.61-2.14,14.74-5.71,20.93c-7.13,11.89-19.98,19.74-34.72,19.74
						C307.29,88.21,289.93,72.51,287.55,52.54z"/>
					<polygon class="st4" points="244.27,92.01 244.03,67.28 244.98,67.28 286.6,67.28 287.31,67.28 287.07,92.01 286.6,92.01 
						244.98,92.01 					"/>
					<polygon class="st4" points="244.98,135.77 244.27,92.01 244.98,92.01 286.6,92.01 287.07,92.01 286.36,135.77 					"/>
					<path class="st4" d="M286.36,135.77l0.71-43.76l0.48-24.73l0.24-14.74c2.38,20.21,19.5,35.67,40.43,35.67
						c14.74,0,27.82-7.85,34.72-19.74l-31.87,75.39l0.24-0.24c-2.14,12.37-14.03,20.69-26.4,18.55
						C292.54,160.03,284.22,148.14,286.36,135.77z"/>
					<path class="st4" d="M243.79,52.54l0.24,14.74l0.24,24.73l0.71,43.76c2.14,12.37-6.18,24.26-18.55,26.4
						c-12.37,2.14-24.26-6.18-26.4-18.55l0.24,0.24l-31.63-75.39c7.13,11.89,19.98,19.74,34.96,19.74
						C224.05,88.21,241.41,72.51,243.79,52.54z"/>
				</g>
				<path class="st1" d="M162.53,72.04c0.15,0.26,0.32,0.51,0.47,0.76L193.3,145c2.89,16,18.23,26.72,34.31,23.94
					c7.79-1.35,14.6-5.68,19.17-12.19c2.98-4.25,4.77-9.09,5.27-14.11h27.26c0.5,5.02,2.28,9.86,5.27,14.11
					c4.57,6.51,11.38,10.84,19.17,12.19c7.79,1.35,15.66-0.42,22.16-4.98c6.45-4.52,10.75-11.24,12.15-18.94l31.09-73.54
					c4.18-7.41,6.39-15.67,6.39-23.94C375.52,21.33,354.3,0,328.22,0c-23.4,0-42.89,17-46.81,39.29c-0.3,0.74-0.47,1.54-0.49,2.39
					l-0.03,1.53c-0.13,1.43-0.21,2.87-0.21,4.33c0,0.92,0,1.9,0.04,2.93l-0.04,1.95l-0.13,7.98l-29.75,0l-0.12-7.56
					c0.22-1.9,0.23-3.7,0.23-5.31C250.9,21.33,229.47,0,203.12,0c-26.21,0-47.54,21.33-47.54,47.54
					C155.58,56.17,157.98,64.64,162.53,72.04z M235.52,148.86c-2.45,3.5-6.1,5.82-10.26,6.54c-8.16,1.41-15.97-3.64-18.11-11.43
					c0.01-0.93-0.16-1.87-0.54-2.76l-20.76-49.47c5.51,2.18,11.44,3.36,17.51,3.36c13.2,0,25.25-5.37,33.92-14.13l0.11,11.17
					l0.71,43.76c0.01,0.36,0.04,0.71,0.1,1.06C238.93,141.13,237.97,145.36,235.52,148.86z M251.74,128.9l-0.49-30.01l28.83,0
					l-0.49,30.01L251.74,128.9z M251.08,85.14l-0.11-10.98l29.4,0l-0.11,10.98L251.08,85.14z M324.74,141.18
					c-0.38,0.9-0.56,1.85-0.54,2.78c-0.97,3.53-3.14,6.6-6.2,8.75c-3.5,2.46-7.73,3.41-11.91,2.69c-4.16-0.72-7.81-3.04-10.26-6.54
					c-2.46-3.5-3.41-7.73-2.69-11.91c0.06-0.35,0.09-0.7,0.1-1.06l0.71-43.8l0.11-11.38c8.69,8.91,20.84,14.39,34.16,14.39
					c6.09,0,11.96-1.14,17.39-3.28L324.74,141.18z M328.22,13.75c18.5,0,33.55,15.16,33.55,33.79c0,2.82-0.38,5.64-1.08,8.4
					c-0.11,0.21-0.21,0.42-0.3,0.65l-3.57,8.71c-6.2,10.05-16.85,16.03-28.59,16.03c-16.87,0-31.63-13.01-33.6-29.61
					c-0.01-0.05-0.01-0.11-0.02-0.16c-0.06-0.41-0.09-0.85-0.12-1.3l0.14-6.31C296.41,27,310.8,13.75,328.22,13.75z M203.12,13.75
					c16.85,0,30.87,12.22,33.56,28.21c0,0.01,0,0.02,0,0.03l0.23,10.15c-2.17,16.67-16.51,29.2-33.54,29.2
					c-11.3,0-21.94-5.72-28.17-15.01l-0.21-0.51c-0.01-0.03-0.02-0.06-0.04-0.09l-4.04-9.27c-0.17-0.39-0.37-0.75-0.6-1.09
					c-0.63-2.55-0.97-5.17-0.97-7.82C169.33,28.91,184.49,13.75,203.12,13.75z"/>
			</g>
		</g>
	</g>
</g>
</svg>
