<?xml version="1.0" encoding="utf-8"?>
<!-- Generator: Adobe Illustrator 22.0.1, SVG Export Plug-In . SVG Version: 6.00 Build 0)  -->
<svg version="1.1" id="Layer_1" xmlns="http://www.w3.org/2000/svg" xmlns:xlink="http://www.w3.org/1999/xlink" x="0px" y="0px"
	 viewBox="0 0 100 100" style="enable-background:new 0 0 100 100;" xml:space="preserve">
<g>
	<path d="M89.6,27.6c-3-8-8.2-14.9-15.2-19.8C67.2,2.7,58.8,0,50,0C38.7,0,28.1,4.4,20.1,12.4C12.6,19.9,8.2,29.9,7.8,40.5l0,1
		l-0.9,0.6C2.6,45.1,0,50,0,55.2v13.2c0,8.8,7.1,15.9,15.9,15.9h7.7c2.4,0,4.3-1.9,4.3-4.3V43.6c0-2.4-1.9-4.3-4.3-4.3h-7.3l0.4-2.4
		C19.4,20.8,33.6,8.6,50,8.6c14,0,26.7,8.8,31.6,22c0.4,1.1,1.2,1.9,2.2,2.4c1,0.5,2.2,0.5,3.3,0.1C89.3,32.3,90.5,29.8,89.6,27.6z
		 M19.4,47.9v27.8h-3.5c-4,0-7.3-3.3-7.3-7.3V55.2c0-4,3.3-7.3,7.3-7.3H19.4z"/>
	<path d="M80.8,84.3h3.3c8.8,0,15.9-7.1,15.9-15.9V55.2c0-8.8-7.1-15.9-15.9-15.9h-7.7c-2.4,0-4.3,1.9-4.3,4.3v40.5
		c0,1.9-1.6,3.5-3.5,3.5H57l-0.6-0.8c-1.6-2-3.9-3.1-6.4-3.1c-4.5,0-8.2,3.7-8.2,8.2c0,4.5,3.7,8.2,8.2,8.2c2.5,0,4.8-1.1,6.4-3.1
		l0.6-0.8h11.6c5.9,0,10.9-4.2,11.9-10.1L80.8,84.3z M80.6,47.9h3.5c4,0,7.3,3.3,7.3,7.3v13.2c0,4-3.3,7.3-7.3,7.3h-3.5V47.9z"/>
</g>
</svg>
