<?xml version="1.0" encoding="utf-8"?>
<!-- Generator: Adobe Illustrator 23.0.4, SVG Export Plug-In . SVG Version: 6.00 Build 0)  -->
<svg version="1.0" id="Layer_1" xmlns="http://www.w3.org/2000/svg" xmlns:xlink="http://www.w3.org/1999/xlink" x="0px" y="0px"
	 viewBox="0 0 507.4 507.4" style="enable-background:new 0 0 507.4 507.4;" xml:space="preserve">
<g>
	<path d="M490.8,196.8c4.1,0.2,8-1.4,11-4.2c3.1-2.9,4.7-6.7,4.9-11.1V71.4c-0.1-8.6-7-15.3-15.6-15.3l-369.7,0
		c-5.4,0-10.5,2.8-13.3,7.2c-2.9,4.6-3.1,10.4-0.6,15.1l26.5,51.4l-1,0c-7.4,0.3-13.5,5.5-15.1,12.6l-52.7,0c-4-0.1-8,1.3-11,4.1
		c-2.6,2.5-4.3,5.7-4.8,9.3l-32.8,0.2c-8.8,0-15.6,6.7-15.6,15.2v86c0.1,4.1,1.7,8,4.7,10.9c2.9,2.8,7.1,4.4,11,4.4h32.8
		c1,7.7,7.7,13.7,15.7,13.7h52.9c1.7,6.7,8,11.6,15.3,11.6h86.2V413c0,8.6,7,15.6,15.6,15.6h240.6v7.2c0,8.6,7,15.6,15.6,15.6l0,0
		c8.6,0,15.5-7,15.5-15.6v-99.1c0-8.6-7-15.6-15.6-15.6h0c-8.6,0-15.6,7-15.6,15.6v0.6H314.4v-39.4h107.6c8.3,0,15-6.4,15.2-14.5
		c0-0.6,0-0.8,0-0.8v-85.8L490.8,196.8z M49.1,241.5H31.9v-54.1h17.2V241.5z M117.4,255.1H80.2v-81.5h37.2V255.1z M475.5,368.5v28.9
		H262.6c-6.7,0-12.2-5.5-12.2-12.2v-87.3h32.9v55c0,8.6,7,15.6,15.6,15.6H475.5z M406.2,266.7H148.5V161h1.4l13.9,27.2
		c2.6,5.2,7.9,8.5,13.9,8.6h228.6V266.7z M187.1,165.6l-40.3-78.3h328.8v78.3H187.1z"/>
	<circle cx="219" cy="227.9" r="14.8"/>
	<circle cx="270.9" cy="227.9" r="14.8"/>
</g>
</svg>
