<?xml version="1.0" encoding="utf-8"?>
<!-- Generator: Adobe Illustrator 22.0.1, SVG Export Plug-In . SVG Version: 6.00 Build 0)  -->
<svg version="1.1" id="Layer_1" xmlns="http://www.w3.org/2000/svg" xmlns:xlink="http://www.w3.org/1999/xlink" x="0px" y="0px"
	 viewBox="0 0 100 100" style="enable-background:new 0 0 100 100;" xml:space="preserve">
<g>
	<g>
		<g>
			<path d="M64,88C28.7,88,0,59.3,0,24c0-2.7,0.2-5.5,0.5-8.2C0.8,13.6,2.6,12,4.8,12h13.3c2.7,0,9.9,0,10.7,7
				c0,0.4,0.1,0.8,0.1,1.3c0.3,3.1,0.9,8.3,2.7,14c0.4,1.4,0.1,3-0.8,4.1l-5.3,6.1c4.2,8.5,11,15.4,17.7,18.2l4.7-5.4
				c1.1-1.3,2.9-1.8,4.5-1.3c5.8,1.7,10.9,2.8,15.7,3.3c7,0.7,7.1,8,7.1,12.9v11.2c0,2.2-1.6,4-3.8,4.3C68.9,87.8,66.4,88,64,88z
				 M70.9,83.3L70.9,83.3L70.9,83.3z M8.7,20.6c-0.1,1.1-0.1,2.2-0.1,3.4c0,30.6,24.9,55.4,55.4,55.4c0.8,0,1.7,0,2.5-0.1v-7.2
				c0-2.4-0.1-3.8-0.3-4.5c-4.3-0.5-8.8-1.4-13.7-2.8l-4.8,5.5c-1.1,1.2-2.8,1.8-4.3,1.3c-10.8-2.8-21.4-13.2-27-26.3
				c-0.6-1.5-0.4-3.3,0.7-4.5l5.6-6.5c-1.5-5.5-2-10.3-2.3-13.3c0-0.2,0-0.3,0-0.4c-0.4-0.1-1.1-0.1-2.2-0.1H8.7z"/>
		</g>
	</g>
	<g>
		<path d="M71.3,83.2c-2,0-3.8-1.4-4.2-3.4c-0.5-2.3,1-4.6,3.3-5.1c9.2-2,16.5-8.8,19.5-18.3C93,46.9,91.1,37,84.7,30
			c-5-5.5-12.5-8.8-20-8.8c-2.4,0-4.3-1.9-4.3-4.3c0-2.4,1.9-4.3,4.3-4.3c0,0,0,0,0,0c10,0,19.6,4.2,26.3,11.6
			c8.5,9.3,11.1,22.3,7.1,34.8c-4,12.5-13.7,21.5-25.9,24.1C71.9,83.2,71.6,83.2,71.3,83.2z"/>
	</g>
	<g>
		<path d="M47.5,21.2h-6.8c-2.4,0-4.3-1.9-4.3-4.3s1.9-4.3,4.3-4.3h6.8c2.4,0,4.3,1.9,4.3,4.3S49.9,21.2,47.5,21.2z"/>
	</g>
</g>
</svg>
