<?xml version="1.0" encoding="utf-8"?>
<!-- Generator: Adobe Illustrator 23.0.1, SVG Export Plug-In . SVG Version: 6.00 Build 0)  -->
<svg version="1.1" id="Layer_1" xmlns="http://www.w3.org/2000/svg" xmlns:xlink="http://www.w3.org/1999/xlink" x="0px" y="0px"
	 viewBox="0 0 512 512" style="enable-background:new 0 0 512 512;" xml:space="preserve">
<style type="text/css">
	.st0{stroke:#000000;stroke-width:6;stroke-miterlimit:10;}
</style>
<g>
	<path class="st0" d="M152.5,89.51c-8.28,0-15,6.71-15,15v30c0,8.28,6.71,15,15,15c8.29,0,15-6.71,15-15v-30
		C167.5,96.23,160.79,89.51,152.5,89.51z"/>
	<path class="st0" d="M152.5,239.5c-8.28,0-15,6.72-15,15v30c0,8.29,6.71,15,15,15c8.29,0,15-6.71,15-15v-30
		C167.5,246.22,160.79,239.5,152.5,239.5z"/>
	<path class="st0" d="M399.49,29.52h-72.82v0.2c-1.38-0.13-2.77-0.2-4.17-0.2H122.51c-24.81,0-45,20.18-45,55v340.98
		c0,9.55,12.54,26.22,30,32.41v17.58c0,8.29,6.72,15,15,15c8.29,0,15-6.71,15-15v-15H307.5v15c0,8.29,6.71,15,15,15
		c8.28,0,15-6.71,15-15v-15h47v15c0,8.29,6.71,15,15,15c8.28,0,15-6.71,15-15V457.9c17.46-6.19,30-22.86,30-32.41V84.51
		C444.49,49.7,424.3,29.52,399.49,29.52z M107.51,74.51c0-8.27,6.73-15,15-15H322.5c8.27,0,15,6.73,15,15v104.99h-10.83H107.51
		V74.51z M122.51,430.49c-8.27,0-15-6.73-15-15V209.5h219.16h10.83v205.99c0,8.27-6.73,15-15,15H122.51z M414.49,415.49
		c0,8.27-6.73,15-15,15h-32.91c0.6-1.8,0.91-3.49,0.91-5V209.5h47V415.49z M414.49,179.51h-47V84.51c0-9.45-1.5-17.82-4.16-25h36.16
		c8.27,0,15,6.73,15,15V179.51z"/>
</g>
</svg>
