<?xml version="1.0" encoding="utf-8"?>
<!-- Generator: Adobe Illustrator 21.1.0, SVG Export Plug-In . SVG Version: 6.00 Build 0)  -->
<svg version="1.1" id="Artwork" xmlns="http://www.w3.org/2000/svg" xmlns:xlink="http://www.w3.org/1999/xlink" x="0px" y="0px"
	 viewBox="0 0 100 100" style="enable-background:new 0 0 100 100;" xml:space="preserve">
<g>
	<g>
		<path d="M70.5,72.8H21.7c-1.4,0-2.5,1.1-2.5,2.5v0c0,1.4,1.1,2.5,2.5,2.5h48.1c1.2,0,2.3-0.9,2.5-2.1C72.5,74.3,71.3,73,70.5,72.8
			z"/>
		<path d="M69.8,79.7H21.7c-2.4,0-4.4-2-4.4-4.4c0-2.4,2-4.4,4.4-4.4h49.1L71,71c1.8,0.5,3.4,2.7,3.1,5.1
			C73.8,78.1,71.9,79.7,69.8,79.7z M21.7,74.6c-0.4,0-0.7,0.3-0.7,0.7c0,0.4,0.3,0.7,0.7,0.7h48.1c0.3,0,0.6-0.2,0.7-0.5
			c0.1-0.4-0.2-0.7-0.4-0.9H21.7z M69.9,74.5L69.9,74.5L69.9,74.5z"/>
	</g>
	<g>
		<g>
			<path d="M31.2,11.1H10.1c-5.2,0-9.5,4.3-9.5,9.6v67.2c0,5.4,4.3,9.8,9.5,9.8h71.4c5.2,0,9.5-4.3,9.5-9.6V56.7
				c0-2.1-1.7-3.8-3.8-3.8c-2.1,0-3.8,1.7-3.8,3.8V88c0,1.2-0.9,2.1-2,2.1H10.1c-1.1,0-2-0.9-2-2.1V20.8c0-1.2,0.9-2.1,2-2.1
				l21.1-0.1c2.1,0,3.8-1.7,3.8-3.8S33.3,11.1,31.2,11.1z"/>
			<path d="M81.5,98.3H10.1C4.5,98.3,0,93.6,0,87.9V20.7C0,15,4.5,10.4,10.1,10.4h21.1c2.4,0,4.4,2,4.4,4.4s-2,4.4-4.4,4.4l-21,0.1
				c-0.8,0-1.3,0.6-1.3,1.5V88c0,0.8,0.6,1.5,1.3,1.5h71.4c0.8,0,1.3-0.6,1.3-1.5V56.7c0-2.4,2-4.4,4.4-4.4c2.4,0,4.4,2,4.4,4.4V88
				C91.6,93.7,87.1,98.3,81.5,98.3z M10.1,11.7c-4.9,0-8.9,4-8.9,9v67.2c0,5,4,9.2,8.9,9.2h71.4c4.9,0,8.9-4,8.9-9V56.7
				c0-1.7-1.4-3.2-3.2-3.2c-1.7,0-3.2,1.4-3.2,3.2V88c0,1.5-1.1,2.7-2.6,2.7H10.1c-1.4,0-2.6-1.2-2.6-2.7V20.8
				c0-1.5,1.1-2.7,2.6-2.7l21-0.1c1.7,0,3.2-1.4,3.2-3.2s-1.4-3.2-3.2-3.2H10.1z"/>
		</g>
		<g>
			<path d="M99.4,29.8c-0.1-1.1-0.5-2.6-1.9-3.6l0,0L68.4,3.3C67,2.2,65.1,2,63.5,2.8c-1.6,0.8-2.6,2.4-2.6,4.2v8.7l-1.3,0.3
				c-10.9,2.5-36.9,11.1-42.4,37.3c-0.4,2.1,0.6,4.2,2.5,5.1c0.8,0.3,1.4,0.5,2,0.5c1.3,0,2.6-0.6,3.5-1.6c3.9-4.5,9.7-7.7,17.3-9.7
				c5-1.3,10.6-2,16.7-2.1l1.7,0v8.3c0,1.8,1,3.4,2.7,4.2l0,0c1.5,0.8,3.4,0.5,4.9-0.6l29.2-24.1C98.8,32.4,99.4,31.2,99.4,29.8z
				 M68.4,47.7v-4.8c0-2.4-1.9-4.5-4.2-4.6c-0.4,0-0.9,0-1.4,0c-0.8,0-1.9-0.1-3.2-0.1c-6.7,0-16.6,0.8-25.8,4.5l-6.1,2.5l4.2-5.1
				c7.2-8.8,18.2-14.6,32.8-17.4c2.2-0.4,3.8-2.3,3.8-4.5V13L90,29.8L68.4,47.7z"/>
			<path d="M21.7,59.6c-0.8,0-1.4-0.2-2.3-0.6l0,0c-2.1-1-3.2-3.4-2.8-5.8C22.2,26.6,48.4,18,59.4,15.5l0.8-0.2V7.1
				c0-2,1.1-3.9,3-4.8c1.8-0.9,3.9-0.7,5.5,0.6l29.1,22.8c1.6,1.2,2.1,2.9,2.2,4.1l0,0l0,0c0,1.6-0.7,3-1.9,4L68.9,57.9
				c-1.7,1.3-3.8,1.6-5.5,0.7l0,0c-1.9-0.9-3.1-2.7-3.1-4.8v-7.6l-1.1,0c-6,0.1-11.6,0.8-16.5,2c-7.5,1.9-13.2,5.1-17,9.5
				C24.6,58.9,23.1,59.6,21.7,59.6z M19.9,57.9c0.7,0.3,1.2,0.5,1.8,0.5c1.1,0,2.3-0.5,3.1-1.4c3.9-4.6,9.9-7.9,17.6-9.9
				c5-1.3,10.7-2,16.8-2.1l2.3,0v8.9c0,1.6,0.9,3,2.4,3.6l0,0c1.3,0.7,3,0.4,4.2-0.6l29.2-24.1c0.9-0.8,1.5-1.8,1.5-3.1
				c-0.1-0.9-0.4-2.2-1.7-3.1l0,0L68,3.8c-1.2-1-2.8-1.1-4.2-0.4c-1.4,0.7-2.3,2.1-2.3,3.7v9.2l-1.8,0.4
				c-10.8,2.4-36.5,10.9-41.9,36.8C17.5,55.3,18.3,57.1,19.9,57.9z M67.8,49.1v-6.1c0-2.1-1.6-3.9-3.6-4c-0.4,0-0.9,0-1.5,0
				c-0.8,0-1.9-0.1-3.1-0.1c-6.6,0-16.4,0.8-25.6,4.5l-8.3,3.4l5.7-7c7.3-8.9,18.4-14.8,33.1-17.6c1.9-0.3,3.3-2,3.3-3.9v-6.5
				l23.2,18L67.8,49.1z M59.6,37.6c1.3,0,2.3,0,3.2,0.1c0.5,0,1,0,1.4,0l0,0c2.6,0.1,4.8,2.5,4.8,5.2v3.5l20-16.6L69,14.3v4
				c0,2.5-1.8,4.6-4.3,5.1C50.3,26,39.4,31.8,32.3,40.5l-2.6,3.2l3.9-1.6C42.9,38.4,52.9,37.6,59.6,37.6z"/>
		</g>
	</g>
</g>
</svg>
