<?xml version="1.0" encoding="utf-8"?>
<!-- Generator: Adobe Illustrator 23.0.4, SVG Export Plug-In . SVG Version: 6.00 Build 0)  -->
<svg version="1.0" id="Layer_1" xmlns="http://www.w3.org/2000/svg" xmlns:xlink="http://www.w3.org/1999/xlink" x="0px" y="0px"
	 viewBox="0 0 507.4 507.4" style="enable-background:new 0 0 507.4 507.4;" xml:space="preserve">
<g>
	<path d="M157.8,323.9h-18v-17.8c0-9.7-8-17.5-17.8-17.5s-17.8,7.9-17.8,17.5v17.8h-18c-9.8,0-17.7,7.9-17.7,17.5
		c0,9.7,7.9,17.6,17.7,17.6h18v17.8c0,9.7,8,17.6,17.8,17.6s17.8-7.9,17.8-17.6V359h18c9.8,0,17.8-7.9,17.8-17.6
		C175.6,331.8,167.6,323.9,157.8,323.9z"/>
	<path d="M369.7,315.3c10.7,0,19.3-8.5,19.3-19.1s-8.7-19.1-19.3-19.1s-19.3,8.5-19.3,19.1S359,315.3,369.7,315.3z"/>
	<path d="M332,314.3c-10.7,0-19.3,8.6-19.3,19.1s8.7,19.1,19.3,19.1c10.7,0,19.3-8.6,19.3-19.1C351.4,322.8,342.7,314.3,332,314.3z"
		/>
	<path d="M369.7,351.4c-10.7,0-19.3,8.5-19.3,19.1s8.6,19.1,19.3,19.1s19.3-8.5,19.3-19.1S380.3,351.4,369.7,351.4z"/>
	<path d="M407.3,314.3c-10.7,0-19.3,8.6-19.3,19.1s8.7,19.1,19.3,19.1c10.7,0,19.3-8.5,19.3-19.1
		C426.6,322.8,417.9,314.3,407.3,314.3z"/>
	<path d="M485.9,295.3l-0.2-0.5c-21.3-42.1-55.3-72.1-93.4-82.4c-13.7-3.7-28.9-4-42.8-1.4c-6.8,1.3-13.5,3.3-19.8,6.1
		c-1,0.4-1.9,0.9-2.9,1.4c-2.7-19.2-19.3-34-39.5-34h-14v-32.1c0-12-9.8-21.8-21.9-21.9l-75.6-1c-4.3-0.1-7.7-3.5-7.7-7.7
		s3.5-7.7,7.8-7.7h180.6c17.6,0,31.9-14.1,31.9-31.6V17.1c0-9.7-8-17.6-17.8-17.6S353,7.4,353,17.1v52.2c0,5.4-4.4,9.8-9.9,9.8H176
		c-23.9,0-43.3,19.2-43.3,42.8c0,23.4,19,42.5,42.8,42.8l62.4,0.8v19h-12.3c-19.9,0-36.4,14.5-39.4,33.4
		c-21.3-12.2-45.8-15.1-70.5-8.2c-38.3,10.2-72.9,40.9-94.8,84.3C-16.8,368.1-4,457,49.5,492.3c15.4,10,32.5,15,50.2,15
		c8.4,0,16.9-1.1,25.5-3.4c20-5.4,38.2-15.9,53.7-29.6c8.6-7.5,16.3-16,23.3-25c3.6-4.7,7-9.7,10.2-14.7c3.2-5,4.5-8.6,10.5-10.5
		c7.4-2.3,15-4,22.8-4.7c10-1,20.1-0.6,30,1.2c4.8,0.8,10,1.3,14.3,3.7c4.7,2.5,6.9,7.1,9.7,11.4c7,10.7,14.7,20.9,23.6,30.1
		c16.1,16.7,35.9,30.8,58.4,37.4c0.8,0.2,1.7,0.5,2.5,0.7c26.7,6.9,52.4,2.8,74.2-11.7C510.3,458,522.6,368.3,485.9,295.3z
		 M225.6,218h61.8c3.3,0,6.1,2.8,6.1,6c0,3.3-2.8,6-6.1,6h-59c-1.4-0.3-2.8-0.5-4.2-0.8c-0.7-0.1-1.4-0.3-2.1-0.4
		c-1.6-1.1-2.7-2.8-2.7-4.8C219.5,220.7,222.3,218,225.6,218z M436.9,461.3c-12.7,8.4-27.9,10.6-44,6.4
		c-16.9-4.4-31.5-15.3-43.3-27.8c-6.3-6.6-12.2-14-17.4-21.6c-4.7-7-7.2-15.7-13.7-21.5c-5.4-4.7-12.1-6-18.8-7.9
		c-6.6-1.8-12.9-4.2-19.7-5.3c-10.3-1.7-20.8-2.3-31.2-1.8c-10.5,0.5-20.9,2.1-31.1,4.8c-9,2.4-19.7,5-27,11.2
		c-7,6-10.4,15.4-15.5,22.9c-5.4,7.9-11.5,15.3-18.3,22c-11.9,11.6-26.4,21.4-42.7,25.5c-16.6,4.2-31.9,1.9-45.1-6.9
		C31.2,436.5,24.2,369,53.7,310.8c16.5-33.1,43-57.3,70.9-64.7c6.9-1.7,11.8-2.4,16.4-2.4c11,0,20.6,2.8,29.5,8.9l3.8,1.9
		c50.6,19.5,106.9,20.6,158.9,2.9l5.2-2.4c13-8.3,27.9-10.4,44.2-6.2c26.6,6.8,52.6,30.5,69.4,63.2
		C480.9,368.5,474.3,436.9,436.9,461.3z"/>
</g>
</svg>
