<?xml version="1.0" encoding="utf-8"?>
<!-- Generator: Adobe Illustrator 23.0.1, SVG Export Plug-In . SVG Version: 6.00 Build 0)  -->
<svg version="1.1" id="Layer_1" xmlns="http://www.w3.org/2000/svg" xmlns:xlink="http://www.w3.org/1999/xlink" x="0px" y="0px"
	 viewBox="0 0 100 100" style="enable-background:new 0 0 100 100;" xml:space="preserve">
<g>
	<path d="M79.5,63.1l-15.3-9.6L64,53.3c-0.1-0.1-0.2-0.1-0.4-0.2c-0.4-0.3-0.9-0.4-1.4-0.5l-0.3,0c0,0,0,0-0.1,0l-0.3,0
		c-0.7,0-1.4,0.1-2.1,0.4c-0.2,0.1-0.4,0.2-0.6,0.3c-0.1,0.1-0.2,0.1-0.3,0.2l-0.3,0.2l-0.1,0.2c-0.1,0.1-0.1,0.1-0.2,0.2l-2.2,2.2
		c-4.4-2.6-8.3-6.5-12-12.3l1.8-1.8c0.1-0.1,0.2-0.2,0.3-0.3c0.1-0.1,0.1-0.1,0.2-0.2l0.7-0.8v-0.3c0-0.1,0-0.1,0.1-0.2
		c0,0,0,0,0-0.1l0.1-0.4c0-0.1,0.1-0.2,0.1-0.4l0-0.1c0-0.1,0-0.1,0-0.2l0-0.2c0-0.1,0-0.2,0-0.3c0-0.1,0-0.2,0-0.3l0-0.3
		c0,0,0,0,0-0.1l-0.1-0.4c0-0.1,0-0.1-0.1-0.2l-0.2-0.5c-0.1-0.2-0.2-0.4-0.2-0.5l-9.8-16.1c-0.4-0.7-1-1.2-1.7-1.6v-0.7l-2.4,0.2
		c-0.3,0-0.6,0.1-0.9,0.2c-5.3,1.6-9.2,4.6-11.4,8.6c-2,3.6-2.5,8-1.5,13c1.6,8.1,6.9,17.1,15,25.3C42,73.9,50.9,79.4,59,81
		c1.7,0.3,3.3,0.5,4.8,0.5c3.1,0,5.9-0.7,8.3-1.9c4.1-2.1,7.2-6.1,9.1-11.4C82,66.3,81.2,64.2,79.5,63.1z M68.1,71.9
		c-1.9,1-4.4,1.2-7.4,0.6c-6.1-1.3-14-6.3-20.6-13c-6.6-6.8-11.5-14.8-12.6-20.9c-0.6-2.9-0.3-5.3,0.7-7.2c0.7-1.3,1.8-2.3,3.2-3.2
		l6,9.9l-2.1,2.1c-1.4,1.4-1.7,3.5-0.7,5.2C40.5,55.7,46.9,62,54.9,65.6c1.7,0.7,3.5,0.4,4.8-0.9l2.3-2.3l9.6,6
		C70.7,70,69.5,71.1,68.1,71.9z"/>
	<path d="M50,0C22.4,0,0,22.4,0,50c0,9.4,2.6,18.6,7.7,26.6L2.5,93.5c-0.3,1.1-0.2,2.3,0.3,3.3c0.6,1,1.5,1.8,2.6,2.1
		c0.9,0.3,1.8,0.2,2.7-0.1l16.5-5.7C32.3,97.7,41,100,50,100c27.6,0,50-22.5,50-50.1S77.6,0,50,0z M50,91.3c-8,0-15.8-2.3-22.4-6.6
		C26.8,84.3,26,84,25.2,84c-0.5,0-1,0.1-1.4,0.2l-10.4,3.6l3.2-10.7c0.4-1.3,0.2-2.6-0.6-3.7c-4.8-7-7.3-15.1-7.3-23.5
		c0-11.1,4.3-21.4,12.1-29.2C28.6,13,38.9,8.7,50,8.7c22.8,0,41.3,18.5,41.3,41.3S72.8,91.3,50,91.3z"/>
</g>
</svg>
