<?xml version="1.0" encoding="utf-8"?>
<!-- Generator: Adobe Illustrator 22.0.1, SVG Export Plug-In . SVG Version: 6.00 Build 0)  -->
<svg version="1.1" id="Layer_1" xmlns="http://www.w3.org/2000/svg" xmlns:xlink="http://www.w3.org/1999/xlink" x="0px" y="0px"
	 viewBox="0 0 100 100" style="enable-background:new 0 0 100 100;" xml:space="preserve">
<g>
	<path d="M75,0L62,0C47.5,0,38,9.7,38,24.6V36H25c-1.1,0-2,0.9-2,2v16.4c0,1.1,0.9,2,2,2h13V98c0,1.1,0.9,2,2,2h17c1.1,0,2-0.9,2-2
		V56.5h15.2c1.1,0,2-0.9,2-2l0-16.4c0-0.5-0.2-1.1-0.6-1.4S74.9,36,74.4,36H59.1v-9.6c0-4.6,1.1-7,7.1-7l8.7,0c1.1,0,2-0.9,2-2V2.1
		C77,0.9,76.1,0,75,0z"/>
</g>
</svg>
