<?xml version="1.0" encoding="utf-8"?>
<!-- Generator: Adobe Illustrator 23.0.1, SVG Export Plug-In . SVG Version: 6.00 Build 0)  -->
<svg version="1.1" id="Isolation_Mode" xmlns="http://www.w3.org/2000/svg" xmlns:xlink="http://www.w3.org/1999/xlink" x="0px"
	 y="0px" viewBox="0 0 100 100" style="enable-background:new 0 0 100 100;" xml:space="preserve">
<g>
	<path d="M86.1,19H13.9C9,19,5,23,5,27.9V72c0,5,4,9,8.9,9H86c4.9,0,8.9-4,8.9-8.9V27.9C95,23,91,19,86.1,19z M82.6,68
		c-0.8,0.7-1.7,1-2.7,1s-2.1-0.4-2.9-1.2L62,52.5L52.5,60c-0.7,0.6-1.6,0.9-2.5,0.9c-0.9,0-1.8-0.3-2.5-0.9l-6.7-5.3
		c-0.1,0.1-0.1,0.1-0.2,0.2L22.7,70.1c-0.8,0.6-1.7,1-2.6,1c-1.2,0-2.3-0.5-3.1-1.5c-1.4-1.7-1-4.3,0.7-5.7l16.7-14.2L18.6,37.1
		c-1.7-1.4-2-3.9-0.7-5.6c1.4-1.7,3.9-2,5.6-0.7l26.5,21l26.4-20.9c1.7-1.4,4.2-1.1,5.6,0.7c1.4,1.7,1.1,4.2-0.7,5.6l-13,10.3
		L82.6,62C84.2,63.7,84.3,66.5,82.6,68z"/>
</g>
</svg>
