<?xml version="1.0" encoding="utf-8"?>
<!-- Generator: Adobe Illustrator 23.0.4, SVG Export Plug-In . SVG Version: 6.00 Build 0)  -->
<svg version="1.0" id="Layer_1" xmlns="http://www.w3.org/2000/svg" xmlns:xlink="http://www.w3.org/1999/xlink" x="0px" y="0px"
	 viewBox="0 0 507.4 507.4" style="enable-background:new 0 0 507.4 507.4;" xml:space="preserve">
<g>
	<path d="M445.5,37.3H61.9c-34.1,0-61.8,27.7-61.8,61.7V312c0,34.1,27.7,61.8,61.8,61.8h87.5v34.4c0,10.6,8,19.1,18.2,19.5
		c5.3,0.3,10.3-1.6,14.2-5.3c3.8-3.7,5.9-8.6,5.9-13.8v-34.8h46.9v76.8c0,10.6,8,19.1,18.3,19.5h0.8c4.9,0,9.5-1.8,13.3-5.3
		c3.8-3.7,5.8-8.6,5.8-13.8v-77.2h46.9v34.4c0,10.6,8,19.1,18.2,19.5c5.3,0.3,10.3-1.6,14.2-5.3c3.8-3.7,5.9-8.6,5.9-13.8v-34.8
		h87.5c34.1,0,61.8-27.7,61.8-61.8V98.9C507.3,64.9,479.6,37.3,445.5,37.3z M469.1,305.6v6.4c0,13-10.6,23.5-23.5,23.5H61.9
		c-13,0-23.5-10.6-23.5-23.5v-6.4H469.1z M38.3,197.3V98.9c0-13,10.6-23.5,23.5-23.5h383.7c13,0,23.5,10.6,23.5,23.5v100.2H40.2
		v-1.8H38.3z M469.1,237.4v29.9H38.3v-29.9H469.1z"/>
	<path d="M219.6,169.2h68.2c10.5,0,19.1-8.6,19.1-19.1c0-10.5-8.6-19.1-19.1-19.1h-68.2c-10.5,0-19.1,8.6-19.1,19.1
		C200.5,160.7,209.1,169.2,219.6,169.2z"/>
</g>
</svg>
