<?xml version="1.0" encoding="utf-8"?>
<!-- Generator: Adobe Illustrator 23.0.4, SVG Export Plug-In . SVG Version: 6.00 Build 0)  -->
<svg version="1.0" id="Layer_1" xmlns="http://www.w3.org/2000/svg" xmlns:xlink="http://www.w3.org/1999/xlink" x="0px" y="0px"
	 viewBox="0 0 507.4 507.4" style="enable-background:new 0 0 507.4 507.4;" xml:space="preserve">
<g>
	<path d="M257.2,119.7c-83.9,0-127.8,102.1-127.8,202.9c0,106.8,55.2,124.2,109.2,127.2l3.6,0.2v26.7h-60.2c-8.3,0-15,6.7-15,15
		s6.7,15,15,15h150.4c8.3,0,15-6.7,15-15s-6.7-15-15-15h-60.2v-26.7l3.6-0.2C372,444.5,385,382.6,385,322.6
		C385,221.8,341.1,119.7,257.2,119.7z M354.3,341.7c-4.7,66.5-36.4,78.7-97,78.7c-60.7,0-92.3-12.2-97-78.7l-0.3-4.1h194.7
		L354.3,341.7z M354.6,307.6H159.9l0.3-4c4.8-76.5,39.7-153.9,97.1-153.9c57.4,0,92.3,77.4,97.1,153.9L354.6,307.6z"/>
	<path d="M254,94c7.5,0,14.1-6.1,14.1-13.1V12.7c0-6.7-6.3-12.1-14.1-12.1c-7.9,0-14.1,5.5-14.1,12.6v68.2
		C239.9,88.5,246.1,94,254,94z"/>
	<path d="M155,115.5c3.2,0,5.3-1,7-1.7c3.4-1.7,5.8-4.4,6.7-7.6c0.9-3.1,0.4-6.5-1.6-9.5l-38.3-59.3c-1.9-3-5-5.1-8.6-6
		c-3.5-0.8-7.3-0.3-10.7,1.4c-3.4,1.7-5.8,4.4-6.7,7.6c-0.9,3.1-0.4,6.5,1.6,9.5l38.2,59.2C145,112.9,149.9,115.5,155,115.5z"/>
	<path d="M404.4,40.4c-0.9-3.2-3.3-5.9-6.7-7.6c-3.4-1.7-7.2-2.2-10.8-1.3c-3.5,0.9-6.5,3-8.4,5.9l-38.3,59.3
		c-1.9,3-2.5,6.4-1.5,9.5c0.9,3.2,3.3,5.9,6.7,7.6l0.3,0.1c0.8,0.4,3.8,1.6,6.7,1.6c5.2,0,10.1-2.6,12.2-6.3l38.3-59.3
		C404.8,46.9,405.3,43.6,404.4,40.4z"/>
</g>
</svg>
