<?xml version="1.0" encoding="utf-8"?>
<!-- Generator: Adobe Illustrator 23.0.4, SVG Export Plug-In . SVG Version: 6.00 Build 0)  -->
<svg version="1.0" id="Layer_1" xmlns="http://www.w3.org/2000/svg" xmlns:xlink="http://www.w3.org/1999/xlink" x="0px" y="0px"
	 viewBox="0 0 507.4 507.4" style="enable-background:new 0 0 507.4 507.4;" xml:space="preserve">
<g>
	<path d="M283.9,260.3c-12.1,0-22,9.7-22,21.7c0,11.9,9.8,21.7,22,21.7c12.1,0,22-9.7,22-21.7C305.8,270,296,260.3,283.9,260.3z"/>
	<path d="M331,299.6c3.8,2.7,8.2,4.1,12.8,4.1c1.2,0,2.4-0.1,3.6-0.3c5.8-0.9,10.9-4,14.3-8.7c3.4-4.7,4.8-10.4,3.8-16.1
		c-1.9-11.8-13.3-19.8-25.2-17.9s-20.1,13-18.1,24.9C323.2,291.2,326.3,296.2,331,299.6z"/>
	<path d="M404.8,260.3c-12.1,0-22,9.7-22,21.7c0,11.9,9.8,21.7,22,21.7s22-9.7,22-21.7C426.8,270,417,260.3,404.8,260.3z"/>
	<path d="M283.9,324c-12.1,0-22,9.7-22,21.7s9.8,21.7,22,21.7c12.1,0,22-9.7,22-21.7S296,324,283.9,324z"/>
	<path d="M352.3,325.7c-5.4-2.2-11.4-2.2-16.8,0c-11.2,4.6-16.5,17.3-11.9,28.3c2.2,5.3,6.5,9.5,11.9,11.8c2.7,1.1,5.6,1.6,8.4,1.6
		c2.8,0,5.7-0.5,8.4-1.6c5.4-2.2,9.6-6.4,11.9-11.8c2.2-5.3,2.2-11.2,0-16.6C361.9,332.1,357.7,327.9,352.3,325.7z"/>
	<ellipse cx="404.8" cy="345.7" rx="22" ry="21.7"/>
	<path d="M283.9,387.8c-12.1,0-22,9.7-22,21.7c0,11.9,9.8,21.7,22,21.7c12.1,0,22-9.7,22-21.7C305.8,397.4,296,387.8,283.9,387.8z"
		/>
	<path d="M356.7,391.8c-4.8-3.3-10.5-4.7-16.3-3.8c-5.8,0.9-10.9,4-14.3,8.7c-3.4,4.7-4.8,10.4-3.8,16.1c0.9,5.7,4,10.8,8.8,14.1
		c3.8,2.7,8.2,4.1,12.8,4.1c1.2,0,2.4-0.1,3.6-0.3c11.9-1.9,20.1-13,18.1-24.9C364.6,400.2,361.5,395.3,356.7,391.8z"/>
	<path d="M404.8,387.8c-12.1,0-22,9.7-22,21.7c0,11.9,9.8,21.7,22,21.7s22-9.7,22-21.7C426.8,397.4,417,387.8,404.8,387.8z"/>
	<path d="M458.3,29.5H199.9c-15-18.9-37.4-29.7-61.7-29.7S91.6,10.6,76.6,29.5H48c-26.6,0-48.2,21.4-48.2,47.6v382.6
		c0,26.2,21.6,47.6,48.2,47.6h410.3c26.6,0,48.2-21.4,48.2-47.6V77.1C506.4,50.9,484.8,29.5,458.3,29.5z M35.9,77.1
		c0-6.5,5.4-11.9,12-11.9h13c-0.6,3.9-0.9,7.9-0.9,11.9v273.5c0,42.6,35.1,77.3,78.3,77.3s78.3-34.7,78.3-77.3V142.6
		c0-3.3-0.4-68.4-1.1-77.3h242.9c6.6,0,12,5.3,12,11.9v382.6c0,6.5-5.4,11.9-12,11.9H48c-6.6,0-12-5.3-12-11.9L35.9,77.1L35.9,77.1z
		 M180.4,350.6c0,23-18.9,41.6-42.1,41.6s-42.1-18.6-42.1-41.6V77.1c0-23,18.9-41.6,42.1-41.6s42.1,18.6,42.1,41.6V350.6z"/>
	<path d="M261.7,235.3h163.5c9.7,0,17.6-7.8,17.6-17.4v-98c0-9.6-7.9-17.3-17.5-17.3H261.7c-9.7,0-17.6,7.8-17.6,17.4v98
		C244.1,227.5,252,235.3,261.7,235.3z M279.3,200.5v-63.4h128.3v63.4H279.3z"/>
</g>
</svg>
