<?xml version="1.0" encoding="utf-8"?>
<!-- Generator: Adobe Illustrator 23.0.4, SVG Export Plug-In . SVG Version: 6.00 Build 0)  -->
<svg version="1.0" id="Layer_1" xmlns="http://www.w3.org/2000/svg" xmlns:xlink="http://www.w3.org/1999/xlink" x="0px" y="0px"
	 viewBox="0 0 507.4 507.4" style="enable-background:new 0 0 507.4 507.4;" xml:space="preserve">
<g>
	<path d="M396.3,267.1H358V57.7c0-5.4-4-9.7-9-9.7h-78.3V18.5c0-9.7-7.9-17.6-17.6-17.6c-9.7,0-17.6,7.9-17.6,17.6V48h-77.4
		c-5,0-9,4.3-9,9.7v209.4h-37.9c-8.1,0-14.8,7.1-14.8,15.8s6.6,15.8,14.8,15.8h53.6l-1.7,24.8h-31.6c-8.2,0-14.8,6.6-14.8,14.8
		s6.6,14.8,14.8,14.8h29.5l-9.3,134.4c-0.4,4.6,1.1,9.1,4.2,12.6c3.2,3.5,7.6,5.7,12.5,6.1c0.5,0,1.1,0.1,1.6,0.1
		c9.4,0,17.4-6.8,18.3-15.8l9.5-137.4h39.6l-0.5,136.1c0,9,7.3,16.5,16.6,17.3c0.5,0,1.1,0.1,1.6,0.1c4.9,0,9.5-1.8,13-5
		c3.5-3.3,5.4-7.6,5.4-12.2l0.5-136.2h40.7l9.5,137.4c0.8,9,8.9,15.8,18.3,15.8c0.5,0,1.1,0,1.6-0.1c4.9-0.4,9.3-2.6,12.5-6.1
		c3.1-3.5,4.6-8,4.2-12.6L351.4,353h8.8c8.2,0,14.8-6.6,14.8-14.8s-6.6-14.8-14.8-14.8h-10.9l-1.7-24.8h48.6
		c8.1,0,14.8-7.1,14.8-15.8S404.4,267.1,396.3,267.1z M179.3,267.1v-53l18.1-17.1l64.8,70.1H179.3z M296.5,267.1l-15.3-16.5
		l29.8-32.2l16.7,15.8v33H296.5z M327.8,80.4v119.1l-7.6-7.2c-5.7-5.4-14.7-5.1-20,0.7l-36.1,39l-55.8-60.4
		c-5.3-5.7-14.3-6.1-20-0.7l-9,8.5V80.4H327.8z M199.7,323.5l1.7-24.8h36l-0.1,24.8H199.7z M274,323.5l0.1-24.8h36.8l1.7,24.8H274z"
		/>
	<path d="M261.8,200.8c8.4,0,15.2-6.8,15.2-15.2s-6.8-15.2-15.2-15.2s-15.2,6.8-15.2,15.2S253.4,200.8,261.8,200.8z"/>
</g>
</svg>
