<?xml version="1.0" encoding="utf-8"?>
<!-- Generator: Adobe Illustrator 23.0.4, SVG Export Plug-In . SVG Version: 6.00 Build 0)  -->
<svg version="1.0" id="Layer_1" xmlns="http://www.w3.org/2000/svg" xmlns:xlink="http://www.w3.org/1999/xlink" x="0px" y="0px"
	 viewBox="0 0 507.4 507.4" style="enable-background:new 0 0 507.4 507.4;" xml:space="preserve">
<g>
	<path d="M470.5,237.6h-2.8V46.3c0-25.6-21-46.4-46.8-46.4c-12.5,0-24.2,4.8-33,13.6l-20.3,20.1c-3.8-2.6-8.4-3.7-12.9-2.9L288,54.3
		c-6.5,1-11.9,5.6-14,11.8c-2.1,6.3-0.5,13.1,4.1,17.9l61.6,62.9c3.3,3.4,7.9,5.4,12.7,5.4c1.6,0,3.2-0.2,5-0.7
		c6.4-1.8,11.1-7,12.4-13.4L395.4,72c0.9-4.7-0.1-9.6-2.8-13.5l20.3-20.1c2.1-2.1,5-3.3,8.1-3.3c6.2,0,11.3,5,11.3,11.1v191.3H312.6
		c-0.6-29.9-25.1-54-55.2-54c-30.1,0-54.5,24.1-55.2,54H38.8c-21.1,0-39.1,22-39.1,43c0,15.5,12.8,35.8,27.3,41.6l23.1,87.2
		c8.3,28.9,33.5,51,63.3,56l-8.2,16.4c-2.1,4.2-2.5,9-1,13.4c1.5,4.5,4.7,8.1,9,10.3c2.5,1.2,5.1,1.8,7.9,1.8
		c6.7,0,12.8-3.7,15.8-9.7l15.6-31h204.3l15.7,31.1c3,6,9.1,9.7,15.8,9.7c2.7,0,5.3-0.6,7.9-1.8c4.2-2.1,7.4-5.7,8.9-10.2
		c1.5-4.5,1.1-9.2-1-13.4l-8.3-16.4c29.8-5,55-27.1,63.3-56l25.4-88.3c14.5-5.7,23-25.8,23-41.4
		C507.7,258.8,491.6,237.6,470.5,237.6z M349.2,113.5l-37.2-37.8l39.8-13.2l10.5,9.9L349.2,113.5z M257.4,214.6
		c13,0,23.5,10.2,24.1,23h-48.2C234,224.8,244.5,214.6,257.4,214.6z M425.2,399.6c-5.4,18.6-22.7,31.6-42.3,31.6H126.5
		c-19.5,0-36.9-13-42.3-31.6l-21.9-75.9H447L425.2,399.6z M470.5,287c0,0.9-0.7,1.5-1.5,1.5H40.4c-0.9,0-1.5-0.7-1.5-1.5v-12.6
		c0-0.9,0.7-1.5,1.5-1.5H469c0.9,0,1.5,0.7,1.5,1.5V287z"/>
	<path d="M158.1,204.2c30.4,0,55.2-24.8,55.2-55.2s-24.8-55.2-55.2-55.2c-30.4,0-55.2,24.8-55.2,55.2S127.7,204.2,158.1,204.2z
		 M158.1,124.8c13.4,0,24.2,10.9,24.2,24.2s-10.9,24.2-24.2,24.2c-13.4,0-24.2-10.9-24.2-24.2S144.8,124.8,158.1,124.8z"/>
</g>
</svg>
