<?xml version="1.0" encoding="utf-8"?>
<!-- Generator: Adobe Illustrator 23.0.1, SVG Export Plug-In . SVG Version: 6.00 Build 0)  -->
<svg version="1.1" id="Layer_1" xmlns="http://www.w3.org/2000/svg" xmlns:xlink="http://www.w3.org/1999/xlink" x="0px" y="0px"
	 viewBox="0 0 100 83" style="enable-background:new 0 0 100 83;" xml:space="preserve">
<g>
	<path d="M82.1,9.21H17.9c-5.79,0-10.5,4.71-10.5,10.5v46.8c0,5.79,4.71,10.5,10.5,10.5h64.2c5.79,0,10.5-4.71,10.5-10.5v-46.8
		C92.6,13.92,87.89,9.21,82.1,9.21z M17.9,71.91c-0.04,0-0.07,0-0.11,0c-2.1,0-4.04-1.23-4.95-3.16l-0.48-1.03L31.3,51.31
		l14.08,9.83L33.79,71.91H17.9z M87.6,66.51c0,3.03-2.47,5.5-5.5,5.5H41.2l22.17-20.74L87.6,64.52V66.51z M87.6,58.86L66.77,47.32
		c-2.46-1.34-5.5-0.95-7.55,0.98l-10.09,9.43l-14-9.8c-2.43-1.7-5.71-1.53-7.96,0.41L12.4,61.08V19.71c0-3,2.41-5.45,5.4-5.5v0h64.3
		c3.03,0,5.5,2.47,5.5,5.5V58.86z"/>
	<path d="M46.4,19.51c-7.28,0-13.2,5.92-13.2,13.2c0,7.28,5.92,13.2,13.2,13.2c7.28,0,13.2-5.92,13.2-13.2
		C59.6,25.43,53.68,19.51,46.4,19.51z M46.4,40.91c-4.52,0-8.2-3.68-8.2-8.2s3.68-8.2,8.2-8.2s8.2,3.68,8.2,8.2
		S50.92,40.91,46.4,40.91z"/>
</g>
</svg>
