<svg id="Layer_3" enable-background="new 0 0 64 64" height="512" viewBox="0 0 64 64" width="512" xmlns="http://www.w3.org/2000/svg"><g><path d="m22 6h20v14h-20z" fill="#f4b2b0"/><g fill="#b3404a"><path d="m42 21c.553 0 1-.447 1-1v-14-4c0-.553-.447-1-1-1h-20c-.553 0-1 .447-1 1v4 14c0 .553.447 1 1 1zm-1-2h-18v-12h18zm-4.414-14h-2.172l2-2h2.172zm4.414-1.586v1.586h-1.586zm-9.414 1.586h-2.172l2-2h2.172zm-4.586-.414v-1.586h1.586zm-2-1.586v2h-2v-2z"/><path d="m25 9h2v2h-2z"/><path d="m29 9h10v2h-10z"/><path d="m37 13h2v2h-2z"/><path d="m25 13h10v2h-10z"/><path d="m62 17h-17v2h16v4h-58v-4h16v-2h-17c-.553 0-1 .447-1 1v6c0 .553.447 1 1 1h3v37c0 .553.447 1 1 1h52c.553 0 1-.447 1-1v-37h3c.553 0 1-.447 1-1v-6c0-.553-.447-1-1-1zm-23 44h-6v-23h6zm-8 0h-6v-23h6zm26 0h-16v-24c0-.553-.447-1-1-1h-16c-.553 0-1 .447-1 1v24h-16v-36h50z"/><path d="m10 48h10c.553 0 1-.447 1-1v-10c0-.553-.447-1-1-1h-10c-.553 0-1 .447-1 1v10c0 .553.447 1 1 1zm1-5h3v3h-3zm5 3v-3h3v3zm3-5h-3v-3h3zm-5-3v3h-3v-3z"/><path d="m44 48h10c.553 0 1-.447 1-1v-10c0-.553-.447-1-1-1h-10c-.553 0-1 .447-1 1v10c0 .553.447 1 1 1zm1-5h3v3h-3zm5 3v-3h3v3zm3-5h-3v-3h3zm-5-3v3h-3v-3z"/><path d="m34 48h2v4h-2z"/><path d="m28 48h2v4h-2z"/></g></g></svg>