<?xml version="1.0" encoding="utf-8"?>
<!-- Generator: Adobe Illustrator 22.0.1, SVG Export Plug-In . SVG Version: 6.00 Build 0)  -->
<svg version="1.1" id="Layer_1" xmlns="http://www.w3.org/2000/svg" xmlns:xlink="http://www.w3.org/1999/xlink" x="0px" y="0px"
	 viewBox="0 0 100 100" style="enable-background:new 0 0 100 100;" xml:space="preserve">
<g>
	<path d="M49.9,25.2C35.7,25.2,24,36.7,24,51s11.5,25.8,25.8,25.8S75.7,65.2,75.7,51S64,25.2,49.9,25.2z M49.9,67.6
		c-9.1,0-16.5-7.5-16.5-16.5s7.5-16.5,16.5-16.5S66.4,42,66.4,51S58.9,67.6,49.9,67.6z"/>
	<circle cx="76.7" cy="24.6" r="5.8"/>
	<path d="M91.8,9.5c-5.2-5.4-12.7-8.3-21.2-8.3H29.1C11.5,1.3-0.1,12.9-0.1,30.5v41.3c0,8.7,2.8,16.1,8.5,21.6
		c5.4,5.2,12.7,7.9,21,7.9h41.1c8.7,0,15.9-2.8,21.2-7.9c5.4-5.2,8.3-12.7,8.3-21.4V30.5C99.8,22,97,14.8,91.8,9.5z M91,72
		c0,6.3-2.2,11.3-5.8,14.7c-3.6,3.4-8.7,5.2-14.7,5.2H29.3c-6,0-11.1-1.8-14.7-5.2c-3.6-3.6-5.4-8.7-5.4-14.9V30.5
		c0-6,1.8-11.1,5.4-14.7c3.4-3.4,8.7-5.2,14.7-5.2h41.5c6,0,11.1,1.8,14.7,5.4C89,19.6,91,24.6,91,30.5V72L91,72z"/>
</g>
</svg>
