<?xml version="1.0" encoding="utf-8"?>
<!-- Generator: Adobe Illustrator 23.0.4, SVG Export Plug-In . SVG Version: 6.00 Build 0)  -->
<svg version="1.0" id="Layer_1" xmlns="http://www.w3.org/2000/svg" xmlns:xlink="http://www.w3.org/1999/xlink" x="0px" y="0px"
	 viewBox="0 0 507.4 507.4" style="enable-background:new 0 0 507.4 507.4;" xml:space="preserve">
<g>
	<path d="M438.4,82.8l-0.5-0.2l-85.7-54.1c-60.8-37.5-136.3-37.5-197.1,0L69,82.8c-24.6,2.6-43,23.3-42.8,48.2v16.5
		c-0.3,23.9,17.2,44.6,40.6,48.2l0.4,0.1l24.4,24.2v66.7v24.7v32c0,90.2,72.8,163.6,162.2,163.6c89.4,0,162.2-73.4,162.2-163.6v-123
		l24.4-24.6l0.4-0.1c23.4-3.6,40.9-24.3,40.6-48.2V131C481.4,106.1,463,85.4,438.4,82.8z M374.3,303.9l-3.9,38.8
		c-1.2,8-6.1,12.7-13.2,12.7h-57.5c-7.3,0-13.5-24.1-16.3-44.3h35.7c19.1,0,36.9-5.7,51.8-15.3C373,297.9,374.3,300.7,374.3,303.9z
		 M133.1,293.4c15.7,11.1,34.6,17.7,55.2,17.7h29.2c-2.8,20.3-9,44.3-16.3,44.3h-57.5c-7.1,0-12-4.8-13.2-12.6l-3.9-38.7
		C126.6,299.4,129.2,295.5,133.1,293.4z M383.6,230.3c-7.6,29.7-34.1,50.4-64.5,50.4H188.3c-30.4,0-56.9-20.8-64.5-50.4l-0.4-1.6
		H384L383.6,230.3z M253.7,476.5c-60.8,0-112.1-41.7-127.4-98.2c2.8,1,5.7,1.6,8.8,1.6h76.5c18,0,27.3-38.9,31.7-68.8h14.3
		c4.5,29.8,13.7,68.8,31.7,68.8h76.5c6.2,0,11.7-2.1,16.4-5.7C368.3,432.8,316,476.5,253.7,476.5z M451.1,147.5
		c0,9.8-7.9,17.8-17.6,17.8c-4-0.1-7.8,1.5-10.7,4.4l-28.2,28.6H112.8l-0.4-0.4l-27.8-28.2c-2.8-2.8-6.6-4.4-10.6-4.4
		c-9.6,0.1-17.7-7.9-17.7-17.8V131c0-9.8,7.9-17.8,17.6-17.8c3,0,5.7-0.8,8.2-2.3l89.2-56.2c50.8-31.2,114-31.2,164.8,0l89.4,56.2
		c2.4,1.5,5.1,2.3,7.9,2.3c0,0,0,0,0,0c9.7,0,17.6,8,17.6,17.8V147.5z"/>
	<path d="M253.7,66.4c-26.3,0-47.8,21.6-47.8,48.2c0,26.6,21.4,48.2,47.8,48.2s47.8-21.6,47.8-48.2C301.5,88,280,66.4,253.7,66.4z
		 M253.7,132.3c-9.7,0-17.6-8-17.6-17.8c0-9.8,7.9-17.8,17.6-17.8s17.6,8,17.6,17.8C271.3,124.3,263.4,132.3,253.7,132.3z"/>
</g>
</svg>
