<?xml version="1.0" encoding="utf-8"?>
<!-- Generator: Adobe Illustrator 23.0.1, SVG Export Plug-In . SVG Version: 6.00 Build 0)  -->
<svg version="1.1" id="Layer_1" xmlns="http://www.w3.org/2000/svg" xmlns:xlink="http://www.w3.org/1999/xlink" x="0px" y="0px"
	 viewBox="0 0 512 512" style="enable-background:new 0 0 512 512;" xml:space="preserve">
<style type="text/css">
	.st0{stroke:#000000;stroke-width:2;stroke-miterlimit:10;}
</style>
<g>
	<path class="st0" d="M67.23,482.33L103,428.66h306l35.78,53.67c2.24,3.36,5.66,5.64,9.63,6.44c3.97,0.79,8,0,11.36-2.24
		c6.95-4.63,8.83-14.05,4.2-20.99l-27.41-41.12l5.38-2.42c27.15-12.21,44.69-39.25,44.69-68.88v-156.1H366.22l2.36-6.67
		c2.15-6.06,3.24-12.28,3.24-18.47c0-30.55-24.86-55.41-55.41-55.41S261,141.33,261,171.88c0,6.19,1.09,12.41,3.24,18.47l2.36,6.67
		H49.63V53.19H99.9v45.27c0,8.35,6.79,15.14,15.14,15.14s15.14-6.79,15.14-15.14V29.26c0-3.5-2.84-6.34-6.34-6.34H25.7
		c-3.5,0-6.34,2.84-6.34,6.34v323.85c0,29.63,17.55,56.67,44.71,68.89l5.38,2.42l-27.41,41.12c-4.63,6.94-2.74,16.36,4.2,20.99
		c3.37,2.24,7.4,3.04,11.37,2.25C61.57,487.99,64.98,485.7,67.23,482.33z M316.41,146.74c13.86,0,25.14,11.28,25.14,25.14
		c0,13.86-11.28,25.14-25.14,25.14c-13.86,0-25.14-11.28-25.14-25.14C291.27,158.02,302.55,146.74,316.41,146.74z M49.63,227.29
		h412.74v50.27H49.63V227.29z M49.63,353.11v-45.27h412.74v45.27c0,24.96-20.31,45.27-45.27,45.27H94.9
		C69.94,398.39,49.63,378.08,49.63,353.11z"/>
	<path class="st0" d="M437.23,22.92c-30.55,0-55.41,24.86-55.41,55.41c0,30.55,24.86,55.41,55.41,55.41
		c30.55,0,55.41-24.86,55.41-55.41C492.65,47.78,467.79,22.92,437.23,22.92z M437.23,103.47c-13.86,0-25.14-11.28-25.14-25.14
		c0-13.86,11.28-25.14,25.14-25.14c13.86,0,25.14,11.28,25.14,25.14C462.37,92.19,451.1,103.47,437.23,103.47z"/>
</g>
</svg>
