<?xml version="1.0" encoding="utf-8"?>
<!-- Generator: Adobe Illustrator 23.0.1, SVG Export Plug-In . SVG Version: 6.00 Build 0)  -->
<svg version="1.1" id="Layer_1" xmlns="http://www.w3.org/2000/svg" xmlns:xlink="http://www.w3.org/1999/xlink" x="0px" y="0px"
	 viewBox="0 0 100 100" style="enable-background:new 0 0 100 100;" xml:space="preserve">
<g>
	<g>
		<path d="M4,67.2h0.2v26.5h91.6V67.2H96c0.8,0,1.5-0.4,2-0.9c0.5-0.6,0.7-1.4,0.5-2.1l-2.7-13.6c-0.2-1.2-1.3-2-2.5-2H68.9v-1.7
			h0.2c1.1,0,2.1-0.7,2.4-1.8c0.3-1.1-0.1-2.2-0.9-2.8l-18-12.9v-7.1h11.1c1.4,0,2.5-1.1,2.5-2.5V8.8c0-1.4-1.1-2.5-2.5-2.5H50
			c-1.4,0-2.5,1.1-2.5,2.5v20.5l-18,12.9c-0.9,0.7-1.3,1.8-0.9,2.8c0.3,1.1,1.3,1.8,2.4,1.8h0.2v1.7H6.8c-1.2,0-2.3,0.9-2.5,2
			L1.5,64.2c-0.2,0.8,0.1,1.5,0.5,2.1C2.5,66.9,3.3,67.2,4,67.2z M52.5,11.3h8.5v5.8h-8.5V11.3z M31.1,91.1H9.3V67.2h21.8V91.1z
			 M52.9,91.1h-5.8v-8.5h5.8V91.1z M68.9,53.6h22.2l1.7,8.5h-24L68.9,53.6L68.9,53.6z M68.9,67.2h21.8v23.9H68.9V67.2z M50,33.7
			l11.1,8H38.9L50,33.7z M36.2,46.8h27.6v44.3H58V80c0-1.4-1.1-2.5-2.5-2.5H44.5c-1.4,0-2.5,1.1-2.5,2.5v11.1h-5.8L36.2,46.8
			L36.2,46.8z M8.9,53.6h22.2v8.5h-24L8.9,53.6z"/>
		<path d="M97.2,95.2H2.8V68.5c-0.7-0.2-1.4-0.7-1.8-1.3c-0.7-0.9-1-2.2-0.8-3.3l2.7-13.6c0.4-1.9,2-3.2,3.9-3.2H28
			c-0.4-0.4-0.8-1-0.9-1.6c-0.5-1.6,0-3.4,1.5-4.5L46,28.6V8.8c0-2.2,1.8-4,4-4h13.6c2.2,0,4,1.8,4,4v10.9c0,2.2-1.8,4-4,4H54v4.9
			L71.4,41c1.4,1,2,2.8,1.5,4.5c-0.2,0.6-0.5,1.2-0.9,1.6h21.3c1.9,0,3.6,1.4,3.9,3.2l2.7,13.6c0.2,1.2-0.1,2.4-0.8,3.3
			c-0.5,0.6-1.1,1-1.8,1.2V95.2z M92.1,92.3h2.2V65.8H96c0.3,0,0.6-0.2,0.8-0.4c0.2-0.2,0.3-0.6,0.2-0.9l-2.7-13.6
			c-0.1-0.5-0.6-0.9-1.1-0.9H67.5v-4.6h1.6c0.5,0,0.9-0.3,1-0.7c0.1-0.5,0-1-0.4-1.2L51.1,30v-9.3h12.6c0.6,0,1.1-0.5,1.1-1.1V8.8
			c0-0.6-0.5-1.1-1.1-1.1H50c-0.6,0-1.1,0.5-1.1,1.1V30L30.3,43.4c-0.4,0.3-0.5,0.8-0.4,1.2c0.1,0.5,0.6,0.8,1,0.8h1.6V50H6.8
			c-0.5,0-1,0.4-1.1,0.9L3,64.5c-0.1,0.4,0.1,0.7,0.2,0.9c0.2,0.3,0.6,0.4,0.8,0.4h1.6v26.5h2.2V65.8h24.7v26.5h2.2v-47h30.6v47h2.2
			V65.8h24.7V92.3z M54.4,92.3h2.2V80c0-0.6-0.5-1.1-1.1-1.1H44.5c-0.6,0-1.1,0.5-1.1,1.1v12.3h2.2V81.1h8.7V92.3z M70.4,89.6h18.9
			V68.7H70.4V89.6z M59.4,89.6h2.9V48.3H37.6v41.4h2.9V80c0-2.2,1.8-4,4-4h10.9c2.2,0,4,1.8,4,4V89.6z M48.5,89.6h2.9V84h-2.9V89.6z
			 M10.8,89.6h18.9V68.7H10.8V89.6z M94.6,63.6H67.5V52.1h24.9L94.6,63.6z M70.4,60.7h20.7L90,55.1H70.4V60.7z M32.5,63.6H5.4
			l2.3-11.5h24.9V63.6z M8.9,60.7h20.7v-5.6H10L8.9,60.7z M65.7,43.2H34.3L50,31.9L65.7,43.2z M43.4,40.2h13.2L50,35.5L43.4,40.2z
			 M62.5,18.6H51.1V9.9h11.5V18.6z M54,15.7h5.6v-2.9H54V15.7z"/>
	</g>
	<g>
		<path d="M73.1,81.6v3.3c0,0.6,0.5,1,1,1h3.1c0.6,0,1-0.5,1-1v-3.3c0-0.6-0.5-1-1-1h-3.1C73.5,80.6,73.1,81,73.1,81.6z"/>
	</g>
	<g>
		<path d="M80.7,81.6v3.3c0,0.6,0.5,1,1,1h3.1c0.6,0,1-0.5,1-1v-3.3c0-0.6-0.5-1-1-1h-3.1C81.1,80.6,80.7,81,80.7,81.6z"/>
	</g>
	<g>
		<path d="M13.9,81.6v3.3c0,0.6,0.5,1,1,1H18c0.6,0,1-0.5,1-1v-3.3c0-0.6-0.5-1-1-1h-3.1C14.3,80.6,13.9,81,13.9,81.6z"/>
	</g>
	<g>
		<path d="M21.5,81.6v3.3c0,0.6,0.5,1,1,1h3.1c0.6,0,1-0.5,1-1v-3.3c0-0.6-0.5-1-1-1h-3.1C21.9,80.6,21.5,81,21.5,81.6z"/>
	</g>
	<g>
		<g>
			<path d="M73.1,74.6v1.7c0,0.6,0.5,1,1,1h3.1c0.6,0,1-0.5,1-1v-1.7c0-1.4-1.1-2.5-2.5-2.5l0,0C74.2,72.1,73.1,73.2,73.1,74.6z"/>
		</g>
		<g>
			<path d="M80.7,74.6v1.7c0,0.6,0.5,1,1,1h3.1c0.6,0,1-0.5,1-1v-1.7c0-1.4-1.1-2.5-2.5-2.5l0,0C81.8,72.1,80.7,73.2,80.7,74.6z"/>
		</g>
		<g>
			<path d="M13.9,74.6v1.7c0,0.6,0.5,1,1,1H18c0.6,0,1-0.5,1-1v-1.7c0-1.4-1.1-2.5-2.5-2.5l0,0C15,72.1,13.9,73.2,13.9,74.6z"/>
		</g>
		<g>
			<path d="M21.5,74.6v1.7c0,0.6,0.5,1,1,1h3.1c0.6,0,1-0.5,1-1v-1.7c0-1.4-1.1-2.5-2.5-2.5l0,0C22.6,72.1,21.5,73.2,21.5,74.6z"/>
		</g>
		<g>
			<path d="M42.7,66.4v3.3c0,0.6,0.5,1,1,1h3.1c0.6,0,1-0.5,1-1v-3.3c0-0.6-0.5-1-1-1h-3.1C43.2,65.5,42.7,65.9,42.7,66.4z"/>
		</g>
		<g>
			<path d="M51.8,66.4v3.3c0,0.6,0.5,1,1,1h3.1c0.6,0,1-0.5,1-1v-3.3c0-0.6-0.5-1-1-1h-3.1C52.2,65.5,51.8,65.9,51.8,66.4z"/>
		</g>
		<g>
			<path d="M42.7,54.4v6.8c0,0.6,0.5,1,1,1h3.1c0.6,0,1-0.5,1-1v-6.8c0-1.4-1.1-2.5-2.5-2.5l0,0C43.8,51.9,42.7,53.1,42.7,54.4z"/>
		</g>
		<g>
			<path d="M51.8,54.4v6.8c0,0.6,0.5,1,1,1h3.1c0.6,0,1-0.5,1-1v-6.8c0-1.4-1.1-2.5-2.5-2.5l0,0C52.9,51.9,51.8,53.1,51.8,54.4z"/>
		</g>
	</g>
</g>
</svg>
