<?xml version="1.0" encoding="utf-8"?>
<!-- Generator: Adobe Illustrator 23.0.1, SVG Export Plug-In . SVG Version: 6.00 Build 0)  -->
<svg version="1.1" id="Layer_1" xmlns="http://www.w3.org/2000/svg" xmlns:xlink="http://www.w3.org/1999/xlink" x="0px" y="0px"
	 viewBox="0 0 100 100" style="enable-background:new 0 0 100 100;" xml:space="preserve">
<g>
	<path d="M38,91.7l24-15.6V54.3L78,39V27.3h-0.3c0.2-0.6,0.3-1.3,0.3-2c0-8.9-14.5-13-28-13s-28,4.1-28,12.9c0,0.7,0.1,1.4,0.3,2H22
		v11.7l16,15.4V91.7z M50,20.3c12.2,0,19,3.4,19.9,4.9c-1,1.5-7.7,4.9-19.9,4.9s-19-3.4-19.9-4.9C31,23.7,37.8,20.3,50,20.3z
		 M30,35.6v-0.9c5.4,2.4,12.9,3.5,20,3.5s14.6-1.1,20-3.5v0.9L54,50.9v20.8l-8,5.2v-26L30,35.6z"/>
</g>
</svg>
