<?xml version="1.0" encoding="utf-8"?>
<!-- Generator: Adobe Illustrator 23.0.1, SVG Export Plug-In . SVG Version: 6.00 Build 0)  -->
<svg version="1.1" id="Artwork" xmlns="http://www.w3.org/2000/svg" xmlns:xlink="http://www.w3.org/1999/xlink" x="0px" y="0px"
	 viewBox="0 0 512 512" style="enable-background:new 0 0 512 512;" xml:space="preserve">
<style type="text/css">
	.st0{stroke:#000000;stroke-width:18;stroke-miterlimit:10;}
</style>
<g>
	<path class="st0" d="M473,352.9V174c0-23.8-19.4-43.2-43.2-43.2H403V59.7c0-15.8-12.9-28.7-28.7-28.7H137.5
		c-15.8,0-28.7,12.9-28.7,28.7v71.2H82.2C58.4,130.8,39,150.2,39,174v178.9c0,23.8,19.4,43.2,43.2,43.2h26.7v56.2
		c0,15.8,12.9,28.7,28.7,28.7h236.8c15.8,0,28.7-12.9,28.7-28.7v-56.2h26.7C453.6,396.1,473,376.8,473,352.9z M133.4,59.7
		c0-2.3,1.9-4.2,4.2-4.2h236.8c2.3,0,4.2,1.9,4.2,4.2v71.2H133.4V59.7z M378.6,452.3c0,2.3-1.9,4.2-4.2,4.2H137.6
		c-2.3,0-4.2-1.9-4.2-4.2V275.7h245.1v176.6H378.6z M390.8,251.2H121.2c-6.8,0-12.3,5.5-12.3,12.3v108.1H82.2
		c-10.3,0-18.7-8.4-18.7-18.7V174c0-10.3,8.4-18.7,18.7-18.7h347.5c10.3,0,18.7,8.4,18.7,18.7v178.9c0,10.3-8.4,18.7-18.7,18.7H403
		V263.5C403.1,256.7,397.6,251.2,390.8,251.2z"/>
	<path class="st0" d="M102.5,194.4c-2.3,2.3-3.6,5.4-3.6,8.7c0,3.2,1.3,6.4,3.6,8.7c2.3,2.3,5.4,3.6,8.7,3.6c3.2,0,6.4-1.3,8.7-3.6
		c2.3-2.3,3.6-5.5,3.6-8.7s-1.3-6.4-3.6-8.7C115.2,189.8,107,189.8,102.5,194.4z"/>
	<path class="st0" d="M325.5,384.9h-139c-6.8,0-12.3,5.5-12.3,12.3s5.5,12.3,12.3,12.3h138.9c6.8,0,12.3-5.5,12.3-12.3
		S332.2,384.9,325.5,384.9z"/>
</g>
</svg>
