<?xml version="1.0" encoding="utf-8"?>
<!-- Generator: Adobe Illustrator 22.0.1, SVG Export Plug-In . SVG Version: 6.00 Build 0)  -->
<svg version="1.1" id="Layer_1" xmlns="http://www.w3.org/2000/svg" xmlns:xlink="http://www.w3.org/1999/xlink" x="0px" y="0px"
	 viewBox="0 0 100 100" style="enable-background:new 0 0 100 100;" xml:space="preserve">
<g>
	<path d="M63.3,19H35.3c-1.9,0-3.4,1.5-3.4,3.4s1.5,3.4,3.4,3.4h27.9c1.9,0,3.4-1.5,3.4-3.4S65.1,19,63.3,19z"/>
	<path d="M63.3,36.3H35.3c-1.9,0-3.4,1.5-3.4,3.4s1.5,3.4,3.4,3.4h27.9c1.9,0,3.4-1.5,3.4-3.4S65.1,36.3,63.3,36.3z"/>
	<path d="M100,38.4c0-1.1-0.6-2.2-1.5-2.9l-16-11.9v-20c0-2-1.7-3.7-3.7-3.7H21.2c-2,0-3.7,1.7-3.7,3.7v20l-16,11.9
		c-0.9,0.7-1.5,1.8-1.5,3v57.9c0,2,1.7,3.7,3.7,3.7h92.6c2,0,3.7-1.7,3.7-3.7L100,38.4L100,38.4z M9.8,38.5l7.6-5.7v11.4L9.8,38.5z
		 M82.5,44.2V32.8l7.6,5.7L82.5,44.2z M50,68.5c-0.7-0.5-2-1.5-4.4-3.3L24.9,49.7V7.4h50.3v42.3L50,68.5z M15.1,81.6
		c-0.8,0.6-1.3,1.5-1.4,2.4c-0.1,1,0.1,1.9,0.7,2.7c1.2,1.6,3.5,2,5.2,0.7l21.8-16.4l6.5,4.8c1.3,1,3.1,1,4.4,0l6.5-4.8l21.8,16.4
		c0.8,0.6,1.8,0.8,2.7,0.7c1-0.1,1.8-0.7,2.4-1.4c0.6-0.8,0.8-1.8,0.7-2.7c-0.1-1-0.6-1.8-1.4-2.4L64.8,66.6l27.8-20.8v46.8H7.4
		V45.8l27.8,20.8L15.1,81.6z"/>
</g>
</svg>
