<?xml version="1.0" encoding="utf-8"?>
<!-- Generator: Adobe Illustrator 23.0.1, SVG Export Plug-In . SVG Version: 6.00 Build 0)  -->
<svg version="1.1" id="Layer_1" xmlns="http://www.w3.org/2000/svg" xmlns:xlink="http://www.w3.org/1999/xlink" x="0px" y="0px"
	 viewBox="0 0 547.1 510.2" style="enable-background:new 0 0 547.1 510.2;" xml:space="preserve">
<g>
	<path d="M167.5,429.9c-7.7,0.9-14.1,8-13.8,15.7v6.1c0,4,1.6,8,4.6,11c3,3,6.9,4.8,10.9,4.8c4,0,7.9-1.7,10.8-4.8
		c3-3,4.8-7,4.6-10.9v-6.1c0.1-4.2-1.8-8.4-5.2-11.6C176.1,431,171.7,429.5,167.5,429.9z"/>
	<path d="M124.4,393c-7.7,0.9-14.1,8-13.8,15.7v6.1c0,4,1.6,8,4.6,11c3,3,6.9,4.8,10.9,4.8s8-1.7,10.8-4.8c3-3,4.8-7,4.6-10.9v-6.1
		c0.1-4.2-1.8-8.4-5.2-11.6C133.1,394.1,128.7,392.6,124.4,393z"/>
	<path d="M215.2,368.8L215,368c-0.5-2.7-1.2-6.1-3.5-10.1c-1.8-3.1-4.9-6.1-8.4-8.3v-39c0-8.3-7.3-15.6-15.6-15.6
		c-11.9,0-24.4,0-36.6,0c-5.2,0-10.4,0-15.5,0V15.9c0.1-4.2-1.8-8.4-5.2-11.6c-3.4-3.1-7.8-4.6-12-4.2c-7.7,0.9-14.1,8-13.8,15.7
		v279.4H51.3H51c-7.7,0.6-14.1,7.8-14.1,15.5v12c0,8.6,0,18,0,26.9c-3.7,2.2-6.6,5.2-8.4,8.3c-2.3,4-2.9,7.3-3.5,10.1L0.3,491.5
		c-0.9,4.3,0.4,9,3.5,12.8c3,3.8,7.3,5.9,11.8,5.9c0.1,0,0.1,0,0.1,0h208.8h0.1c4.4,0,8.8-2.1,11.8-5.8c3.1-3.7,4.3-8.4,3.5-12.8
		L215.2,368.8z M68,344.1c0-6.1,0-12.1,0-18c11.2,0,22.5,0,33.8,0c23.2,0,47.2-0.1,70.3,0v18H68z M98.6,409.9
		c0.4-4.4-1.4-9.1-5-12.5c-3.6-3.5-8.3-5.1-12.8-4.4c-7,1-13,7.3-13.3,14.5l-5.5,71.7H34.5L55.2,376c3.2-0.4,10.2-1,21.8-1h76.6
		v27.5c0,4,1.6,8,4.6,11c3,3,6.9,4.8,10.9,4.8c4,0,7.9-1.7,10.9-4.8c3-3,4.8-7,4.6-10.9v-26.4c0.1,0,0.1,0,0.2,0l20.6,103H93.4
		L98.6,409.9z"/>
	<path d="M339.2,342c-3.4-3.1-7.8-4.6-12-4.2c-7.7,0.9-14.1,8-13.8,15.7v55.2c0,22.2,17.9,40.1,40.1,40.1h30.7c0.1,0,0.1,0,0.2,0
		c3.9,0,7.8-1.6,10.8-4.4c3-3,4.8-6.9,4.8-10.9c0-4-1.7-7.9-4.8-10.9c-3-3-6.9-4.6-10.8-4.6c-0.1,0-0.1,0-0.2,0h-30.7
		c-2.6,0-9.1-6.1-9.1-9.1v-55.2C344.5,349.4,342.6,345.2,339.2,342z"/>
	<path d="M546.8,227.8c-4.2-23.9-16.6-45.7-35-61.5c-18.6-16-42.2-24.8-66.3-24.8H341.1c-24.1,0-47.7,8.9-66.3,24.9
		c-18.4,15.9-30.8,37.7-35,61.7c-0.8,4.2,0.5,8.8,3.6,12.4c3,3.7,7.3,5.7,11.7,5.7h9.1v162.6c0,24.2,8.4,46.7,23.7,63.2
		c15.5,16.8,36.5,25.9,59.4,25.9h92.2c22.9,0,44-9.3,59.7-26c15.2-16.5,23.7-39,23.7-63.2V329c0-4-1.6-8-4.6-11
		c-3-3-6.9-4.8-10.9-4.8c-4,0-7.9,1.7-10.9,4.8c-3,3-4.8,7-4.6,10.9v79.9c0,34.8-21,58.1-52.1,58.1h-92.2
		c-31.1,0-52.1-23.3-52.1-58.1V246.2h195.9v33.5c0,4,1.6,8,4.6,11s6.9,4.8,10.9,4.8c4,0,7.9-1.7,10.9-4.8c3-3,4.8-7,4.6-10.9v-33.6
		h9.1c4.4,0,8.8-2.2,11.8-5.8C546.4,236.7,547.7,232.1,546.8,227.8z M341.3,172.5h104.4c27.2,0,51.9,16.6,63.9,42.7H277.4
		C289.4,189.1,313.9,172.5,341.3,172.5z"/>
</g>
</svg>
