<?xml version="1.0" encoding="utf-8"?>
<!-- Generator: Adobe Illustrator 23.0.1, SVG Export Plug-In . SVG Version: 6.00 Build 0)  -->
<svg version="1.1" id="Artwork" xmlns="http://www.w3.org/2000/svg" xmlns:xlink="http://www.w3.org/1999/xlink" x="0px" y="0px"
	 viewBox="0 0 512 512" style="enable-background:new 0 0 512 512;" xml:space="preserve">
<style type="text/css">
	.st0{stroke:#000000;stroke-width:18;stroke-miterlimit:10;}
	.st1{stroke:#000000;stroke-width:6;stroke-miterlimit:10;}
</style>
<path class="st0" d="M879.81,370.17H642.36c-6.83,0-12.36,5.53-12.36,12.36l0,0c0,6.83,5.53,12.36,12.36,12.36h233.99
	c5.91,0,11.19-4.18,12.08-10.03C889.57,377.49,883.59,371.27,879.81,370.17z"/>
<g>
	<path class="st1" d="M170.59,66.53H68.13c-25.48,0-46.22,21.03-46.22,46.88v326.91c0,26.22,20.73,47.54,46.22,47.54H415.4
		c25.48,0,46.22-21.03,46.22-46.88V288.59c0-10.12-8.23-18.35-18.35-18.35c-10.12,0-18.35,8.23-18.35,18.35v152.39
		c0,5.71-4.18,10.19-9.52,10.19H68.13c-5.34,0-9.52-4.47-9.52-10.19V114.08c0-5.71,4.18-10.19,9.52-10.19l102.42-0.66
		c10.16,0,18.39-8.23,18.39-18.35S180.7,66.53,170.59,66.53z"/>
	<path class="st1" d="M502.44,157.5c-0.43-5.23-2.41-12.43-9.33-17.62l-0.14-0.11L351.64,28.95c-6.88-5.4-15.99-6.34-23.79-2.44
		c-7.85,3.92-12.72,11.79-12.72,20.54v42.38l-6.38,1.45c-53.08,12.03-179.41,53.79-206.12,181.4c-1.93,10.29,2.96,20.45,11.93,24.77
		c3.85,1.64,6.72,2.59,9.89,2.59c6.25,0,12.62-2.93,17.07-7.84c18.76-21.79,47.1-37.65,84.25-47.15
		c24.11-6.16,51.37-9.54,81.02-10.04l8.34-0.14v40.19c0,8.92,4.94,16.56,13.21,20.45l0.18,0.09c7.34,3.67,16.64,2.48,23.71-3.04
		l141.92-117.38C499.43,170.45,502.36,164.33,502.44,157.5z M351.82,245.05v-23.47c0-11.79-9.2-21.77-20.53-22.33
		c-2-0.01-4.34-0.11-7.04-0.24c-4.07-0.19-9.13-0.42-15.33-0.42c-32.45,0-80.59,3.81-125.67,21.97l-29.71,11.97l20.31-24.77
		c35.03-42.71,88.67-71.14,159.43-84.48c10.76-1.96,18.54-11.12,18.54-21.81V76.08l104.87,81.57L351.82,245.05z"/>
</g>
</svg>
