<?xml version="1.0" encoding="utf-8"?>
<!-- Generator: Adobe Illustrator 22.0.1, SVG Export Plug-In . SVG Version: 6.00 Build 0)  -->
<svg version="1.1" id="Layer_1" xmlns="http://www.w3.org/2000/svg" xmlns:xlink="http://www.w3.org/1999/xlink" x="0px" y="0px"
	 viewBox="0 0 100 100" style="enable-background:new 0 0 100 100;" xml:space="preserve">
<g>
	<path d="M50,0.4C22.4,0.4,0,22.6,0,50c0,13.4,5.3,25.7,14.7,35.1c9.4,9.3,21.9,14.4,35.3,14.4s25.9-5.1,35.3-14.4
		C94.9,75.9,100,63.4,100,50C100,22.6,77.6,0.4,50,0.4z M50,9.7c22.5,0,40.7,18.1,40.7,40.3c0,9.3-3.1,17.9-8.8,25
		c-8.7-8.2-20-12.8-31.9-12.8S26.8,66.8,18.1,75c-5.7-7.1-8.8-15.7-8.8-25C9.3,27.8,27.5,9.7,50,9.7z M24.7,81.5
		C31.6,75,40.6,71.3,50,71.3S68.4,75,75.3,81.5c-7.2,5.6-16,8.7-25.3,8.7C40.7,90.3,31.9,87.2,24.7,81.5z"/>
	<path d="M50.3,57.6c10.1,0,18.4-8.2,18.4-18.2s-8.2-18.2-18.4-18.2s-18.4,8.2-18.4,18.2S40.1,57.6,50.3,57.6z M50.3,30.4
		c5,0,9.1,4,9.1,9c0,4.9-4.1,9-9.1,9s-9.1-4-9.1-9S45.3,30.4,50.3,30.4z"/>
</g>
</svg>
