<?xml version="1.0" encoding="utf-8"?>
<!-- Generator: Adobe Illustrator 23.0.4, SVG Export Plug-In . SVG Version: 6.00 Build 0)  -->
<svg version="1.0" id="Layer_1" xmlns="http://www.w3.org/2000/svg" xmlns:xlink="http://www.w3.org/1999/xlink" x="0px" y="0px"
	 viewBox="0 0 507.4 507.4" style="enable-background:new 0 0 507.4 507.4;" xml:space="preserve">
<g>
	<path d="M486.6,378.3h-19.4l-15.4-102.3l50.2-88.5c8.7-15.3,2.7-34.7-13.1-42.5l-23.4-11.5c17.1-33.3,33.7-74.4,38.1-114.1
		c1.2-10.5-7.1-19.7-17.7-19.7c-9,0-16.6,6.7-17.6,15.7c-6.4,58.5-45.5,124.4-64.2,152.9h-46.8v-26.6c0-10-7.5-17.6-17.4-17.6h-86.8
		c-9.9,0-17.4,7.6-17.4,17.6V171c-2,0.3-4.4,0.7-7,1.2c-4.4,0.7-16.3,2.7-18.7,3.3c-11.7,2.7-23.3,6.3-34.6,10.6
		c-22.2,8.5-43.3,20-62.6,34.2c-47,34.5-82.3,84.2-99.4,140.2C1.9,398-2.3,440.4,0.7,489.9c0.7,11.6,7.6,17.4,20.7,17.4
		c0.2,0,0.4,0,0.6,0h362c9.9,0,17.4-7.6,17.4-17.6v-41.2h55.8c4.9,0,9.7-1.9,12.9-5.2c4.1-4.1,5.6-9.9,4.3-15.3l-2-13.8h14.2
		c9.9,0,17.4-7.6,17.4-17.6C504.1,386.7,496.1,378.3,486.6,378.3z M443.8,222.5l-5.7-37.9l12.7-21.2l20.8,10.2L443.8,222.5z
		 M270.6,159.8h51.9v9h-51.9V159.8z M366.5,471.4H35.1v-23.5h331.5v23.5H366.5z M37.5,413.3l0.1-0.9c13.7-114,106.5-201,218.8-207.9
		l1.1,1v-1.1c4.4-0.3,8.8-0.4,13.3-0.4h134.5l31.4,209.3H37.5z"/>
	<path d="M392.4,248.3c-1.7-9.4-8.9-16.2-17.1-16.2H254.1c-35.8,0-79,28.9-83.7,70.4l-0.7,5.3l-0.1,1.5c0,5,1.5,9.1,2.4,11.2
		c2.9,6.5,9.6,8.8,14.9,8.8h197.3c3.8,0,9.4-1.8,12.5-6.8c3.4-4.4,4.6-10.3,3.4-15.8L392.4,248.3z M212.7,290.7
		c10-11.4,27.3-20,41.4-20h106.5l2.7,20H212.7z"/>
	<path d="M363.3,349.6c-9.7,0-17.5,7.8-17.5,17.5s7.8,17.5,17.5,17.5s17.5-7.8,17.5-17.5C380.8,357.5,372.9,349.6,363.3,349.6z"/>
	<path d="M307.8,349.6c-9.7,0-17.5,7.8-17.5,17.5s7.8,17.5,17.5,17.5s17.5-7.8,17.5-17.5C325.3,357.5,317.5,349.6,307.8,349.6z"/>
</g>
</svg>
