<?xml version="1.0" encoding="utf-8"?>
<!-- Generator: Adobe Illustrator 23.0.1, SVG Export Plug-In . SVG Version: 6.00 Build 0)  -->
<svg version="1.1" id="Layer_1" xmlns="http://www.w3.org/2000/svg" xmlns:xlink="http://www.w3.org/1999/xlink" x="0px" y="0px"
	 viewBox="0 0 512 512" style="enable-background:new 0 0 512 512;" xml:space="preserve">
<style type="text/css">
	.st0{stroke:#000000;stroke-width:11;stroke-miterlimit:10;}
</style>
<g>
	<g>
		<path class="st0" d="M97.31,214.69h82.51c0,0.58,0,0.58,0,1.15v33.9h20.19v-33.9c0-0.58,0.58-1.15,1.15-1.15h32.31
			c0.58,0,1.15,0.58,1.15,1.15v33.9h20.19v-33.9c0-0.58,0-0.58,0-1.15h83.09c12.12,0,21.35-9.81,21.35-21.35V48.86
			c0-12.12-9.81-21.35-21.35-21.35H97.31c-12.12,0-21.35,9.81-21.35,21.35v144.48C75.96,205.46,85.77,214.69,97.31,214.69z
			 M96.16,48.86c0-0.58,0.58-1.15,1.15-1.15h240.6c0.58,0,1.15,0.58,1.15,1.15v144.48c0,0.58-0.58,1.15-1.15,1.15H97.31
			c-0.58-0.58-1.15-0.58-1.15-1.15V48.86z"/>
		<path class="st0" d="M490.61,256H46.89c-5.74,0-10.39,4.65-10.39,10.39v0c0,5.74,4.65,10.39,10.39,10.39h24.46l0,197.01
			c0,5.74,4.52,10.64,10.27,10.71c5.83,0.06,10.5-4.58,10.5-10.39V276.77h204.25c0,0.58,0,0.58,0,1.15v185.21
			c0,12.12,9.81,21.35,21.35,21.35h129.44c12.12,0,21.35-9.81,21.35-21.35V277.93c0-0.58,0-0.58,0-1.15h22.11
			c5.74,0,10.39-4.65,10.39-10.39v0C501,260.65,496.35,256,490.61,256z M448.89,463.14c0,0.58-0.58,1.15-1.15,1.15H318.3
			c-0.58,0-1.15-0.58-1.15-1.15v-48.85h131.75V463.14z M448.89,394.09H317.14v-52.31h131.75V394.09z M448.89,321.01H317.14v-43.08
			c0-0.58,0.58-1.15,1.15-1.15h129.44c0.58,0,1.15,0.58,1.15,1.15V321.01z"/>
	</g>
</g>
</svg>
