<?xml version="1.0" encoding="utf-8"?>
<!-- Generator: Adobe Illustrator 23.0.1, SVG Export Plug-In . SVG Version: 6.00 Build 0)  -->
<svg version="1.1" id="Artwork" xmlns="http://www.w3.org/2000/svg" xmlns:xlink="http://www.w3.org/1999/xlink" x="0px" y="0px"
	 viewBox="0 0 100 100" style="enable-background:new 0 0 100 100;" xml:space="preserve">
<g>
	<path d="M98.74,30.27c-0.04-0.34-0.1-0.66-0.15-0.99c-0.13-0.85-0.29-1.68-0.5-2.5c-0.08-0.32-0.16-0.63-0.24-0.94
		c-0.27-0.96-0.58-1.89-0.94-2.81c-0.05-0.12-0.09-0.25-0.14-0.37c-0.92-2.23-2.11-4.32-3.52-6.24c-0.02-0.02-0.04-0.05-0.06-0.07
		C87.76,8.99,79.01,4.2,69.11,4.2c-0.39,0-0.78,0.04-1.16,0.05c-0.03,0-0.05-0.02-0.08-0.02c-0.11,0-0.21,0.02-0.32,0.03
		c-3.41,0.18-6.66,0.91-9.68,2.13c-0.01,0-0.01,0.01-0.02,0.01c-1.4,0.57-2.76,1.23-4.04,1.99c-0.07,0.04-0.14,0.09-0.22,0.14
		c-1.26,0.76-2.46,1.59-3.59,2.52c-1.13-0.93-2.33-1.76-3.59-2.52c-0.07-0.04-0.14-0.09-0.22-0.14c-1.29-0.76-2.64-1.42-4.04-1.99
		c-0.01,0-0.01-0.01-0.02-0.01c-3.01-1.22-6.27-1.95-9.68-2.13c-0.11-0.01-0.21-0.03-0.32-0.03c-0.03,0-0.05,0.02-0.08,0.02
		c-0.39-0.01-0.77-0.05-1.16-0.05c-9.9,0-18.65,4.79-24.09,12.14c-0.02,0.02-0.04,0.05-0.06,0.07c-1.41,1.92-2.6,4.01-3.52,6.24
		c-0.05,0.12-0.09,0.25-0.14,0.37c-0.36,0.91-0.68,1.85-0.94,2.81c-0.09,0.31-0.17,0.63-0.24,0.94c-0.2,0.82-0.37,1.66-0.5,2.5
		c-0.05,0.33-0.11,0.66-0.15,0.99c-0.14,1.15-0.23,2.32-0.23,3.51c0.02,0.59,0.05,1.43,0.12,2.43c0.02,0.29,0.04,0.59,0.07,0.88
		c0.05,0.59,0.12,1.2,0.21,1.86c0.28,2.09,0.75,4.36,1.8,7.09c0.11,0.28,0.23,0.58,0.35,0.87c0.11,0.25,0.2,0.5,0.32,0.76
		c3.19,7.31,10.71,17.92,30.25,37.72C41.67,93.01,45.11,96.05,50,96.02c0,0,0,0,0,0s0,0,0,0c4.89,0.03,8.33-3.01,15.85-10.63
		C85.39,65.6,92.91,54.98,96.1,47.67c0.12-0.26,0.21-0.51,0.32-0.76c0.12-0.29,0.25-0.59,0.35-0.87c1.05-2.73,1.52-5,1.8-7.09
		c0.09-0.66,0.16-1.28,0.21-1.86c0.03-0.29,0.05-0.59,0.07-0.88c0.07-1,0.11-1.84,0.12-2.43C98.97,32.59,98.88,31.42,98.74,30.27z
		 M24.49,12.81c0.19-0.06,0.63-0.18,1.2-0.31c0.31-0.07,1.3-0.3,2.65-0.46c0.58-0.07,1.28-0.15,2.21-0.16
		c0.63-0.01,1.13,0.02,1.58,0.05l0,0c0.11,0.01,0.21,0.01,0.32,0.02c0.05,0,0.11,0.01,0.16,0.01c0.55,0.04,1.28,0.1,2.22,0.27
		c0.51,0.09,1.57,0.29,2.89,0.72c0.21,0.07,1.12,0.37,2.29,0.89c0.5,0.22,1.3,0.59,2.27,1.17c0.96,0.58,1.64,1.1,2.09,1.44
		c0.91,0.71,1.84,1.42,2.68,2.16c0.11,0.09,0.57,0.5,1.17,0.77c0.33,0.14,0.67,0.23,0.7,0.23c0.13,0.03,0.33,0.08,0.57,0.1
		c0.19,0.02,0.36,0.03,0.51,0.03h0c0.15,0,0.32-0.01,0.51-0.03c0.24-0.03,0.44-0.07,0.57-0.1c0.02-0.01,0.36-0.09,0.7-0.23
		c0.61-0.26,1.07-0.67,1.17-0.77c0.83-0.74,1.76-1.46,2.68-2.16c0.45-0.35,1.13-0.87,2.09-1.44c0.97-0.58,1.77-0.95,2.27-1.17
		c1.16-0.52,2.07-0.82,2.29-0.89c1.31-0.43,2.37-0.63,2.89-0.72c0.94-0.16,1.67-0.22,2.22-0.27c0.05,0,0.11-0.01,0.16-0.01
		c0.11-0.01,0.21-0.01,0.32-0.02l0,0c0.45-0.03,0.95-0.06,1.58-0.05c0.93,0.02,1.63,0.09,2.21,0.16c1.35,0.16,2.34,0.38,2.65,0.46
		c0.57,0.13,1.01,0.26,1.2,0.31c0.11,0.03,0.79,0.24,1.54,0.52c1.87,0.71,3.42,1.66,3.76,1.87c1.12,0.7,1.94,1.34,2.35,1.68
		c1.07,0.87,2.5,2.21,3.9,4.13c0.72,0.96,1.61,2.34,2.38,4.1c0.4,0.91,1.32,3.21,1.65,6.34c0.22,2.17,0.06,3.83-0.07,5.19
		c-0.27,2.67-0.83,4.63-0.96,5.09c-0.42,1.45-1.15,3.4-2.35,5.55c-0.21,0.37-0.4,0.73-0.63,1.11c-0.05,0.08-0.11,0.19-0.17,0.28
		c-0.14,0.23-0.3,0.5-0.51,0.83c0,0-1.1,1.77-2.42,3.63c-2.4,3.38-5.37,7-6.07,7.85c-0.1,0.12-0.15,0.19-0.15,0.19
		c-3.01,3.59-5.34,6.11-9.75,10.86c-1.8,1.94-3.1,3.3-4.12,4.36c-1.31,1.35-2.29,2.35-4.08,4.15c-1.4,1.42-2.12,2.14-2.74,2.74
		c-1.61,1.55-2.99,2.75-3.92,3.54c-0.45,0.33-0.84,0.59-1.15,0.79c-0.22,0.14-0.62,0.38-1.05,0.55c-0.19,0.07-0.41,0.14-0.68,0.17
		c-0.1,0.01-0.18,0.01-0.23,0.01h0c-0.06,0-0.14,0-0.23-0.01c-0.27-0.03-0.49-0.09-0.68-0.17c-0.44-0.17-0.83-0.41-1.05-0.55
		c-0.31-0.19-0.7-0.45-1.15-0.79c-0.94-0.79-2.31-1.99-3.92-3.54c-0.62-0.6-1.34-1.32-2.74-2.74c-1.78-1.8-2.77-2.8-4.08-4.15
		c-1.02-1.06-2.32-2.42-4.12-4.36c-4.41-4.75-6.74-7.26-9.75-10.86c0,0-0.05-0.06-0.15-0.19c-0.7-0.85-3.67-4.46-6.07-7.85
		c-1.32-1.86-2.42-3.63-2.42-3.63c-0.21-0.33-0.37-0.6-0.51-0.83c-0.06-0.1-0.12-0.21-0.17-0.28c-0.24-0.38-0.43-0.74-0.63-1.11
		c-1.2-2.14-1.93-4.09-2.35-5.55C9.83,41.28,9.27,39.32,9,36.65c-0.14-1.36-0.3-3.02-0.07-5.19c0.32-3.13,1.25-5.43,1.65-6.34
		c0.77-1.76,1.66-3.14,2.38-4.1c1.4-1.93,2.83-3.26,3.9-4.13c0.41-0.34,1.23-0.98,2.35-1.68c0.33-0.21,1.89-1.16,3.76-1.87
		C23.7,13.05,24.39,12.85,24.49,12.81z"/>
	<path d="M49.93,97.05c-5.19,0-8.85-3.18-16.51-10.94C16.23,68.7,6.84,56.97,2.96,48.08c-0.08-0.18-0.15-0.36-0.23-0.54l-0.19-0.46
		c-0.1-0.23-0.19-0.46-0.27-0.68c-1.19-3.08-1.61-5.53-1.85-7.31c-0.08-0.58-0.15-1.18-0.21-1.89c-0.03-0.24-0.04-0.47-0.06-0.69
		l-0.02-0.21C0.06,35.45,0.02,34.62,0,33.81l0-0.03c0-1.12,0.08-2.3,0.24-3.63c0.03-0.25,0.07-0.49,0.11-0.72
		c0.02-0.1,0.03-0.21,0.05-0.31c0.14-0.9,0.31-1.77,0.51-2.59c0.07-0.28,0.16-0.63,0.25-0.98c0.28-0.99,0.61-1.97,0.98-2.9
		c0.02-0.05,0.03-0.09,0.05-0.13c0.03-0.08,0.06-0.17,0.09-0.25c0.92-2.25,2.15-4.42,3.64-6.45l0.06-0.08
		c2.81-3.8,6.52-6.96,10.72-9.13c4.41-2.28,9.19-3.43,14.19-3.43c0.28,0,0.54,0.02,0.79,0.03c0.1,0.01,0.19,0.01,0.29,0.02
		c0.05-0.01,0.1-0.01,0.16-0.01c0.14,0,0.25,0.02,0.34,0.03c0.02,0,0.03,0.01,0.05,0.01c3.45,0.18,6.82,0.92,9.99,2.2l0.02,0.01
		c1.48,0.6,2.89,1.29,4.18,2.06c0.05,0.03,0.1,0.06,0.15,0.09c0.02,0.01,0.05,0.03,0.07,0.04c1.12,0.68,2.13,1.37,3.06,2.09
		c0.93-0.72,1.94-1.41,3.06-2.08c0.03-0.02,0.05-0.03,0.07-0.05c0.05-0.03,0.1-0.07,0.15-0.1c1.29-0.76,2.69-1.46,4.18-2.06
		l0.03-0.01c3.16-1.28,6.52-2.02,9.98-2.2c0.02,0,0.03,0,0.05-0.01c0.08-0.01,0.2-0.03,0.34-0.03c0.06,0,0.11,0,0.16,0.01
		c0.1,0,0.19-0.01,0.29-0.02c0.25-0.02,0.52-0.03,0.79-0.03c5,0,9.78,1.15,14.19,3.43c4.2,2.17,7.91,5.32,10.72,9.13l0.05,0.07
		c1.5,2.04,2.72,4.21,3.65,6.46c0.03,0.08,0.06,0.16,0.09,0.25c0.02,0.04,0.03,0.09,0.05,0.13c0.37,0.94,0.7,1.91,0.98,2.91
		c0.1,0.34,0.18,0.69,0.25,0.97c0.2,0.82,0.37,1.69,0.51,2.59c0.02,0.1,0.03,0.2,0.05,0.31c0.04,0.23,0.08,0.47,0.11,0.72l0,0
		c0.16,1.33,0.24,2.52,0.24,3.63l0,0.03c-0.02,0.81-0.06,1.64-0.13,2.48l-0.02,0.22c-0.02,0.22-0.03,0.45-0.06,0.69
		c-0.07,0.71-0.13,1.31-0.21,1.9c-0.24,1.78-0.67,4.23-1.86,7.32c-0.08,0.22-0.18,0.45-0.27,0.69l-0.18,0.44
		c-0.07,0.18-0.15,0.36-0.23,0.55c-3.88,8.89-13.27,20.62-30.46,38.02c-7.66,7.76-11.32,10.94-16.52,10.94c-0.02,0-0.04,0-0.06,0h0
		C49.98,97.05,49.95,97.05,49.93,97.05z M2.05,33.77c0.02,0.77,0.06,1.57,0.12,2.37l0.02,0.22c0.02,0.21,0.03,0.42,0.05,0.62l0,0.02
		c0.06,0.7,0.13,1.26,0.2,1.82c0.23,1.68,0.63,3.97,1.74,6.86c0.08,0.21,0.17,0.42,0.25,0.63l0.19,0.46
		c0.07,0.16,0.13,0.32,0.21,0.49c3.73,8.54,13.27,20.43,30.04,37.42C42.25,92.13,45.48,94.98,49.9,95l0.23,0
		c4.41-0.03,7.64-2.88,14.99-10.33c16.77-16.99,26.32-28.88,30.04-37.41c0.08-0.18,0.14-0.34,0.21-0.5l0.18-0.45
		c0.09-0.21,0.18-0.43,0.25-0.63c1.11-2.9,1.52-5.19,1.74-6.86c0.08-0.56,0.14-1.14,0.2-1.82l0-0.02c0.02-0.21,0.04-0.41,0.05-0.62
		l0.02-0.23c0.06-0.79,0.1-1.59,0.12-2.36c0-1.03-0.07-2.13-0.22-3.38l0,0c-0.02-0.21-0.06-0.41-0.1-0.63
		c-0.02-0.11-0.04-0.22-0.05-0.33c-0.13-0.84-0.29-1.65-0.48-2.42c-0.08-0.34-0.15-0.62-0.24-0.91c-0.26-0.93-0.57-1.84-0.91-2.71
		c-0.03-0.07-0.05-0.14-0.08-0.21c-0.02-0.05-0.03-0.1-0.05-0.15c-0.86-2.1-2-4.12-3.4-6.02l-0.05-0.07
		c-2.63-3.55-6.09-6.5-10.01-8.53c-4.12-2.12-8.58-3.2-13.25-3.2c-0.22,0-0.44,0.01-0.67,0.03c-0.15,0.01-0.3,0.02-0.45,0.02
		l-0.03,0l-0.03,0c-0.04,0-0.07,0-0.11-0.01c-0.06,0.01-0.12,0.02-0.18,0.02l-0.03,0c-3.24,0.17-6.38,0.86-9.35,2.05l-0.02,0.01
		c-1.39,0.56-2.7,1.21-3.9,1.92c-0.03,0.02-0.05,0.03-0.08,0.05c-0.04,0.03-0.09,0.06-0.13,0.08c-1.3,0.79-2.44,1.58-3.47,2.43
		L50,12.38l-0.65-0.54c-1.03-0.85-2.16-1.65-3.47-2.43c-0.04-0.03-0.09-0.05-0.13-0.08c-0.02-0.02-0.05-0.03-0.07-0.05
		c-1.2-0.71-2.52-1.36-3.91-1.92l-0.03-0.01c-2.96-1.19-6.11-1.89-9.34-2.05l-0.03,0c-0.06-0.01-0.12-0.01-0.18-0.02
		c-0.03,0-0.07,0.01-0.11,0.01l-0.03,0l-0.03,0c-0.15-0.01-0.3-0.01-0.45-0.02c-0.23-0.01-0.46-0.03-0.67-0.03
		c-4.67,0-9.13,1.08-13.25,3.2c-3.92,2.02-7.38,4.97-10.01,8.53l-0.05,0.07c-1.39,1.9-2.54,3.92-3.4,6.02
		c-0.02,0.05-0.04,0.1-0.05,0.15c-0.02,0.07-0.05,0.14-0.08,0.21c-0.34,0.87-0.65,1.78-0.91,2.7c-0.08,0.29-0.15,0.57-0.24,0.91
		c-0.19,0.76-0.35,1.58-0.48,2.41c-0.02,0.11-0.04,0.22-0.05,0.33c-0.04,0.22-0.07,0.42-0.09,0.62C2.13,31.63,2.06,32.74,2.05,33.77
		z M50,89.37c-0.11,0-0.23-0.01-0.34-0.02c-0.4-0.04-0.72-0.15-0.93-0.22c-0.51-0.19-0.95-0.46-1.24-0.64
		c-0.41-0.26-0.81-0.54-1.21-0.83l-0.05-0.04c-1.33-1.13-2.67-2.33-3.97-3.58c-0.63-0.61-1.33-1.31-2.76-2.76l-0.21-0.21
		c-1.63-1.65-2.62-2.65-3.88-3.95c-1.27-1.32-2.58-2.7-4.13-4.37c-4.36-4.69-6.76-7.28-9.79-10.9l-0.16-0.19
		c-0.83-1.01-3.74-4.56-6.12-7.91c-1.32-1.86-2.41-3.61-2.45-3.68c-0.21-0.33-0.37-0.61-0.52-0.84l-0.17-0.28
		c-0.19-0.3-0.35-0.59-0.5-0.87c-0.05-0.09-0.1-0.18-0.15-0.28c-1.32-2.37-2.05-4.44-2.44-5.76c-0.21-0.72-0.74-2.69-1-5.28
		c-0.13-1.3-0.32-3.08-0.07-5.4c0.24-2.29,0.83-4.59,1.73-6.65c0.67-1.53,1.51-2.98,2.5-4.3c1.18-1.62,2.55-3.08,4.07-4.32
		c0.51-0.42,1.36-1.07,2.46-1.76c0.57-0.36,2.1-1.26,3.93-1.96c0.7-0.27,1.34-0.46,1.55-0.53l0.07-0.02
		c0.15-0.05,0.62-0.18,1.25-0.33c0.9-0.21,1.83-0.37,2.76-0.48c0.55-0.07,1.31-0.15,2.31-0.17c0.67-0.01,1.2,0.02,1.67,0.05
		l0.49,0.03c0.02,0,0.03,0,0.05,0l1,0.07l-0.01,0.03c0.38,0.04,0.8,0.1,1.29,0.18c1.01,0.18,2.02,0.43,3.03,0.76
		c0.33,0.11,1.24,0.42,2.39,0.93c0.46,0.21,1.33,0.6,2.38,1.23c1.03,0.61,1.76,1.18,2.19,1.51c0.92,0.71,1.87,1.45,2.73,2.21
		c0.28,0.25,0.6,0.46,0.9,0.59c0.21,0.09,0.45,0.16,0.52,0.17c0.16,0.04,0.3,0.07,0.44,0.08c0.15,0.02,0.29,0.02,0.4,0.02
		c0.12,0,0.25-0.01,0.39-0.02c0.15-0.02,0.29-0.04,0.44-0.08l0.03-0.01c0.06-0.01,0.3-0.08,0.51-0.17c0.3-0.13,0.62-0.34,0.9-0.59
		c0.86-0.76,1.81-1.5,2.73-2.21c0.44-0.34,1.17-0.9,2.2-1.51c1.05-0.63,1.91-1.02,2.38-1.23c1.14-0.51,2.05-0.82,2.39-0.93
		c1-0.33,2.02-0.58,3.03-0.76c0.48-0.08,0.91-0.14,1.29-0.18L66.26,11l1-0.07c0.02,0,0.03,0,0.05,0l0.5-0.03
		c0.47-0.03,1-0.06,1.66-0.05c1.01,0.02,1.76,0.11,2.32,0.17c0.94,0.11,1.87,0.27,2.76,0.47c0.63,0.15,1.1,0.28,1.26,0.33l0.07,0.02
		c0.21,0.06,0.85,0.26,1.54,0.52c1.89,0.72,3.49,1.68,3.93,1.96c1.1,0.68,1.95,1.33,2.46,1.76c1.52,1.24,2.89,2.69,4.07,4.32
		c0.98,1.32,1.82,2.76,2.49,4.29c0.89,2.06,1.49,4.36,1.73,6.65c0.24,2.32,0.06,4.1-0.07,5.4c-0.26,2.59-0.79,4.55-1,5.28
		c-0.38,1.32-1.12,3.39-2.44,5.76c-0.05,0.09-0.1,0.18-0.15,0.28c-0.15,0.28-0.31,0.57-0.5,0.87l-0.16,0.28
		c-0.14,0.24-0.31,0.51-0.52,0.85c-0.04,0.07-1.13,1.82-2.45,3.68c-2.39,3.36-5.29,6.9-6.12,7.91l-0.16,0.19
		c-3.03,3.62-5.43,6.21-9.79,10.9c-1.55,1.67-2.86,3.05-4.13,4.37c-1.26,1.3-2.24,2.3-3.88,3.95l-0.21,0.21
		c-1.43,1.45-2.13,2.15-2.76,2.76c-1.3,1.25-2.64,2.46-3.97,3.59l-0.05,0.04c-0.4,0.3-0.81,0.58-1.21,0.83
		c-0.29,0.18-0.74,0.45-1.24,0.64c-0.21,0.08-0.53,0.19-0.94,0.23C50.23,89.36,50.11,89.37,50,89.37z M47.52,86.02
		c0.35,0.26,0.7,0.5,1.05,0.72c0.14,0.09,0.5,0.32,0.87,0.46c0.16,0.06,0.28,0.09,0.42,0.1c0.11,0.01,0.15,0.01,0.25,0
		c0.14-0.01,0.27-0.05,0.43-0.11c0.36-0.14,0.73-0.37,0.86-0.45c0.35-0.22,0.71-0.46,1.05-0.72c1.29-1.09,2.58-2.26,3.85-3.48
		c0.61-0.59,1.3-1.28,2.72-2.72l0.21-0.21c1.63-1.64,2.61-2.64,3.86-3.93c1.26-1.31,2.57-2.69,4.1-4.34
		c4.33-4.67,6.72-7.24,9.72-10.82l0.15-0.18c0.82-0.99,3.68-4.48,6.03-7.78c1.28-1.81,2.37-3.56,2.38-3.58
		c0.2-0.33,0.37-0.59,0.5-0.82l0.18-0.3c0.16-0.26,0.3-0.51,0.45-0.78c0.05-0.1,0.11-0.19,0.16-0.29c1.22-2.2,1.9-4.11,2.26-5.33
		c0.2-0.67,0.68-2.49,0.93-4.91c0.13-1.28,0.29-2.87,0.08-4.98c-0.21-2.08-0.76-4.17-1.57-6.04c-0.61-1.38-1.37-2.69-2.26-3.89
		c-1.09-1.5-2.34-2.82-3.72-3.95c-0.47-0.39-1.24-0.98-2.25-1.6c-0.41-0.25-1.87-1.13-3.58-1.78c-0.63-0.24-1.22-0.42-1.41-0.48
		l-0.05-0.02c-0.15-0.04-0.58-0.17-1.14-0.3c-0.82-0.19-1.67-0.33-2.54-0.44c-0.54-0.06-1.2-0.14-2.11-0.16
		c-0.46-0.01-0.84,0.01-1.24,0.03l-0.74,0.05c-0.51,0.04-1.22,0.1-2.12,0.25c-0.91,0.16-1.83,0.39-2.74,0.69
		c-0.24,0.08-1.1,0.37-2.18,0.85c-0.42,0.19-1.21,0.55-2.16,1.11c-0.92,0.55-1.57,1.05-2,1.38c-0.89,0.69-1.81,1.4-2.62,2.12
		c-0.31,0.28-0.81,0.67-1.45,0.94c-0.38,0.16-0.75,0.26-0.85,0.29v0c-0.24,0.06-0.47,0.1-0.71,0.13c-0.22,0.03-0.42,0.03-0.6,0.04
		l-0.02,0c-0.2,0-0.4-0.01-0.63-0.04c-0.23-0.02-0.46-0.07-0.7-0.13v0c-0.11-0.03-0.48-0.12-0.85-0.29
		c-0.63-0.27-1.14-0.66-1.45-0.94c-0.8-0.71-1.72-1.43-2.61-2.11c-0.43-0.33-1.07-0.83-2-1.38c-0.95-0.57-1.74-0.92-2.16-1.11
		c-1.08-0.48-1.94-0.77-2.18-0.85c-0.92-0.3-1.84-0.53-2.75-0.69c-0.9-0.16-1.61-0.21-2.13-0.25l-0.76-0.05
		c-0.34-0.02-0.73-0.03-1.21-0.03c-0.9,0.01-1.57,0.09-2.1,0.16c-0.86,0.1-1.72,0.25-2.54,0.44c-0.56,0.13-0.99,0.26-1.14,0.3
		l-0.05,0.01c-0.19,0.06-0.78,0.24-1.41,0.48c-1.71,0.65-3.17,1.53-3.58,1.78c-1.01,0.62-1.78,1.22-2.25,1.6
		c-1.39,1.13-2.64,2.46-3.72,3.94c-0.9,1.21-1.66,2.52-2.27,3.91c-0.81,1.86-1.35,3.95-1.57,6.04c-0.22,2.11-0.06,3.71,0.07,4.98
		c0.25,2.42,0.73,4.24,0.93,4.91c0.36,1.22,1.04,3.14,2.26,5.34c0.05,0.1,0.11,0.19,0.16,0.29c0.15,0.27,0.29,0.52,0.45,0.78
		l0.18,0.3c0.14,0.23,0.3,0.49,0.5,0.82c0.01,0.02,1.1,1.77,2.38,3.58c2.34,3.29,5.2,6.79,6.03,7.79l0.15,0.18
		c3,3.58,5.38,6.15,9.72,10.82c1.54,1.66,2.84,3.03,4.1,4.34c1.25,1.3,2.23,2.29,3.86,3.93l0.21,0.21c1.42,1.44,2.11,2.13,2.73,2.72
		C44.94,83.76,46.23,84.93,47.52,86.02z"/>
</g>
</svg>
