<?xml version="1.0" encoding="utf-8"?>
<!-- Generator: Adobe Illustrator 22.0.1, SVG Export Plug-In . SVG Version: 6.00 Build 0)  -->
<svg version="1.1" id="Layer_1" xmlns="http://www.w3.org/2000/svg" xmlns:xlink="http://www.w3.org/1999/xlink" x="0px" y="0px"
	 viewBox="0 0 100 100" style="enable-background:new 0 0 100 100;" xml:space="preserve">
<g>
	<path d="M64.9,34.6c4.8,0,8.9,1.7,12.2,5c2.8,2.9,4.2,7.1,4.2,12.6v31.9h-12V63c0-5.7-0.3-9.6-0.8-11.5c-0.5-1.9-1.4-3.4-2.7-4.3
		c-1.3-1-2.9-1.5-4.8-1.5c-2.4,0-4.5,0.8-6.3,2.4c-1.8,1.7-3,3.9-3.7,6.8c-0.4,1.5-0.5,4.8-0.5,9.8v19.4H38.4V35.7h12.1v5
		c2.8-2.3,5.3-3.9,7.5-4.8C60.2,35,62.5,34.6,64.9,34.6L64.9,34.6z M5,100h90c2.7,0,5-2.2,5-5V5c0-2.8-2.2-5-5-5H5C2.2,0,0,2.2,0,5
		v90C0,97.8,2.2,100,5,100L5,100z M26.5,15.9c2.1,0,4,0.8,5.5,2.3c1.5,1.5,2.2,3.4,2.2,5.6c0,2.1-0.7,4-2.2,5.5
		c-1.5,1.5-3.3,2.2-5.4,2.2s-4-0.8-5.5-2.3c-1.5-1.5-2.3-3.4-2.3-5.7c0-2.1,0.8-3.9,2.2-5.4C22.5,16.7,24.3,15.9,26.5,15.9
		L26.5,15.9z M20.4,35.7h12.1v48.4H20.4C20.4,84.1,20.4,35.7,20.4,35.7z"/>
</g>
</svg>
