<?xml version="1.0" encoding="utf-8"?>
<!-- Generator: Adobe Illustrator 23.0.1, SVG Export Plug-In . SVG Version: 6.00 Build 0)  -->
<svg version="1.1" id="Layer_1" xmlns="http://www.w3.org/2000/svg" xmlns:xlink="http://www.w3.org/1999/xlink" x="0px" y="0px"
	 viewBox="0 0 100 100" style="enable-background:new 0 0 100 100;" xml:space="preserve">
<path d="M21.5,26.9L26,87c0.3,4.4,4,7.8,8.4,7.8h38c4.5,0,8.2-3.5,8.5-8l3.6-60H21.5z M46.2,77.1c0,1-0.8,1.9-1.9,1.9h0h-3
	c-1,0-1.9-0.8-1.9-1.9l0,0v-37c0-1,0.8-1.9,1.9-1.9h3c1,0,1.9,0.8,1.9,1.9V77.1z M66.6,77.1c0,1-0.8,1.9-1.9,1.9l0,0h-3
	c-1,0-1.9-0.8-1.9-1.9l0,0v-37c0-1,0.8-1.9,1.9-1.9h3c1,0,1.9,0.8,1.9,1.9V77.1z"/>
<path d="M66.6,9.9L66.6,9.9c0-1.9-1.5-3.4-3.4-3.4H42.8c-1.9,0-3.4,1.5-3.4,3.4l0,0c0,1.9-1.5,3.4-3.4,3.4H17.9
	c-1.9,0-3.4,1.5-3.4,3.4V19c0,1.9,1.5,3.4,3.4,3.4h70.3c1.9,0,3.4-1.5,3.4-3.4v-2.3c0-1.9-1.5-3.4-3.4-3.4H70
	C68.1,13.3,66.6,11.8,66.6,9.9z"/>
</svg>
