<svg id="Capa_1" enable-background="new 0 0 512 512" height="512" viewBox="0 0 512 512" width="512" xmlns="http://www.w3.org/2000/svg"><g><path d="m324.954 293.134c-6.911-6.911-17.228-8.353-25.588-4.375l-32.759-32.759 160.192-160.193c8.36 3.978 18.677 2.536 25.588-4.375l53.033-53.033c8.773-8.773 8.773-23.047 0-31.82s-23.047-8.773-31.82 0l-53.033 53.033c-6.911 6.911-8.353 17.228-4.375 25.588l-214.562 214.564c-8.36-3.978-18.677-2.536-25.588 4.375l-169.462 169.462c-8.773 8.773-8.773 23.047 0 31.82s23.047 8.773 31.82 0l169.462-169.462c6.911-6.911 8.353-17.228 4.375-25.588l43.763-43.764 32.759 32.759c-3.978 8.36-2.536 18.677 4.375 25.588l180.467 180.466c8.773 8.773 23.047 8.773 31.82 0s8.773-23.047 0-31.82zm106.22-222.915 53.033-53.033c2.924-2.924 7.682-2.924 10.607 0 2.924 2.925 2.924 7.682 0 10.607l-53.033 53.033c-2.924 2.924-7.682 2.924-10.607 0-2.924-2.925-2.924-7.682 0-10.607zm-233.919 255.133-169.462 169.462c-2.924 2.924-7.682 2.924-10.607 0-2.924-2.924-2.924-7.682 0-10.607l169.462-169.462c2.924-2.924 7.682-2.924 10.607 0 2.924 2.925 2.924 7.682 0 10.607zm297.559 169.462c-2.924 2.924-7.682 2.924-10.607 0l-180.467-180.467c-2.924-2.924-2.924-7.682 0-10.607 2.924-2.924 7.682-2.924 10.607 0l180.467 180.467c2.924 2.925 2.924 7.682 0 10.607z"/><path d="m59.613 91.432c6.911 6.911 17.228 8.353 25.588 4.375l144.283 144.283c2.929 2.929 7.678 2.929 10.607 0s2.929-7.677 0-10.607l-144.284-144.282c3.978-8.36 2.536-18.677-4.375-25.588l-53.033-53.033c-8.773-8.773-23.047-8.773-31.82 0s-8.773 23.047 0 31.82zm-42.427-74.246c2.924-2.924 7.682-2.924 10.607 0l53.033 53.033c2.924 2.924 2.924 7.682 0 10.607-2.924 2.924-7.682 2.924-10.607 0l-53.033-53.033c-2.924-2.925-2.924-7.682 0-10.607z"/></g></svg>