<?xml version="1.0" encoding="utf-8"?>
<!-- Generator: Adobe Illustrator 21.1.0, SVG Export Plug-In . SVG Version: 6.00 Build 0)  -->
<svg version="1.1" id="Layer_1" xmlns="http://www.w3.org/2000/svg" xmlns:xlink="http://www.w3.org/1999/xlink" x="0px" y="0px"
	 viewBox="0 0 491.5 177.3" style="enable-background:new 0 0 491.5 177.3;" xml:space="preserve">
<style type="text/css">
	.st0{fill:#54B99C;}
	.st1{fill:#FFFFFF;}
</style>
<g>
	<path class="st0" d="M374.7,177.3h-220v-44.5c0-60.8,49.3-110,110-110s110,49.3,110,110V177.3z"/>
	<path class="st0" d="M262.8,177.3C250.3,119.4,214.5,76,152.9,76h-0.5C90.7,76,39.2,119.4,26.8,177.3H262.8z"/>
	<polygon class="st0" points="152.3,76 212.9,76 212.9,107.1 136.9,105 	"/>
	<path class="st0" d="M333.4,177.3c8.3-39.8,32.4-69.7,73.7-69.7h0.3c41.3,0,75.8,29.9,84.1,69.7H333.4z"/>
	<polygon class="st0" points="407.4,107.7 366.8,107.7 366.8,129 417.7,127.6 	"/>
</g>
<g>
	<path class="st1" d="M182.5,128.2H36.9C16.5,128.2,0,111.6,0,91.3C0,40.9,40.9,0,91.3,0s91.3,40.9,91.3,91.3v36.9H182.5z"/>
	<path class="st1" d="M147,128.2c5.5-26.1,21.2-45.6,48.2-45.6h0.2c27,0,49.6,19.5,55.1,45.6H147z"/>
	<polygon class="st1" points="195.5,82.5 168.9,82.5 168.9,96.5 202.2,95.6 	"/>
</g>
</svg>
