<?xml version="1.0" encoding="utf-8"?>
<!-- Generator: Adobe Illustrator 21.1.0, SVG Export Plug-In . SVG Version: 6.00 Build 0)  -->
<svg version="1.1" id="Capa_1" xmlns="http://www.w3.org/2000/svg" xmlns:xlink="http://www.w3.org/1999/xlink" x="0px" y="0px"
	 viewBox="0 0 16.2 14.5" style="enable-background:new 0 0 16.2 14.5;" xml:space="preserve">
<style type="text/css">
	.st0{fill:#17D3A5;}
	.st1{fill:#FFFFFF;}
	.st2{fill:#4B5BA4;}
	.st3{fill:#53AEE9;}
</style>
<path class="st0" d="M1.6,1.7C0.7,1.7,0,2.4,0,3.2v7.4c0,0.9,0.7,1.6,1.6,1.6h0.5V14c0,0.2,0.1,0.4,0.3,0.5c0.1,0,0.1,0,0.2,0
	c0.1,0,0.3-0.1,0.4-0.2l2.1-2.1h7.2c0.9,0,1.6-0.7,1.6-1.6V3.2c0-0.9-0.7-1.6-1.6-1.6H1.6z"/>
<g>
	<path class="st1" d="M7,9.8H2.8c-0.3,0-0.5-0.2-0.5-0.5s0.2-0.5,0.5-0.5H7c0.3,0,0.5,0.2,0.5,0.5S7.3,9.8,7,9.8z"/>
	<path class="st1" d="M11,7.6H2.8c-0.3,0-0.5-0.2-0.5-0.5c0-0.3,0.2-0.5,0.5-0.5H11c0.3,0,0.5,0.2,0.5,0.5C11.5,7.4,11.3,7.6,11,7.6
		z"/>
	<path class="st1" d="M11,5.3H2.8c-0.3,0-0.5-0.2-0.5-0.5c0-0.3,0.2-0.5,0.5-0.5H11c0.3,0,0.5,0.2,0.5,0.5C11.5,5.1,11.3,5.3,11,5.3
		z"/>
</g>
<g>
	<path class="st1" d="M16.1,1.6l-0.6,0.6l-1.3-0.3l0,0L14,0.7l0.6-0.6c0.1-0.1,0.4-0.1,0.5,0l1,1C16.3,1.3,16.3,1.5,16.1,1.6z"/>
	<path class="st1" d="M16.1,1.6l-0.6,0.6l-1.3-0.3l1.3-1.3l0.5,0.5C16.3,1.3,16.3,1.5,16.1,1.6z"/>
	<g>
		<path class="st2" d="M9.2,8.6C9.1,8.6,9.1,8.6,9.2,8.6L7,9.7c-0.1,0.1-0.3,0-0.4-0.1C6.5,9.6,6.4,9.4,6.5,9.3l1.1-2.1c0,0,0,0,0,0
			l1.2,0.3l0.1,0L9.2,8.6z"/>
		<path class="st2" d="M9,7.4l0.2,1.2c0,0,0,0,0,0L7,9.7c-0.1,0.1-0.3,0-0.4-0.1l2.3-2.3L9,7.4z"/>
		<g>
			<path class="st1" d="M15.9,1.9L9.5,8.3c0,0,0,0-0.1,0L7.9,6.8c0,0,0,0,0-0.1l6.4-6.4L15.9,1.9z"/>
			<path class="st1" d="M15.9,1.9L9.5,8.3c0,0,0,0-0.1,0L8.7,7.5l6.4-6.4L15.9,1.9z"/>
		</g>
		<path class="st3" d="M15.4,2.4L9.2,8.6c0,0,0,0-0.1,0L7.6,7.1c0,0,0,0,0-0.1l6.2-6.2L15.4,2.4z"/>
		<path class="st3" d="M15.4,2.4L9.2,8.6c0,0,0,0-0.1,0L8.4,7.8l6.2-6.2L15.4,2.4z"/>
	</g>
</g>
</svg>
