<?xml version="1.0" encoding="utf-8"?>
<!-- Generator: Adobe Illustrator 23.0.1, SVG Export Plug-In . SVG Version: 6.00 Build 0)  -->
<svg version="1.1" id="Capa_1" xmlns="http://www.w3.org/2000/svg" xmlns:xlink="http://www.w3.org/1999/xlink" x="0px" y="0px"
	 viewBox="0 0 384.8 371.3" style="enable-background:new 0 0 384.8 371.3;" xml:space="preserve">
<style type="text/css">
	.st0{fill:#EB6181;}
	.st1{fill:#4B5BA4;}
</style>
<g>
	<path class="st0" d="M192.2,171.4c35,0,63.3-28.3,63.3-63.3s-28.6-63.3-63.3-63.3s-63.3,28.3-63.3,63.3S157.4,171.4,192.2,171.4z
		 M192.2,142.5c-19.1,0-34.7-15.6-34.7-34.7s15.6-34.5,34.7-34.5s34.7,15.6,34.7,34.5C226.9,127.2,211.3,142.5,192.2,142.5z"/>
	<path class="st1" d="M75.9,115.7c1.8,20,3.5,33.6,17.7,58c13.5,23.3,37.7,56.5,86.9,122.5c2.7,3.5,7.1,5.9,11.8,5.9
		s9.1-2.1,11.5-5.6c49.2-66,73.6-99.2,87.2-122.5c14.1-24.4,15.9-38,17.7-58v-0.6c0-0.3,0-0.6,0-0.9c0-30.9-11.8-59.8-32.7-80.7
		C254.3,11.8,224.6,0,192.5,0c-0.3,0-0.3,0-0.6,0c-32.1,0-61.5,11.8-83.3,33.6C87.7,54.5,75.9,83,75.9,114.2c0,0.3,0,0.6,0,0.9
		V115.7z M192.2,28.6L192.2,28.6L192.2,28.6c0.3,0,0.3,0,0.6,0c49.5,0,87.2,36.5,87.5,85.1v0.3l0,0c-1.5,17.4-2.4,25.3-13.8,45.1
		c-11.2,19.1-33,49.5-73.9,104.2c-40.9-54.5-62.7-84.8-73.9-103.9c-11.5-19.7-12.4-28-13.8-45.3l0,0v-0.3
		C105,65.1,142.4,28.6,192.2,28.6z"/>
	<path class="st1" d="M360,350.4l-57.1-110.1c-2.4-4.7-7.4-7.7-12.7-7.7h-24.4c-3.8,0-7.7,1.5-10.3,4.1s-4.4,6.5-4.4,10.3
		s1.5,7.4,4.4,10.3c2.7,2.7,6.5,4.1,10,4.1h16.2l10.6,20.3h-51.8h-0.9c-3.8,0.3-7.4,2.4-9.7,5.3c-2.4,2.9-3.5,6.8-3.2,10.6
		c0.6,7.7,7.7,13.3,15,13H307l16.8,32.4H206.6v-18.3c0-4.1-1.8-8-4.7-10.9c-3.2-2.9-7.4-4.1-11.5-3.8c-7.4,0.9-12.7,7.4-12.7,14.4
		v18.3H60.9c1.5-2.9,2.9-5.6,4.4-8.5c5-9.4,9.7-18.8,14.7-28c13,0,26.5,0,39.8,0h23.6c3.8,0,7.4-1.5,10.3-4.1
		c2.7-2.7,4.4-6.5,4.4-10.3s-1.5-7.4-4.4-10.3c-2.7-2.7-6.5-4.4-10-4.1H94.7l8.2-16.2h15.6c3.8,0,7.4-1.5,10.3-4.1
		c2.7-2.7,4.4-6.5,4.4-10.3s-1.5-7.4-4.4-10.3c-2.7-2.7-6.5-4.4-10-4.1H92.7l-1.2,0.3c-4.1,0.9-8,3.8-9.7,7.4L24.6,350.1
		c-2.4,4.4-2.1,9.7,0.6,14.1s7.1,7.1,12.1,7.1h310.3c5,0,9.4-2.7,12.1-7.1S362.4,354.5,360,350.4z M265.8,240.6L265.8,240.6
		L265.8,240.6L265.8,240.6z"/>
</g>
</svg>
