<?xml version="1.0" encoding="utf-8"?>
<!-- Generator: Adobe Illustrator 21.1.0, SVG Export Plug-In . SVG Version: 6.00 Build 0)  -->
<svg version="1.1" id="Capa_1" xmlns="http://www.w3.org/2000/svg" xmlns:xlink="http://www.w3.org/1999/xlink" x="0px" y="0px"
	 viewBox="0 0 618 371.4" style="enable-background:new 0 0 618 371.4;" xml:space="preserve">
<style type="text/css">
	.st0{fill:#17D3A5;}
	.st1{fill:#EB6181;}
	.st2{fill:#DCDDF9;}
	.st3{fill:#FFFFFF;}
	.st4{fill:#4B5BA4;}
</style>
<path class="st0" d="M34.2,369.4H246c10.5,0,18.9-8.5,18.9-18.9V199.1c0-5.9-2.3-11.5-6.5-15.7L153.2,77.6c-7.2-7.3-18.9-7.3-26.2,0
	L21.8,183.4c-4.2,4.2-6.5,9.8-6.5,15.7v151.3C15.3,360.9,23.8,369.4,34.2,369.4z"/>
<rect x="271.6" y="59.4" transform="matrix(-1 -1.224647e-16 1.224647e-16 -1 595.2108 158.085)" class="st1" width="52" height="39.3"/>
<path class="st1" d="M356.8,274.7h111.5v0c0-26.8-21.8-48.6-48.6-48.6h-14.3C378.5,226.1,356.8,247.9,356.8,274.7L356.8,274.7z"/>
<path class="st2" d="M262.2,161.8c9.2-1.2,21.6-11,12.9-20.7c-3.8-4.2-9.5-5.2-14.8-5.7c-4.5-0.4-9.8-0.6-14.3,1c-1.4,0-2.7,0-4,0
	v-29.4h109.4v254.6H241.9V159.8C248.5,161.6,255.5,162.6,262.2,161.8z"/>
<polygon class="st3" points="358.4,292.5 358.4,361.5 470.4,361.5 470.4,274.5 358.4,274.5 358.4,284.5 "/>
<polygon class="st3" points="117.2,207.5 117.2,363.1 240.7,363.1 240.7,235.7 117.2,179 117.2,198.4 "/>
<path class="st3" d="M115.9,124.4c1.3-4.1,8-5,11.5-5.4c4.9-0.7,10-0.8,14.9-1.2c15.3-1.2,30.5-4,45.9-4.4c6.4-0.2,12.7,0.1,19,1.2
	c1.5,6.4,8.9,11.2,13.7,14.7c0.3,0.2,0.5,0.4,0.8,0.5c2.5,2.6,5.4,4.4,8.6,3.5c5.1,1,10.5,0.6,16.1,0.7c6.6,0.1,13.4,0.4,19.8,2.1
	c3.8,1.3,7.9,3.2,9.8,6.5c1.9,3.3,2.2,7.7,3.5,11.2c0.1,0.3,0.3,0.6,0.4,0.9c-19.9,2.9-39.8,5.1-59.9,5.7
	c-7.9,0.2-15.7,0.4-23.6,0.4c-7.2,0-14.7-0.3-21.1-3.9c-5.5-3.1-10.3-7.1-16.2-9.4c-6-2.4-12.5-2.6-18.8-3.1
	c-6.1-0.5-12.9-1-17.6-5.5C119.8,135.9,114.5,128.8,115.9,124.4z"/>
<path class="st3" d="M412.5,65.9c5.4-0.2,11-0.6,15.7-3.5c4-2.4,7.5-5.6,11.8-7.5c4.4-1.9,9.2-2.3,14-2.9c4.5-0.5,9.6-1.1,13-4.6
	c2.2-2.2,5.9-7.6,4.8-10.9c-1.1-3-6.1-3.5-8.7-3.7c-3.7-0.4-7.5-0.3-11.2-0.5c-11.5-0.5-22.9-2.2-34.4-2c-5.6,0.1-11.2,0.5-16.7,2.1
	c-5.4,1.5-9.8,4.7-14.5,7.8c-5.5,3.7-11.8,5-18.2,6.2c-6.2,1.2-12.9,2.2-18.7,5c-3.2,1.6-5.3,3.8-6.4,6.5l4.1,6.5
	c0.7-0.6,1.7-0.9,2.9-0.8c14.9,1.6,29.9,2.7,44.9,2.6C400.7,66.2,406.6,66.1,412.5,65.9z"/>
<g>
	<path class="st4" d="M457.4,63.4H433c-3.1,9.5-11.9,16.2-21.7,16.2h-50.6c-12.6,0-23.2-10.6-23.2-23.2c0-13,10.2-23.2,23.2-23.2
		h28.1c3.1-9.5,11.9-16.2,21.7-16.2h46.9c12.6,0,23.2,10.6,23.2,23.2C480.6,53,470.2,63.4,457.4,63.4z M402.2,47.4
		c-1.8,2.2-4.6,3.5-7.9,3.5h-34.4c-2.7,0-4.7,2.2-4.7,5.1c0,2.7,2.2,5.1,4.7,5.1h51.4c2.7,0,4.7-2.2,4.7-5.1c0-6,4.9-11.1,10.7-11.1
		h30.8c2.7,0,4.7-2.2,4.7-5.1c0-1.2-0.5-2.7-1.4-3.9c-0.8-1-2.2-1.2-3.3-1.2H410c-2.7,0-4.7,2.2-4.7,5.1
		C405.4,42.6,404.2,45.3,402.2,47.4z"/>
	<path class="st4" d="M318.4,155.9v-23c0-4.9,4.2-9.1,9.1-9.1c5.1,0,9.1,4,9.1,9.1v23H318.4z"/>
	<path class="st4" d="M318.5,215.9c0-0.3,0-0.6,0-0.9v-23.5c0-4.9,4.2-9.1,9.1-9.1c5.1,0,9.1,4,9.1,9.1v23.3c0,0.4,0,0.7,0,1H318.5z
		"/>
	<path class="st4" d="M318.4,273.9c0-0.1,0-0.1,0-0.2v-23.5c0-4.9,4.2-9.1,9.1-9.1c5.1,0,9.1,4,9.1,9.1v23.3c0,0.1,0,0.2,0,0.4
		H318.4z"/>
	<path class="st4" d="M318.4,332.4v-23.1c0-4.9,4.2-9.1,9.1-9.1c5.1,0,9.1,4,9.1,9.1v23.1H318.4z"/>
	<path class="st4" d="M259.8,215.9c0-0.3,0-0.6,0-0.9v-23.5c0-4.9,4.2-9.1,9.1-9.1c5.1,0,9.1,4,9.1,9.1v23.3c0,0.4,0,0.7,0,1H259.8z
		"/>
	<path class="st4" d="M259.8,273.9c0-0.1,0-0.1,0-0.2v-23.5c0-4.9,4.2-9.1,9.1-9.1c5.1,0,9.1,4,9.1,9.1v23.3c0,0.1,0,0.2,0,0.4
		H259.8z"/>
	<path class="st4" d="M259.8,332.3v-22.6c0-5.6,4.6-10.1,10.2-9.4c4.5,0.5,8,4.3,8,9l-0.3,22.3c0,0,0.3,0.8,0.2,0.8L259.8,332.3
		C259.8,332.4,259.8,332.3,259.8,332.3z"/>
	<path class="st4" d="M289.3,155.9v-23c0-4.9,4.2-9.1,9.1-9.1c5.1,0,9.1,4,9.1,9.1v23H289.3z"/>
	<path class="st4" d="M289.3,215.9c0-0.3,0-0.6,0-0.9v-23.5c0-4.9,4.2-9.1,9.1-9.1c5.1,0,9.1,4,9.1,9.1V215c0,0.3,0,0.6,0,0.9H289.3
		z"/>
	<path class="st4" d="M289.3,273.9c0-0.1,0-0.1,0-0.2v-23.5c0-4.9,4.2-9.1,9.1-9.1c5.1,0,9.1,4,9.1,9.1v23.5c0,0.1,0,0.1,0,0.2
		H289.3z"/>
	<path class="st4" d="M157.1,295.2c0-0.1,0-0.1,0-0.2v-23.5c0-4.9,4.2-9.1,9.1-9.1c5.1,0,9.1,4,9.1,9.1v23.3c0,0.1,0,0.2,0,0.4
		H157.1z"/>
	<path class="st4" d="M186.6,295.2c0-0.1,0-0.1,0-0.2v-23.5c0-4.9,4.2-9.1,9.1-9.1c5.1,0,9.1,4,9.1,9.1V295c0,0.1,0,0.1,0,0.2H186.6
		z"/>
	<path class="st4" d="M289.3,332.4v-23.1c0-4.9,4.2-9.1,9.1-9.1c5.1,0,9.1,4,9.1,9.1v23.1H289.3z"/>
	<path class="st4" d="M174.5,308.4l-0.2,15.8c0,0,0.3,0.8,0.2,2.8h-18c0-2-0.1-2-0.1-2.1v-16.6H174.5z"/>
	<rect x="186" y="308.4" class="st4" width="18.1" height="18.7"/>
	<path class="st4" d="M189.5,171.9c-10.4,0-19.7-7-22.6-16.6h-35.3c-13,0-23.6-10.6-23.6-23.6v-0.4c0-13,10.6-23.6,23.6-23.6h70.4
		c10.4,0,19.7,7,22.6,16.6h3.9v-20.5c0-4.9,4.2-9.1,9.1-9.1h22.1V57.2c0-4.9,4.2-9.1,9.1-9.1h19.3V9.8c0-4.9,4.2-9.1,9.1-9.1
		s9.1,4.2,9.1,9.1v38.3h19.3c4.9,0,9.1,4.2,9.1,9.1v37.5h22.1c4.9,0,9.1,4.2,9.1,9.1v128c10.5-11.2,24.3-18.3,39.7-20.2v-35.3
		c0-4.9,4.2-9.1,9.1-9.1s9.1,4.2,9.1,9.1v35.4c33.2,4.6,57.9,32.6,57.9,66.2v85.4c0,4.9-4.2,9.1-9.1,9.1H119.1
		c-4.9,0-9.1-4.2-9.1-9.1V179c0-2.9,1.5-5.8,4-7.7c2.7-2,5.8-0.4,7.6,0.6c0.5,0.3,1,0.5,1.4,0.7l105.5,47.9v-48.6H189.5z
		 M228.6,353.6V240.8L128.2,195v158.6H228.6z M316.4,94.6V66.2h-38.1v28.4H316.4z M247.1,124.2h17.2c19.3,0,24.4,14.9,24.4,23.6
		c0,13-10.8,24-23.6,24h-17.6v181.7h100V112.8H247.1V124.2z M270.3,147.8c0-2.7-2.2-5.5-5.5-5.5h-46.1c-6.3,0-11.5-5.2-11.5-11.5
		c0-2.7-2.2-5.5-5.5-5.5h-70.4c-2.7,0-5.5,2.2-5.5,5.5v0.4c0,2.7,2.2,5.5,5.5,5.5h41.7c6.3,0,11.5,5.2,11.5,11.5
		c0,2.7,2.2,5.5,5.5,5.5h74.9C267.5,153.7,270.3,150.7,270.3,147.8z M404.5,286.8v66.8h20.3v-66.8H404.5z M443,286.8v66.8h20.3
		v-66.8H443z M366.6,268.6h95.8c-3.9-20.8-20.8-36.7-42-39.3c-1,0-1.9-0.1-2.6-0.3c-0.4-0.1-0.7-0.1-1-0.1c0,0,0,0-0.1,0
		c-0.5,0.1-1.3,0.4-2.2,0.4c-0.8,0-1.6,0-2.6-0.4c-0.9,0-1.9,0-2.5,0.2l-0.3,0.1l-0.3,0C387.4,231.9,370.5,247.8,366.6,268.6z
		 M365.7,286.8v66.8H386v-66.8H365.7z"/>
</g>
<path class="st4" d="M7.8,355.8h602.5c4.3,0,7.8,3.5,7.8,7.8v0c0,4.3-3.5,7.8-7.8,7.8H7.8c-4.3,0-7.8-3.5-7.8-7.8v0
	C0,359.3,3.5,355.8,7.8,355.8z"/>
<path class="st4" d="M586.1,210.5h1.4c4.6,0,8.3-3.7,8.3-8.3v-1.4c0-4.6-3.7-8.3-8.3-8.3h-1.4c-4.6,0-8.3,3.7-8.3,8.3v1.4
	C577.8,206.8,581.5,210.5,586.1,210.5z"/>
<path class="st4" d="M586.1,266.4h1.4c4.6,0,8.3-3.7,8.3-8.3v-1.4c0-4.6-3.7-8.3-8.3-8.3h-1.4c-4.6,0-8.3,3.7-8.3,8.3v1.4
	C577.8,262.7,581.5,266.4,586.1,266.4z"/>
<path class="st4" d="M586.1,322.3h1.4c4.6,0,8.3-3.7,8.3-8.3v-1.4c0-4.6-3.7-8.3-8.3-8.3h-1.4c-4.6,0-8.3,3.7-8.3,8.3v1.4
	C577.8,318.6,581.5,322.3,586.1,322.3z"/>
<path class="st4" d="M526,210.5h1.4c4.6,0,8.3-3.7,8.3-8.3v-1.4c0-4.6-3.7-8.3-8.3-8.3H526c-4.6,0-8.3,3.7-8.3,8.3v1.4
	C517.7,206.8,521.5,210.5,526,210.5z"/>
<path class="st4" d="M526,266.4h1.4c4.6,0,8.3-3.7,8.3-8.3v-1.4c0-4.6-3.7-8.3-8.3-8.3H526c-4.6,0-8.3,3.7-8.3,8.3v1.4
	C517.7,262.7,521.5,266.4,526,266.4z"/>
<path class="st4" d="M526,322.3h1.4c4.6,0,8.3-3.7,8.3-8.3v-1.4c0-4.6-3.7-8.3-8.3-8.3H526c-4.6,0-8.3,3.7-8.3,8.3v1.4
	C517.7,318.6,521.5,322.3,526,322.3z"/>
</svg>
