<?xml version="1.0" encoding="utf-8"?>
<!-- Generator: Adobe Illustrator 21.1.0, SVG Export Plug-In . SVG Version: 6.00 Build 0)  -->
<svg version="1.1" id="Layer_1" xmlns="http://www.w3.org/2000/svg" xmlns:xlink="http://www.w3.org/1999/xlink" x="0px" y="0px"
	 viewBox="0 0 175.6 219.6" style="enable-background:new 0 0 175.6 219.6;" xml:space="preserve">
<style type="text/css">
	.st0{clip-path:url(#SVGID_2_);fill:#FFFFFF;}
	.st1{clip-path:url(#SVGID_2_);fill:#53AEE9;}
	.st2{clip-path:url(#SVGID_2_);fill:#4B5BA4;}
</style>
<g>
	<defs>
		<rect id="SVGID_1_" width="175.6" height="219.6"/>
	</defs>
	<clipPath id="SVGID_2_">
		<use xlink:href="#SVGID_1_"  style="overflow:visible;"/>
	</clipPath>
	<path class="st0" d="M35,79c0,0-9.7,84,23.7,110.7c33.3,26.7,44,22,46.7,21.3c2.7-0.7,36.7-27.3,36.7-27.3s20-27.3,22.7-48
		c2.7-20.7,2-53.3,2-53.3s-11.3-0.7-15.3-3.3c-4-2.7-18.7-9.3-18.7-9.3s-6.7,0.7-11.3,2.7c-4.7,2-5.3,8.7-33.3,7.3
		C60,78.4,35,79,35,79"/>
	<path class="st1" d="M170.5,37.2c-7.2-5.6-17.7-7.8-26.6-8.8c-4.4-0.5-8.7-0.7-13-2c-4.3-1.3-8.3-3.4-12.4-5.3
		c-8.3-3.9-17-6.3-26.1-7.6c-18.8-2.6-23.1-1.5-42-0.9c-11.5,0.4-25.6,0.8-36,6.1c-5.3,2.7-4.6,6.9-3.6,12.3
		c1.2,6.5,3.3,12.8,6.1,18.7c12.9,27.2,30.9,27.6,57.1,26c6.9-0.4,13.7-1.1,20.6-1.7c7-0.7,14.2-0.9,21.1-2.3
		c9.7-2,17.7-3.7,27.5-0.9c8.9,2.6,17.2,7.8,26.5,7.9c1.1-1.1,2.2-2.3,3.4-3.6C172.5,62.5,171.8,49.8,170.5,37.2"/>
	<path class="st2" d="M175.6,104v-60c0-14.2-11.1-26.2-25.3-26.6c-5.6-0.1-10.8,1.5-15.1,4.4C127.7,8.8,113.6,0,97.6,0H0v26
		c0,24.1-0.8,45,19.6,54.8V104c0,0,0.1,17.3,0.1,17.3c1.4,35.3,20.2,70.2,49.6,90c0.8,0.5,1.6,1.1,2.4,1.6
		c25.6,15.4,55.1,2.3,73.3-17.6C168.1,170,175.6,137.2,175.6,104 M149.6,34.6c4.8,0,8.7,3.9,8.7,8.7v26h-8.7c-4.8,0-8.7-3.9-8.7-8.7
		V43.3C140.9,38.5,144.8,34.6,149.6,34.6 M17.3,43.1V17.3h79.7c14.1,0,26.1,11.1,26.5,25.2c0.4,14.7-11.4,26.8-26,26.8H43.5
		C29.1,69.3,17.3,57.6,17.3,43.1 M37,116.6V86c2.8,0.4,20.7,0.6,23.7,0.6h37c11.6,0,22.2-4.6,30-12.1c4.6,7.3,12.7,12.1,22,12.1h8.7
		v29.9c0,29.2-11.2,56.5-32.7,74.8c-14.9,12.7-39.9,12.7-54.8,0C49.2,173,37,145.8,37,116.6"/>
	<path class="st2" d="M126.2,130.2h11.6c4.7,0,8-3.3,8-8c0-4.7-3.3-8-8-8h-11.6c-4.7,0-8,3.3-8,8
		C118.1,127.1,122.3,130.2,126.2,130.2"/>
	<path class="st2" d="M58.2,130.2h11.6c4.1,0,8-3.9,8-8c0-4.7-3.3-8-8-8H58.2c-4.7,0-8,3.3-8,8C50.1,126.9,53.4,130.2,58.2,130.2"/>
	<path class="st2" d="M73,172L73,172c6.5,6.5,15.4,10.1,25,10.1s18.5-3.6,25-10.1c3.2-3.2,3.2-8.1,0-11.3c-3.2-3.2-8.1-3.2-11.3,0
		c-3.5,3.5-8.3,5.4-13.7,5.4c-5.3,0-9.7-1.9-13.7-5.9c-3.2-3.2-8.1-3.2-11.3,0C69.8,163.4,69.8,168.8,73,172"/>
</g>
</svg>
