<?xml version="1.0" encoding="utf-8"?>
<!-- Generator: Adobe Illustrator 21.1.0, SVG Export Plug-In . SVG Version: 6.00 Build 0)  -->
<svg version="1.1" id="Capa_1" xmlns="http://www.w3.org/2000/svg" xmlns:xlink="http://www.w3.org/1999/xlink" x="0px" y="0px"
	 viewBox="0 0 618 438.5" style="enable-background:new 0 0 618 438.5;" xml:space="preserve">
<style type="text/css">
	.st0{fill:#2BD2A6;}
	.st1{fill:#4B5BA4;}
	.st2{fill:#DCDDF9;}
	.st3{fill:#53AEE9;}
	.st4{fill:#FFFFFF;}
	.st5{fill:#EB6181;}
</style>
<g>
	<path class="st0" d="M580.7,436.5H369c-10.5,0-18.9-8.5-18.9-18.9V266.3c0-5.9,2.3-11.5,6.5-15.7l105.2-105.8
		c7.2-7.3,18.9-7.3,26.2,0l105.2,105.8c4.2,4.2,6.5,9.8,6.5,15.7v151.3C599.7,428.1,591.2,436.5,580.7,436.5z"/>
	<g>
		<path class="st1" d="M42,277.7L42,277.7c-5,0-9-4-9-9v0c0-5,4-9,9-9h0c5,0,9,4,9,9v0C51,273.7,46.9,277.7,42,277.7z"/>
		<path class="st1" d="M42,333.6L42,333.6c-5,0-9-4-9-9v0c0-5,4-9,9-9h0c5,0,9,4,9,9v0C51,329.6,46.9,333.6,42,333.6z"/>
		<path class="st1" d="M42,389.5L42,389.5c-5,0-9-4-9-9v0c0-5,4-9,9-9h0c5,0,9,4,9,9v0C51,385.5,46.9,389.5,42,389.5z"/>
		<path class="st1" d="M102,277.7L102,277.7c-5,0-9-4-9-9v0c0-5,4-9,9-9h0c5,0,9,4,9,9v0C111,273.7,107,277.7,102,277.7z"/>
		<path class="st1" d="M102,333.6L102,333.6c-5,0-9-4-9-9v0c0-5,4-9,9-9h0c5,0,9,4,9,9v0C111,329.6,107,333.6,102,333.6z"/>
		<path class="st1" d="M102,389.5L102,389.5c-5,0-9-4-9-9v0c0-5,4-9,9-9h0c5,0,9,4,9,9v0C111,385.5,107,389.5,102,389.5z"/>
		<path class="st1" d="M162,277.7L162,277.7c-5,0-9-4-9-9v0c0-5,4-9,9-9h0c5,0,9,4,9,9v0C171,273.7,167,277.7,162,277.7z"/>
		<path class="st1" d="M162,333.6L162,333.6c-5,0-9-4-9-9v0c0-5,4-9,9-9h0c5,0,9,4,9,9v0C171,329.6,167,333.6,162,333.6z"/>
		<path class="st1" d="M162,389.5L162,389.5c-5,0-9-4-9-9v0c0-5,4-9,9-9h0c5,0,9,4,9,9v0C171,385.5,167,389.5,162,389.5z"/>
	</g>
	<path class="st1" d="M610.2,423H7.8c-4.3,0-7.8,3.5-7.8,7.8l0,0c0,4.3,3.5,7.8,7.8,7.8h602.5c4.3,0,7.8-3.5,7.8-7.8l0,0
		C618,426.5,614.5,423,610.2,423z"/>
	<g>
		<g>
			<g>
				<g>
					<polygon class="st2" points="317.5,220.3 310.6,251.3 325.3,294.8 344.2,316.3 328,322.6 377.8,390.3 431.8,320 405.1,314.8 
						435.5,288 448.6,229.8 437.6,218.2 					"/>
					<path class="st2" d="M506.9,424.2v-46.9c0-32.8-26.6-59.4-59.4-59.4h-26.1c-11.1,21-18.8,45-41.1,56.9c-1.9,1-4.5,0.5-5.5-1.5
						c-10.1-18.4-20.9-37.5-37.4-51c-1.7-1.4-1.7-3.1-0.8-4.5h-21c-32.8,0-59.4,26.6-59.4,59.4v46.9H506.9z"/>
					<rect x="316.8" y="139" class="st3" width="127" height="77.7"/>
					<path class="st1" d="M245.7,386.4v37.8h18.6v-37.8c0-32.1,24-58.6,55.1-62.6l62,83.8l62-83.8c31,4,55.1,30.6,55.1,62.6v37.8
						h18.6v-37.8c0-45.1-36.7-81.7-81.7-81.7h-6.5c15.8-13.8,25.8-34.1,25.8-56.7v-98.8h17.2v53.3h18.6v-53.3h16.4v-18.6H255.9v18.6
						H304V248c0,22.6,10,42.9,25.8,56.7h-2.4C282.4,304.7,245.7,341.3,245.7,386.4z M381.3,376.3l-39.3-53.1h78.5L381.3,376.3z
						 M322.6,149.2h113.3v61.3H322.6V149.2z M322.6,248v-18.9h113.3V248c0,31.2-25.4,56.7-56.7,56.7S322.6,279.3,322.6,248z"/>
					<path class="st1" d="M459.2,424.2v-24.6c0-5.1-4.2-9.3-9.3-9.3s-9.3,4.2-9.3,9.3v24.6H459.2z"/>
					<path class="st1" d="M503.7,424.2v-1h-49.1c-1.5,0-2.9,0.4-4.2,1H503.7z"/>
					<path class="st1" d="M313.5,424.2v-1h-49.1c-1.5,0-2.9,0.4-4.2,1H313.5z"/>
					<path class="st1" d="M322.1,424.2v-24.6c0-5.1-4.2-9.3-9.3-9.3s-9.3,4.2-9.3,9.3v24.6H322.1z"/>
				</g>
			</g>
			<path class="st1" d="M382.8,424.2c-1.5-1-3.3-1.6-5.3-1.6s-3.8,0.6-5.3,1.6H382.8z"/>
		</g>
		<g>
			<g>
				<g>
					<polygon class="st2" points="202,220.3 195.2,251.3 209.9,294.8 228.8,316.3 212.5,322.6 262.4,390.3 316.4,320 289.6,314.8 
						320.1,288 333.2,229.8 322.2,218.2 					"/>
					<path class="st2" d="M391.5,424.2v-46.9c0-32.8-26.6-59.4-59.4-59.4H306c-11.1,21-18.8,45-41.1,56.9c-1.9,1-4.5,0.5-5.5-1.5
						c-10.1-18.4-20.9-37.5-37.4-51c-1.7-1.4-1.7-3.1-0.8-4.5h-21c-32.8,0-59.4,26.6-59.4,59.4v46.9H391.5z"/>
					<rect x="201.4" y="139" class="st3" width="127" height="77.7"/>
					<path class="st1" d="M130.3,386.4v37.8h18.6v-37.8c0-32.1,24-58.6,55.1-62.6l62,83.8l62-83.8c31,4,55.1,30.6,55.1,62.6v37.8
						h18.6v-37.8c0-45.1-36.7-81.7-81.7-81.7h-6.5c15.8-13.8,25.8-34.1,25.8-56.7v-98.8h17.2v53.3h18.6v-53.3h16.4v-18.6H140.5v18.6
						h48.1V248c0,22.6,10,42.9,25.8,56.7H212C167,304.7,130.3,341.3,130.3,386.4z M265.9,376.3l-39.3-53.1h78.5L265.9,376.3z
						 M207.2,149.2h113.3v61.3H207.2V149.2z M207.2,248v-18.9h113.3V248c0,31.2-25.4,56.7-56.7,56.7S207.2,279.3,207.2,248z"/>
					<path class="st1" d="M343.8,424.2v-24.6c0-5.1-4.2-9.3-9.3-9.3s-9.3,4.2-9.3,9.3v24.6H343.8z"/>
					<path class="st1" d="M388.3,424.2v-1h-49.1c-1.5,0-2.9,0.4-4.2,1H388.3z"/>
					<path class="st1" d="M198.1,424.2v-1H149c-1.5,0-2.9,0.4-4.2,1H198.1z"/>
					<path class="st1" d="M206.7,424.2v-24.6c0-5.1-4.2-9.3-9.3-9.3c-5.1,0-9.3,4.2-9.3,9.3v24.6H206.7z"/>
				</g>
			</g>
			<path class="st1" d="M267.4,424.2c-1.5-1-3.3-1.6-5.3-1.6s-3.8,0.6-5.3,1.6H267.4z"/>
		</g>
		<g>
			<g>
				<g>
					<polygon class="st2" points="260.6,173 253.8,203.9 268.5,247.4 287.4,269 271.1,275.3 320.9,342.9 375,272.6 348.2,267.4 
						378.6,240.6 391.8,182.4 380.7,170.9 					"/>
					<path class="st4" d="M390.6,270.4h-26.1c-11.1,21-18.8,45-41.1,56.9c-1.9,1-4.5,0.5-5.5-1.5c-10.1-18.4-20.9-37.5-37.4-51
						c-1.7-1.4-1.7-3.1-0.8-4.5h-21c-32.8,0-59.4,26.6-59.4,59.4v98.9h250.8v-98.9C450.1,297.1,423.5,270.4,390.6,270.4z"/>
					<rect x="199.2" y="391.1" class="st2" width="51.1" height="37.6"/>
					<path class="st2" d="M448.4,388.6h-50.9c0,0.1,0,0.2,0,0.3v39.9h52.5v-40.4C449.6,388.5,449,388.6,448.4,388.6z"/>
					<rect x="259.9" y="91.6" class="st5" width="127" height="77.7"/>
					<path class="st1" d="M188.9,339v98.1h271.2V339c0-45.1-36.7-81.7-81.7-81.7h-6.5c15.8-13.8,25.8-34.1,25.8-56.7v-98.8h17.2
						v53.3h18.6v-53.3h16.4V83.3H199.1v18.6h48.1v98.8c0,22.6,10,42.9,25.8,56.7h-2.4C225.5,257.3,188.9,294,188.9,339z
						 M265.7,101.8h113.3v61.3H265.7V101.8z M265.7,200.6v-18.9h113.3v18.9c0,31.2-25.4,56.7-56.7,56.7S265.7,231.9,265.7,200.6z
						 M363.7,275.9l-39.3,53.1l-39.3-53.1H363.7z M324.5,360.2l62-83.8c31,4,55.1,30.6,55.1,62.6v82.1H207.4V339
						c0-32.1,24-58.6,55.1-62.6L324.5,360.2z"/>
					<path class="st1" d="M362.9,437.1h36.5c1.8-1.7,2.9-4.1,2.9-6.7v-78.1c0-5.1-4.2-9.3-9.3-9.3c-5.1,0-9.3,4.2-9.3,9.3v68.9
						h-14.5c-5.1,0-9.3,4.2-9.3,9.3v0C360,433,361.1,435.4,362.9,437.1z"/>
					<path class="st1" d="M446.9,375.8h-49.1c-5.1,0-9.3,4.2-9.3,9.3v0c0,5.1,4.2,9.3,9.3,9.3h49.1V375.8z"/>
					<path class="st1" d="M256.7,375.8h-49.1c-5.1,0-9.3,4.2-9.3,9.3v0c0,5.1,4.2,9.3,9.3,9.3h49.1V375.8z"/>
					<path class="st1" d="M249.6,437.1h36.5c1.8-1.7,2.9-4.1,2.9-6.7v0c0-5.1-4.2-9.3-9.3-9.3h-14.5v-68.9c0-5.1-4.2-9.3-9.3-9.3
						s-9.3,4.2-9.3,9.3v78.1C246.7,433,247.8,435.4,249.6,437.1z"/>
				</g>
			</g>
			<path class="st1" d="M311.4,414.7v3.8c0,5.1,4.2,9.3,9.3,9.3h0c5.1,0,9.3-4.2,9.3-9.3v-3.8c0-5.1-4.2-9.3-9.3-9.3h0
				C315.5,405.5,311.4,409.6,311.4,414.7z"/>
			<path class="st1" d="M311.4,384.4v3.8c0,5.1,4.2,9.3,9.3,9.3h0c5.1,0,9.3-4.2,9.3-9.3v-3.8c0-5.1-4.2-9.3-9.3-9.3h0
				C315.5,375.1,311.4,379.3,311.4,384.4z"/>
		</g>
	</g>
</g>
<path class="st4" d="M242.2,99.7c0,0-12.2,105.7,29.8,139.2c41.9,33.5,55.4,27.7,58.7,26.8c3.4-0.8,46.1-34.4,46.1-34.4
	S402,197,405.4,171c3.4-26,2.5-67.1,2.5-67.1s-14.3-0.8-19.3-4.2c-5-3.4-23.5-11.7-23.5-11.7s-8.4,0.8-14.3,3.4
	c-5.9,2.5-6.7,10.9-41.9,9.2C273.7,98.9,242.2,99.7,242.2,99.7"/>
<path class="st3" d="M412.7,47.1c-9-7-22.2-9.8-33.5-11c-5.6-0.6-11-0.9-16.4-2.6c-5.4-1.7-10.5-4.3-15.5-6.7
	c-10.4-5-21.4-8-32.8-9.5c-23.7-3.2-29-1.9-52.8-1.1c-14.5,0.4-32.2,1-45.3,7.7c-6.6,3.3-5.8,8.7-4.5,15.5c1.6,8.1,4.2,16,7.7,23.5
	c16.2,34.2,38.9,34.7,71.8,32.8c8.6-0.5,17.3-1.3,25.9-2.2c8.8-0.9,17.9-1.1,26.5-2.9c12.2-2.5,22.3-4.6,34.6-1.1
	c11.2,3.2,21.6,9.8,33.3,10c1.4-1.4,2.8-2.9,4.3-4.5C415.2,78.9,414.3,63,412.7,47.1"/>
<path class="st1" d="M419.1,131.1V55.5c0-17.8-14-33-31.8-33.4c-7.1-0.2-13.6,1.9-19.1,5.5c-9.4-16.3-27-27.3-47.2-27.3H198.2V33
	c0,30.4-1,56.7,24.7,68.9v29.2c0,0,0.1,21.8,0.1,21.8c1.8,44.4,25.4,88.3,62.4,113.2c1,0.7,2,1.3,3.1,2c32.3,19.4,69.3,3,92.3-22.2
	C409.6,214.2,419.1,172.9,419.1,131.1 M386.4,43.9c6,0,10.9,4.9,10.9,10.9v32.7h-10.9c-6,0-10.9-4.9-10.9-10.9V54.8
	C375.5,48.8,380.4,43.9,386.4,43.9 M220,54.5V22.1h100.3c17.8,0,32.8,13.9,33.4,31.7c0.5,18.5-14.3,33.7-32.7,33.7h-68
	C234.7,87.5,220,72.7,220,54.5 M244.7,146.9v-38.4c3.6,0.5,26.1,0.8,29.8,0.8H321c14.6,0,28-5.8,37.8-15.3
	c5.8,9.2,16,15.3,27.6,15.3h10.9v37.7c0,36.7-14.1,71.1-41.2,94.1c-18.8,16-50.2,16-68.9,0C260,218,244.7,183.7,244.7,146.9"/>
<path class="st1" d="M356.9,164.1h14.6c5.9,0,10.1-4.2,10.1-10.1c0-5.9-4.2-10.1-10.1-10.1h-14.6c-5.9,0-10.1,4.2-10.1,10.1
	C346.8,160.2,352.1,164.1,356.9,164.1"/>
<path class="st1" d="M271.3,164.1h14.6c5.2,0,10.1-4.9,10.1-10.1c0-5.9-4.2-10.1-10.1-10.1h-14.6c-5.9,0-10.1,4.2-10.1,10.1
	C261.2,159.9,265.4,164.1,271.3,164.1"/>
<path class="st1" d="M290,216.7L290,216.7c8.2,8.2,19.4,12.7,31.4,12.7c12.1,0,23.2-4.5,31.4-12.7c4-4,4-10.1,0-14.2
	c-4-4-10.1-4-14.2,0c-4.3,4.3-10.5,6.7-17.3,6.7c-6.7,0-12.2-2.4-17.3-7.4c-4-4-10.1-4-14.2,0C286,205.9,286,212.7,290,216.7"/>
</svg>
