<?xml version="1.0" encoding="utf-8"?>
<!-- Generator: Adobe Illustrator 21.1.0, SVG Export Plug-In . SVG Version: 6.00 Build 0)  -->
<svg version="1.1" id="Capa_1" xmlns="http://www.w3.org/2000/svg" xmlns:xlink="http://www.w3.org/1999/xlink" x="0px" y="0px"
	 viewBox="0 0 618 372.4" style="enable-background:new 0 0 618 372.4;" xml:space="preserve">
<style type="text/css">
	.st0{fill:#17D3A5;}
	.st1{fill:#4B5BA4;}
	.st2{fill:#FFFFFF;}
	.st3{fill:#EB6181;}
	.st4{fill:#DCDDF9;}
</style>
<g>
	<path class="st0" d="M580.7,370.4H369c-10.5,0-18.9-8.5-18.9-18.9V200.2c0-5.9,2.3-11.5,6.5-15.7L461.8,78.7
		c7.2-7.3,18.9-7.3,26.2,0l105.2,105.8c4.2,4.2,6.5,9.8,6.5,15.7v151.3C599.7,361.9,591.2,370.4,580.7,370.4z"/>
	<g>
		<path class="st1" d="M42,211.6L42,211.6c-5,0-9-4-9-9v0c0-5,4-9,9-9h0c5,0,9,4,9,9v0C51,207.5,46.9,211.6,42,211.6z"/>
		<path class="st1" d="M42,267.5L42,267.5c-5,0-9-4-9-9l0,0c0-5,4-9,9-9h0c5,0,9,4,9,9l0,0C51,263.4,46.9,267.5,42,267.5z"/>
		<path class="st1" d="M42,323.3L42,323.3c-5,0-9-4-9-9l0,0c0-5,4-9,9-9h0c5,0,9,4,9,9l0,0C51,319.3,46.9,323.3,42,323.3z"/>
		<path class="st1" d="M102,211.6L102,211.6c-5,0-9-4-9-9v0c0-5,4-9,9-9h0c5,0,9,4,9,9v0C111,207.5,107,211.6,102,211.6z"/>
		<path class="st1" d="M102,267.5L102,267.5c-5,0-9-4-9-9l0,0c0-5,4-9,9-9h0c5,0,9,4,9,9l0,0C111,263.4,107,267.5,102,267.5z"/>
		<path class="st1" d="M102,323.3L102,323.3c-5,0-9-4-9-9l0,0c0-5,4-9,9-9h0c5,0,9,4,9,9l0,0C111,319.3,107,323.3,102,323.3z"/>
		<path class="st1" d="M162,211.6L162,211.6c-5,0-9-4-9-9v0c0-5,4-9,9-9h0c5,0,9,4,9,9v0C171,207.5,167,211.6,162,211.6z"/>
		<path class="st1" d="M162,267.5L162,267.5c-5,0-9-4-9-9l0,0c0-5,4-9,9-9h0c5,0,9,4,9,9l0,0C171,263.4,167,267.5,162,267.5z"/>
		<path class="st1" d="M162,323.3L162,323.3c-5,0-9-4-9-9l0,0c0-5,4-9,9-9h0c5,0,9,4,9,9l0,0C171,319.3,167,323.3,162,323.3z"/>
	</g>
	<path class="st1" d="M335.7,346.1v4.1c0,5.4,4.4,9.8,9.8,9.8h0c5.4,0,9.8-4.4,9.8-9.8v-4.1c0-5.4-4.4-9.8-9.8-9.8l0,0
		C340.1,336.3,335.7,340.7,335.7,346.1z"/>
	<path class="st1" d="M335.7,314.1v4.1c0,5.4,4.4,9.8,9.8,9.8h0c5.4,0,9.8-4.4,9.8-9.8v-4.1c0-5.4-4.4-9.8-9.8-9.8l0,0
		C340.1,304.3,335.7,308.7,335.7,314.1z"/>
	<path class="st1" d="M610.2,356.9H7.8c-4.3,0-7.8,3.5-7.8,7.8v0c0,4.3,3.5,7.8,7.8,7.8h602.5c4.3,0,7.8-3.5,7.8-7.8v0
		C618,360.3,614.5,356.9,610.2,356.9z"/>
	<g>
		<rect x="373.1" y="237.7" class="st2" width="134" height="128.5"/>
		<rect x="373.1" y="171.7" class="st3" width="134" height="61.5"/>
		<rect x="344.3" y="9.8" class="st3" width="37.7" height="43.9"/>
		<rect x="158.1" y="171.7" class="st3" width="134" height="61.5"/>
		<polygon class="st3" points="401.1,146.1 267.1,146.1 317.1,104.7 351.1,104.7 		"/>
		<rect x="166.1" y="237.7" class="st2" width="134" height="128.5"/>
		<rect x="274.4" y="150.2" class="st4" width="134" height="212"/>
		<path class="st1" d="M152.1,242h0.7v125.2H516V242h0.7c3,0,5.9-1.4,7.8-3.7c1.9-2.3,2.7-5.4,2.1-8.4l-10.8-54.1
			c-0.9-4.7-5.1-8.1-9.9-8.1h-96.5v-6.8h0.7c4.4,0,8.3-2.8,9.6-7c1.3-4.2-0.2-8.8-3.7-11.3l-71.5-51.1v-28h44
			c5.6,0,10.1-4.5,10.1-10.1V10.1c0-5.6-4.5-10.1-10.1-10.1h-54.1c-5.6,0-10.1,4.5-10.1,10.1v81.4l-71.5,51.1
			c-3.6,2.6-5.1,7.1-3.7,11.3c1.3,4.2,5.2,7,9.6,7h0.7v6.8h-96.5c-4.8,0-9,3.4-9.9,8.1l-10.8,54.1c-0.6,3,0.2,6,2.1,8.4
			C146.2,240.7,149,242,152.1,242z M344.5,20.2h33.9v23.1h-33.9V20.2z M259.4,356.6H173V242h86.4V356.6z M345.9,356.6h-23.1v-33.9
			h23.1V356.6z M409.4,187.9h88.2l6.8,33.9h-95V187.9z M409.4,242h86.4v114.6h-86.4V242z M334.4,109.1l44.2,31.6h-88.4L334.4,109.1z
			 M279.6,160.9h109.6v195.7h-23.1v-44c0-5.6-4.5-10.1-10.1-10.1h-43.3c-5.6,0-10.1,4.5-10.1,10.1v44h-23.1V160.9z M171.2,187.9
			h88.2v33.9h-95L171.2,187.9z"/>
		<path class="st1" d="M426,318.8v13c0,2.2,1.8,3.9,3.9,3.9H442c2.2,0,3.9-1.8,3.9-3.9v-13c0-2.2-1.8-3.9-3.9-3.9h-12.2
			C427.7,314.9,426,316.7,426,318.8z"/>
		<path class="st1" d="M456,318.8v13c0,2.2,1.8,3.9,3.9,3.9H472c2.2,0,3.9-1.8,3.9-3.9v-13c0-2.2-1.8-3.9-3.9-3.9h-12.2
			C457.7,314.9,456,316.7,456,318.8z"/>
		<path class="st1" d="M191.2,318.8v13c0,2.2,1.8,3.9,3.9,3.9h12.2c2.2,0,3.9-1.8,3.9-3.9v-13c0-2.2-1.8-3.9-3.9-3.9h-12.2
			C193,314.9,191.2,316.7,191.2,318.8z"/>
		<path class="st1" d="M221.2,318.8v13c0,2.2,1.8,3.9,3.9,3.9h12.2c2.2,0,3.9-1.8,3.9-3.9v-13c0-2.2-1.8-3.9-3.9-3.9h-12.2
			C223,314.9,221.2,316.7,221.2,318.8z"/>
		<g>
			<path class="st1" d="M426,271.2v26.9c0,2.2,1.8,3.9,3.9,3.9H442c2.2,0,3.9-1.8,3.9-3.9v-26.9c0-5.5-4.5-10-10-10h0
				C430.4,261.2,426,265.7,426,271.2z"/>
			<path class="st1" d="M456,271.2v26.9c0,2.2,1.8,3.9,3.9,3.9H472c2.2,0,3.9-1.8,3.9-3.9v-26.9c0-5.5-4.5-10-10-10h0
				C460.4,261.2,456,265.7,456,271.2z"/>
			<path class="st1" d="M191.2,271.2v26.9c0,2.2,1.8,3.9,3.9,3.9h12.2c2.2,0,3.9-1.8,3.9-3.9v-26.9c0-5.5-4.5-10-10-10h0
				C195.7,261.2,191.2,265.7,191.2,271.2z"/>
			<path class="st1" d="M221.2,271.2v26.9c0,2.2,1.8,3.9,3.9,3.9h12.2c2.2,0,3.9-1.8,3.9-3.9v-26.9c0-5.5-4.5-10-10-10h0
				C225.7,261.2,221.2,265.7,221.2,271.2z"/>
			<path class="st1" d="M305.6,238.8v13c0,2.2,1.8,3.9,3.9,3.9h12.2c2.2,0,3.9-1.8,3.9-3.9v-13c0-2.2-1.8-3.9-3.9-3.9h-12.2
				C307.3,234.9,305.6,236.7,305.6,238.8z"/>
			<path class="st1" d="M341.6,238.8v13c0,2.2,1.8,3.9,3.9,3.9h12.2c2.2,0,3.9-1.8,3.9-3.9v-13c0-2.2-1.8-3.9-3.9-3.9h-12.2
				C343.3,234.9,341.6,236.7,341.6,238.8z"/>
			<path class="st1" d="M305.6,271.8v13c0,2.2,1.8,3.9,3.9,3.9h12.2c2.2,0,3.9-1.8,3.9-3.9v-13c0-2.2-1.8-3.9-3.9-3.9h-12.2
				C307.3,267.9,305.6,269.7,305.6,271.8z"/>
			<path class="st1" d="M341.6,271.8v13c0,2.2,1.8,3.9,3.9,3.9h12.2c2.2,0,3.9-1.8,3.9-3.9v-13c0-2.2-1.8-3.9-3.9-3.9h-12.2
				C343.3,267.9,341.6,269.7,341.6,271.8z"/>
			<path class="st1" d="M305.6,191.2v26.9c0,2.2,1.8,3.9,3.9,3.9h12.2c2.2,0,3.9-1.8,3.9-3.9v-26.9c0-5.5-4.5-10-10-10h0
				C310,181.2,305.6,185.7,305.6,191.2z"/>
			<path class="st1" d="M341.6,191.2v26.9c0,2.2,1.8,3.9,3.9,3.9h12.2c2.2,0,3.9-1.8,3.9-3.9v-26.9c0-5.5-4.5-10-10-10h0
				C346,181.2,341.6,185.7,341.6,191.2z"/>
		</g>
	</g>
</g>
</svg>
