<?xml version="1.0" encoding="utf-8"?>
<!-- Generator: Adobe Illustrator 21.1.0, SVG Export Plug-In . SVG Version: 6.00 Build 0)  -->
<svg version="1.1" id="Capa_1" xmlns="http://www.w3.org/2000/svg" xmlns:xlink="http://www.w3.org/1999/xlink" x="0px" y="0px"
	 viewBox="0 0 618 438.5" style="enable-background:new 0 0 618 438.5;" xml:space="preserve">
<style type="text/css">
	.st0{fill:#2BD2A6;}
	.st1{fill:#4B5BA4;}
	.st2{fill:#DCDDF9;}
	.st3{fill:#53AEE9;}
	.st4{fill:#FFFFFF;}
	.st5{fill:#EB6181;}
</style>
<g>
	<g>
		<path class="st0" d="M580.7,436.5H369c-10.5,0-18.9-8.5-18.9-18.9V266.3c0-5.9,2.3-11.5,6.5-15.7l105.2-105.8
			c7.2-7.3,18.9-7.3,26.2,0l105.2,105.8c4.2,4.2,6.5,9.8,6.5,15.7v151.3C599.7,428.1,591.2,436.5,580.7,436.5z"/>
		<g>
			<path class="st1" d="M42,277.7L42,277.7c-5,0-9-4-9-9v0c0-5,4-9,9-9h0c5,0,9,4,9,9v0C51,273.7,46.9,277.7,42,277.7z"/>
			<path class="st1" d="M42,333.6L42,333.6c-5,0-9-4-9-9v0c0-5,4-9,9-9h0c5,0,9,4,9,9v0C51,329.6,46.9,333.6,42,333.6z"/>
			<path class="st1" d="M42,389.5L42,389.5c-5,0-9-4-9-9v0c0-5,4-9,9-9h0c5,0,9,4,9,9v0C51,385.5,46.9,389.5,42,389.5z"/>
			<path class="st1" d="M102,277.7L102,277.7c-5,0-9-4-9-9v0c0-5,4-9,9-9h0c5,0,9,4,9,9v0C111,273.7,107,277.7,102,277.7z"/>
			<path class="st1" d="M102,333.6L102,333.6c-5,0-9-4-9-9v0c0-5,4-9,9-9h0c5,0,9,4,9,9v0C111,329.6,107,333.6,102,333.6z"/>
			<path class="st1" d="M102,389.5L102,389.5c-5,0-9-4-9-9v0c0-5,4-9,9-9h0c5,0,9,4,9,9v0C111,385.5,107,389.5,102,389.5z"/>
			<path class="st1" d="M162,277.7L162,277.7c-5,0-9-4-9-9v0c0-5,4-9,9-9h0c5,0,9,4,9,9v0C171,273.7,167,277.7,162,277.7z"/>
			<path class="st1" d="M162,333.6L162,333.6c-5,0-9-4-9-9v0c0-5,4-9,9-9h0c5,0,9,4,9,9v0C171,329.6,167,333.6,162,333.6z"/>
			<path class="st1" d="M162,389.5L162,389.5c-5,0-9-4-9-9v0c0-5,4-9,9-9h0c5,0,9,4,9,9v0C171,385.5,167,389.5,162,389.5z"/>
		</g>
		<path class="st1" d="M610.2,423H7.8c-4.3,0-7.8,3.5-7.8,7.8l0,0c0,4.3,3.5,7.8,7.8,7.8h602.5c4.3,0,7.8-3.5,7.8-7.8l0,0
			C618,426.5,614.5,423,610.2,423z"/>
		<g>
			<g>
				<g>
					<g>
						<polygon class="st2" points="317.5,220.3 310.6,251.3 325.3,294.8 344.2,316.3 328,322.6 377.8,390.3 431.8,320 405.1,314.8 
							435.5,288 448.6,229.8 437.6,218.2 						"/>
						<path class="st2" d="M506.9,424.2v-46.9c0-32.8-26.6-59.4-59.4-59.4h-26.1c-11.1,21-18.8,45-41.1,56.9c-1.9,1-4.5,0.5-5.5-1.5
							c-10.1-18.4-20.9-37.5-37.4-51c-1.7-1.4-1.7-3.1-0.8-4.5h-21c-32.8,0-59.4,26.6-59.4,59.4v46.9H506.9z"/>
						<rect x="316.8" y="139" class="st5" width="127" height="77.7"/>
						<path class="st1" d="M245.7,386.4v37.8h18.6v-37.8c0-32.1,24-58.6,55.1-62.6l62,83.8l62-83.8c31,4,55.1,30.6,55.1,62.6v37.8
							h18.6v-37.8c0-45.1-36.7-81.7-81.7-81.7h-6.5c15.8-13.8,25.8-34.1,25.8-56.7v-98.8h17.2v53.3h18.6v-53.3h16.4v-18.6H255.9
							v18.6H304V248c0,22.6,10,42.9,25.8,56.7h-2.4C282.4,304.7,245.7,341.3,245.7,386.4z M381.3,376.3l-39.3-53.1h78.5L381.3,376.3
							z M322.6,149.2h113.3v61.3H322.6V149.2z M322.6,248v-18.9h113.3V248c0,31.2-25.4,56.7-56.7,56.7S322.6,279.3,322.6,248z"/>
						<path class="st1" d="M459.2,424.2v-24.6c0-5.1-4.2-9.3-9.3-9.3s-9.3,4.2-9.3,9.3v24.6H459.2z"/>
						<path class="st1" d="M503.7,424.2v-1h-49.1c-1.5,0-2.9,0.4-4.2,1H503.7z"/>
						<path class="st1" d="M313.5,424.2v-1h-49.1c-1.5,0-2.9,0.4-4.2,1H313.5z"/>
						<path class="st1" d="M322.1,424.2v-24.6c0-5.1-4.2-9.3-9.3-9.3s-9.3,4.2-9.3,9.3v24.6H322.1z"/>
					</g>
				</g>
				<path class="st1" d="M382.8,424.2c-1.5-1-3.3-1.6-5.3-1.6s-3.8,0.6-5.3,1.6H382.8z"/>
			</g>
			<g>
				<g>
					<g>
						<polygon class="st2" points="202,220.3 195.2,251.3 209.9,294.8 228.8,316.3 212.5,322.6 262.4,390.3 316.4,320 289.6,314.8 
							320.1,288 333.2,229.8 322.2,218.2 						"/>
						<path class="st2" d="M391.5,424.2v-46.9c0-32.8-26.6-59.4-59.4-59.4H306c-11.1,21-18.8,45-41.1,56.9c-1.9,1-4.5,0.5-5.5-1.5
							c-10.1-18.4-20.9-37.5-37.4-51c-1.7-1.4-1.7-3.1-0.8-4.5h-21c-32.8,0-59.4,26.6-59.4,59.4v46.9H391.5z"/>
						<rect x="201.4" y="139" class="st5" width="127" height="77.7"/>
						<path class="st1" d="M130.3,386.4v37.8h18.6v-37.8c0-32.1,24-58.6,55.1-62.6l62,83.8l62-83.8c31,4,55.1,30.6,55.1,62.6v37.8
							h18.6v-37.8c0-45.1-36.7-81.7-81.7-81.7h-6.5c15.8-13.8,25.8-34.1,25.8-56.7v-98.8h17.2v53.3h18.6v-53.3h16.4v-18.6H140.5
							v18.6h48.1V248c0,22.6,10,42.9,25.8,56.7H212C167,304.7,130.3,341.3,130.3,386.4z M265.9,376.3l-39.3-53.1h78.5L265.9,376.3z
							 M207.2,149.2h113.3v61.3H207.2V149.2z M207.2,248v-18.9h113.3V248c0,31.2-25.4,56.7-56.7,56.7S207.2,279.3,207.2,248z"/>
						<path class="st1" d="M343.8,424.2v-24.6c0-5.1-4.2-9.3-9.3-9.3s-9.3,4.2-9.3,9.3v24.6H343.8z"/>
						<path class="st1" d="M388.3,424.2v-1h-49.1c-1.5,0-2.9,0.4-4.2,1H388.3z"/>
						<path class="st1" d="M198.1,424.2v-1H149c-1.5,0-2.9,0.4-4.2,1H198.1z"/>
						<path class="st1" d="M206.7,424.2v-24.6c0-5.1-4.2-9.3-9.3-9.3c-5.1,0-9.3,4.2-9.3,9.3v24.6H206.7z"/>
					</g>
				</g>
				<path class="st1" d="M267.4,424.2c-1.5-1-3.3-1.6-5.3-1.6s-3.8,0.6-5.3,1.6H267.4z"/>
			</g>
			<g>
				<g>
					<g>
						<polygon class="st2" points="260.6,173 253.8,203.9 268.5,247.4 287.4,269 271.1,275.3 320.9,342.9 375,272.6 348.2,267.4 
							378.6,240.6 391.8,182.4 380.7,170.9 						"/>
						<path class="st4" d="M390.6,270.4h-26.1c-11.1,21-18.8,45-41.1,56.9c-1.9,1-4.5,0.5-5.5-1.5c-10.1-18.4-20.9-37.5-37.4-51
							c-1.7-1.4-1.7-3.1-0.8-4.5h-21c-32.8,0-59.4,26.6-59.4,59.4v98.9h250.8v-98.9C450.1,297.1,423.5,270.4,390.6,270.4z"/>
						<rect x="199.2" y="391.1" class="st2" width="51.1" height="37.6"/>
						<path class="st2" d="M448.4,388.6h-50.9c0,0.1,0,0.2,0,0.3v39.9h52.5v-40.4C449.6,388.5,449,388.6,448.4,388.6z"/>
						<rect x="259.9" y="91.6" class="st5" width="127" height="77.7"/>
						<path class="st1" d="M188.9,339v98.1h271.2V339c0-45.1-36.7-81.7-81.7-81.7h-6.5c15.8-13.8,25.8-34.1,25.8-56.7v-98.8h17.2
							v53.3h18.6v-53.3h16.4V83.3H199.1v18.6h48.1v98.8c0,22.6,10,42.9,25.8,56.7h-2.4C225.5,257.3,188.9,294,188.9,339z
							 M265.7,101.8h113.3v61.3H265.7V101.8z M265.7,200.6v-18.9h113.3v18.9c0,31.2-25.4,56.7-56.7,56.7S265.7,231.9,265.7,200.6z
							 M363.7,275.9l-39.3,53.1l-39.3-53.1H363.7z M324.5,360.2l62-83.8c31,4,55.1,30.6,55.1,62.6v82.1H207.4V339
							c0-32.1,24-58.6,55.1-62.6L324.5,360.2z"/>
						<path class="st1" d="M362.9,437.1h36.5c1.8-1.7,2.9-4.1,2.9-6.7v-78.1c0-5.1-4.2-9.3-9.3-9.3c-5.1,0-9.3,4.2-9.3,9.3v68.9
							h-14.5c-5.1,0-9.3,4.2-9.3,9.3v0C360,433,361.1,435.4,362.9,437.1z"/>
						<path class="st1" d="M446.9,375.8h-49.1c-5.1,0-9.3,4.2-9.3,9.3v0c0,5.1,4.2,9.3,9.3,9.3h49.1V375.8z"/>
						<path class="st1" d="M256.7,375.8h-49.1c-5.1,0-9.3,4.2-9.3,9.3v0c0,5.1,4.2,9.3,9.3,9.3h49.1V375.8z"/>
						<path class="st1" d="M249.6,437.1h36.5c1.8-1.7,2.9-4.1,2.9-6.7v0c0-5.1-4.2-9.3-9.3-9.3h-14.5v-68.9c0-5.1-4.2-9.3-9.3-9.3
							s-9.3,4.2-9.3,9.3v78.1C246.7,433,247.8,435.4,249.6,437.1z"/>
					</g>
				</g>
				<path class="st1" d="M311.4,414.7v3.8c0,5.1,4.2,9.3,9.3,9.3h0c5.1,0,9.3-4.2,9.3-9.3v-3.8c0-5.1-4.2-9.3-9.3-9.3h0
					C315.5,405.5,311.4,409.6,311.4,414.7z"/>
				<path class="st1" d="M311.4,384.4v3.8c0,5.1,4.2,9.3,9.3,9.3h0c5.1,0,9.3-4.2,9.3-9.3v-3.8c0-5.1-4.2-9.3-9.3-9.3h0
					C315.5,375.1,311.4,379.3,311.4,384.4z"/>
			</g>
		</g>
	</g>
	<g>
		<path class="st4" d="M332.8,267.5l-22.6,0c-41.4,0-74.9-33.5-74.9-74.9l0-88.5l172.4,0v88.5C407.7,234,374.2,267.5,332.8,267.5z"
			/>
		<path class="st5" d="M409.1,105.2c-4.6-12.5-13.3-22.8-24.1-30.4c-18.7-13.3-41.4-18.9-64.1-20.2c-22.1-1.2-48.1,0.8-64,18
			c-0.9,0.9-1.7,1.9-2.6,2.9c0,0.1-0.1,0.1-0.1,0.2c-12.4,15-18.5,34.9-23.2,53.4c-1.5,5.9-3.1,12.1-5.1,18.2
			c3.8,2.4,7.9,4.4,12.2,6.1c0,0,84.8,2.1,95.6-35.7c0.6,0,1.3,0,1.9,0.1c13.1,1.5,20.3,15.3,31,21.6c12.3,7.2,26.4,12,40.9,14.6
			c4.9-2.2,9.6-4.9,14-7.8c0.7-0.4,1.3-0.9,2.1-1.3C416.5,132.4,414,118.5,409.1,105.2z"/>
		<path class="st5" d="M283.1,14.6c-6.8,4.6-10.2,11.6-12.9,19.6c-3.7,11-5.9,22.4-7.6,33.9c-0.1,0.8-0.2,2-0.3,3
			c1.6-0.3,3.5-0.6,3.9-0.7c5.3-1.4,10.5-2.8,15.8-4.1c11-2.7,22.3-4.7,33.6-4.3c12,0.4,24.2,1.9,36.1,3.6c6.4,0.9,12.8,2,19,3.8
			c2.1,0.6,4.1,1.4,6,2.2c-0.5-0.8-0.9-1.7-1.1-2.8c-0.9-7-3.3-13.7-4.8-20.5c-1.2-5.6-1.7-11.5-3.7-17c-3.3-9.3-14-12.2-22.6-14.4
			c-5.4-1.4-11.2-3.2-17.1-4.7c-2.2-0.2-4.4-0.4-6.6-0.5C308.8,10.9,295.3,11.3,283.1,14.6z"/>
		<g>
			<path class="st1" d="M383.6,67c1.4-17.2-4.1-33.6-15.6-46.3C356.1,7.6,339.1,0,321.4,0C286.4,0,258,28.4,258,63.4v3.6
				c-25.9,18.1-40.1,47.5-40.1,83c0,36.7,14.6,74.6,40.1,101.2c13.3,13.8,30.5,24.3,49.4,28.1c39.4,8,74.7-19.6,94.1-51.5
				c14.1-23.2,22.1-50.6,22.1-77.8C423.6,114.5,409.4,85.1,383.6,67z M321.4,18.5c22.2,0,41,16.9,43.9,38.4
				c-14-5.7-28.9-8.5-44.5-8.5c-15.7,0-30.4,2.8-43.7,8.4C280.4,35,299,18.5,321.4,18.5z M321.4,66.9c41.6,0,83.7,25.3,84.3,81.7
				c-27.1-4-39.5-21.4-56.4-49.2l-0.1-0.1c-1.9-2.9-4.8-4.5-8.1-4.5c-3.3,0-6.2,1.6-8.1,4.5l-0.1,0.1c-12.3,20.5-50,44.3-96.5,49.2
				C237.7,92.2,279.8,66.9,321.4,66.9z M321.3,261.7c-20.2,0.3-40.2-10.8-56.3-31.2c-13.7-17.5-23.7-40.9-27-63.3
				c33.4-3.5,78.1-19.3,102.7-46.8c17,26.7,33.6,42.9,64,46.1C397.9,213,363.4,261.7,321.3,261.7z"/>
			<path class="st1" d="M353.8,185.9h13.4c5.4,0,9.2-3.8,9.2-9.2s-3.8-9.2-9.2-9.2h-13.4c-5.4,0-9.2,3.8-9.2,9.2
				C344.6,182.4,349.4,185.9,353.8,185.9z"/>
			<path class="st1" d="M275.5,185.9h13.4c4.8,0,9.2-4.5,9.2-9.2c0-5.4-3.8-9.2-9.2-9.2h-13.4c-5.4,0-9.2,3.8-9.2,9.2
				S270.1,185.9,275.5,185.9z"/>
			<path class="st1" d="M292.6,234.1L292.6,234.1c7.5,7.5,17.7,11.7,28.8,11.7c11,0,21.3-4.1,28.8-11.7c3.7-3.7,3.7-9.3,0-13
				c-3.7-3.7-9.3-3.7-13,0c-4,4-9.6,6.2-15.8,6.2c-6.1,0-11.2-2.2-15.8-6.8c-3.7-3.7-9.3-3.7-13,0
				C288.9,224.2,288.9,230.4,292.6,234.1z"/>
		</g>
	</g>
	<g>
		<path class="st4" d="M332.8,267.5l-22.6,0c-41.4,0-74.9-33.5-74.9-74.9l0-88.5l172.4,0v88.5C407.7,234,374.2,267.5,332.8,267.5z"
			/>
		<path class="st5" d="M409.1,105.2c-4.6-12.5-13.3-22.8-24.1-30.4c-18.7-13.3-41.4-18.9-64.1-20.2c-22.1-1.2-48.1,0.8-64,18
			c-0.9,0.9-1.7,1.9-2.6,2.9c0,0.1-0.1,0.1-0.1,0.2c-12.4,15-18.5,34.9-23.2,53.4c-1.5,5.9-3.1,12.1-5.1,18.2
			c3.8,2.4,7.9,4.4,12.2,6.1c0,0,84.8,2.1,95.6-35.7c0.6,0,1.3,0,1.9,0.1c13.1,1.5,20.3,15.3,31,21.6c12.3,7.2,26.4,12,40.9,14.6
			c4.9-2.2,9.6-4.9,14-7.8c0.7-0.4,1.3-0.9,2.1-1.3C416.5,132.4,414,118.5,409.1,105.2z"/>
		<path class="st5" d="M283.1,14.6c-6.8,4.6-10.2,11.6-12.9,19.6c-3.7,11-5.9,22.4-7.6,33.9c-0.1,0.8-0.2,2-0.3,3
			c1.6-0.3,3.5-0.6,3.9-0.7c5.3-1.4,10.5-2.8,15.8-4.1c11-2.7,22.3-4.7,33.6-4.3c12,0.4,24.2,1.9,36.1,3.6c6.4,0.9,12.8,2,19,3.8
			c2.1,0.6,4.1,1.4,6,2.2c-0.5-0.8-0.9-1.7-1.1-2.8c-0.9-7-3.3-13.7-4.8-20.5c-1.2-5.6-1.7-11.5-3.7-17c-3.3-9.3-14-12.2-22.6-14.4
			c-5.4-1.4-11.2-3.2-17.1-4.7c-2.2-0.2-4.4-0.4-6.6-0.5C308.8,10.9,295.3,11.3,283.1,14.6z"/>
		<g>
			<path class="st1" d="M383.6,67c1.4-17.2-4.1-33.6-15.6-46.3C356.1,7.6,339.1,0,321.4,0C286.4,0,258,28.4,258,63.4v3.6
				c-25.9,18.1-40.1,47.5-40.1,83c0,36.7,14.6,74.6,40.1,101.2c13.3,13.8,30.5,24.3,49.4,28.1c39.4,8,74.7-19.6,94.1-51.5
				c14.1-23.2,22.1-50.6,22.1-77.8C423.6,114.5,409.4,85.1,383.6,67z M321.4,18.5c22.2,0,41,16.9,43.9,38.4
				c-14-5.7-28.9-8.5-44.5-8.5c-15.7,0-30.4,2.8-43.7,8.4C280.4,35,299,18.5,321.4,18.5z M321.4,66.9c41.6,0,83.7,25.3,84.3,81.7
				c-27.1-4-39.5-21.4-56.4-49.2l-0.1-0.1c-1.9-2.9-4.8-4.5-8.1-4.5c-3.3,0-6.2,1.6-8.1,4.5l-0.1,0.1c-12.3,20.5-50,44.3-96.5,49.2
				C237.7,92.2,279.8,66.9,321.4,66.9z M321.3,261.7c-20.2,0.3-40.2-10.8-56.3-31.2c-13.7-17.5-23.7-40.9-27-63.3
				c33.4-3.5,78.1-19.3,102.7-46.8c17,26.7,33.6,42.9,64,46.1C397.9,213,363.4,261.7,321.3,261.7z"/>
			<path class="st1" d="M353.8,185.9h13.4c5.4,0,9.2-3.8,9.2-9.2s-3.8-9.2-9.2-9.2h-13.4c-5.4,0-9.2,3.8-9.2,9.2
				C344.6,182.4,349.4,185.9,353.8,185.9z"/>
			<path class="st1" d="M275.5,185.9h13.4c4.8,0,9.2-4.5,9.2-9.2c0-5.4-3.8-9.2-9.2-9.2h-13.4c-5.4,0-9.2,3.8-9.2,9.2
				S270.1,185.9,275.5,185.9z"/>
			<path class="st1" d="M292.6,234.1L292.6,234.1c7.5,7.5,17.7,11.7,28.8,11.7c11,0,21.3-4.1,28.8-11.7c3.7-3.7,3.7-9.3,0-13
				c-3.7-3.7-9.3-3.7-13,0c-4,4-9.6,6.2-15.8,6.2c-6.1,0-11.2-2.2-15.8-6.8c-3.7-3.7-9.3-3.7-13,0
				C288.9,224.2,288.9,230.4,292.6,234.1z"/>
		</g>
	</g>
</g>
</svg>
