<?xml version="1.0" encoding="utf-8"?>
<!-- Generator: Adobe Illustrator 23.0.1, SVG Export Plug-In . SVG Version: 6.00 Build 0)  -->
<svg version="1.1" id="Layer_1" xmlns="http://www.w3.org/2000/svg" xmlns:xlink="http://www.w3.org/1999/xlink" x="0px" y="0px"
	 viewBox="0 0 247.5 35.5" style="enable-background:new 0 0 247.5 35.5;" xml:space="preserve">
<style type="text/css">
	.st0{fill:#4262C8;}
	.st1{fill:#17D3A5;}
	.st2{font-family:'Futura-Medium';}
	.st3{font-size:30.3486px;}
</style>
<path class="st0" d="M16.1,11.8L16.1,11.8L7.4,32.6H3.6l3.1-7L1,11.9l0,0h4l3.6,9.9l3.7-9.9L16.1,11.8L16.1,11.8z"/>
<path class="st0" d="M31,26h-3.6v-1.8c-0.9,1.2-2.4,2-4.2,2c-3.3,0-5.7-2.1-5.7-6v-8.3h3.6v7.8c0,2.3,1.3,3.5,3.1,3.5
	c1.9,0,3.2-1.2,3.2-3.5v-7.8H31V26z"/>
<path class="st0" d="M40.6,11.8c-1.2,0.3-2.2,1.1-2.9,2.2v-2.2h-3.6V26h3.6v-7c0-2.7,1.3-3.5,3.4-3.5H42V12h-1.4V11.8z"/>
<path class="st0" d="M44.6,14.8h-1.7v-2.9h1.7V8.3h3.6v3.5h3.2v2.9h-3.2v6.8c0,0.9,0.4,1.4,1.5,1.4h1.7v3h-2.2
	c-2.7,0-4.5-1.1-4.5-4.4L44.6,14.8L44.6,14.8z"/>
<path class="st0" d="M53.6,7.1h3.6V26h-3.6V7.1z"/>
<path class="st0" d="M65.8,11.6c2.3,0,3.8,1.1,4.7,2.2v-2h3.6V26h-3.6v-2.1c-0.8,1.2-2.4,2.3-4.7,2.3c-3.6,0-6.4-2.9-6.4-7.3
	C59.4,14.4,62.2,11.6,65.8,11.6z M66.8,14.7c-1.9,0-3.7,1.4-3.7,4.1s1.8,4.2,3.7,4.2c2,0,3.8-1.5,3.8-4.2
	C70.5,16.2,68.7,14.7,66.8,14.7z"/>
<path class="st0" d="M80.8,26h-3.6V11.8h3.6v1.4c0.9-1.5,2.4-1.6,4.3-1.6v3.8h-0.9c-2.1,0-3.4,2.3-3.4,5.1V26z"/>
<g>
	<path class="st0" d="M96.6,11.6c3.6,0,6.5,2.8,6.5,7.2s-2.8,7.3-6.5,7.3c-2.2,0-3.8-1-4.7-2.2v2h-3.6V7.1h3.6v6.8
		C92.8,12.6,94.4,11.6,96.6,11.6z M95.6,14.8c-1.9,0-3.7,1.5-3.7,4.2s1.8,4.2,3.7,4.2c1.9,0,3.8-1.5,3.8-4.2
		C99.4,16.2,97.6,14.8,95.6,14.8z"/>
	<path class="st0" d="M118.6,26H115v-1.8c-0.9,1.2-2.4,2-4.2,2c-3.3,0-5.7-2.1-5.7-6v-8.3h3.6v7.8c0,2.3,1.3,3.5,3.1,3.5
		c1.9,0,3.2-1.2,3.2-3.5v-7.8h3.6V26z"/>
	<path class="st0" d="M125.3,26h-3.6V11.9h3.6V14c0.9-1.5,2.4-2.4,4.3-2.4v3.8h-0.9c-2.1,0-3.4,0.8-3.4,3.5
		C125.3,18.9,125.3,26,125.3,26z"/>
	<path class="st0" d="M137.2,11.6c2.3,0,3.8,1.1,4.7,2.2v-2h3.6V26h-3.6v-2.1c-0.8,1.2-2.4,2.3-4.7,2.3c-3.6,0-6.4-2.9-6.4-7.3
		C130.7,14.5,133.6,11.6,137.2,11.6z M138.1,14.8c-1.9,0-3.7,1.4-3.7,4.1s1.8,4.2,3.7,4.2c2,0,3.8-1.5,3.8-4.2
		C141.8,16.2,140.1,14.8,138.1,14.8z"/>
	<path class="st0" d="M154.1,11.6c1.9,0,3.6,0.9,4.6,2.2V7.1h3.6V26h-3.6v-2.1c-0.8,1.3-2.4,2.3-4.6,2.3c-3.6,0-6.5-2.9-6.5-7.3
		S150.5,11.6,154.1,11.6z M155,14.8c-1.9,0-3.7,1.4-3.7,4.1s1.8,4.2,3.7,4.2c2,0,3.8-1.5,3.8-4.2C158.8,16.2,157,14.8,155,14.8z"/>
	<path class="st0" d="M171,11.6c2.3,0,3.8,1.1,4.7,2.2v-2h3.6V26h-3.6v-2.1c-0.8,1.2-2.4,2.3-4.7,2.3c-3.6,0-6.4-2.9-6.4-7.3
		S167.4,11.6,171,11.6z M171.9,14.8c-1.9,0-3.7,1.4-3.7,4.1s1.8,4.2,3.7,4.2c2,0,3.8-1.5,3.8-4.2C175.7,16.2,173.9,14.8,171.9,14.8z
		"/>
</g>
<path class="st0" d="M6.4,26.1h3.7l6-14.2l0,0h-3.8l-3.7,9.9L5,11.8H1l0,0l5.6,13.7L6.4,26.1z"/>
<path class="st0" d="M22.4,26.1h1.7c1.4-0.2,2.6-0.9,3.4-1.9V26H31V11.8h-3.6v7.8c0,2.3-1.2,3.5-3.2,3.5c-1.9,0-3.1-1.2-3.1-3.5
	v-7.8h-3.6v8.3C17.5,23.7,19.5,25.7,22.4,26.1z"/>
<path class="st0" d="M40.6,11.8c-1.2,0.3-2.2,1.1-2.9,2.2v-2.2h-3.6V26h3.6v-7c0-2.7,1.3-3.5,3.4-3.5H42v-3.6L40.6,11.8L40.6,11.8z"
	/>
<path class="st0" d="M48.2,11.8h-3.6l0,0h-1.7v2.9h1.7v6.8c0,3.2,1.8,4.4,4.5,4.4h2.2v-3h-1.7c-1.1,0-1.5-0.4-1.5-1.4v-6.8h3.2v-2.9
	L48.2,11.8L48.2,11.8z"/>
<rect x="53.6" y="11.8" class="st0" width="3.6" height="14.1"/>
<path class="st0" d="M70.5,13.8c-0.6-0.9-1.6-1.6-3-2h-3.4c-2.8,0.7-4.8,3.3-4.8,7c0,3.9,2.2,6.6,5.2,7.2H67
	c1.6-0.3,2.8-1.2,3.5-2.2V26h3.6V11.8h-3.6V13.8z M66.8,23.1c-1.9,0-3.7-1.5-3.7-4.2s1.8-4.1,3.7-4.1c2,0,3.8,1.5,3.8,4.2
	C70.5,21.6,68.7,23.1,66.8,23.1z"/>
<path class="st0" d="M82.9,11.8c-0.9,0.2-1.6,0.6-2.1,1.4v-1.4h-3.6V26h3.6v-5.5c0-2.7,1.3-5.1,3.4-5.1h0.9v-3.6
	C85.1,11.8,82.9,11.8,82.9,11.8z"/>
<g>
	<path class="st0" d="M98.2,11.8H95c-1.4,0.4-2.4,1.1-3.1,2.1v-2.1h-3.6V26h3.6v-2c0.7,1,1.8,1.8,3.3,2.1h2.7
		c2.9-0.6,5.1-3.4,5.1-7.2S101,12.5,98.2,11.8z M95.6,23.1c-1.9,0-3.7-1.5-3.7-4.2s1.8-4.2,3.7-4.2c1.9,0,3.8,1.4,3.8,4.1
		S97.6,23.1,95.6,23.1z"/>
	<path class="st0" d="M109.6,26.1h2.2c1.3-0.2,2.5-0.9,3.2-1.9V26h3.6V11.9H115v7.8c0,2.3-1.2,3.5-3.2,3.5c-1.9,0-3.1-1.2-3.1-3.5
		v-7.8h-3.6v8.3C105.1,23.6,107,25.6,109.6,26.1z"/>
	<path class="st0" d="M128.2,11.8c-1.3,0.3-2.3,1.1-2.9,2.2v-2.2h-3.6V26h3.6v-7c0-2.7,1.3-3.5,3.4-3.5h0.9v-3.6L128.2,11.8
		L128.2,11.8z"/>
	<path class="st0" d="M141.8,13.9c-0.6-0.9-1.6-1.7-3.1-2h-3.2c-2.8,0.7-4.9,3.3-4.9,7c0,3.8,2.2,6.6,5.1,7.2h2.7
		c1.5-0.3,2.7-1.2,3.3-2.1v2h3.6V11.9h-3.6L141.8,13.9L141.8,13.9z M138.1,23.1c-1.9,0-3.7-1.5-3.7-4.2s1.8-4.1,3.7-4.1
		c2,0,3.8,1.5,3.8,4.2C141.8,21.6,140.1,23.1,138.1,23.1z"/>
	<path class="st0" d="M158.7,11.8v2c-0.7-1-1.8-1.7-3.1-2h-3.1c-2.8,0.7-4.9,3.3-4.9,7c0,3.8,2.2,6.6,5.1,7.2h2.7
		c1.5-0.3,2.6-1.2,3.3-2.2V26h3.6V11.8H158.7z M155,23.1c-1.9,0-3.7-1.5-3.7-4.2s1.8-4.1,3.7-4.1c2,0,3.8,1.5,3.8,4.2
		C158.8,21.6,157,23.1,155,23.1z"/>
	<path class="st0" d="M175.7,13.9c-0.6-0.9-1.6-1.7-3.1-2h-3.2c-2.8,0.7-4.9,3.3-4.9,7c0,3.8,2.2,6.6,5.1,7.2h2.7
		c1.5-0.3,2.7-1.2,3.3-2.1v2h3.6V11.9h-3.6L175.7,13.9L175.7,13.9z M171.9,23.1c-1.9,0-3.7-1.5-3.7-4.2s1.8-4.1,3.7-4.1
		c2,0,3.8,1.5,3.8,4.2C175.7,21.6,173.9,23.1,171.9,23.1z"/>
</g>
<text transform="matrix(1 0 0 1 182.4576 26.7258)" class="st1 st2 st3">.com</text>
</svg>
