<?xml version="1.0" encoding="utf-8"?>
<!-- Generator: Adobe Illustrator 23.0.1, SVG Export Plug-In . SVG Version: 6.00 Build 0)  -->
<svg version="1.1" id="Layer_1" xmlns="http://www.w3.org/2000/svg" xmlns:xlink="http://www.w3.org/1999/xlink" x="0px" y="0px"
	 viewBox="0 0 192.7 38" style="enable-background:new 0 0 192.7 38;" xml:space="preserve">
<style type="text/css">
	.st0{fill:#17D3A5;}
	.st1{fill:#4263C9;}
	.st2{fill:#4C5DA2;}
	.st3{fill:#FFFFFF;}
</style>
<g>
	<g>
		<g>
			<g>
				<g>
					<path class="st0" d="M34.2,30.2h3.4L45,13l0,0h-3.3l-3.3,8.5l-3.2-8.6h-3.6l0,0l5,12L34.2,30.2z"/>
					<path class="st0" d="M58.2,25.2H55v-1.5c-0.8,1-2.2,1.7-3.7,1.7c-2.9,0-5-1.9-5-5.3v-7.2h3.1v6.8c0,1.9,1.1,3.1,2.8,3.1
						c1.7,0,2.8-1.1,2.8-3.1v-6.8h3.2C58.2,12.9,58.2,25.2,58.2,25.2z"/>
					<path class="st0" d="M66.7,12.9c-1.1,0.3-1.9,1-2.5,1.9v-1.9H61v12.3h3.1v-6.1c0-2.4,1.1-3.1,3.1-3.1H68v-3.1H66.7z"/>
					<path class="st0" d="M70.3,16h-1.5v-3.1h1.5V9.8h3.2v3.1h2.8V16h-2.8v5.3c0,0.8,0.3,1.2,1.4,1.2h1.4v2.6h-2c-2.4,0-4-1-4-3.8
						V16z"/>
					<path class="st0" d="M78.3,8.7h3.1v16.4h-3.1V8.7z"/>
					<path class="st0" d="M89.2,12.7c2,0,3.4,0.9,4.2,1.9v-1.8h3.2v12.3h-3.2v-1.8c-0.8,1.1-2.2,2-4.2,2c-3.1,0-5.7-2.5-5.7-6.4
						C83.4,15.2,85.9,12.7,89.2,12.7z M89.9,15.4c-1.7,0-3.3,1.3-3.3,3.6s1.6,3.6,3.3,3.6c1.8,0,3.3-1.3,3.3-3.6
						C93.3,16.7,91.7,15.4,89.9,15.4z"/>
					<path class="st0" d="M102.4,25.2h-3.1V12.9h3.1v1.3c0.8-1.3,2.1-1.4,3.8-1.4v3.2h-0.8c-1.9,0-3.1,2-3.1,4.4L102.4,25.2
						L102.4,25.2z"/>
				</g>
			</g>
		</g>
		<g>
			<path class="st1" d="M115.4,12.7c3.2,0,5.8,2.5,5.8,6.3s-2.5,6.4-5.8,6.4c-1.9,0-3.4-0.8-4.2-1.9v1.8h-3.1V8.7h3.1v5.9
				C112,13.6,113.5,12.7,115.4,12.7z M114.6,15.4c-1.7,0-3.3,1.3-3.3,3.6c0,2.3,1.6,3.6,3.3,3.6c1.7,0,3.3-1.4,3.3-3.6
				C117.9,16.6,116.3,15.4,114.6,15.4z"/>
			<path class="st1" d="M134.9,25.2h-3.2v-1.5c-0.8,1-2.2,1.7-3.7,1.7c-2.9,0-5-1.9-5-5.3v-7.2h3.1v6.8c0,1.9,1.1,3.1,2.8,3.1
				c1.7,0,2.8-1.1,2.8-3.1v-6.8h3.2V25.2z"/>
			<path class="st1" d="M140.9,25.2h-3.1V12.9h3.1v1.9c0.8-1.3,2.1-2.1,3.8-2.1v3.2h-0.8c-1.9,0-3.1,0.7-3.1,3.1L140.9,25.2
				L140.9,25.2z"/>
			<path class="st1" d="M151.5,12.7c2,0,3.4,0.9,4.2,1.9v-1.8h3.2v12.3h-3.2v-1.8c-0.8,1.1-2.2,2-4.2,2c-3.1,0-5.7-2.5-5.7-6.4
				C145.7,15.2,148.2,12.7,151.5,12.7z M152.2,15.4c-1.7,0-3.3,1.3-3.3,3.6s1.6,3.6,3.3,3.6c1.8,0,3.3-1.3,3.3-3.6
				C155.6,16.7,154,15.4,152.2,15.4z"/>
			<path class="st1" d="M166.5,12.7c1.6,0,3.2,0.8,4.1,1.9V8.7h3.2v16.4h-3.2v-1.8c-0.8,1.1-2.1,2-4.2,2c-3.2,0-5.8-2.5-5.8-6.4
				C160.7,15.2,163.2,12.7,166.5,12.7z M167.2,15.4c-1.7,0-3.3,1.3-3.3,3.6s1.6,3.6,3.3,3.6c1.8,0,3.3-1.3,3.3-3.6
				C170.6,16.7,169,15.4,167.2,15.4z"/>
			<path class="st1" d="M181.5,12.7c2,0,3.4,0.9,4.2,1.9v-1.8h3.2v12.3h-3.2v-1.8c-0.8,1.1-2.2,2-4.2,2c-3.1,0-5.7-2.5-5.7-6.4
				C175.7,15.2,178.3,12.7,181.5,12.7z M182.2,15.4c-1.7,0-3.3,1.3-3.3,3.6s1.6,3.6,3.3,3.6c1.8,0,3.3-1.3,3.3-3.6
				C185.6,16.7,184,15.4,182.2,15.4z"/>
		</g>
	</g>
	<g>
		<path class="st0" d="M2.6,33l7.6,4.8c0.7,0.5,1.7-0.1,1.7-0.9v-8.1L2.6,33z"/>
		<path class="st2" d="M23.8,25.2l-21.1,8V13.5c0-0.5,0.2-1,0.6-1.4l9.3-9.3c0.7-0.7,1.8-0.7,2.5,0l9.3,9.3c0.4,0.4,0.6,0.9,0.6,1.4
			v10.2C24.9,24.3,24.5,24.9,23.8,25.2z"/>
		<path class="st2" d="M20.7,8.1c0-0.6,0.1-1.1,0.3-1.6l-6-6c-0.7-0.7-1.7-0.7-2.4,0L0.4,12.8c-0.8,0.8-0.2,2.1,0.9,2.1h19.4
			L20.7,8.1z"/>
		<path class="st2" d="M27.2,12.8L15,0.5c-0.7-0.7-1.7-0.7-2.4,0L4.2,9c0.1,0.3,0.1,0.6,0.1,1v4.9h22C27.4,14.9,28,13.5,27.2,12.8z"
			/>
		<g>
			<path class="st3" d="M13.9,22.5c-3.8,0-6.5-2.6-6.6-2.7c-0.4-0.4-0.4-1,0-1.4c0.4-0.4,1-0.4,1.4,0c0,0,2.4,2.3,5.6,2.1
				c3.1-0.2,4.6-2,4.6-2c0.3-0.4,1-0.5,1.4-0.2c0.4,0.3,0.5,1,0.2,1.4c-0.1,0.1-2,2.6-6.1,2.8C14.2,22.5,14,22.5,13.9,22.5z"/>
		</g>
	</g>
</g>
</svg>
