<?xml version="1.0" encoding="utf-8"?>
<!-- Generator: Adobe Illustrator 23.0.1, SVG Export Plug-In . SVG Version: 6.00 Build 0)  -->
<svg version="1.1" id="Layer_1" xmlns="http://www.w3.org/2000/svg" xmlns:xlink="http://www.w3.org/1999/xlink" x="0px" y="0px"
	 viewBox="0 0 247.5 35.5" style="enable-background:new 0 0 247.5 35.5;" xml:space="preserve">
<style type="text/css">
	.st0{fill:#17D3A5;}
	.st1{fill:#4263C9;}
	.st2{fill:#FFFFFF;}
</style>
<g>
	<g>
		<g>
			<g>
				<path class="st0" d="M3.1,30.4h4l8.7-20.3l0,0h-3.9L8,20.1L4.2,10H0l0,0l5.9,14.1L3.1,30.4z"/>
				<path class="st0" d="M31.4,24.5h-3.8v-1.8c-0.9,1.2-2.6,2-4.4,2c-3.4,0-5.9-2.2-5.9-6.2V10H21v8c0,2.3,1.3,3.6,3.3,3.6
					s3.3-1.3,3.3-3.6v-8h3.8V24.5z"/>
				<path class="st0" d="M41.4,10c-1.3,0.4-2.3,1.2-3,2.3V10h-3.7v14.5h3.7v-7.2c0-2.8,1.3-3.6,3.6-3.6h1V10H41.4z"/>
				<path class="st0" d="M45.7,13.7h-1.8V10h1.8V6.4h3.8V10h3.3v3.7h-3.3V20c0,1,0.4,1.4,1.6,1.4h1.7v3.1h-2.4
					c-2.8,0-4.7-1.2-4.7-4.5L45.7,13.7z"/>
				<path class="st0" d="M55.1,5.1h3.7v19.4h-3.7V5.1z"/>
				<path class="st0" d="M67.9,9.8c2.4,0,4,1.1,4.9,2.3V10h3.8v14.5h-3.8v-2.1c-0.9,1.3-2.6,2.4-4.9,2.4c-3.7,0-6.7-3-6.7-7.5
					C61.1,12.7,64.1,9.8,67.9,9.8z M68.8,13c-2,0-3.9,1.5-3.9,4.2s1.9,4.3,3.9,4.3c2.1,0,3.9-1.5,3.9-4.3C72.8,14.5,70.9,13,68.8,13
					z"/>
				<path class="st0" d="M83.5,24.5h-3.7V10h3.7v1.5C84.4,10,86,9.8,88,9.8v3.8h-1c-2.2,0-3.6,2.4-3.6,5.2L83.5,24.5L83.5,24.5z"/>
			</g>
		</g>
	</g>
	<g>
		<path class="st1" d="M98.9,9.8c3.8,0,6.8,2.9,6.8,7.4s-3,7.5-6.8,7.5c-2.3,0-4-1-4.9-2.3v2.1h-3.7V5.1H94v7
			C94.9,10.8,96.6,9.8,98.9,9.8z M97.9,13c-2,0-3.9,1.5-3.9,4.3c0,2.7,1.9,4.3,3.9,4.3s3.9-1.6,3.9-4.3C101.8,14.4,99.9,13,97.9,13z
			"/>
		<path class="st1" d="M121.9,24.5h-3.8v-1.8c-0.9,1.2-2.6,2-4.4,2c-3.4,0-5.9-2.2-5.9-6.2V10h3.7v8c0,2.3,1.3,3.6,3.3,3.6
			s3.3-1.3,3.3-3.6v-8h3.8V24.5z"/>
		<path class="st1" d="M128.9,24.5h-3.7V10h3.7v2.2c0.9-1.5,2.5-2.5,4.5-2.5v3.8h-1c-2.2,0-3.6,0.8-3.6,3.6v7.4H128.9z"/>
		<path class="st1" d="M141.4,9.8c2.4,0,4,1.1,4.9,2.3V10h3.8v14.5h-3.8v-2.1c-0.9,1.3-2.6,2.4-4.9,2.4c-3.7,0-6.7-3-6.7-7.5
			C134.6,12.7,137.6,9.8,141.4,9.8z M142.3,13c-2,0-3.9,1.5-3.9,4.2s1.9,4.3,3.9,4.3c2.1,0,3.9-1.5,3.9-4.3
			C146.3,14.5,144.4,13,142.3,13z"/>
		<path class="st1" d="M159.1,9.8c1.9,0,3.8,0.9,4.8,2.2V5.1h3.8v19.4h-3.8v-2.1c-0.9,1.3-2.5,2.4-4.9,2.4c-3.8,0-6.8-3-6.8-7.5
			C152.3,12.7,155.3,9.8,159.1,9.8z M160,13c-2,0-3.9,1.5-3.9,4.2s1.9,4.3,3.9,4.3c2.1,0,3.9-1.5,3.9-4.3C164,14.5,162.1,13,160,13z
			"/>
		<path class="st1" d="M176.8,9.8c2.4,0,4,1.1,4.9,2.3V10h3.8v14.5h-3.8v-2.1c-0.9,1.3-2.6,2.4-4.9,2.4c-3.7,0-6.7-3-6.7-7.5
			C170,12.7,173,9.8,176.8,9.8z M177.7,13c-2,0-3.9,1.5-3.9,4.2s1.9,4.3,3.9,4.3c2.1,0,3.9-1.5,3.9-4.3
			C181.7,14.5,179.8,13,177.7,13z"/>
	</g>
	<g>
		<path class="st2" d="M188.1,22.8c0-0.6,0.2-1,0.6-1.4c0.4-0.4,0.9-0.6,1.5-0.6s1.1,0.2,1.5,0.6s0.6,0.9,0.6,1.5s-0.2,1.1-0.6,1.5
			c-0.4,0.4-0.9,0.6-1.5,0.6s-1.1-0.2-1.5-0.6C188.3,23.9,188.1,23.4,188.1,22.8z"/>
		<path class="st2" d="M206.4,10.7v4.4c-0.8-0.9-1.5-1.6-2.1-1.9c-0.6-0.4-1.3-0.5-2.1-0.5c-1.3,0-2.3,0.4-3.2,1.3
			c-0.8,0.9-1.3,2-1.3,3.3c0,1.4,0.4,2.5,1.2,3.3c0.8,0.9,1.9,1.3,3.2,1.3c0.8,0,1.5-0.2,2.2-0.5c0.6-0.3,1.3-1,2.1-2v4.4
			c-1.4,0.7-2.8,1.1-4.1,1.1c-2.3,0-4.2-0.7-5.7-2.2s-2.3-3.3-2.3-5.4s0.8-4,2.3-5.5c1.6-1.5,3.5-2.2,5.7-2.2
			C203.7,9.6,205.1,10,206.4,10.7z"/>
		<path class="st2" d="M209,17.2c0-2.1,0.8-3.9,2.3-5.3c1.5-1.5,3.4-2.2,5.6-2.2c2.2,0,4.1,0.7,5.6,2.2s2.3,3.3,2.3,5.4
			c0,2.2-0.8,4-2.3,5.4c-1.5,1.5-3.4,2.2-5.6,2.2c-2.2,0-4.1-0.7-5.6-2.2C209.7,21.2,209,19.4,209,17.2z M212.5,17.2
			c0,1.4,0.4,2.6,1.2,3.4s1.9,1.3,3.2,1.3s2.4-0.4,3.2-1.3c0.8-0.8,1.2-2,1.2-3.4s-0.4-2.5-1.2-3.4c-0.8-0.8-1.9-1.3-3.2-1.3
			s-2.4,0.4-3.2,1.3C212.9,14.8,212.5,15.9,212.5,17.2z"/>
		<path class="st2" d="M227.2,10h3.4v1.3c0.7-0.7,1.2-1.1,1.7-1.4c0.5-0.2,1.1-0.4,1.9-0.4c1.7,0,3,0.7,4,2.1
			c1.1-1.4,2.5-2.1,4.3-2.1c3.3,0,5,2,5,5.9v8.9h-3.4v-8c0-1.4-0.2-2.4-0.5-2.9c-0.4-0.6-0.9-0.9-1.7-0.9c-0.9,0-1.6,0.3-2.1,1
			s-0.6,1.8-0.6,3.3v7.5h-3.4v-8c0-2.6-0.8-3.9-2.3-3.9c-1,0-1.7,0.4-2.1,1.1c-0.4,0.7-0.7,1.8-0.7,3.3v7.5h-3.4L227.2,10L227.2,10z
			"/>
	</g>
</g>
</svg>
