<?xml version="1.0" encoding="utf-8"?>
<!-- Generator: Adobe Illustrator 23.0.1, SVG Export Plug-In . SVG Version: 6.00 Build 0)  -->
<svg version="1.1" id="Layer_1" xmlns="http://www.w3.org/2000/svg" xmlns:xlink="http://www.w3.org/1999/xlink" x="0px" y="0px"
	 viewBox="0 0 185.4 35.5" style="enable-background:new 0 0 185.4 35.5;" xml:space="preserve">
<style type="text/css">
	.st0{fill:#17D3A5;}
	.st1{fill:#4263C9;}
</style>
<g>
	<g>
		<g>
			<g>
				<path class="st0" d="M3,30.4h4l8.7-20.3l0,0h-3.9l-3.9,10L4.1,10h-4.2l0,0l5.9,14.1L3,30.4z"/>
				<path class="st0" d="M31.3,24.5h-3.8v-1.8c-0.9,1.2-2.6,2-4.4,2c-3.4,0-5.9-2.2-5.9-6.2V10h3.7v8c0,2.3,1.3,3.6,3.3,3.6
					s3.3-1.3,3.3-3.6v-8h3.8V24.5z"/>
				<path class="st0" d="M41.3,10c-1.3,0.4-2.3,1.2-3,2.3V10h-3.7v14.5h3.7v-7.2c0-2.8,1.3-3.6,3.6-3.6h1V10H41.3z"/>
				<path class="st0" d="M45.6,13.7h-1.8V10h1.8V6.4h3.8V10h3.3v3.7h-3.3V20c0,1,0.4,1.4,1.6,1.4h1.7v3.1h-2.4
					c-2.8,0-4.7-1.2-4.7-4.5L45.6,13.7z"/>
				<path class="st0" d="M55,5.1h3.7v19.4H55V5.1z"/>
				<path class="st0" d="M67.8,9.8c2.4,0,4,1.1,4.9,2.3V10h3.8v14.5h-3.8v-2.1c-0.9,1.3-2.6,2.4-4.9,2.4c-3.7,0-6.7-3-6.7-7.5
					C61,12.7,64,9.8,67.8,9.8z M68.7,13c-2,0-3.9,1.5-3.9,4.2s1.9,4.3,3.9,4.3c2.1,0,3.9-1.5,3.9-4.3C72.7,14.5,70.8,13,68.7,13z"/>
				<path class="st0" d="M83.4,24.5h-3.7V10h3.7v1.5c0.9-1.5,2.5-1.7,4.5-1.7v3.8h-1c-2.2,0-3.6,2.4-3.6,5.2L83.4,24.5L83.4,24.5z"
					/>
			</g>
		</g>
	</g>
	<g>
		<path class="st1" d="M98.8,9.8c3.8,0,6.8,2.9,6.8,7.4s-3,7.5-6.8,7.5c-2.3,0-4-1-4.9-2.3v2.1h-3.7V5.1h3.7v7
			C94.8,10.8,96.5,9.8,98.8,9.8z M97.8,13c-2,0-3.9,1.5-3.9,4.3c0,2.7,1.9,4.3,3.9,4.3s3.9-1.6,3.9-4.3C101.7,14.4,99.8,13,97.8,13z
			"/>
		<path class="st1" d="M121.8,24.5H118v-1.8c-0.9,1.2-2.6,2-4.4,2c-3.4,0-5.9-2.2-5.9-6.2V10h3.7v8c0,2.3,1.3,3.6,3.3,3.6
			s3.3-1.3,3.3-3.6v-8h3.8V24.5z"/>
		<path class="st1" d="M128.8,24.5h-3.7V10h3.7v2.2c0.9-1.5,2.5-2.5,4.5-2.5v3.8h-1c-2.2,0-3.6,0.8-3.6,3.6v7.4H128.8z"/>
		<path class="st1" d="M141.3,9.8c2.4,0,4,1.1,4.9,2.3V10h3.8v14.5h-3.8v-2.1c-0.9,1.3-2.6,2.4-4.9,2.4c-3.7,0-6.7-3-6.7-7.5
			C134.5,12.7,137.5,9.8,141.3,9.8z M142.2,13c-2,0-3.9,1.5-3.9,4.2s1.9,4.3,3.9,4.3c2.1,0,3.9-1.5,3.9-4.3
			C146.2,14.5,144.3,13,142.2,13z"/>
		<path class="st1" d="M159,9.8c1.9,0,3.8,0.9,4.8,2.2V5.1h3.8v19.4h-3.8v-2.1c-0.9,1.3-2.5,2.4-4.9,2.4c-3.8,0-6.8-3-6.8-7.5
			C152.2,12.7,155.2,9.8,159,9.8z M159.9,13c-2,0-3.9,1.5-3.9,4.2s1.9,4.3,3.9,4.3c2.1,0,3.9-1.5,3.9-4.3
			C163.9,14.5,162,13,159.9,13z"/>
		<path class="st1" d="M176.7,9.8c2.4,0,4,1.1,4.9,2.3V10h3.8v14.5h-3.8v-2.1c-0.9,1.3-2.6,2.4-4.9,2.4c-3.7,0-6.7-3-6.7-7.5
			C169.9,12.7,172.9,9.8,176.7,9.8z M177.6,13c-2,0-3.9,1.5-3.9,4.2s1.9,4.3,3.9,4.3c2.1,0,3.9-1.5,3.9-4.3
			C181.6,14.5,179.7,13,177.6,13z"/>
	</g>
</g>
</svg>
