<?xml version="1.0" encoding="utf-8"?>
<!-- Generator: Adobe Illustrator 22.0.1, SVG Export Plug-In . SVG Version: 6.00 Build 0)  -->
<svg version="1.1" id="Layer_1" xmlns="http://www.w3.org/2000/svg" xmlns:xlink="http://www.w3.org/1999/xlink" x="0px" y="0px"
	 viewBox="0 0 11.8 16" style="enable-background:new 0 0 11.8 16;" xml:space="preserve">
<style type="text/css">
	.st0{fill:#EB6181;}
	.st1{fill:#47D7E2;}
	.st2{fill:#FFFFFF;}
</style>
<path class="st0" d="M6,16L6,16c0.6,0,1.1-0.3,1.4-0.8L11,8.9c2-3.5,0.1-8-3.8-8.8C6.8,0,6.3,0,5.9,0C5.7,0,5.6,0,5.5,0
	c-4.4,0.2-7,5.2-4.6,9l3.7,6.2C4.9,15.7,5.4,16,6,16z"/>
<path class="st1" d="M5.9,3.7C5.9,3.7,5.9,3.7,5.9,3.7C5.9,3.7,5.9,3.7,5.9,3.7C5.9,3.7,5.9,3.7,5.9,3.7C5.9,3.7,5.9,3.7,5.9,3.7z"
	/>
<path class="st2" d="M8.7,5.7c0,1.6-1.3,2.8-2.8,2.8S3.1,7.3,3.1,5.7s1.3-2.8,2.8-2.8S8.7,4.2,8.7,5.7z"/>
</svg>
