<?xml version="1.0" encoding="utf-8"?>
<!-- Generator: Adobe Illustrator 23.0.1, SVG Export Plug-In . SVG Version: 6.00 Build 0)  -->
<svg version="1.1" id="Capa_1" xmlns="http://www.w3.org/2000/svg" xmlns:xlink="http://www.w3.org/1999/xlink" x="0px" y="0px"
	 viewBox="0 0 386.82 361.63" style="enable-background:new 0 0 386.82 361.63;" xml:space="preserve">
<style type="text/css">
	.st0{fill:#4C5DA2;}
	.st1{fill:#DCDDF9;}
	.st2{fill:#17D3A5;}
	.st3{fill:#FFFFFF;}
</style>
<g>
	<g>
		<path class="st0" d="M31.71,312.6L31.71,312.6c-4.97,0-9-4.03-9-9l0,0c0-4.97,4.03-9,9-9h0c4.97,0,9,4.03,9,9l0,0
			C40.71,308.57,36.68,312.6,31.71,312.6z"/>
	</g>
	<path class="st0" d="M386.82,346.12H0.15v8.86c0,3.67,2.98,6.65,6.65,6.65h373.38c3.67,0,6.65-2.98,6.65-6.65V346.12z"/>
	<g>
		<g>
			<g>
				<g>
					<polygon class="st1" points="187.17,143.46 180.35,174.41 195.04,217.96 213.93,239.46 197.66,245.76 247.5,313.43 
						301.54,243.14 274.78,237.89 305.21,211.14 318.32,152.91 307.31,141.36 					"/>
					<path class="st1" d="M376.62,347.29v-46.91c0-32.81-26.6-59.42-59.42-59.42h-26.09c-11.11,21-18.79,45.01-41.09,56.89
						c-1.89,1-4.46,0.52-5.53-1.45c-10.08-18.45-20.85-37.5-37.39-50.96c-1.66-1.35-1.67-3.1-0.82-4.48h-21.04
						c-32.81,0-59.42,26.6-59.42,59.42v46.91H376.62z"/>
					<rect x="186.5" y="62.16" class="st2" width="127.02" height="77.67"/>
					<path class="st0" d="M115.43,309.52v37.77h18.58v-37.77c0-32.08,24.04-58.64,55.05-62.63l61.98,83.81l61.98-83.81
						c31.01,3.98,55.05,30.55,55.05,62.63v37.77h18.58v-37.77c0-45.06-36.66-81.72-81.72-81.72h-6.52
						c15.8-13.8,25.79-34.08,25.79-56.66V72.35h17.24v53.25h18.58V72.35h16.41V53.77H125.65v18.58h48.08v98.79
						c0,22.57,10,42.86,25.79,56.66h-2.37C152.09,227.8,115.43,264.46,115.43,309.52z M251.04,299.46l-39.25-53.08h78.51
						L251.04,299.46z M192.31,72.35h113.32v61.3H192.31V72.35z M192.31,171.14v-18.92h113.32v18.92c0,31.24-25.42,56.66-56.66,56.66
						S192.31,202.38,192.31,171.14z"/>
					<path class="st0" d="M328.94,347.29v-24.57c0-5.13-4.16-9.29-9.29-9.29s-9.29,4.16-9.29,9.29v24.57H328.94z"/>
					<path class="st0" d="M373.44,347.29v-0.99h-49.14c-1.49,0-2.9,0.36-4.15,0.99H373.44z"/>
					<path class="st0" d="M183.26,347.29v-0.99h-49.14c-1.49,0-2.9,0.36-4.15,0.99H183.26z"/>
					<path class="st0" d="M191.85,347.29v-24.57c0-5.13-4.16-9.29-9.29-9.29s-9.29,4.16-9.29,9.29v24.57H191.85z"/>
				</g>
			</g>
			<path class="st0" d="M252.51,347.29c-1.5-1.04-3.31-1.65-5.27-1.65s-3.77,0.61-5.27,1.65H252.51z"/>
		</g>
		<g>
			<g>
				<g>
					<polygon class="st1" points="71.74,143.46 64.92,174.41 79.61,217.96 98.49,239.46 82.23,245.76 132.07,313.43 186.1,243.14 
						159.35,237.89 189.77,211.14 202.89,152.91 191.87,141.36 					"/>
					<path class="st1" d="M261.19,347.29v-46.91c0-32.81-26.6-59.42-59.42-59.42h-26.09c-11.11,21-18.79,45.01-41.09,56.89
						c-1.89,1-4.46,0.52-5.53-1.45c-10.08-18.45-20.85-37.5-37.39-50.96c-1.66-1.35-1.67-3.1-0.82-4.48H69.8
						c-32.81,0-59.42,26.6-59.42,59.42v46.91H261.19z"/>
					<rect x="71.06" y="62.16" class="st2" width="127.02" height="77.67"/>
					<path class="st0" d="M0,309.52v37.77h18.58v-37.77c0-32.08,24.04-58.64,55.05-62.63l61.98,83.81l61.98-83.81
						c31.01,3.98,55.05,30.55,55.05,62.63v37.77h18.58v-37.77c0-45.06-36.66-81.72-81.72-81.72h-6.52
						c15.8-13.8,25.79-34.08,25.79-56.66V72.35h17.24v53.25h18.58V72.35H261V53.77H10.22v18.58H58.3v98.79
						c0,22.57,10,42.86,25.79,56.66h-2.37C36.66,227.8,0,264.46,0,309.52z M135.61,299.46l-39.25-53.08h78.51L135.61,299.46z
						 M76.88,72.35h113.32v61.3H76.88V72.35z M76.88,171.14v-18.92h113.32v18.92c0,31.24-25.42,56.66-56.66,56.66
						S76.88,202.38,76.88,171.14z"/>
					<path class="st0" d="M213.51,347.29v-24.57c0-5.13-4.16-9.29-9.29-9.29c-5.13,0-9.29,4.16-9.29,9.29v24.57H213.51z"/>
					<path class="st0" d="M258,347.29v-0.99h-49.14c-1.49,0-2.9,0.36-4.15,0.99H258z"/>
					<path class="st0" d="M67.83,347.29v-0.99H18.68c-1.49,0-2.9,0.36-4.15,0.99H67.83z"/>
					<path class="st0" d="M76.41,347.29v-24.57c0-5.13-4.16-9.29-9.29-9.29c-5.13,0-9.29,4.16-9.29,9.29v24.57H76.41z"/>
				</g>
			</g>
			<path class="st0" d="M137.08,347.29c-1.5-1.04-3.31-1.65-5.27-1.65c-1.96,0-3.77,0.61-5.27,1.65H137.08z"/>
		</g>
		<g>
			<g>
				<g>
					<polygon class="st1" points="130.31,96.08 123.49,127.03 138.18,170.57 157.07,192.08 140.81,198.37 190.64,266.05 
						244.68,195.75 217.92,190.5 248.35,163.75 261.46,105.52 250.45,93.98 					"/>
					<path class="st3" d="M260.35,193.57h-26.09c-11.11,21-18.79,45.01-41.09,56.89c-1.89,1-4.46,0.52-5.53-1.45
						c-10.08-18.45-20.85-37.5-37.39-50.96c-1.66-1.35-1.67-3.1-0.82-4.48h-21.04c-32.81,0-59.42,26.6-59.42,59.42v98.86h250.81
						v-98.86C319.76,220.17,293.16,193.57,260.35,193.57z"/>
					<rect x="68.96" y="314.2" class="st1" width="51.12" height="37.65"/>
					<path class="st1" d="M318.16,311.67h-50.88c0.01,0.1,0.02,0.21,0.02,0.32v39.86h52.47v-40.43
						C319.29,311.58,318.75,311.67,318.16,311.67z"/>
					<rect x="129.64" y="14.77" class="st2" width="127.02" height="77.67"/>
					<path class="st0" d="M58.57,262.13v91.43c0,3.67,2.98,6.65,6.65,6.65h257.93c3.67,0,6.65-2.98,6.65-6.65v-91.43
						c0-45.13-36.59-81.72-81.72-81.72h-6.52c15.8-13.8,25.79-34.08,25.79-56.66V24.96h17.24v53.25h18.58V24.96h16.41V6.38H68.79
						v18.58h48.08v98.79c0,22.57,10,42.86,25.79,56.66h-2.37C95.16,180.41,58.57,217,58.57,262.13z M135.45,24.96h113.32v61.3
						H135.45V24.96z M135.45,123.75v-18.92h113.32v18.92c0,31.24-25.42,56.66-56.66,56.66S135.45,154.99,135.45,123.75z
						 M233.44,198.99l-39.25,53.08l-39.25-53.08H233.44z M194.18,283.31l61.98-83.81c31.01,3.98,55.05,30.55,55.05,62.63v82.06
						H77.15v-82.06c0-32.08,24.04-58.64,55.05-62.63L194.18,283.31z"/>
					<path class="st0" d="M236.37,360.21h29.07c3.35,0,6.27-2.48,6.6-5.81c0.03-0.3,0.05-0.61,0.05-0.93v-77.83
						c0-4.95-3.73-9.27-8.67-9.59c-5.41-0.35-9.91,3.93-9.91,9.27v68.86h-14.49c-5.13,0-9.29,4.16-9.29,9.29v0
						c0,0.31,0.02,0.62,0.05,0.93C230.1,357.73,233.02,360.21,236.37,360.21z"/>
					<path class="st0" d="M316.58,298.91h-49.14c-5.13,0-9.29,4.16-9.29,9.29v0c0,5.13,4.16,9.29,9.29,9.29h49.14V298.91z"/>
					<path class="st0" d="M126.4,298.91H77.25c-5.13,0-9.29,4.16-9.29,9.29v0c0,5.13,4.16,9.29,9.29,9.29h49.14V298.91z"/>
					<path class="st0" d="M123.06,360.21h29.07c3.35,0,6.27-2.48,6.6-5.81c0.03-0.3,0.05-0.61,0.05-0.93v0
						c0-5.13-4.16-9.29-9.29-9.29h-14.49v-68.54c0-4.95-3.73-9.27-8.67-9.59c-5.41-0.35-9.91,3.93-9.91,9.27v78.14
						c0,0.31,0.02,0.62,0.05,0.93C116.79,357.73,119.71,360.21,123.06,360.21z"/>
				</g>
			</g>
			<path class="st0" d="M181.09,337.87l0,3.84c0,5.13,4.16,9.29,9.29,9.29h0c5.13,0,9.29-4.16,9.29-9.29v-3.84
				c0-5.13-4.16-9.29-9.29-9.29h0C185.25,328.58,181.09,332.74,181.09,337.87z"/>
			<path class="st0" d="M181.09,307.54l0,3.84c0,5.13,4.16,9.29,9.29,9.29h0c5.13,0,9.29-4.16,9.29-9.29v-3.84
				c0-5.13-4.16-9.29-9.29-9.29h0C185.25,298.25,181.09,302.41,181.09,307.54z"/>
		</g>
	</g>
</g>
</svg>
