<?xml version="1.0" encoding="utf-8"?>
<!-- Generator: Adobe Illustrator 23.0.1, SVG Export Plug-In . SVG Version: 6.00 Build 0)  -->
<svg version="1.1" id="Layer_1" xmlns="http://www.w3.org/2000/svg" xmlns:xlink="http://www.w3.org/1999/xlink" x="0px" y="0px"
	 viewBox="0 0 27.6 38.04" style="enable-background:new 0 0 27.6 38.04;" xml:space="preserve">
<style type="text/css">
	.st0{fill:#17D3A5;}
	.st1{fill:#4C5DA2;}
	.st2{fill:#FFFFFF;}
</style>
<g>
	<path class="st0" d="M2.63,33.05l7.66,4.82c0.73,0.46,1.68-0.07,1.68-0.93l0-8.07L2.63,33.05z"/>
	<path class="st1" d="M23.87,25.2l-21.18,8l0-19.69c0-0.52,0.21-1.03,0.58-1.4l9.29-9.34c0.69-0.69,1.8-0.69,2.49,0l9.29,9.34
		c0.37,0.37,0.58,0.87,0.58,1.4l0,10.17C24.92,24.36,24.5,24.96,23.87,25.2z"/>
	<path class="st1" d="M20.7,8.13c0-0.56,0.11-1.09,0.28-1.58l-6.02-6.05c-0.66-0.66-1.72-0.66-2.38,0L0.36,12.79
		c-0.76,0.77-0.22,2.08,0.86,2.08l19.48,0L20.7,8.13z"/>
	<path class="st1" d="M27.24,12.79L15.02,0.49c-0.66-0.66-1.72-0.66-2.38,0L4.22,8.96c0.07,0.32,0.11,0.65,0.11,0.98l0,4.92l22.06,0
		C27.46,14.87,28.01,13.56,27.24,12.79z"/>
	<g>
		<path class="st2" d="M13.9,22.51c-3.85,0-6.52-2.56-6.63-2.67c-0.4-0.39-0.4-1.02-0.02-1.42c0.39-0.39,1.02-0.4,1.42-0.02
			c0.03,0.03,2.38,2.28,5.56,2.09c3.14-0.16,4.61-1.97,4.62-1.98c0.34-0.44,0.97-0.52,1.41-0.19c0.44,0.34,0.52,0.97,0.19,1.41
			c-0.08,0.1-2.01,2.57-6.12,2.77C14.18,22.5,14.04,22.51,13.9,22.51z"/>
	</g>
</g>
</svg>
