<?xml version="1.0" encoding="utf-8"?>
<!-- Generator: Adobe Illustrator 23.0.1, SVG Export Plug-In . SVG Version: 6.00 Build 0)  -->
<svg version="1.1" id="Capa_1" xmlns="http://www.w3.org/2000/svg" xmlns:xlink="http://www.w3.org/1999/xlink" x="0px" y="0px"
	 viewBox="0 0 512 310.12" style="enable-background:new 0 0 512 310.12;" xml:space="preserve">
<style type="text/css">
	.st0{fill:#17D3A5;}
	.st1{fill:#4C5DA2;}
	.st2{fill:#FFFFFF;}
	.st3{fill:#EB6181;}
	.st4{fill:#DCDDF9;stroke:#000000;stroke-miterlimit:10;}
</style>
<g>
	<g>
		<path class="st0" d="M478.69,308.52H303.61c-8.65,0-15.67-7.02-15.67-15.67V167.76c0-4.87,1.93-9.54,5.36-12.99l87.03-87.48
			c5.96-6,15.67-6,21.63,0L489,154.77c3.43,3.45,5.36,8.12,5.36,12.99v125.09C494.36,301.51,487.35,308.52,478.69,308.52z"/>
		<g>
			<path class="st1" d="M33.19,177.18L33.19,177.18c-4.11,0-7.44-3.33-7.44-7.44v0c0-4.11,3.33-7.44,7.44-7.44h0
				c4.11,0,7.44,3.33,7.44,7.44v0C40.63,173.85,37.3,177.18,33.19,177.18z"/>
			<path class="st1" d="M33.19,223.4L33.19,223.4c-4.11,0-7.44-3.33-7.44-7.44v0c0-4.11,3.33-7.44,7.44-7.44h0
				c4.11,0,7.44,3.33,7.44,7.44v0C40.63,220.07,37.3,223.4,33.19,223.4z"/>
			<path class="st1" d="M33.19,269.62L33.19,269.62c-4.11,0-7.44-3.33-7.44-7.44v0c0-4.11,3.33-7.44,7.44-7.44h0
				c4.11,0,7.44,3.33,7.44,7.44v0C40.63,266.28,37.3,269.62,33.19,269.62z"/>
			<path class="st1" d="M82.81,177.18L82.81,177.18c-4.11,0-7.44-3.33-7.44-7.44v0c0-4.11,3.33-7.44,7.44-7.44h0
				c4.11,0,7.44,3.33,7.44,7.44v0C90.26,173.85,86.93,177.18,82.81,177.18z"/>
			<path class="st1" d="M82.81,223.4L82.81,223.4c-4.11,0-7.44-3.33-7.44-7.44v0c0-4.11,3.33-7.44,7.44-7.44h0
				c4.11,0,7.44,3.33,7.44,7.44v0C90.26,220.07,86.93,223.4,82.81,223.4z"/>
			<path class="st1" d="M82.81,269.62L82.81,269.62c-4.11,0-7.44-3.33-7.44-7.44v0c0-4.11,3.33-7.44,7.44-7.44h0
				c4.11,0,7.44,3.33,7.44,7.44v0C90.26,266.28,86.93,269.62,82.81,269.62z"/>
			<path class="st1" d="M132.44,177.18L132.44,177.18c-4.11,0-7.44-3.33-7.44-7.44v0c0-4.11,3.33-7.44,7.44-7.44h0
				c4.11,0,7.44,3.33,7.44,7.44v0C139.89,173.85,136.55,177.18,132.44,177.18z"/>
			<path class="st1" d="M132.44,223.4L132.44,223.4c-4.11,0-7.44-3.33-7.44-7.44v0c0-4.11,3.33-7.44,7.44-7.44h0
				c4.11,0,7.44,3.33,7.44,7.44v0C139.89,220.07,136.55,223.4,132.44,223.4z"/>
			<path class="st1" d="M132.44,269.62L132.44,269.62c-4.11,0-7.44-3.33-7.44-7.44v0c0-4.11,3.33-7.44,7.44-7.44h0
				c4.11,0,7.44,3.33,7.44,7.44v0C139.89,266.28,136.55,269.62,132.44,269.62z"/>
		</g>
		<path class="st1" d="M276.08,288.4v3.35c0,4.48,3.63,8.1,8.1,8.1h0c4.48,0,8.1-3.63,8.1-8.1v-3.35c0-4.48-3.63-8.1-8.1-8.1h0
			C279.71,280.3,276.08,283.93,276.08,288.4z"/>
		<path class="st1" d="M276.08,261.94v3.35c0,4.48,3.63,8.1,8.1,8.1h0c4.48,0,8.1-3.63,8.1-8.1v-3.35c0-4.48-3.63-8.1-8.1-8.1h0
			C279.71,253.84,276.08,257.47,276.08,261.94z"/>
		<path class="st1" d="M503.1,297.3H4.9c-3.54,0-6.41,2.87-6.41,6.41v0c0,3.54,2.87,6.41,6.41,6.41h498.2
			c3.54,0,6.41-2.87,6.41-6.41v0C509.51,300.17,506.64,297.3,503.1,297.3z"/>
	</g>
	<g>
		<path class="st2" d="M405.32,230.22H118.66V103.7c0-13.01,10.54-23.55,23.55-23.55h239.56c13.01,0,23.55,10.54,23.55,23.55V230.22
			z"/>
		<rect x="119.86" y="232.36" class="st3" width="284.26" height="30.44"/>
		<rect x="223.72" y="266.65" class="st2" width="76.54" height="30.44"/>
		<path class="st1" d="M380.5,69.57h-26.51v14.59h26.51c8.85,0,16.05,7.2,16.05,16.05v126.95H126.61V100.21
			c0-8.85,7.2-16.05,16.05-16.05h27.97V69.57h-27.97c-16.9,0-30.64,13.75-30.64,30.64v145.91c0,16.9,13.75,30.64,30.64,30.64h74.42
			v20.43h-23.35v10.54h135.7V297.2h-23.35v-20.43h74.42c16.9,0,30.64-13.75,30.64-30.64V100.21
			C411.14,83.32,397.4,69.57,380.5,69.57z M291.49,297.2h-59.82v-20.43h59.82V297.2z M396.55,246.13c0,8.85-7.2,16.05-16.05,16.05
			H142.66c-8.85,0-16.05-7.2-16.05-16.05v-4.38h269.94V246.13z"/>
		<g>
			<rect x="158.57" y="40.19" class="st4" width="173.72" height="112.41"/>
			<rect x="158.57" y="153.45" class="st4" width="173.72" height="50.47"/>
			<polygon class="st0" points="290.38,149.54 201.45,149.54 222.88,126.36 222.88,72.14 267.99,72.14 267.99,126.59 			"/>
			<path class="st1" d="M331.6,30.8l-173.11,0c-4.05,0-7.34,3.28-7.34,7.34l0,164.84c0,4.05,3.28,7.34,7.34,7.34l173.11,0
				c4.05,0,7.34-3.28,7.34-7.34c0-5.73,0-159.13,0-164.84C338.93,34.08,335.65,30.8,331.6,30.8z M324.26,195.64l-158.44,0l0-33.79
				l158.44,0L324.26,195.64z M231.11,132.03h27.87c9.84,0,18.22,6.35,21.27,15.16h-70.41C212.89,138.37,221.27,132.03,231.11,132.03
				z M223.53,95.84c0-11.86,9.65-21.52,21.52-21.52c11.86,0,21.52,9.65,21.52,21.52c0,11.87-9.65,21.52-21.52,21.52
				C233.18,117.35,223.53,107.7,223.53,95.84z M324.26,147.18h-28.85c-2.53-12.61-11.47-22.93-23.26-27.41
				c5.64-6.38,9.07-14.76,9.07-23.93c0-19.95-16.23-36.19-36.19-36.19c-19.95,0-36.19,16.23-36.19,36.19
				c0,9.17,3.43,17.55,9.07,23.93c-11.79,4.49-20.72,14.81-23.26,27.41l-28.85,0l0-101.71l158.44,0L324.26,147.18z"/>
			<path class="st1" d="M209.45,171.11h-26.4c-4.05,0-7.34,3.28-7.34,7.34l0,0c0,4.05,3.28,7.34,7.34,7.34h26.4
				c4.05,0,7.34-3.28,7.34-7.34l0,0C216.79,174.39,213.5,171.11,209.45,171.11z"/>
			<path class="st1" d="M299.03,171.11l-66.64,0c-4.05,0-7.34,3.28-7.34,7.34v0c0,4.05,3.28,7.34,7.34,7.34l66.64,0
				c4.05,0,7.34-3.28,7.34-7.34v0C306.37,174.39,303.08,171.11,299.03,171.11z"/>
		</g>
		<g>
			<rect x="191.24" y="15.79" class="st2" width="173.72" height="112.41"/>
			<rect x="191.24" y="129.06" class="st4" width="173.72" height="50.47"/>
			<polygon class="st3" points="323.05,125.14 234.12,125.14 255.54,101.96 255.54,47.74 300.65,47.74 300.65,102.2 			"/>
			<path class="st1" d="M364.26,6.41l-173.11,0c-4.05,0-7.34,3.28-7.34,7.34l0,164.84c0,4.05,3.28,7.34,7.34,7.34l173.11,0
				c4.05,0,7.34-3.28,7.34-7.34c0-5.73,0-159.13,0-164.84C371.6,9.69,368.31,6.41,364.26,6.41z M356.93,171.25l-158.44,0l0-33.79
				l158.44,0V171.25z M263.77,107.63l27.87,0c9.84,0,18.22,6.35,21.27,15.16l-70.41,0C245.55,113.98,253.93,107.63,263.77,107.63z
				 M256.19,71.44c0-11.86,9.65-21.52,21.52-21.52c11.86,0,21.52,9.65,21.52,21.52c0,11.87-9.65,21.52-21.52,21.52
				S256.19,83.31,256.19,71.44z M356.93,122.79h-28.85c-2.53-12.61-11.47-22.93-23.26-27.41c5.64-6.38,9.07-14.76,9.07-23.93
				c0-19.95-16.23-36.19-36.19-36.19s-36.19,16.23-36.19,36.19c0,9.17,3.43,17.55,9.07,23.93c-11.79,4.49-20.72,14.81-23.26,27.41
				l-28.85,0l0-101.71l158.44,0L356.93,122.79z"/>
			<path class="st1" d="M242.12,146.72h-26.4c-4.05,0-7.34,3.28-7.34,7.34v0c0,4.05,3.28,7.34,7.34,7.34h26.4
				c4.05,0,7.34-3.28,7.34-7.34v0C249.45,150,246.17,146.72,242.12,146.72z"/>
			<path class="st1" d="M331.7,146.72l-66.64,0c-4.05,0-7.34,3.28-7.34,7.34v0c0,4.05,3.28,7.34,7.34,7.34l66.64,0
				c4.05,0,7.34-3.28,7.34-7.34v0C339.03,150,335.75,146.72,331.7,146.72z"/>
		</g>
	</g>
</g>
</svg>
