<?xml version="1.0" encoding="utf-8"?>
<!-- Generator: Adobe Illustrator 22.0.1, SVG Export Plug-In . SVG Version: 6.00 Build 0)  -->
<svg version="1.1" id="Layer_1" xmlns="http://www.w3.org/2000/svg" xmlns:xlink="http://www.w3.org/1999/xlink" x="0px" y="0px"
	 viewBox="0 0 178.3 25.6" style="enable-background:new 0 0 178.3 25.6;" xml:space="preserve">
<style type="text/css">
	.st0{fill:#17D3A5;}
	.st1{fill:#4263C9;}
</style>
<g>
	<g>
		<path class="st0" d="M15.1,4.7C15.1,4.7,15.1,4.8,15.1,4.7L6.4,25.6H2.6l3.1-7L0,4.8c0,0,0,0,0,0h4l3.6,9.9l3.7-9.9H15.1z"/>
		<path class="st0" d="M30,18.9h-3.6v-1.8c-0.9,1.2-2.4,2-4.2,2c-3.3,0-5.7-2.1-5.7-6V4.7h3.6v7.8c0,2.3,1.3,3.5,3.1,3.5
			c1.9,0,3.2-1.2,3.2-3.5V4.7H30V18.9z"/>
		<path class="st0" d="M39.6,4.7c-1.2,0.3-2.2,1.1-2.9,2.2V4.7h-3.6v14.1h3.6v-7c0-2.7,1.3-3.5,3.4-3.5h0.9V4.7H39.6z"/>
		<path class="st0" d="M43.6,7.7h-1.7V4.7h1.7V1.3h3.6v3.5h3.2v2.9h-3.2v6.8c0,0.9,0.4,1.4,1.5,1.4h1.7v3h-2.2
			c-2.7,0-4.5-1.1-4.5-4.4V7.7z"/>
		<path class="st0" d="M52.6,0h3.6v18.9h-3.6V0z"/>
		<path class="st0" d="M64.8,4.5c2.3,0,3.8,1.1,4.7,2.2v-2h3.6v14.1h-3.6v-2.1c-0.8,1.2-2.4,2.3-4.7,2.3c-3.6,0-6.4-2.9-6.4-7.3
			C58.4,7.3,61.2,4.5,64.8,4.5z M65.8,7.7c-1.9,0-3.7,1.4-3.7,4.1c0,2.7,1.8,4.2,3.7,4.2c2,0,3.8-1.5,3.8-4.2
			C69.5,9.1,67.7,7.7,65.8,7.7z"/>
		<path class="st1" d="M79.8,18.9h-3.6V4.7h3.6v1.4c0.9-1.5,2.4-1.6,4.3-1.6v3.8h-0.9c-2.1,0-3.4,2.3-3.4,5.1V18.9z"/>
		<g>
			<path class="st1" d="M95.6,4.5c3.6,0,6.5,2.8,6.5,7.2c0,4.4-2.8,7.3-6.5,7.3c-2.2,0-3.8-1-4.7-2.2v2h-3.6V0h3.6v6.8
				C91.8,5.5,93.4,4.5,95.6,4.5z M94.6,7.7c-1.9,0-3.7,1.5-3.7,4.2c0,2.7,1.8,4.2,3.7,4.2c1.9,0,3.8-1.5,3.8-4.2
				C98.4,9.1,96.6,7.7,94.6,7.7z"/>
			<path class="st1" d="M117.6,18.9H114v-1.8c-0.9,1.2-2.4,2-4.2,2c-3.3,0-5.7-2.1-5.7-6V4.8h3.6v7.8c0,2.3,1.3,3.5,3.1,3.5
				c1.9,0,3.2-1.2,3.2-3.5V4.8h3.6V18.9z"/>
			<path class="st1" d="M124.3,18.9h-3.6V4.8h3.6V7c0.9-1.5,2.4-2.4,4.3-2.4v3.8h-0.9c-2.1,0-3.4,0.8-3.4,3.5V18.9z"/>
			<path class="st1" d="M136.2,4.5c2.3,0,3.8,1.1,4.7,2.2v-2h3.6v14.1h-3.6v-2.1c-0.8,1.2-2.4,2.3-4.7,2.3c-3.6,0-6.4-2.9-6.4-7.3
				C129.7,7.4,132.6,4.5,136.2,4.5z M137.1,7.7c-1.9,0-3.7,1.4-3.7,4.1c0,2.7,1.8,4.2,3.7,4.2c2,0,3.8-1.5,3.8-4.2
				C140.8,9.2,139.1,7.7,137.1,7.7z"/>
			<path class="st1" d="M153.1,4.5c1.9,0,3.6,0.9,4.6,2.2V0h3.6v18.9h-3.6v-2.1c-0.8,1.3-2.4,2.3-4.6,2.3c-3.6,0-6.5-2.9-6.5-7.3
				C146.6,7.4,149.5,4.5,153.1,4.5z M154,7.7c-1.9,0-3.7,1.4-3.7,4.1c0,2.7,1.8,4.2,3.7,4.2c2,0,3.8-1.5,3.8-4.2
				C157.8,9.2,156,7.7,154,7.7z"/>
			<path class="st1" d="M170,4.5c2.3,0,3.8,1.1,4.7,2.2v-2h3.6v14.1h-3.6v-2.1c-0.8,1.2-2.4,2.3-4.7,2.3c-3.6,0-6.4-2.9-6.4-7.3
				C163.6,7.4,166.4,4.5,170,4.5z M170.9,7.7c-1.9,0-3.7,1.4-3.7,4.1c0,2.7,1.8,4.2,3.7,4.2c2,0,3.8-1.5,3.8-4.2
				C174.7,9.2,172.9,7.7,170.9,7.7z"/>
		</g>
	</g>
	<g>
		<path class="st0" d="M5.4,19h3.7l6-14.2c0,0,0,0,0,0h-3.8l-3.7,9.9L4,4.7H0c0,0,0,0,0,0l5.6,13.7L5.4,19z"/>
		<path class="st0" d="M21.4,19h1.7c1.4-0.2,2.6-0.9,3.4-1.9v1.8H30V4.7h-3.6v7.8c0,2.3-1.2,3.5-3.2,3.5c-1.9,0-3.1-1.2-3.1-3.5V4.7
			h-3.6V13C16.5,16.6,18.5,18.7,21.4,19z"/>
		<path class="st0" d="M39.6,4.7c-1.2,0.3-2.2,1.1-2.9,2.2V4.7h-3.6v14.1h3.6v-7c0-2.7,1.3-3.5,3.4-3.5h0.9V4.7H39.6z"/>
		<path class="st0" d="M47.2,4.7h-3.6v0h-1.7v2.9h1.7v6.8c0,3.2,1.8,4.4,4.5,4.4h2.2v-3h-1.7c-1.1,0-1.5-0.4-1.5-1.4V7.7h3.2V4.7
			L47.2,4.7L47.2,4.7z"/>
		<rect x="52.6" y="4.7" class="st0" width="3.6" height="14.1"/>
		<path class="st0" d="M69.5,6.8c-0.6-0.9-1.6-1.6-3-2h-3.4c-2.8,0.7-4.8,3.3-4.8,7c0,3.9,2.2,6.6,5.2,7.2H66
			c1.6-0.3,2.8-1.2,3.5-2.2v2.1h3.6V4.7h-3.6V6.8z M65.8,16c-1.9,0-3.7-1.5-3.7-4.2c0-2.7,1.8-4.1,3.7-4.1c2,0,3.8,1.5,3.8,4.2
			C69.5,14.5,67.7,16,65.8,16z"/>
		<path class="st0" d="M81.9,4.7C81,5,80.3,5.4,79.8,6.2V4.7h-3.6v14.1h3.6v-5.5c0-2.7,1.3-5.1,3.4-5.1h0.9V4.7H81.9z"/>
		<g>
			<path class="st1" d="M97.2,4.7H94c-1.4,0.4-2.4,1.1-3.1,2.1V4.7h-3.6v14.2h3.6v-2c0.7,1,1.8,1.8,3.3,2.1h2.7
				c2.9-0.6,5.1-3.4,5.1-7.2C102,8,100,5.4,97.2,4.7z M94.6,16c-1.9,0-3.7-1.5-3.7-4.2c0-2.7,1.8-4.2,3.7-4.2c1.9,0,3.8,1.4,3.8,4.1
				C98.4,14.5,96.6,16,94.6,16z"/>
			<path class="st1" d="M108.6,19h2.2c1.3-0.2,2.5-0.9,3.2-1.9v1.8h3.6V4.8H114v7.8c0,2.3-1.2,3.5-3.2,3.5c-1.9,0-3.1-1.2-3.1-3.5
				V4.8h-3.6v8.3C104.1,16.5,106,18.5,108.6,19z"/>
			<path class="st1" d="M127.2,4.7C126,5.1,125,5.9,124.3,7V4.8h-3.6v14.1h3.6v-7c0-2.7,1.3-3.5,3.4-3.5h0.9V4.7H127.2z"/>
			<path class="st1" d="M140.8,6.8c-0.6-0.9-1.6-1.7-3.1-2h-3.2c-2.8,0.7-4.9,3.3-4.9,7c0,3.8,2.2,6.6,5.1,7.2h2.7
				c1.5-0.3,2.7-1.2,3.3-2.1v2.1h3.6V4.8h-3.6V6.8z M137.1,16c-1.9,0-3.7-1.5-3.7-4.2c0-2.7,1.8-4.1,3.7-4.1c2,0,3.8,1.5,3.8,4.2
				C140.8,14.5,139.1,16,137.1,16z"/>
			<path class="st1" d="M157.7,4.7v2c-0.7-1-1.8-1.7-3.1-2h-3.1c-2.8,0.7-4.9,3.3-4.9,7c0,3.8,2.2,6.6,5.1,7.2h2.7
				c1.5-0.3,2.6-1.2,3.3-2.2v2.1h3.6V4.7H157.7z M154,16c-1.9,0-3.7-1.5-3.7-4.2c0-2.7,1.8-4.1,3.7-4.1c2,0,3.8,1.5,3.8,4.2
				C157.8,14.5,156,16,154,16z"/>
			<path class="st1" d="M174.7,6.8c-0.6-0.9-1.6-1.7-3.1-2h-3.2c-2.8,0.7-4.9,3.3-4.9,7c0,3.8,2.2,6.6,5.1,7.2h2.7
				c1.5-0.3,2.7-1.2,3.3-2.1v2.1h3.6V4.8h-3.6V6.8z M170.9,16c-1.9,0-3.7-1.5-3.7-4.2c0-2.7,1.8-4.1,3.7-4.1c2,0,3.8,1.5,3.8,4.2
				C174.7,14.5,172.9,16,170.9,16z"/>
		</g>
	</g>
</g>
</svg>
