<?xml version="1.0" encoding="utf-8"?>
<!-- Generator: Adobe Illustrator 21.1.0, SVG Export Plug-In . SVG Version: 6.00 Build 0)  -->
<svg version="1.1" id="Layer_1" xmlns="http://www.w3.org/2000/svg" xmlns:xlink="http://www.w3.org/1999/xlink" x="0px" y="0px"
	 viewBox="0 0 540.5 148.4" style="enable-background:new 0 0 540.5 148.4;" xml:space="preserve">
<style type="text/css">
	.st0{fill:#59ACE1;}
	.st1{fill:#FFFFFF;}
</style>
<g>
	<path class="st0" d="M111.6,148.6l210.1-0.2V106c0-58-47-105-105-105c-58,0-105,47.1-105,105.2L111.6,148.6z"/>
	<path class="st0" d="M218.4,148.6c11.9-55.3,46.1-96.8,105-96.8l0.5,0c58.8,0,108,41.4,119.9,96.7L218.4,148.6z"/>
	<polygon class="st0" points="323.8,51.7 266,51.8 266,81.4 338.5,79.4 	"/>
	<path class="st0" d="M151,148.6c-8-38-30.9-66.5-70.3-66.5l-0.3,0C40.9,82.1,8,110.7,0,148.7L151,148.6z"/>
	<polygon class="st0" points="80.3,82.1 119.1,82.1 119.1,102.5 70.5,101.2 	"/>
</g>
<g>
	<path class="st1" d="M399.5,148.4H512c15.7,0,28.5-12.8,28.5-28.5c0-38.9-31.6-70.5-70.5-70.5c-38.9,0-70.5,31.6-70.5,70.5V148.4z"
		/>
	<path class="st1" d="M426.9,148.4c-4.2-20.1-16.4-35.2-37.2-35.2h-0.2c-20.9,0-38.3,15.1-42.5,35.2H426.9z"/>
	<polygon class="st1" points="389.5,113.2 410,113.2 410,124 384.3,123.3 	"/>
</g>
</svg>
