<?xml version="1.0" encoding="utf-8"?>
<!-- Generator: Adobe Illustrator 22.0.1, SVG Export Plug-In . SVG Version: 6.00 Build 0)  -->
<svg version="1.1" id="Layer_1" xmlns="http://www.w3.org/2000/svg" xmlns:xlink="http://www.w3.org/1999/xlink" x="0px" y="0px"
	 viewBox="0 0 838.1 166.8" style="enable-background:new 0 0 838.1 166.8;" xml:space="preserve">
<style type="text/css">
	.st0{fill:#DFE7F6;}
</style>
<path class="st0" d="M838.1,166.8L752.3,39.6C735.6,14.9,707.7,0,677.8,0H322.4c-23.7,0-46.4,9.4-63.1,26.2l-46,46h-28.3
	c-17.5,0-34.3,7-46.7,19.3l-17,17H73.8c-9.9,0-19.4,3.9-26.4,10.9L0,166.8H838.1z"/>
<path class="st0" d="M0,166.8L85.8,39.6C102.5,14.9,130.5,0,160.4,0h355.4c23.7,0,46.4,9.4,63.1,26.2l46,46h28.3
	c17.5,0,34.3,7,46.7,19.3l17,17h47.5c9.9,0,19.4,3.9,26.4,10.9l47.4,47.4H0z"/>
</svg>
