<?xml version="1.0" encoding="utf-8"?>
<!-- Generator: Adobe Illustrator 21.1.0, SVG Export Plug-In . SVG Version: 6.00 Build 0)  -->
<svg version="1.1" id="Layer_1" xmlns="http://www.w3.org/2000/svg" xmlns:xlink="http://www.w3.org/1999/xlink" x="0px" y="0px"
	 viewBox="0 0 1004.3 166.8" style="enable-background:new 0 0 1004.3 166.8;" xml:space="preserve">
<style type="text/css">
	.st0{fill:#F5F8FC;}
</style>
<g>
	<path class="st0" d="M715.2,166.8L629.4,39.6C612.7,14.9,584.7,0,554.9,0H322.4c-23.7,0-46.4,9.4-63.1,26.2l-46,46h-28.3
		c-17.5,0-34.3,7-46.7,19.3l-17,17H73.8c-9.9,0-19.4,3.9-26.4,10.9L0,166.8H715.2z"/>
	<path class="st0" d="M672.1,51.5H385.9c-20.7,0-40,10.3-51.5,27.4l-59.3,87.9h550.5c-29.5-29.5-58.9-58.9-88.4-88.4
		C719.9,61.2,696.5,51.5,672.1,51.5z"/>
</g>
<g>
	<path class="st0" d="M287.7,166.8l86-127.2C390.4,14.9,418.4,0,448.4,0h232.9c23.7,0,46.5,9.4,63.3,26.2l46.1,46H819
		c17.5,0,34.4,7,46.8,19.3l17,17h47.6c9.9,0,19.4,3.9,26.5,10.9l47.5,47.4H287.7z"/>
	<path class="st0" d="M330.9,51.5h286.7c20.7,0,40.1,10.3,51.7,27.4l59.4,87.9H177.1c29.5-29.5,59-58.9,88.6-88.4
		C282.9,61.2,306.4,51.5,330.9,51.5z"/>
</g>
</svg>
