<svg id="Capa_1" enable-background="new 0 0 512.081 512.081" height="512" viewBox="0 0 512.081 512.081" width="512" xmlns="http://www.w3.org/2000/svg"><g><path d="m502.973 385.376c0 .001-188.5-326.5-188.5-326.5-24.417-44.489-92.523-44.574-116.947.003 0-.002-188.5 326.497-188.5 326.497-5.904 10.225-9.026 21.88-9.026 33.707 0 37.22 30.28 67.5 67.5 67.5h377c50.701 1.233 84.77-57.986 58.473-101.207zm-58.473 86.207h-377c-39.423.956-65.934-45.09-45.482-78.707-.001.001 188.498-326.498 188.498-326.498 9.368-16.22 26.796-26.295 45.484-26.295s36.116 10.075 45.483 26.294l188.5 326.5c20.382 33.582-5.999 79.697-45.483 78.706z"/><path d="m256 321.583c12.407 0 22.5-10.094 22.5-22.5v-90c0-12.406-10.093-22.5-22.5-22.5s-22.5 10.094-22.5 22.5v90c0 12.407 10.093 22.5 22.5 22.5zm-7.5-112.5c.168-9.829 14.822-9.878 15 0v90c0 4.136-3.364 7.5-7.5 7.5s-7.5-3.364-7.5-7.5z"/><path d="m256 381.583c29.669-.78 29.663-44.225-.001-45-29.668.78-29.662 44.225.001 45zm0-30c9.857.176 9.855 14.825 0 15-9.857-.176-9.855-14.825 0-15z"/><path d="m451.457 421.849c.697-1.735.709-3.735.019-5.475-.029-.075-.056-.15-.087-.223-.118-.276-.248-.55-.402-.817-.49-.736-188.412-326.562-188.956-327.177-2.994-4.292-10.06-3.925-12.543.72 0 0-156.163 270.476-156.163 270.476-2.071 3.587-.842 8.174 2.745 10.245 3.587 2.069 8.174.842 10.245-2.745l149.685-259.255 175.502 303.985h-351.011l10.825-18.75c2.071-3.587.842-8.174-2.745-10.245s-8.174-.843-10.245 2.745l-17.321 30c-1.34 2.32-1.34 5.18 0 7.5s3.815 3.75 6.495 3.75h376.983c.342.001.671-.022.998-.066.031-.004.061-.013.091-.018 2.61-.353 4.935-2.198 5.885-4.65z"/></g></svg>