<?xml version="1.0" encoding="utf-8"?>
<!-- Generator: Adobe Illustrator 22.0.1, SVG Export Plug-In . SVG Version: 6.00 Build 0)  -->
<svg version="1.1" id="Layer_1" xmlns="http://www.w3.org/2000/svg" xmlns:xlink="http://www.w3.org/1999/xlink" x="0px" y="0px"
	 viewBox="0 0 100 100" style="enable-background:new 0 0 100 100;" xml:space="preserve">
<g>
	<g transform="translate(0,-952.36218)">
		<g>
			<path d="M79.7,973.1c-1.8,0-3.2,1.5-3.2,3.2c0,0,0,0,0,0v12.2c0,5.3,3.6,9.9,8.5,11.3v28.5c0,1.8,1.4,3.2,3.2,3.2
				c1.8,0,3.2-1.4,3.2-3.2c0,0,0-0.1,0-0.1v-28.5c4.9-1.4,8.5-5.9,8.5-11.3v-12.2c0-1.8-1.4-3.2-3.2-3.2s-3.2,1.4-3.2,3.2
				c0,0,0,0.1,0,0.1v12.2c0,1.8-0.8,3.3-2.1,4.3v-16.5c0-1.8-1.4-3.2-3.1-3.3c0,0-0.1,0-0.1,0c-1.8,0-3.2,1.5-3.2,3.2c0,0,0,0,0,0
				v16.5c-1.3-1-2.1-2.5-2.1-4.3v-12.2c0-1.8-1.4-3.2-3.1-3.3C79.7,973.1,79.7,973.1,79.7,973.1L79.7,973.1z M11.7,973.2
				c-3.7,0-6.7,2.2-8.7,5.2c-2,2.9-3,6.7-3,10.8c0,4.1,1.1,7.9,3,10.8c1.4,2,3.3,3.7,5.5,4.6v23.8c0,1.8,1.4,3.2,3.2,3.2
				c1.8,0,3.2-1.4,3.2-3.2c0,0,0-0.1,0-0.1v-23.8c2.2-0.9,4.1-2.5,5.5-4.6c2-2.9,3-6.7,3-10.8c0-4.1-1.1-7.9-3-10.8
				C18.5,975.4,15.4,973.2,11.7,973.2L11.7,973.2z M11.7,979.6c1.1,0,2.2,0.6,3.4,2.3c1.1,1.7,2,4.3,2,7.3c0,3-0.8,5.6-2,7.3
				s-2.3,2.3-3.4,2.3s-2.2-0.6-3.4-2.3s-2-4.3-2-7.3c0-3,0.8-5.6,2-7.3C9.5,980.2,10.7,979.6,11.7,979.6z"/>
		</g>
	</g>
	<g>
		<path d="M50,78.4c-13.6,0-24.6-12.7-24.6-28.2C25.4,34.7,36.5,22,50,22s24.6,12.7,24.6,28.2C74.6,65.8,63.6,78.4,50,78.4z
			 M50,28.6c-9.9,0-18,9.7-18,21.7c0,11.9,8.1,21.7,18,21.7s18-9.7,18-21.7C68,38.3,60,28.6,50,28.6z"/>
	</g>
	<g>
		<path d="M50,64c-7.6,0-13.8-6.2-13.8-13.7c0-7.6,6.2-13.7,13.8-13.7c7.6,0,13.8,6.2,13.8,13.7c0,1.8-1.5,3.3-3.3,3.3
			s-3.3-1.5-3.3-3.3c0-4-3.2-7.2-7.2-7.2s-7.2,3.2-7.2,7.2s3.2,7.2,7.2,7.2c1.8,0,3.3,1.5,3.3,3.3C53.3,62.5,51.8,64,50,64z"/>
	</g>
</g>
</svg>
