<?xml version="1.0" encoding="utf-8"?>
<!-- Generator: Adobe Illustrator 23.0.4, SVG Export Plug-In . SVG Version: 6.00 Build 0)  -->
<svg version="1.0" id="Layer_1" xmlns="http://www.w3.org/2000/svg" xmlns:xlink="http://www.w3.org/1999/xlink" x="0px" y="0px"
	 viewBox="0 0 507.4 507.4" style="enable-background:new 0 0 507.4 507.4;" xml:space="preserve">
<g>
	<path d="M427.3,221.5c9.2,0,16.6-7.4,16.6-16.6s-7.4-16.6-16.6-16.6c-9.2,0-16.6,7.4-16.6,16.6S418.2,221.5,427.3,221.5z"/>
	<circle cx="191.1" cy="82.3" r="16.6"/>
	<path d="M251.9,98.8c9.2,0,16.6-7.4,16.6-16.6s-7.4-16.6-16.6-16.6c-9.2,0-16.6,7.4-16.6,16.6S242.8,98.8,251.9,98.8z"/>
	<circle cx="309.2" cy="82.3" r="16.6"/>
	<path d="M427.3,280.3c9.2,0,16.6-7.4,16.6-16.6c0-9.2-7.4-16.6-16.6-16.6c-9.2,0-16.6,7.4-16.6,16.6
		C410.8,272.9,418.2,280.3,427.3,280.3z"/>
	<path d="M491.5,0.5l-1.3,0l-472.8,0C8,0.5,0.3,8.1,0.3,17.6V490c0,9.4,7.7,17.1,17.1,17.1h472.4c9.4,0,17.1-7.7,17.1-17.1V17.6
		C507,8.7,500.4,1.3,491.5,0.5z M236.5,472.9h-78.2V164.2h78.2V472.9z M349,472.9h-78.2V164.2H349V472.9z M472.7,472.9h-89.5V147.1
		c0-9-6.6-16.2-15.9-17.2c-0.4,0-0.8,0-0.9,0l-225.3,0c-9.4,0-17.1,7.7-17.1,17.1v325.8H34.6V34.7h438.2V472.9z"/>
</g>
</svg>
