<svg id="_x33_0" enable-background="new 0 0 64 64" height="512" viewBox="0 0 64 64" width="512" xmlns="http://www.w3.org/2000/svg"><g><circle cx="12" cy="16" r="1"/><circle cx="18" cy="16" r="1"/><path d="m12.895 18.553-1.789.895.105.21c.722 1.445 2.174 2.342 3.789 2.342s3.067-.897 3.789-2.342l.105-.211-1.789-.895-.105.212c-.381.762-1.147 1.236-2 1.236s-1.619-.474-2-1.236z"/><path d="m25.616 29.797c.894-1.287 1.384-2.813 1.384-4.402v-12.395c0-6.617-5.383-12-12-12s-12 5.383-12 12v12.395c0 1.59.49 3.115 1.384 4.403-2.098 1.718-3.384 4.311-3.384 7.142 0 1.512.376 3.015 1.113 4.394l3.525 5.853c-.296 1.74-.77 3.45-1.425 5.085l-.483 1.211.777.389c-.986 2.401-1.507 5.008-1.507 7.6v1.528h24v-1.528c0-2.593-.521-5.199-1.508-7.6l.777-.389-.483-1.212c-.655-1.634-1.128-3.344-1.425-5.085l3.551-5.898c.712-1.333 1.088-2.836 1.088-4.348 0-2.831-1.286-5.424-3.384-7.143zm-.616-16.797v12.395c0 1.197-.387 2.338-1.07 3.302-.399-.201-.814-.379-1.248-.524l-2.845-.948-.611-2.445c2.262-1.415 3.774-3.921 3.774-6.78v-4.234c0-1.51-1.13-2.79-2.628-2.977l-2.744-.343c-1.498-.187-2.628-1.467-2.628-2.977v-4.469c5.514 0 10 4.486 10 10zm-7.075 21h-5.851l-2.59-4.441 2.353-.784.783-3.136c.752.234 1.552.361 2.38.361s1.628-.127 2.38-.362l.783 3.136 2.353.784zm-1.166 2-1.759 3.015-1.759-3.015zm.621-23.57 2.744.343c.499.063.876.489.876.993v4.234c0 3.309-2.691 6-6 6s-6-2.691-6-6v-4.737c0-.888.597-1.679 1.45-1.923l3.466-.99c.788 1.115 2.023 1.9 3.464 2.08zm-12.38 12.965v-12.395c0-4.829 3.441-8.869 8-9.798v4.267c0 .353.037.698.107 1.032l-3.206.916c-1.708.487-2.901 2.069-2.901 3.846v4.737c0 2.859 1.512 5.365 3.774 6.78l-.611 2.445-2.845.948c-.434.145-.849.322-1.248.524-.683-.964-1.07-2.105-1.07-3.302zm4.461 28.138c-1.091-.25-2.158-.589-3.188-1.04.344-.914.634-1.848.877-2.796zm8.529.362c-.07.132-.158.25-.254.36.162-.445.264-.918.264-1.419 0-.316-.043-.63-.116-.939l.962.577zm-3.201-3.602.928 1.479c.185.322.283.69.283 1.08 0 1.185-.963 2.148-2.147 2.148-.772 0-1.479-.423-1.868-1.15l-.829-1.377zm-9.782 10.707c.058-2.162.536-4.314 1.354-6.318 1.492.571 3.046.952 4.641 1.151.751.734 1.765 1.167 2.851 1.167.4 0 .778-.075 1.144-.181.374.109.757.181 1.15.181 1.095 0 2.118-.439 2.862-1.169 1.59-.199 3.141-.58 4.63-1.149.818 2.004 1.296 4.156 1.354 6.318zm18.72-8.507c-1.029.451-2.096.79-3.186 1.04l2.309-3.835c.242.947.533 1.882.877 2.795zm2.447-12.191-6.297 10.458-3.603-2.162 7.572-12.067-1.693-1.063-7.153 11.399-7.153-11.399-1.693 1.063 7.572 12.067-3.603 2.161-6.271-10.412c-.557-1.045-.852-2.222-.852-3.407 0-2.979 1.823-5.611 4.562-6.705l7.438 12.75 7.438-12.75c2.739 1.094 4.562 3.726 4.562 6.705 0 1.185-.295 2.362-.826 3.362z"/><path d="m57 29c-.395 0-.77.081-1.116.22-.345-1.275-1.501-2.22-2.884-2.22-.395 0-.77.081-1.116.22-.345-1.275-1.501-2.22-2.884-2.22-.352 0-.686.072-1 .184v-3.184c0-1.654-1.346-3-3-3s-3 1.346-3 3v15c0 .551-.448 1-1 1s-1-.449-1-1v-6c0-2.206-1.794-4-4-4-1.103 0-2 .897-2 2v9.597c0 4.236 1.418 8.394 4 11.749v12.654h19v-12.727c1.964-3.369 3-7.203 3-11.104v-7.169c0-1.654-1.346-3-3-3zm-17 32v-10h15v10zm18-21.831c0 3.447-.9 6.831-2.588 9.831h-15.906c-2.257-2.985-3.506-6.656-3.506-10.403v-9.597c1.103 0 2 .897 2 2v6c0 1.654 1.346 3 3 3s3-1.346 3-3v-15c0-.551.448-1 1-1s1 .449 1 1v16h2v-10c0-.551.448-1 1-1s1 .449 1 1v10h2v-8c0-.551.448-1 1-1s1 .449 1 1v8h2v-6c0-.551.448-1 1-1s1 .449 1 1z"/><path d="m62.953 10.698c-.132-.416-.517-.698-.953-.698h-3.072l-.969-3.283c-.125-.425-.516-.717-.959-.717s-.834.292-.959.717l-.969 3.283h-3.072c-.436 0-.821.282-.953.698-.132.415.021.868.377 1.119l2.46 1.736-1.154 3.098c-.152.411-.02.875.328 1.142.349.269.829.278 1.188.023l2.754-1.951 2.755 1.951c.174.123.376.184.578.184.215 0 .431-.069.609-.208.348-.267.48-.73.328-1.142l-1.154-3.098 2.46-1.736c.357-.25.509-.703.377-1.118zm-4.619 1.665c-.371.262-.52.74-.361 1.166l.291.779-.686-.485c-.173-.123-.376-.184-.578-.184s-.405.062-.578.184l-.686.485.291-.779c.158-.426.01-.904-.361-1.166l-.515-.363h.668c.443 0 .834-.292.959-.717l.222-.751.222.751c.125.425.515.717.959.717h.668z"/><path d="m39.424 11.817 2.46 1.736-1.154 3.098c-.152.411-.02.875.328 1.142.35.269.829.278 1.188.023l2.754-1.951 2.755 1.951c.174.123.376.184.578.184.215 0 .431-.069.609-.208.348-.267.48-.73.328-1.142l-1.154-3.098 2.46-1.736c.356-.251.509-.704.377-1.119s-.517-.697-.953-.697h-3.072l-.969-3.283c-.125-.425-.516-.717-.959-.717s-.834.292-.959.717l-.969 3.283h-3.072c-.436 0-.821.282-.953.698-.132.415.02.868.377 1.119zm4.395.183c.443 0 .834-.292.959-.717l.222-.751.222.751c.125.425.515.717.959.717h.668l-.515.363c-.371.262-.52.74-.361 1.166l.291.779-.686-.485c-.173-.123-.376-.184-.578-.184s-.405.062-.578.184l-.686.485.291-.779c.158-.426.01-.904-.361-1.166l-.515-.363z"/><path d="m36.333 18c.215 0 .431-.069.609-.208.348-.267.48-.73.328-1.142l-1.154-3.098 2.46-1.736c.356-.251.509-.704.377-1.119s-.517-.697-.953-.697h-3.072l-.969-3.283c-.125-.425-.516-.717-.959-.717s-.834.292-.959.717l-.969 3.283h-3.072c-.436 0-.821.282-.953.698-.132.415.021.868.377 1.119l2.46 1.736-1.154 3.098c-.152.411-.02.875.328 1.142.35.269.829.278 1.188.023l2.754-1.951 2.755 1.951c.174.123.376.184.578.184zm-1.999-5.637c-.371.262-.52.74-.361 1.166l.291.779-.686-.485c-.173-.123-.376-.184-.578-.184s-.405.062-.578.184l-.686.485.291-.779c.158-.426.01-.904-.361-1.166l-.515-.363h.668c.443 0 .834-.292.959-.717l.222-.751.222.751c.125.425.515.717.959.717h.668z"/></g></svg>