<?xml version="1.0" encoding="utf-8"?>
<!-- Generator: Adobe Illustrator 23.0.1, SVG Export Plug-In . SVG Version: 6.00 Build 0)  -->
<svg version="1.1" id="Layer_1" xmlns="http://www.w3.org/2000/svg" xmlns:xlink="http://www.w3.org/1999/xlink" x="0px" y="0px"
	 viewBox="0 0 512 512" style="enable-background:new 0 0 512 512;" xml:space="preserve">
<style type="text/css">
	.st0{stroke:#000000;stroke-width:4;stroke-miterlimit:10;}
</style>
<g>
	<g>
		<path class="st0" d="M329.69,25.96H116.31C91.88,25.96,72,45.84,72,70.27v329.31c0,24.43,19.88,44.3,44.31,44.3h9.38h29.54h29.54
			h29.54h17.38h29.54h59.08h9.38c24.43,0,44.31-19.88,44.31-44.3V70.27C374,45.84,354.12,25.96,329.69,25.96z M344.46,399.58
			c0,8.14-6.62,14.77-14.77,14.77H116.31c-8.14,0-14.77-6.62-14.77-14.77v-85.16h242.92V399.58z M344.46,284.88H101.54v-99.92
			h242.92V284.88z M344.46,155.42H101.54V70.27c0-8.14,6.62-14.77,14.77-14.77h213.38c8.14,0,14.77,6.62,14.77,14.77V155.42z"/>
		<path class="st0" d="M237.38,91.19h-28.77c-8.16,0-14.77,6.61-14.77,14.77s6.61,14.77,14.77,14.77h28.77
			c8.16,0,14.77-6.61,14.77-14.77S245.54,91.19,237.38,91.19z"/>
		<path class="st0" d="M237.38,220.65h-28.77c-8.16,0-14.77,6.61-14.77,14.77s6.61,14.77,14.77,14.77h28.77
			c8.16,0,14.77-6.61,14.77-14.77S245.54,220.65,237.38,220.65z"/>
		<path class="st0" d="M208.62,379.65h28.77c8.16,0,14.77-6.61,14.77-14.77s-6.61-14.77-14.77-14.77h-28.77
			c-8.16,0-14.77,6.61-14.77,14.77S200.46,379.65,208.62,379.65z"/>
		<path class="st0" d="M172.27,471.27V442.5c0-8.16-6.61-14.77-14.77-14.77s-14.77,6.61-14.77,14.77v28.77
			c0,8.16,6.61,14.77,14.77,14.77S172.27,479.43,172.27,471.27z"/>
		<path class="st0" d="M308.77,471.27V442.5c0-8.16-6.61-14.77-14.77-14.77s-14.77,6.61-14.77,14.77v28.77
			c0,8.16,6.61,14.77,14.77,14.77S308.77,479.43,308.77,471.27z"/>
	</g>
	<g>
		<path class="st0" d="M410.46,314.42v85.16c0,8.14-6.62,14.77-14.77,14.77H330v29.54h65.69c24.43,0,44.31-19.88,44.31-44.3V70.27
			c0-24.43-19.88-44.31-44.31-44.31H330V55.5h65.69c8.14,0,14.77,6.62,14.77,14.77v85.15V314.42z"/>
		<line class="st0" x1="420.46" y1="184.96" x2="420.46" y2="284.88"/>
		<path class="st0" d="M384.77,471.27V442.5c0-8.16-6.61-14.77-14.77-14.77s-14.77,6.61-14.77,14.77v28.77
			c0,8.16,6.61,14.77,14.77,14.77S384.77,479.43,384.77,471.27z"/>
	</g>
</g>
</svg>
