<?xml version="1.0" encoding="utf-8"?>
<!-- Generator: Adobe Illustrator 23.0.1, SVG Export Plug-In . SVG Version: 6.00 Build 0)  -->
<svg version="1.1" id="Layer_1" xmlns="http://www.w3.org/2000/svg" xmlns:xlink="http://www.w3.org/1999/xlink" x="0px" y="0px"
	 viewBox="0 0 512 512" style="enable-background:new 0 0 512 512;" xml:space="preserve">
<style type="text/css">
	.st0{stroke:#000000;stroke-width:6;stroke-miterlimit:10;}
</style>
<g>
	<circle class="st0" cx="286.68" cy="260.68" r="18.88"/>
	
		<ellipse transform="matrix(0.9871 -0.1602 0.1602 0.9871 -37.2832 58.8628)" class="st0" cx="346.46" cy="260.68" rx="18.88" ry="18.88"/>
	<circle class="st0" cx="407.24" cy="260.68" r="18.88"/>
	<circle class="st0" cx="286.68" cy="324.99" r="18.88"/>
	
		<ellipse transform="matrix(0.9239 -0.3827 0.3827 0.9239 -97.9959 157.3231)" class="st0" cx="346.46" cy="324.99" rx="18.88" ry="18.88"/>
	<circle class="st0" cx="407.24" cy="324.99" r="18.88"/>
	<circle class="st0" cx="286.68" cy="389.3" r="18.88"/>
	
		<ellipse transform="matrix(0.9871 -0.1602 0.1602 0.9871 -57.8849 60.5236)" class="st0" cx="346.46" cy="389.3" rx="18.88" ry="18.88"/>
	<circle class="st0" cx="407.24" cy="389.3" r="18.88"/>
	<path class="st0" d="M460.5,55H201.46c-13.7-18.2-35.47-30-59.96-30S95.24,36.8,81.54,55H51.5c-24.81,0-45,20.19-45,45v340
		c0,24.81,20.19,45,45,45h409c24.81,0,45-20.19,45-45V100C505.5,75.19,485.31,55,460.5,55z M96.5,100c0-24.81,20.19-45,45-45
		s45,20.19,45,45v230c0,24.81-20.19,45-45,45s-45-20.19-45-45V100z M475.5,440c0,8.27-6.73,15-15,15h-409c-8.27,0-15-6.73-15-15V100
		c0-8.27,6.73-15,15-15h16.51c-0.99,4.85-1.51,9.86-1.51,15v230c0,41.35,33.65,75,75,75s75-33.65,75-75V120
		c0-5.14-0.52-30.15-1.51-35H460.5c8.27,0,15,6.73,15,15V440z"/>
	<path class="st0" d="M427.46,123.51H264.54c-8.01,0-14.5,6.49-14.5,14.5V196c0,8.01,6.49,14.5,14.5,14.5h162.91
		c8.01,0,14.5-6.49,14.5-14.5V138C441.95,130,435.46,123.51,427.46,123.51z M412.96,181.5H279.04v-29h133.92V181.5z"/>
</g>
</svg>
