<?xml version="1.0" encoding="utf-8"?>
<!-- Generator: Adobe Illustrator 23.0.4, SVG Export Plug-In . SVG Version: 6.00 Build 0)  -->
<svg version="1.0" id="Layer_1" xmlns="http://www.w3.org/2000/svg" xmlns:xlink="http://www.w3.org/1999/xlink" x="0px" y="0px"
	 viewBox="0 0 507.4 507.4" style="enable-background:new 0 0 507.4 507.4;" xml:space="preserve">
<path d="M18.5,507.6c10.2,0,18.5-8.3,18.5-18.5v-39.1h-0.2v-19.3h159.4v17.4c0.1,0.2,0.1,0.5,0.1,0.8v40.2
	c0,10.2,8.3,18.5,18.5,18.5h0.1c10.2,0,18.5-8.3,18.5-18.5v-58.4H382v58.3c0,10.2,8.3,18.5,18.5,18.5h0.1c10.2,0,18.5-8.3,18.5-18.5
	v-58.3h51.3v58.3c0,10.2,8.3,18.5,18.5,18.5l0,0c10.2,0,18.5-8.3,18.5-18.5l0.1-460.1c0-25.3-11.6-29.1-18.5-29.1H18.2
	c-7,0-18.5,3.8-18.5,29.1l0.4,460.2C0,499.4,8.3,507.6,18.5,507.6L18.5,507.6z M470.1,264.9H420v-92.6h50.2v92.6H470.1z M418.9,36.5
	h51.3v99.2h-51.3V36.5z M418.9,301.5h51.3v92.6h-51.3V301.5z M130.7,394.2h-28.4v-92.6h28.4V394.2z M102.2,264.9v-28.1h126.7v28.1
	H102.2z M261.7,394.2h-93.9v-92.6h93.9V394.2z M381.7,394.2h-82.9v-92.6h82.9V394.2z M381.8,264.9h-28.4v-92.6h28.4V264.9z
	 M233.2,36.5h148.4v99.2H233.2V36.5z M167.7,36.5h28.4v99.2h-28.4V36.5z M36.7,36.5h93.9v99.2H36.7V36.5z M36.7,172.3h279.4v92.6
	H266v-46.3c0-10-8.3-18.2-18.5-18.2H83.7c-10.2,0-18.5,8.1-18.5,18.2v46.3H36.7V172.3z M36.7,301.5h28.4v92.6H36.7V301.5z"/>
</svg>
