<?xml version="1.0" encoding="utf-8"?>
<!-- Generator: Adobe Illustrator 23.0.1, SVG Export Plug-In . SVG Version: 6.00 Build 0)  -->
<svg version="1.1" id="Artwork" xmlns="http://www.w3.org/2000/svg" xmlns:xlink="http://www.w3.org/1999/xlink" x="0px" y="0px"
	 viewBox="0 0 100 100" style="enable-background:new 0 0 100 100;" xml:space="preserve">
<g>
	<g>
		<path d="M31.4,61.2V32.1c0-3.2,2.6-5.7,5.7-5.7s5.7,2.6,5.7,5.7v17.6l19.9,0c3.2,0,5.7,2.6,5.7,5.7c0,3.2-2.6,5.7-5.7,5.7
			L31.4,61.2z"/>
	</g>
	<g>
		<path d="M49.9,100.3c-27.6,0-50-22.4-50-50c0-27.6,22.4-50,50-50s50,22.4,50,50C99.9,77.8,77.5,100.3,49.9,100.3z M49.9,11.8
			c-21.2,0-38.5,17.3-38.5,38.5s17.3,38.5,38.5,38.5c21.2,0,38.5-17.3,38.5-38.5S71.1,11.8,49.9,11.8z"/>
	</g>
</g>
</svg>
