<?xml version="1.0" encoding="utf-8"?>
<!-- Generator: Adobe Illustrator 21.1.0, SVG Export Plug-In . SVG Version: 6.00 Build 0)  -->
<svg version="1.1" id="Layer_1" xmlns="http://www.w3.org/2000/svg" xmlns:xlink="http://www.w3.org/1999/xlink" x="0px" y="0px"
	 viewBox="0 0 100 100" style="enable-background:new 0 0 100 100;" xml:space="preserve">
<path d="M50,0C28.8,0,11.5,17.3,11.5,38.5c0,26.7,34.7,59.1,36.2,60.6c0.6,0.6,1.4,0.9,2.3,0.9c0.8,0,1.6-0.3,2.3-0.9
	c1.5-1.5,36.2-33.9,36.2-60.6C88.5,17.3,71.2,0,50,0z M50,54.7c-8.9,0-16.2-7.3-16.2-16.2S41.1,22.3,50,22.3s16.2,7.3,16.2,16.2
	S58.9,54.7,50,54.7z"/>
</svg>
