<?xml version="1.0" encoding="utf-8"?>
<!-- Generator: Adobe Illustrator 23.0.1, SVG Export Plug-In . SVG Version: 6.00 Build 0)  -->
<svg version="1.1" id="icon-enter" xmlns="http://www.w3.org/2000/svg" xmlns:xlink="http://www.w3.org/1999/xlink" x="0px" y="0px"
	 viewBox="0 0 612 514.99" style="enable-background:new 0 0 612 514.99;" xml:space="preserve">
<title>enter</title>
<path d="M1.5,27.36c0-0.24,0-0.5,0-0.74C2,15.93,14.93,0,34.34,0c19.91,0,33.08,16.41,33.08,27.36v257.44h431.8L388.04,173.63
	c-9.45-9.45-7.22-31.58,4.24-43.03c5.48-5.48,14.43-9.45,23.38-10.19c8.21-0.5,15.43,1.5,19.65,5.72l164.42,165.66
	c0.5,0.5,1.24,1.74,1.5,2l0.74,2.24l1.24,2c4.72,8.46,6.72,14.17,6.72,19.41c0,5.72-2.24,12.43-5.98,18.15l-1.74,2.74l-1,2.98
	c-0.24,0.5-0.74,1.5-1.5,2L434.05,508.94c-4.48,4.48-11.43,6.47-19.65,5.98c-8.71-0.74-17.67-4.48-23.38-10.19
	c-11.43-11.43-13.67-33.58-4.24-43.03l111.17-111.17H27.36C16.41,350.51,0,337.32,0,317.43l0,0L1.5,27.41L1.5,27.36z"/>
</svg>
