<?xml version="1.0" encoding="utf-8"?>
<!-- Generator: Adobe Illustrator 23.0.4, SVG Export Plug-In . SVG Version: 6.00 Build 0)  -->
<svg version="1.0" id="Layer_1" xmlns="http://www.w3.org/2000/svg" xmlns:xlink="http://www.w3.org/1999/xlink" x="0px" y="0px"
	 viewBox="0 0 507.4 507.4" style="enable-background:new 0 0 507.4 507.4;" xml:space="preserve">
<g>
	<path d="M468.1,404.8c-1.2-106.5-79.7-198.3-183.8-216.3c0.2-1.5,0.3-3,0.3-4.6c0-20.1-16.4-36.6-36.5-36.6s-36.5,16.4-36.5,36.6
		c0,1.6,0.1,3.1,0.3,4.6C107.5,205.9,29.5,297.7,29.5,404.9v14.7h438.6V404.8z M58.6,390.6c7.6-99,89.7-175.6,189.5-175.6
		S430,291.7,437.7,390.6H58.6z M247.6,177.4c3.8,0,7.1,3.2,7.1,7.1c0,0.6-0.1,1.2-0.3,1.8h-13.6c-0.1-0.6-0.2-1.2-0.2-1.8
		C240.5,180.6,243.8,177.4,247.6,177.4z"/>
	<path d="M213.6,230.1c-3.4-1.5-7.3-1.5-10.8,0.1C141,256,95.7,306.8,81.8,365.6c-2,8,2.3,15.2,10.2,17.1l3.2,0.2
		c6.5,0,12.4-5,13.4-11c11.9-50,51.1-93.2,104.5-115.4c3.7-1.4,6.6-4.1,8.1-7.6c1.5-3.4,1.4-7.3,0-10.6
		C219.8,234.5,217.1,231.6,213.6,230.1z"/>
	<path d="M505.4,439.9c-2.7-5.5-8.9-9.1-15.3-9.1H18.5c-6.4,0-12.5,3.7-15.4,9.4c-2.5,5.8-1.9,12,1.9,17.7l24.2,41.5
		c4.1,4.9,10.6,8,16.9,8h416.3c6.3,0,12.8-3.1,17-8.2l24.3-41.7C507.4,452.3,508,445.2,505.4,439.9z M471.6,458.8L459,478.6H49.7
		l-12.8-20.1L471.6,458.8z"/>
	<path d="M252.6,105.3c7.5,0,14.1-6.9,14.1-14.7V13.9c0-7.5-6.3-13.5-14.1-13.5c-7.9,0-14.1,6.2-14.1,14.1v76.6
		C238.4,99.1,244.6,105.3,252.6,105.3z"/>
	<path d="M141.6,122.3c2.2,4.3,7.1,7.2,12.2,7.2c3.2,0,5.3-1.1,7-1.9c3.4-1.9,5.7-5,6.7-8.6c0.9-3.5,0.4-7.3-1.6-10.7l-38.2-66.5
		c-1.9-3.4-5-5.7-8.6-6.7c-3.5-0.9-7.3-0.4-10.6,1.5c-3.4,1.9-5.7,5-6.7,8.6c-0.9,3.5-0.4,7.3,1.6,10.7L141.6,122.3z"/>
	<path d="M343.7,127.5l0.3,0.2c0.8,0.4,3.8,1.8,6.7,1.8c5.2,0,10.1-3,12.2-7.1l38.2-66.6c1.9-3.3,2.5-7.1,1.5-10.6
		c-0.9-3.6-3.3-6.6-6.7-8.6c-3.4-1.9-7.2-2.5-10.8-1.5c-3.5,1-6.5,3.3-8.4,6.6l-38.1,66.6c-1.9,3.3-2.5,7.1-1.5,10.6
		C338,122.6,340.3,125.6,343.7,127.5z"/>
</g>
</svg>
