<?xml version="1.0" encoding="utf-8"?>
<!-- Generator: Adobe Illustrator 23.0.1, SVG Export Plug-In . SVG Version: 6.00 Build 0)  -->
<svg version="1.1" id="Layer_1" xmlns="http://www.w3.org/2000/svg" xmlns:xlink="http://www.w3.org/1999/xlink" x="0px" y="0px"
	 viewBox="0 0 100 97" style="enable-background:new 0 0 100 97;" xml:space="preserve">
<path d="M95.16,46.25c-0.07-1.36-0.92-2.55-2.18-3.06L9.64,9.45c-1.36-0.55-2.93-0.19-3.91,0.9s-1.18,2.69-0.49,3.99l17.12,32.2
	l20.49-1.05c1.65-0.09,3.06,1.19,3.15,2.84c0.08,1.66-1.19,3.06-2.84,3.15l-20.07,1.03L8.98,87.21c-0.55,1.36-0.2,2.93,0.9,3.91
	c0,0,0,0,0,0c1.09,0.99,2.68,1.18,3.98,0.49l79.45-42.09C94.51,48.89,95.23,47.61,95.16,46.25z"/>
</svg>
