<?xml version="1.0" encoding="utf-8"?>
<!-- Generator: Adobe Illustrator 23.0.4, SVG Export Plug-In . SVG Version: 6.00 Build 0)  -->
<svg version="1.0" id="Layer_1" xmlns="http://www.w3.org/2000/svg" xmlns:xlink="http://www.w3.org/1999/xlink" x="0px" y="0px"
	 viewBox="0 0 507.4 507.4" style="enable-background:new 0 0 507.4 507.4;" xml:space="preserve">
<path d="M488.7,246.8H248.9v-32.7h84.2c16,0,29.2-13,29.2-29.1V28.7c0-16-13-29.1-29.2-29.1H72c-16,0-29.2,13-29.2,29.1V185
	c0,16,13,29.1,29.2,29.1h83.6v32.7H17.2C7.7,246.8,0,254.6,0,264c0,9.4,7.8,17.2,17.2,17.2h20.6v207.2c0,9.5,7.7,17.5,17,17.6
	c0.1,0,0.1,0,0.2,0c4.6,0,8.9-1.8,12.1-5c3.3-3.3,5.1-7.5,5.1-12.2V281.2h209.8v195.7c0,16,13,29.1,29.2,29.1h130.3
	c16,0,29.2-13,29.2-29.1V281.2h18c9.6,0,17.2-7.7,17.2-17.2C506,254.6,498.2,246.8,488.7,246.8z M316.5,317.2v-35.9h120.9v35.9
	H316.5z M437.5,430v42.2H316.6V430H437.5z M316.5,396.2v-44.7h120.9v44.7H316.5z M328.5,33.4v146.9H76.7V33.4H328.5z M189.5,214.1
	h25.6v32.7h-25.6V214.1z"/>
</svg>
