<?xml version="1.0" encoding="utf-8"?>
<!-- Generator: Adobe Illustrator 22.0.1, SVG Export Plug-In . SVG Version: 6.00 Build 0)  -->
<svg version="1.1"
	 id="Layer_1" xmlns:cc="http://creativecommons.org/ns#" xmlns:dc="http://purl.org/dc/elements/1.1/" xmlns:inkscape="http://www.inkscape.org/namespaces/inkscape" xmlns:rdf="http://www.w3.org/1999/02/22-rdf-syntax-ns#" xmlns:sodipodi="http://sodipodi.sourceforge.net/DTD/sodipodi-0.dtd" xmlns:svg="http://www.w3.org/2000/svg"
	 xmlns="http://www.w3.org/2000/svg" xmlns:xlink="http://www.w3.org/1999/xlink" x="0px" y="0px" viewBox="0 0 18.7 17.1"
	 style="enable-background:new 0 0 18.7 17.1;" xml:space="preserve">
<g>
	<path d="M10.1,15.1H2V2h8.1v3c0,0.6,0.4,1,1,1h0c0.6,0,1-0.4,1-1V1.7c0-0.9-0.8-1.7-1.7-1.7H1.7C0.7,0,0,0.7,0,1.7v13.8
		c0,0.9,0.8,1.7,1.7,1.7h8.7c0.9,0,1.7-0.7,1.7-1.7V13c0-0.6-0.4-1-1-1h0c-0.6,0-1,0.4-1,1V15.1z"/>
	<path d="M13.9,5.7L13.9,5.7c-0.4,0.4-0.4,1,0,1.4l0.9,0.9H8.8c-0.6,0-1,0.4-1,1v0c0,0.6,0.4,1,1,1h6.1L13.9,11
		c-0.4,0.4-0.4,1,0,1.4l0,0c0.4,0.4,1,0.4,1.4,0l3.4-3.4l-3.4-3.4C15,5.3,14.3,5.3,13.9,5.7z"/>
</g>
</svg>
