<?xml version="1.0" encoding="utf-8"?>
<!-- Generator: Adobe Illustrator 22.0.1, SVG Export Plug-In . SVG Version: 6.00 Build 0)  -->
<svg version="1.1" id="Layer_1" xmlns="http://www.w3.org/2000/svg" xmlns:xlink="http://www.w3.org/1999/xlink" x="0px" y="0px"
	 viewBox="0 0 100 100" style="enable-background:new 0 0 100 100;" xml:space="preserve">
<g>
	<g>
		<path d="M76,76c-17.4,17.4-45.7,17.4-63,0s-17.4-45.7,0-63s45.7-17.4,63,0S93.4,58.7,76,76z M26,26c-10.2,10.2-10.2,26.9,0,37.1
			s26.9,10.2,37.1,0s10.2-26.9,0-37.1S36.2,15.8,26,26z"/>
	</g>
	<g>
		<path d="M97.3,97.3c-3.6,3.6-9.4,3.6-13,0L63.1,76c-3.6-3.6-3.6-9.4,0-13c3.6-3.6,9.4-3.5,13,0l21.2,21.2
			C100.9,87.9,100.9,93.7,97.3,97.3z"/>
	</g>
</g>
</svg>
