<?xml version="1.0" encoding="utf-8"?>
<!-- Generator: Adobe Illustrator 23.0.4, SVG Export Plug-In . SVG Version: 6.00 Build 0)  -->
<svg version="1.0" id="Layer_1" xmlns="http://www.w3.org/2000/svg" xmlns:xlink="http://www.w3.org/1999/xlink" x="0px" y="0px"
	 viewBox="0 0 507.4 507.4" style="enable-background:new 0 0 507.4 507.4;" xml:space="preserve">
<style type="text/css">
	.st0{fill:#FFFFFF;}
</style>
<g>
	<path d="M463.4,83.2L244,82.8l32.8-31.9c3.2-3.2,4.9-7.3,4.9-11.7s-1.8-8.5-4.9-11.7c-3.1-3.1-7.2-4.8-11.7-4.8s-12.3,2.8-15.4,5.9
		L207.3,71l-66-66.2c-3.1-3.1-9.8-4-14.3-4s-7.9,2.3-11,5.4c-6.6,6.6-6.6,16.9,0,23.4l54.8,55l-126-1.4c-24.2,0-43.9,19.7-43.9,44.1
		v302.1c0,24.2,19.7,44.1,43.9,44.1H60v17c0,9.7,7,16.7,16.6,16.7h52.7c9.6,0,16.6-7,16.6-16.7v-17h181.9v17c0,9.7,7,16.7,16.6,16.7
		h52.7c9.6,0,16.6-7,16.6-16.7v-17h49.6c24.2,0,43.9-19.7,43.9-44.1V127.2C507.3,102.9,487.6,83.2,463.4,83.2z M112.6,481.5H93.3
		v-13.2h19.4v13.2H112.6z M379.6,481.9h-19.4v-13.6h19.4V481.9z M474,423.4c0,5.9-4.7,10.6-10.6,10.6H44.8
		c-5.8,0-10.6-4.8-10.6-10.6V127.2c0-5.9,4.8-10.6,10.6-10.6h418.6c5.8,0,10.6,4.8,10.6,10.6V423.4z"/>
	<path d="M439.5,369h-31c-9.6,0-16.6,7-16.6,16.7c0,9.7,7,16.7,16.6,16.7h31c9.6,0,16.6-7,16.6-16.7C456.2,376,449.2,369,439.5,369z
		"/>
	<path d="M439.5,320.7h-31c-9.6,0-16.6,7-16.6,16.7s7,16.7,16.6,16.7h31c9.6,0,16.6-7,16.6-16.7
		C456.2,327.8,449.2,320.7,439.5,320.7z"/>
	<path d="M351.7,410H88.1c-15.3,0-27.8-12.4-27.8-27.8V167.8c0-15.3,12.4-27.8,27.8-27.8h263.6c15.3,0,27.8,12.4,27.8,27.8v214.3
		C379.5,397.5,367.1,410,351.7,410z"/>
	<g>
		<path class="st0" d="M323.4,381.8h-207c-14.5,0-26.3-11.8-26.3-26.3V194.6c0-14.5,11.8-26.3,26.3-26.3h207
			c14.5,0,26.3,11.8,26.3,26.3v160.9C349.7,370,338,381.8,323.4,381.8z"/>
	</g>
</g>
</svg>
