<?xml version="1.0" encoding="utf-8"?>
<!-- Generator: Adobe Illustrator 23.0.4, SVG Export Plug-In . SVG Version: 6.00 Build 0)  -->
<svg version="1.0" id="Capa_1" xmlns="http://www.w3.org/2000/svg" xmlns:xlink="http://www.w3.org/1999/xlink" x="0px" y="0px"
	 viewBox="0 0 614.5 179.5" style="enable-background:new 0 0 614.5 179.5;" xml:space="preserve">
<style type="text/css">
	.st0{fill:#34A7DB;}
	.st1{fill:#FFFFFF;}
	.st2{fill:#4263C8;}
	.st3{fill:#5BD2E3;}
	.st4{fill:#2BCEFF;}
	.st5{fill:#3583D9;}
	.st6{fill:#00D3A3;}
</style>
<g>
	<g>
		<g>
			<g>
				<rect x="65.9" y="105.2" class="st0" width="73" height="74"/>
				<g>
					<g>
						<rect x="74.8" y="115.8" class="st1" width="8.1" height="8.3"/>
						<rect x="90.2" y="115.8" class="st1" width="8.1" height="8.3"/>
						<rect x="105.7" y="115.8" class="st1" width="8.1" height="8.3"/>
						<rect x="121.2" y="115.8" class="st1" width="8.1" height="8.3"/>
					</g>
					<g>
						<rect x="74.8" y="130.8" class="st1" width="8.1" height="8.3"/>
						<rect x="90.2" y="130.8" class="st1" width="8.1" height="8.3"/>
						<rect x="105.7" y="130.8" class="st1" width="8.1" height="8.3"/>
						<rect x="121.2" y="130.8" class="st1" width="8.1" height="8.3"/>
					</g>
					<g>
						<rect x="74.8" y="145.8" class="st1" width="8.1" height="8.3"/>
						<rect x="90.2" y="145.8" class="st1" width="8.1" height="8.3"/>
						<rect x="105.7" y="145.8" class="st1" width="8.1" height="8.3"/>
						<rect x="121.2" y="145.8" class="st1" width="8.1" height="8.3"/>
					</g>
					<g>
						<rect x="74.8" y="160.8" class="st1" width="8.1" height="8.3"/>
						<rect x="90.2" y="160.8" class="st1" width="8.1" height="8.3"/>
						<rect x="105.7" y="160.8" class="st1" width="8.1" height="8.3"/>
						<rect x="121.2" y="160.8" class="st1" width="8.1" height="8.3"/>
					</g>
				</g>
				<polygon class="st1" points="181.3,179.2 138.9,179.2 138.9,105.2 181.3,69.6 				"/>
				<polygon class="st2" points="181.3,69.6 138.9,105.2 65.9,105.2 108.3,69.6 				"/>
			</g>
			<g>
				<g>
					<g>
						<polygon class="st3" points="287.8,138.5 259.3,110.3 179.9,110.3 208.4,138.5 						"/>
						<polygon class="st0" points="208.4,138.5 179.9,110.3 151.3,138.5 						"/>
						<rect x="151.3" y="138.5" class="st0" width="57.1" height="40.9"/>
						<g>
							<rect x="160.2" y="146.6" class="st1" width="8.1" height="8.3"/>
							<rect x="175.6" y="146.6" class="st1" width="8.1" height="8.3"/>
							<rect x="191.1" y="146.6" class="st1" width="8.1" height="8.3"/>
							<rect x="160.2" y="161.6" class="st1" width="8.1" height="8.3"/>
							<rect x="175.6" y="161.6" class="st1" width="8.1" height="8.3"/>
							<rect x="191.1" y="161.6" class="st1" width="8.1" height="8.3"/>
						</g>
						<circle class="st1" cx="179.7" cy="133.1" r="4.4"/>
						<rect x="208.1" y="138.5" class="st1" width="79.8" height="40.9"/>
						<g>
							<g>
								<rect x="220.4" y="146.6" class="st3" width="52.7" height="8.3"/>
								<g>
									<rect x="235.9" y="146.6" class="st4" width="8.1" height="8.3"/>
								</g>
								<g>
									<rect x="251.3" y="146.6" class="st4" width="8.1" height="8.3"/>
								</g>
								<rect x="220.4" y="161.6" class="st3" width="51.1" height="8.3"/>
								<rect x="235.9" y="161.6" class="st3" width="8.1" height="8.3"/>
								<rect x="251.3" y="161.6" class="st3" width="8.1" height="8.3"/>
								<g>
									<rect x="267.1" y="146.6" class="st4" width="8.1" height="8.3"/>
								</g>
								<g>
									<rect x="267.1" y="161.6" class="st4" width="8.1" height="8.3"/>
								</g>
							</g>
						</g>
					</g>
				</g>
				<g>
					<g>
						<g>
							<rect x="296.2" y="135.9" class="st1" width="70.9" height="43.5"/>
							<rect x="253.8" y="135.9" class="st0" width="73" height="43.5"/>
							<rect x="296.2" y="129.8" class="st0" width="70.9" height="7.7"/>
							<rect x="253.8" y="129.8" class="st2" width="73" height="7.7"/>
							<g>
								<g>
									<rect x="262.7" y="146" class="st1" width="8.1" height="8.3"/>
									<rect x="278.2" y="146" class="st1" width="8.1" height="8.3"/>
									<rect x="293.6" y="146" class="st1" width="8.1" height="8.3"/>
									<rect x="309.1" y="146" class="st1" width="8.1" height="8.3"/>
								</g>
								<g>
									<rect x="262.7" y="160.9" class="st1" width="8.1" height="8.3"/>
									<rect x="278.2" y="160.9" class="st1" width="8.1" height="8.3"/>
									<rect x="293.6" y="160.9" class="st1" width="8.1" height="8.3"/>
									<rect x="309.1" y="160.9" class="st1" width="8.1" height="8.3"/>
								</g>
							</g>
						</g>
						<g>
							<rect x="335.4" y="146" class="st3" width="8.1" height="8.3"/>
							<rect x="350.8" y="146" class="st3" width="8.1" height="8.3"/>
							<rect x="335.4" y="160.9" class="st3" width="8.1" height="8.3"/>
							<rect x="350.8" y="160.9" class="st3" width="8.1" height="8.3"/>
						</g>
					</g>
					<g>
						<g>
							<rect x="311" y="101.8" class="st1" width="56.2" height="28.2"/>
							<rect x="283.8" y="101.8" class="st0" width="42.9" height="28.2"/>
							<rect x="311" y="95.7" class="st0" width="56.2" height="7.7"/>
							<rect x="283.8" y="95.7" class="st2" width="42.9" height="7.7"/>
							<g>
								<g>
									<rect x="292.9" y="111.6" class="st1" width="8.1" height="8.3"/>
									<rect x="308.4" y="111.6" class="st1" width="8.1" height="8.3"/>
								</g>
							</g>
						</g>
						<g>
							<rect x="335.4" y="111.6" class="st3" width="8.1" height="8.3"/>
							<rect x="350.8" y="111.6" class="st3" width="8.1" height="8.3"/>
						</g>
					</g>
				</g>
			</g>
		</g>
		<g>
			<g>
				<path class="st2" d="M0,179.5l3.9-5c3.5-4.4,8.7-6.9,14.3-6.9h10.3c5.6,0,10.9-2.6,14.4-7s8.8-7,14.4-7h25l-0.7,26H0z"/>
				<path class="st2" d="M80.8,179.5l1.2-26h13.8c6.7,0,13,2.6,17.7,7.3c6.2,6.2,12.4,12.4,18.6,18.6H80.8z"/>
				<rect x="25" y="135.9" class="st2" width="4.1" height="36.7"/>
				<path class="st2" d="M24.3,155.4H30c4.5,0,8.2-3.7,8.2-8.2v-21.6c0-4.5-3.7-8.2-8.2-8.2h-5.7c-4.5,0-8.2,3.7-8.2,8.2v21.6
					C16.1,151.7,19.8,155.4,24.3,155.4z"/>
			</g>
		</g>
	</g>
	<g>
		<g>
			<g>
				<rect x="493.6" y="81" class="st1" width="62.1" height="83.5"/>
				<rect x="493.4" y="81" class="st0" width="24.4" height="83.5"/>
				<rect x="493.6" y="75.3" class="st0" width="62.1" height="7.2"/>
				<rect x="493.4" y="75.3" class="st2" width="24.4" height="7.2"/>
				<g>
					<g>
						<rect x="501.3" y="90.4" class="st1" width="7.6" height="7.7"/>
					</g>
					<g>
						<rect x="501.3" y="104.5" class="st1" width="7.6" height="7.7"/>
					</g>
				</g>
			</g>
			<g>
				<g>
					<g>
						<rect x="525.9" y="90.4" class="st4" width="7.6" height="7.7"/>
					</g>
					<g>
						<rect x="540.4" y="90.4" class="st4" width="7.6" height="7.7"/>
					</g>
					<g>
						<rect x="525.9" y="104.5" class="st4" width="7.6" height="7.7"/>
					</g>
					<g>
						<rect x="540.4" y="104.5" class="st4" width="7.6" height="7.7"/>
					</g>
				</g>
			</g>
			<g>
				<g>
					<g>
						<rect x="525.9" y="119" class="st4" width="7.6" height="7.7"/>
					</g>
					<g>
						<rect x="540.4" y="119" class="st4" width="7.6" height="7.7"/>
					</g>
					<g>
						<rect x="526" y="133.2" class="st4" width="8" height="8.1"/>
					</g>
					<g>
						<rect x="540.5" y="133.2" class="st4" width="8" height="8.1"/>
					</g>
					<g>
						<rect x="526" y="147.5" class="st4" width="8" height="8.1"/>
					</g>
					<g>
						<rect x="540.5" y="147.5" class="st4" width="8" height="8.1"/>
					</g>
				</g>
			</g>
		</g>
		<path class="st2" d="M537.4,179.3l-0.7-25.5H560c5.2,0,10.2,2.4,13.4,6.5v0c3.2,4.1,8.2,6.5,13.4,6.5h9.6c5.2,0,10.2,2.4,13.4,6.5
			l4.6,5.9"/>
		<path class="st5" d="M467.9,111.5h14.3c3.6,0,7.1,1.3,9.8,3.7l2.6,2.3c2.7,2.4,6.2,3.7,9.8,3.7h3.3c4,0,7.7,1.6,10.5,4.4
			l11.2,11.2H466L467.9,111.5z"/>
		<g>
			<rect x="365.4" y="110.1" class="st0" width="68.3" height="69.2"/>
			<g>
				<g>
					<rect x="373.8" y="120" class="st1" width="7.6" height="7.7"/>
					<rect x="388.2" y="120" class="st1" width="7.6" height="7.7"/>
					<rect x="402.7" y="120" class="st1" width="7.6" height="7.7"/>
					<rect x="417.1" y="120" class="st1" width="7.6" height="7.7"/>
				</g>
				<g>
					<rect x="373.8" y="134" class="st1" width="7.6" height="7.7"/>
					<rect x="388.2" y="134" class="st1" width="7.6" height="7.7"/>
					<rect x="402.7" y="134" class="st1" width="7.6" height="7.7"/>
					<rect x="417.1" y="134" class="st1" width="7.6" height="7.7"/>
				</g>
				<g>
					<rect x="373.8" y="148.1" class="st1" width="7.6" height="7.7"/>
					<rect x="388.2" y="148.1" class="st1" width="7.6" height="7.7"/>
					<rect x="402.7" y="148.1" class="st1" width="7.6" height="7.7"/>
					<rect x="417.1" y="148.1" class="st1" width="7.6" height="7.7"/>
				</g>
				<g>
					<rect x="373.8" y="162.1" class="st1" width="7.6" height="7.7"/>
					<rect x="388.2" y="162.1" class="st1" width="7.6" height="7.7"/>
					<rect x="402.7" y="162.1" class="st1" width="7.6" height="7.7"/>
					<rect x="417.1" y="162.1" class="st1" width="7.6" height="7.7"/>
				</g>
			</g>
			<polygon class="st1" points="473.4,179.4 433.7,179.4 433.7,110.1 473.4,76.8 			"/>
			<polygon class="st2" points="473.4,76.8 433.7,110.1 365.4,110.1 405.1,76.8 			"/>
		</g>
		<g>
			<g>
				<rect x="482.3" y="138.7" class="st1" width="66.4" height="40.6"/>
				<rect x="442.6" y="138.7" class="st0" width="68.3" height="40.6"/>
				<rect x="482.3" y="133" class="st0" width="66.4" height="7.2"/>
				<rect x="442.6" y="133" class="st2" width="68.3" height="7.2"/>
				<g>
					<g>
						<rect x="451" y="148.1" class="st1" width="7.6" height="7.7"/>
						<rect x="465.4" y="148.1" class="st1" width="7.6" height="7.7"/>
						<rect x="479.9" y="148.1" class="st1" width="7.6" height="7.7"/>
						<rect x="494.4" y="148.1" class="st1" width="7.6" height="7.7"/>
					</g>
					<g>
						<rect x="451" y="162.2" class="st1" width="7.6" height="7.7"/>
						<rect x="465.4" y="162.2" class="st1" width="7.6" height="7.7"/>
						<rect x="479.9" y="162.2" class="st1" width="7.6" height="7.7"/>
						<rect x="494.4" y="162.2" class="st1" width="7.6" height="7.7"/>
					</g>
				</g>
			</g>
			<g>
				<g>
					<g>
						<rect x="518.9" y="148.1" class="st4" width="7.6" height="7.7"/>
					</g>
					<g>
						<rect x="533.4" y="148.1" class="st4" width="7.6" height="7.7"/>
					</g>
					<g>
						<rect x="518.9" y="162.2" class="st4" width="7.6" height="7.7"/>
					</g>
					<g>
						<rect x="533.4" y="162.2" class="st4" width="7.6" height="7.7"/>
					</g>
				</g>
			</g>
		</g>
		<g>
			<rect x="443.1" y="119.1" class="st3" width="7.6" height="7.7"/>
			<rect x="457.5" y="119.1" class="st3" width="7.6" height="7.7"/>
		</g>
	</g>
</g>
<g>
	<g>
		<g>
			<path class="st6" d="M386.3,61.6c0-0.5,0.3-1.1,0.6-1.4l5.6-5.6c0.3-0.3,0.2-0.6-0.2-0.6l-5,0c-0.4,0-0.8-0.4-0.8-0.8l0-4.3
				c0-0.5,0.4-0.8,0.8-0.8l15-0.1c0.4,0,0.8,0.4,0.8,0.8l0,3.6c0,0.5-0.3,1.1-0.6,1.4l-6.2,6c-0.3,0.3-0.2,0.6,0.2,0.6l6-0.1
				c0.4,0,0.8,0.4,0.8,0.8l0,4.3c0,0.5-0.4,0.8-0.8,0.8l-15.4,0.1c-0.4,0-0.8-0.4-0.8-0.8L386.3,61.6z"/>
		</g>
	</g>
	<g>
		<g>
			<path class="st6" d="M410.1,45c0-0.5,0.3-1.1,0.6-1.4l8.1-8.1c0.3-0.3,0.2-0.6-0.2-0.6l-7.4,0.1c-0.4,0-0.8-0.4-0.8-0.8l-0.1-6.4
				c0-0.5,0.4-0.8,0.8-0.8l21-0.2c0.4,0,0.8,0.4,0.8,0.8l0.1,5.4c0,0.5-0.3,1.1-0.6,1.4l-8.8,8.6c-0.3,0.3-0.2,0.6,0.2,0.6l8.7-0.1
				c0.4,0,0.8,0.4,0.8,0.8l0.1,6.4c0,0.5-0.4,0.8-0.8,0.8l-21.5,0.2c-0.4,0-0.8-0.4-0.8-0.8L410.1,45L410.1,45z"/>
		</g>
	</g>
	<g>
		<g>
			<path class="st6" d="M444.5,28.9c0-0.5,0.3-1.1,0.6-1.4l13.7-13.7c0.3-0.3,0.2-0.6-0.2-0.6l-13,0.1c-0.4,0-0.8-0.4-0.8-0.8
				l-0.1-11.4c0-0.5,0.4-0.8,0.8-0.8L480.2,0c0.4,0,0.8,0.4,0.8,0.8l0.1,9.8c0,0.5-0.3,1.1-0.6,1.4l-14.9,14.6
				c-0.3,0.3-0.2,0.6,0.2,0.6l15-0.1c0.4,0,0.8,0.4,0.8,0.8l0.1,11.4c0,0.5-0.4,0.8-0.8,0.8l-35.6,0.3c-0.4,0-0.8-0.4-0.8-0.8
				L444.5,28.9z"/>
		</g>
	</g>
</g>
<g>
	<g>
		<g>
			<path class="st6" d="M136.8,49.2c0-0.5,0.3-1.1,0.6-1.4l5.6-5.6c0.3-0.3,0.2-0.6-0.2-0.6l-5,0c-0.4,0-0.8-0.4-0.8-0.8l0-4.3
				c0-0.5,0.4-0.8,0.8-0.8l15-0.1c0.4,0,0.8,0.4,0.8,0.8l0,3.6c0,0.5-0.3,1.1-0.6,1.4l-6.2,6c-0.3,0.3-0.2,0.6,0.2,0.6l6-0.1
				c0.4,0,0.8,0.4,0.8,0.8l0,4.3c0,0.5-0.4,0.8-0.8,0.8L137.7,54c-0.4,0-0.8-0.4-0.8-0.8L136.8,49.2z"/>
		</g>
	</g>
	<g>
		<g>
			<path class="st6" d="M160.6,19.2c0-0.5,0.3-1.1,0.6-1.4l8.1-8.1c0.3-0.3,0.2-0.6-0.2-0.6l-7.4,0.1c-0.4,0-0.8-0.4-0.8-0.8
				L160.6,2c0-0.5,0.4-0.8,0.8-0.8l21-0.2c0.4,0,0.8,0.4,0.8,0.8l0.1,5.4c0,0.5-0.3,1.1-0.6,1.4l-8.8,8.6c-0.3,0.3-0.2,0.6,0.2,0.6
				l8.7-0.1c0.4,0,0.8,0.4,0.8,0.8l0.1,6.4c0,0.5-0.4,0.8-0.8,0.8L161.4,26c-0.4,0-0.8-0.4-0.8-0.8L160.6,19.2L160.6,19.2z"/>
		</g>
	</g>
</g>
<g>
	<g>
		<g>
			<path class="st6" d="M260.9,91.8c0-0.2,0.2-0.6,0.3-0.7l3.1-2.9c0.2-0.2,0.1-0.3-0.1-0.3l-2.7-0.1c-0.2,0-0.4-0.2-0.4-0.4l0-2.3
				c0-0.2,0.2-0.4,0.4-0.4l8,0.2c0.2,0,0.4,0.2,0.4,0.4l0,1.9c0,0.2-0.2,0.6-0.3,0.7l-3.4,3.1c-0.2,0.2-0.1,0.3,0.1,0.3l3.2,0.1
				c0.2,0,0.4,0.2,0.4,0.4l0,2.3c0,0.2-0.2,0.4-0.4,0.4l-8.2-0.2c-0.2,0-0.4-0.2-0.4-0.4L260.9,91.8z"/>
		</g>
	</g>
	<g>
		<g>
			<path class="st6" d="M245.9,75.3c0-0.2,0.2-0.6,0.3-0.7l4.4-4.2c0.2-0.2,0.1-0.3-0.1-0.3l-4-0.1c-0.2,0-0.4-0.2-0.4-0.4l0.1-3.4
				c0-0.2,0.2-0.4,0.4-0.4l11.2,0.2c0.2,0,0.4,0.2,0.4,0.4l-0.1,2.9c0,0.2-0.2,0.6-0.3,0.7l-4.8,4.4c-0.2,0.2-0.1,0.3,0.1,0.3
				l4.6,0.1c0.2,0,0.4,0.2,0.4,0.4l-0.1,3.4c0,0.2-0.2,0.4-0.4,0.4l-11.4-0.2c-0.2,0-0.4-0.2-0.4-0.4L245.9,75.3L245.9,75.3z"/>
		</g>
	</g>
	<g>
		<g>
			<path class="st6" d="M226.2,54.4c0-0.2,0.2-0.6,0.3-0.7l7.5-7.1c0.2-0.2,0.1-0.3-0.1-0.3l-6.9-0.1c-0.2,0-0.4-0.2-0.4-0.4
				l0.1-6.1c0-0.2,0.2-0.4,0.4-0.4l18.5,0.4c0.2,0,0.4,0.2,0.4,0.4l-0.1,5.2c0,0.2-0.2,0.6-0.3,0.7l-8.2,7.5
				c-0.2,0.2-0.1,0.3,0.1,0.3l8,0.2c0.2,0,0.4,0.2,0.4,0.4l-0.1,6.1c0,0.2-0.2,0.4-0.4,0.4l-19-0.4c-0.2,0-0.4-0.2-0.4-0.4
				L226.2,54.4z"/>
		</g>
	</g>
</g>
</svg>
