<?xml version="1.0" encoding="utf-8"?>
<!-- Generator: Adobe Illustrator 23.0.4, SVG Export Plug-In . SVG Version: 6.00 Build 0)  -->
<svg version="1.0" id="Layer_1" xmlns="http://www.w3.org/2000/svg" xmlns:xlink="http://www.w3.org/1999/xlink" x="0px" y="0px"
	 viewBox="0 0 507.4 507.4" style="enable-background:new 0 0 507.4 507.4;" xml:space="preserve">
<g>
	<path d="M135.5,65.3c-10.6,0-19.3,8.7-19.3,19.3v32.6c0,10.6,8.7,19.3,19.3,19.3s19.3-8.7,19.3-19.3V84.6
		C154.8,74,146.2,65.3,135.5,65.3z"/>
	<path d="M135.5,299.6c10.6,0,19.3-8.7,19.3-19.3v-32.6c0-10.6-8.7-19.3-19.3-19.3s-19.3,8.7-19.3,19.3v32.6
		C116.3,290.9,124.9,299.6,135.5,299.6z"/>
	<path d="M441,16.8C431.6,6,418.6,0.1,404.2,0.1h-82.1l0,0c-0.5,0-1.1,0-1.6,0H102.9c-14.4,0-27.4,6-36.8,16.7
		c-9.8,11.3-15,27.3-15,46v370.8c0,11.7,13.8,29.7,32.6,37.3V488c0,10.6,8.7,19.3,19.3,19.3s19.3-8.7,19.3-19.3v-13.4h179v13.3
		c0,10.6,8.7,19.3,19.3,19.3c10.6,0,19.3-8.7,19.3-19.3v-13.3h45.2v13.3c0,10.6,8.7,19.3,19.3,19.3c10.6,0,19.3-8.7,19.3-19.3v-17.1
		c18.8-7.6,32.6-25.6,32.6-37.3V62.8C456.1,44.1,450.8,28.1,441,16.8z M89.6,52c0-7.4,6-13.3,13.3-13.3h217.6
		c7.4,0,13.3,6,13.3,13.3v111.2H89.6V52z M333.8,201.7v221.1c0,7.4-6,13.3-13.3,13.3H102.9c-7.4,0-13.3-6-13.3-13.3V201.7H333.8z
		 M369,38.6h35.2c7.4,0,13.3,6,13.3,13.3v111.3h-45.2V62.8C372.4,54.3,371.2,46.1,369,38.6z M417.5,201.7v221.1
		c0,7.4-6,13.3-13.3,13.3h-32c0.1-0.8,0.2-1.7,0.2-2.5V201.7H417.5z"/>
</g>
</svg>
