<?xml version="1.0" encoding="utf-8"?>
<!-- Generator: Adobe Illustrator 23.0.4, SVG Export Plug-In . SVG Version: 6.00 Build 0)  -->
<svg version="1.0" id="Layer_1" xmlns="http://www.w3.org/2000/svg" xmlns:xlink="http://www.w3.org/1999/xlink" x="0px" y="0px"
	 viewBox="0 0 507.4 507.4" style="enable-background:new 0 0 507.4 507.4;" xml:space="preserve">
<g>
	<path d="M333.4,93.1h-29.8c-9.5,0-17.3,7.7-17.3,17.3c0,9.5,7.7,17.3,17.3,17.3h29.9c9.5,0,17.3-7.7,17.3-17.3
		C350.8,100.9,342.9,93.1,333.4,93.1z"/>
	<path d="M303.6,261.9h29.9c9.5,0,17.3-7.7,17.3-17.3c0-9.5-7.7-17.3-17.3-17.3h-29.9c-9.5,0-17.3,7.7-17.3,17.3
		C286.4,254.2,294.1,261.9,303.6,261.9z"/>
	<path d="M303.6,396.3h29.9c9.5,0,17.3-7.7,17.3-17.3c0-9.5-7.7-17.3-17.3-17.3h-29.9c-9.5,0-17.3,7.7-17.3,17.3
		C286.4,388.5,294.1,396.3,303.6,396.3z"/>
	<path d="M154.2,93.1h-29.8c-9.5,0-17.3,7.7-17.3,17.3c0,9.5,7.7,17.3,17.3,17.3h29.9c9.5,0,17.3-7.7,17.3-17.3
		C171.5,100.9,163.7,93.1,154.2,93.1z"/>
	<path d="M124.4,261.9h29.9c9.5,0,17.3-7.7,17.3-17.3c0-9.5-7.7-17.3-17.3-17.3h-29.9c-9.5,0-17.3,7.7-17.3,17.3
		C107.1,254.2,114.9,261.9,124.4,261.9z"/>
	<path d="M124.4,396.3h29.9c9.5,0,17.3-7.7,17.3-17.3c0-9.5-7.7-17.3-17.3-17.3h-29.9c-9.5,0-17.3,7.7-17.3,17.3
		C107.1,388.5,114.9,396.3,124.4,396.3z"/>
	<path d="M459.4,0.2H47.8C21.4,0.2,0,21.6,0,48V415c0,26.4,21.4,47.8,47.8,47.8h25.6l0.1,27.4c0,9.5,7.7,17.3,17.3,17.3
		s17.3-7.7,17.3-17.3l-0.1-27.4h32l0.1,26.7c0,9.5,7.7,17.3,17.3,17.3c9.5,0,17.3-7.7,17.3-17.3l-0.1-26.7h162.6l0.1,27.4
		c0,9.5,7.7,17.3,17.3,17.3s17.3-7.7,17.3-17.3l-0.1-27.4h44.4l0.1,27.4c0,9.5,7.7,17.3,17.3,17.3c9.5,0,17-7.8,17-17.3l-0.1-27.4
		h9.2c26.4,0,47.8-21.4,47.8-47.8V48C507.3,21.6,485.8,0.2,459.4,0.2z M404.3,415c0,7.4-6,13.5-13.5,13.5h-343
		c-7.4,0-13.5-6-13.5-13.5v-86.5h370V415z M404.4,294.2h-370v-100h370V294.2z M404.4,159.8h-370V48c0-7.4,6-13.5,13.5-13.5H391
		c7.4,0,13.4,6,13.4,13.5V159.8z M472.9,415c0,7.4-6,13.5-13.5,13.5h-22.6c1.2-4.4,1.9-9,1.9-13.5V48c0-4.5-0.7-9.1-1.9-13.5h22.6
		c7.4,0,13.5,6,13.5,13.5V415z"/>
</g>
</svg>
