<?xml version="1.0" encoding="utf-8"?>
<!-- Generator: Adobe Illustrator 23.0.4, SVG Export Plug-In . SVG Version: 6.00 Build 0)  -->
<svg version="1.0" id="Layer_1" xmlns="http://www.w3.org/2000/svg" xmlns:xlink="http://www.w3.org/1999/xlink" x="0px" y="0px"
	 viewBox="0 0 507.4 507.4" style="enable-background:new 0 0 507.4 507.4;" xml:space="preserve">
<path d="M49,498.8L49,498.8l27-40.3l0.4,0l278.3,28.9l1.7,0c1.2,0.1,2.2,0.1,3.2,0l5.5,0c24.6,0,48.6-8.5,67.5-24l2.2-1.8l0.4,0.4
	l39.7,39.5c7.4,7.4,19.6,7.4,27,0c3.6-3.6,5.5-8.3,5.5-13.4c0-5.1-2-9.8-5.6-13.4l-42.8-42.4l1.1-2.1c12.6-24,15.5-51.5,8.3-77.5
	c-7.6-27.5-25.4-50.4-50.2-64.5c-16.2-9.2-34.6-14.1-53.2-14.1h-7.7l-0.7-2.3L303.7,96.3c-2.4-7.9-9.8-13.4-18-13.4h-58.7V19.1
	c0-10.5-8.6-19.1-19.1-19.1c-10.5,0-19,8.6-19.1,19.1v82.7c0,10.5,8.6,19.1,19.1,19.1h63.3l0.1,0.5l47.1,156.4l-0.8,0.1L91.5,301.2
	v-66.4H129c10.5,0,19.1-8.5,19.1-19c0-10.5-8.6-19.1-19.1-19.1H47.1c-10.5,0-19.1,8.5-19.1,19.1c0,10.5,8.6,19,19.1,19h6.2v69.9
	l-2.1,0.8c-18.3,6.6-33.3,19.8-42.4,37c-9.7,18.5-11.7,39.6-5.4,59.5c5.4,17.4,16.9,32.4,32.2,42.2l2.7,1.8l-0.4,0.5l-20.7,31.2
	c-2.9,4.3-3.9,9.4-2.9,14.4c1,5,3.8,9.3,8.1,12.1c4.1,2.7,9.8,3.8,14.4,2.9C41.9,505.9,46.2,503.1,49,498.8z M365.2,311.8
	c38.1,0,69.1,30.9,69.1,68.8c-0.1,38-31.1,68.8-69.1,68.8c-38.1,0-69.1-30.9-69.1-68.8C296.2,342.7,327.1,311.8,365.2,311.8z
	 M145.3,338.4l-2.6-4.3l1-0.1l132.6-13.8l-3.4,5.5c-20.6,33.9-20.6,76.1,0,110l3.4,5.5l-1.3-0.1l-135.2-14.1l3.1-4.4
	C160.2,397.6,161.2,364.5,145.3,338.4z M38.2,378.6c0-22,18-39.9,40.1-39.9c10.7,0,20.8,4.2,28.4,11.8c7.5,7.5,11.7,17.5,11.6,28.2
	c0.1,10.5-4,20.5-11.5,28.1c-7.6,7.6-17.7,11.8-28.5,11.8C56.1,418.6,38.2,400.7,38.2,378.6z"/>
</svg>
