<?xml version="1.0" encoding="utf-8"?>
<!-- Generator: Adobe Illustrator 23.0.4, SVG Export Plug-In . SVG Version: 6.00 Build 0)  -->
<svg version="1.0" id="Layer_1" xmlns="http://www.w3.org/2000/svg" xmlns:xlink="http://www.w3.org/1999/xlink" x="0px" y="0px"
	 viewBox="0 0 507.4 507.4" style="enable-background:new 0 0 507.4 507.4;" xml:space="preserve">
<path d="M507.2,256.3v-3c0-53.2-17.3-106-48.8-148.9c-0.9-1.9-2.2-3.6-3.4-4.6c-30.1-39.4-70.7-68.9-117-85.1
	c-1.5-0.9-3.2-1.5-4.5-1.7C282.2-4,225.9-4,175.2,13c-1.8,0.3-3.5,0.9-4.7,1.6C123.8,30.9,83.1,60.2,53.3,99
	c-1.6,1.4-2.9,3.2-3.6,4.7c-31.6,42.9-49,95.8-48.9,149.1l0,2.8c-0.1,0.9-0.1,1.9,0,2.3c1,50.2,16.9,98.4,45.6,139.2
	c0.7,1.3,1.5,2.5,2.3,3.3c47.3,65.9,124.1,105.2,205.5,105.2c0,0,0,0,0,0c52.8,0,103.5-16.2,146.5-47c22.3-16,41.8-35.3,57.9-57.6
	c0.9-0.8,1.8-1.7,2.8-2.9c29-41.1,44.9-89.3,45.9-139.1C507.2,258.1,507.2,257.1,507.2,256.3z M469.9,220.4L439,198
	c-3-2.1-4.2-5.9-3.1-9.4l11.8-36.9c0.5-1.5,2.6-1.7,3.3-0.3c10.8,21,18.2,44,21.7,67.3C472.9,220.2,471.1,221.3,469.9,220.4z
	 M154,450.8c-21-10.8-40.5-25.1-57.1-41.9c-1.1-1.1-0.3-3,1.3-3h37.9c4,0,7.5,2.5,8.6,6.3l11.7,36.5
	C157,450.2,155.4,451.5,154,450.8z M335.8,211.5l-60.9-43.7c-3.1-2.2-5-5.8-5-9.6V97.6c0-3.8,1.8-7.4,4.9-9.6l52.2-38
	c3.3-2.4,7.8-3,11.6-1.4c32.2,13.4,60.8,34.1,83.4,60.6c2.7,3.1,3.4,7.4,2.2,11.3l-20.4,63.2c-1,3.2-3.4,5.9-6.6,7.2l-49.7,21.8
	C343.8,214.4,339.3,214,335.8,211.5z M176,388.9l29.8-35.7c2.1-2.5,5.1-3.9,8.4-3.9h79.6c3.2,0,6.3,1.4,8.4,3.9l29.8,35.7
	c2.4,2.8,3.1,6.6,2,10.1l-19.9,62.3c-1.1,3.5-4,6.3-7.6,7.2c-34.4,8.5-70.4,8.5-104.8,0c-3.6-0.9-6.5-3.7-7.6-7.2l-20-62.4
	C172.9,395.6,173.6,391.7,176,388.9z M210.5,309.4l-20.1-61.6c-1.6-4.8,0.2-10,4.2-13l52.4-37.9c4.1-3,9.7-3,13.8,0l52.3,38
	c4.1,3,5.8,8.2,4.2,13l-20.1,61.6c-1.6,4.8-6.1,8.1-11.2,8.1l-64.5-0.1C216.6,317.4,212.1,314.2,210.5,309.4z M218.9,34.4
	c23.1-3.8,47.1-3.9,70.2,0c1.5,0.3,2,2.2,0.7,3.2L260,59.3c-3.5,2.6-8.3,2.6-11.9,0l-30-21.7C216.9,36.7,217.3,34.7,218.9,34.4z
	 M101.3,221.4l49.8,21.9c3.1,1.3,5.4,3.9,6.4,7.1l23.8,73.4c1.2,3.8,0.4,7.9-2.1,11l-28.8,34.9c-2.2,2.7-5.6,4.3-9.1,4.3H76.2
	c-4.1,0-7.9-2-10-5.5c-18.3-29.9-29.3-63.7-31.9-98.7c-0.3-4,1.6-7.8,4.8-10.1l50.5-37C93,220.2,97.5,219.7,101.3,221.4z M233,168
	l-59.9,43.4c-3.6,2.6-8.2,3.1-12.3,1.3l-49.4-21.7c-3.2-1.4-5.6-4.1-6.7-7.4l-20.9-62.8c-1.3-4-0.6-8.5,2.2-11.7
	c22.6-26.3,51.1-47,83.1-60.3c3.9-1.6,8.5-1,11.9,1.5l52,37.7c3.2,2.3,5.1,6,5.1,9.9v60.3C238.1,162,236.2,165.7,233,168z
	 M356.7,243.4l49.3-21.7c4-1.8,8.7-1.3,12.2,1.3l50.1,36.7c3.3,2.5,5.3,6.4,5,10.6c-2.6,34.8-13.5,68.4-31.7,98.2
	c-2.2,3.6-6.2,5.7-10.4,5.7l-64.3-0.1c-3.6,0-7.1-1.6-9.4-4.4l-28.9-34.5c-2.7-3.2-3.5-7.5-2.2-11.5l23.6-72.9
	C351,247.5,353.5,244.8,356.7,243.4z M69,198.6l-30.7,21.9c-1.3,0.9-3-0.2-2.8-1.7c3.6-23.2,11-46,21.7-66.9
	c0.7-1.4,2.8-1.2,3.3,0.3l11.8,36.8C73.3,192.6,72,196.5,69,198.6z M411.7,408c-16.6,16.8-36,31.1-56.9,41.9c-1.4,0.7-3-0.6-2.5-2.1
	l11.8-37c1.1-3.4,4.3-5.7,7.9-5.7l38.4,0C411.9,405.1,412.7,406.9,411.7,408z"/>
</svg>
