<?xml version="1.0" encoding="utf-8"?>
<!-- Generator: Adobe Illustrator 23.0.4, SVG Export Plug-In . SVG Version: 6.00 Build 0)  -->
<svg version="1.0" id="Layer_1" xmlns="http://www.w3.org/2000/svg" xmlns:xlink="http://www.w3.org/1999/xlink" x="0px" y="0px"
	 viewBox="0 0 507.4 507.4" style="enable-background:new 0 0 507.4 507.4;" xml:space="preserve">
<g>
	<path d="M493.1,81.8c-21.5,0-43.1,0-64.6,0c0-4.3,0.1-8.7,0.1-13c6.2-0.6,12.3-1.8,18.1-4.1c3.9-1.5,8.1-4,8.8-8.5
		c0.4-2.5-0.1-5.1-0.6-7.6c-2.4-12.1-4.5-24.3-6.7-36.4c-1.3-7.1-7.4-12.3-14.6-12.3H180.4c-7.3,0-13.5,5.4-14.6,12.3l-7.1,40.1
		c-0.8,4.3,0.4,8.7,3.2,12.2c2.8,3.3,7,5.3,11.4,5.3h10.8v11.8H14.7c-8.2,0-14.9,6.7-14.9,15v395.4c0,8.3,6.7,15,14.9,15h478.4
		c8.2,0,14.9-6.7,14.9-15V96.7C508,88.5,501.3,81.8,493.1,81.8z M398.8,70v11.8H213.9V70H398.8z M191.1,40.1l1.8-10.1h228.4
		l1.8,10.1H191.1z M478.2,111.7v365.6H29.5V111.7H478.2z"/>
	<path d="M71.2,456.3h362.7c8.2,0,14.9-6.7,14.9-15V238.5c0-8.3-6.7-15-14.9-15H71.2c-8.2,0-14.9,6.7-14.9,15v202.7
		C56.3,449.5,63,456.3,71.2,456.3z M419.2,253.4v172.8h-333V253.4H419.2z"/>
	<path d="M104.5,204.5h301.5c8.2,0,14.9-6.7,14.9-15c-0.1-8.2-6.9-14.9-15-14.9H104.5c-8.2,0-14.9,6.7-14.9,15
		C89.5,197.8,96.2,204.5,104.5,204.5z"/>
	<path d="M137.1,350.3c3.9,0,7.6-1.5,10.6-4.4l55.3-55.6c5.8-5.8,5.8-15.3,0-21.1c-5.6-5.7-15.4-5.7-21,0l-55.3,55.6
		c-2.8,2.8-4.4,6.6-4.4,10.6c0,4,1.5,7.7,4.4,10.6C129.4,348.7,133.2,350.3,137.1,350.3z"/>
	<path d="M162,375.2c0,4,1.5,7.8,4.3,10.6c2.8,2.8,6.6,4.4,10.6,4.4c3.9,0,7.6-1.5,10.6-4.4l80.4-80.8c5.8-5.8,5.8-15.3,0-21.1
		c-5.8-5.8-15.2-5.8-21,0l-80.4,80.8C163.6,367.5,162,371.2,162,375.2z"/>
	<circle cx="169.9" cy="141" r="15.3"/>
	<circle cx="222" cy="141" r="15.3"/>
	<circle cx="274.2" cy="141" r="15.3"/>
	<circle cx="326.4" cy="141" r="15.3"/>
</g>
</svg>
