<?xml version="1.0" encoding="utf-8"?>
<!-- Generator: Adobe Illustrator 23.0.1, SVG Export Plug-In . SVG Version: 6.00 Build 0)  -->
<svg version="1.1" id="Layer_1" xmlns="http://www.w3.org/2000/svg" xmlns:xlink="http://www.w3.org/1999/xlink" x="0px" y="0px"
	 viewBox="0 0 512 512" style="enable-background:new 0 0 512 512;" xml:space="preserve">
<style type="text/css">
	.st0{stroke:#000000;stroke-width:4;stroke-miterlimit:10;}
</style>
<g>
	<path class="st0" d="M390.5,22.5h-350c-8.28,0-15,6.72-15,25v437c0-1.72,6.72,5,15,5s15-6.72,15-15v-5h0.12v-30H55.5v-21h150v16.74
		c0.08,0.37,0.12,0.76,0.12,1.18v39.93c0.91,7.41,7.22,13.15,14.88,13.15c8.28,0,15-6.72,15-15v-56h140v56c0,8.28,6.72,15,15,15
		s15-6.72,15-5v-437C405.5,29.22,398.78,22.5,390.5,22.5z M175.5,52.5h30v96h-30V52.5z M85.5,148.5h-30v-96h30h30h30v96h-30H85.5z
		 M85.5,388.5h-30v-90h30V388.5z M145.5,388.5h-30v-90h30V388.5z M205.5,388.5h-30v-90h30c0,0,27.5,0,30,0h30v90h-30H205.5z
		 M115.5,268.5v-30h120v30H115.5z M250.5,208.5h-150c-8.28,0-15,6.72-15,15v45h-30v-90h260v90h-50v-45
		C265.5,215.22,258.78,208.5,250.5,208.5z M375.5,388.5h-80v-90h80V388.5z M375.5,268.5h-30v-90h30V268.5z M375.5,148.5h-140v-96
		h140V148.5z"/>
</g>
<g>
	<path class="st0" d="M471.5,22.5h-84.94v30h69.94v96h-69.94v150h69.94v90h-69.94v30h69.94v56c0,8.28,6.72,15,15,15s15-6.72,15-5
		v-437C486.5,29.22,479.78,22.5,471.5,22.5z M456.5,268.5h-50v-90h50V268.5z"/>
</g>
</svg>
