<?xml version="1.0" encoding="utf-8"?>
<!-- Generator: Adobe Illustrator 23.0.4, SVG Export Plug-In . SVG Version: 6.00 Build 0)  -->
<svg version="1.0" id="Layer_1" xmlns="http://www.w3.org/2000/svg" xmlns:xlink="http://www.w3.org/1999/xlink" x="0px" y="0px"
	 viewBox="0 0 507.4 507.4" style="enable-background:new 0 0 507.4 507.4;" xml:space="preserve">
<g>
	<path d="M368.4,374.3c10.3,0,18.7-8.4,18.7-18.8c0-10.4-8.4-18.8-18.7-18.8c-10.3,0-18.7,8.4-18.7,18.8
		C349.7,365.9,358.1,374.3,368.4,374.3z"/>
	<path d="M140.9,374.8c10.3,0,18.7-8.4,18.7-18.8c0-10.4-8.4-18.8-18.7-18.8c-10.3,0-18.7,8.4-18.7,18.8
		C122.2,366.3,130.6,374.8,140.9,374.8z"/>
	<path d="M495.8,196.7c-7.3-7.3-16.9-11.4-27.2-6.3V56.3c0-33.4-22.9-56.5-51.1-56.5H89.8c-28.2,0-51.1,23.1-51.1,56.5v134.1
		c-10.3-5-19.9-1-27.2,6.3c-7.3,7.4-11.3,17.1-11.3,27.5v22.1c0,21.4,17.3,38.8,38.6,38.9v103.4c0,28.3,22.9,51.4,51.1,51.4h2.6
		v33.8c0,18.4,16.7,33.4,37.3,33.4h20.7c20.6,0,37.3-15,37.3-33.4v-33.8h131.9v33.8c0,18.4,16.7,33.4,37.3,33.4h20.7
		c20.6,0,37.3-15,37.3-33.4v-33.8h2.6c28.2,0,51.1-23.1,51.1-51.4V285.3c21.3-0.1,38.6-17.5,38.6-38.9v-22.1
		C507.1,213.9,503.1,204.1,495.8,196.7z M468.6,251.8v-33c2.9,0.1,5.2,2.5,5.2,5.4v22.2C473.8,249.3,471.5,251.7,468.6,251.8z
		 M381.5,440.1v32.6c-0.6,0.4-2,1.1-4,1.1h-20.7c-2,0-3.4-0.6-4-1.1v-32.6H381.5z M154.3,440.1v32.6c-0.6,0.4-2,1.1-4,1.1h-20.7
		c-2,0-3.4-0.6-4-1.1v-32.6H154.3z M396.6,239.7c3.4-2.9,5.4-7,5.8-11.5c0.3-4.5-1.1-8.8-4-12.1c-2.9-3.4-6.9-5.5-11.3-5.8
		c-4.4-0.4-8.8,1.1-12.1,4l-75.6,65.2H163.2l46.1-39.8c3.4-2.9,5.4-7,5.8-11.4c0.3-4.5-1.1-8.8-4-12.2c-2.9-3.4-6.9-5.5-11.3-5.8
		c-4.4-0.4-8.8,1.1-12.2,4L112,279.5H71.9V123.7h363.3v155.7h-84.8L396.6,239.7z M435.2,313v75.7c0,9.9-8,17.9-17.8,17.9H89.8
		c-9.8,0-17.8-8-17.8-17.9V313H435.2z M435.2,51.2v39H71.9v-39c0-9.9,8-17.9,17.8-17.9h327.6C427.2,33.3,435.2,41.3,435.2,51.2z
		 M38.6,218.8v33c-2.9-0.1-5.2-2.5-5.2-5.4v-22.1C33.4,221.3,35.7,218.9,38.6,218.8z"/>
	<path d="M389.2,45.4H113.8c-9.2,0-16.7,7.5-16.7,16.7c0,9.2,7.5,16.8,16.7,16.8h275.4c9.2,0,16.7-7.5,16.7-16.8
		C405.9,52.9,398.4,45.4,389.2,45.4z"/>
</g>
</svg>
