<?xml version="1.0" encoding="utf-8"?>
<!-- Generator: Adobe Illustrator 23.0.4, SVG Export Plug-In . SVG Version: 6.00 Build 0)  -->
<svg version="1.1" id="Layer_1" xmlns="http://www.w3.org/2000/svg" xmlns:xlink="http://www.w3.org/1999/xlink" x="0px" y="0px"
	 viewBox="0 0 100 100" style="enable-background:new 0 0 100 100;" xml:space="preserve">
<g>
	<path d="M73.1,36.8v-9.5c0-1.4-1.2-2.6-2.6-2.6h-8.8c-1.4,0-2.6,1.1-2.6,2.6V33h-18v-5.7c0-1.4-1.2-2.6-2.6-2.6h-8.8
		c-1.4,0-2.6,1.1-2.6,2.6v9.5L7.8,69.3c-1.4,2.4-2.1,5.1-2.1,7.8V88c0,2.8,2.3,5.1,5.1,5.1h78.5c2.8,0,5.1-2.3,5.1-5.1V77.2
		c0-2.7-0.7-5.4-2.1-7.8L73.1,36.8z M39.8,70.8h-6.8c-0.5,0-0.9-0.4-0.9-0.9v-4.8c0-0.5,0.4-0.9,0.9-0.9h6.8c0.5,0,0.9,0.4,0.9,0.9
		v4.8C40.6,70.4,40.2,70.8,39.8,70.8z M39.8,60.8h-6.8c-0.5,0-0.9-0.4-0.9-0.9v-4.8c0-0.5,0.4-0.9,0.9-0.9h6.8
		c0.5,0,0.9,0.4,0.9,0.9V60C40.6,60.4,40.2,60.8,39.8,60.8z M39.8,50.9h-6.8c-0.5,0-0.9-0.4-0.9-0.9v-4.8c0-0.5,0.4-0.9,0.9-0.9h6.8
		c0.5,0,0.9,0.4,0.9,0.9V50C40.6,50.5,40.2,50.9,39.8,50.9z M53.5,70.8h-6.8c-0.5,0-0.9-0.4-0.9-0.9v-4.8c0-0.5,0.4-0.9,0.9-0.9h6.8
		c0.5,0,0.9,0.4,0.9,0.9v4.8C54.4,70.4,54,70.8,53.5,70.8z M53.5,60.8h-6.8c-0.5,0-0.9-0.4-0.9-0.9v-4.8c0-0.5,0.4-0.9,0.9-0.9h6.8
		c0.5,0,0.9,0.4,0.9,0.9V60C54.4,60.4,54,60.8,53.5,60.8z M53.5,50.9h-6.8c-0.5,0-0.9-0.4-0.9-0.9v-4.8c0-0.5,0.4-0.9,0.9-0.9h6.8
		c0.5,0,0.9,0.4,0.9,0.9V50C54.4,50.5,54,50.9,53.5,50.9z M67.3,70.8h-6.9c-0.5,0-0.9-0.4-0.9-0.9v-4.8c0-0.5,0.4-0.9,0.9-0.9h6.9
		c0.5,0,0.9,0.4,0.9,0.9v4.8C68.1,70.4,67.7,70.8,67.3,70.8z M67.3,60.8h-6.9c-0.5,0-0.9-0.4-0.9-0.9v-4.8c0-0.5,0.4-0.9,0.9-0.9
		h6.9c0.5,0,0.9,0.4,0.9,0.9V60C68.1,60.4,67.7,60.8,67.3,60.8z M67.3,50.9h-6.9c-0.5,0-0.9-0.4-0.9-0.9v-4.8c0-0.5,0.4-0.9,0.9-0.9
		h6.9c0.5,0,0.9,0.4,0.9,0.9V50C68.1,50.5,67.7,50.9,67.3,50.9z"/>
	<path d="M51,6.9C35,6.9,0.1,9.5,0.1,26v4.9c0,3.7,23.8,4.1,23.9,0c0.1-7,0.7-9.7,7.3-10.1H69c6.5,0.4,7.2,3.1,7.3,10.1
		c0,4.1,23.9,3.7,23.9,0V26C100.1,9.5,67,6.9,51,6.9z"/>
</g>
</svg>
