<?xml version="1.0" encoding="utf-8"?>
<!-- Generator: Adobe Illustrator 22.0.1, SVG Export Plug-In . SVG Version: 6.00 Build 0)  -->
<svg version="1.1" id="Layer_1" xmlns="http://www.w3.org/2000/svg" xmlns:xlink="http://www.w3.org/1999/xlink" x="0px" y="0px"
	 viewBox="0 0 100 100" style="enable-background:new 0 0 100 100;" xml:space="preserve">
<g transform="translate(0,-952.36218)">
	<g>
		<path d="M4.3,969.3c-1.6,0-2.9,1.3-2.9,2.9c0,0,0,0,0,0v60.2c0,1.6,1.3,2.9,2.9,3c1.6,0,2.9-1.3,3-2.9c0,0,0-0.1,0-0.1v-10.7h85.4
			v10.7c0,1.6,1.3,2.9,2.9,3c1.6,0,2.9-1.3,3-2.9c0,0,0-0.1,0-0.1v-42.7c0-1.6-1.2-2.9-2.9-3c0,0-0.1,0-0.1,0
			c-1.6,0-2.9,1.3-2.9,2.9c0,0,0,0,0,0v8.7H35.4v-6.1c0-4.1-3.4-7.5-7.5-7.5H7.3v-12.6C7.3,970.7,6,969.3,4.3,969.3
			C4.4,969.3,4.4,969.3,4.3,969.3z M7.3,990.7h20.6c1,0,1.7,0.7,1.7,1.7v6.1H7.3V990.7z M7.3,1004.3h85.4v11.7H7.3V1004.3z"/>
		<path d="M95.6,1036.9C95.6,1036.9,95.6,1036.9,95.6,1036.9c-1.2,0-2.3-0.5-3.1-1.3c-0.8-0.8-1.3-1.9-1.2-3.1v-9.2H8.7v9.3
			c0,2.4-2,4.3-4.4,4.3c0,0,0,0-0.1,0c-1.2,0-2.3-0.5-3.1-1.3c-0.8-0.8-1.3-1.9-1.2-3.1v-60.2c0-1.2,0.4-2.3,1.2-3.1
			c0.8-0.8,1.9-1.3,3.1-1.3l0,0l0.1,0c1.2,0,2.2,0.5,3,1.3c0.8,0.8,1.2,1.9,1.2,3.1l0,11.1h19.2c5,0,9,4,9,9v4.6h54.4v-7.3
			c0-1.2,0.4-2.3,1.2-3.1c0.8-0.8,1.9-1.3,3.1-1.3l0.2,0c1.2,0,2.2,0.5,3,1.3c0.8,0.8,1.2,1.9,1.2,3.1v42.8
			C100,1035,98,1036.9,95.6,1036.9z M5.8,1020.3h88.3v12.1c0,0.4,0.1,0.8,0.4,1.1c0.3,0.3,0.6,0.4,1,0.4c0.4,0,0.8-0.1,1-0.4
			c0.3-0.3,0.4-0.6,0.4-1v-42.8c0-0.4-0.1-0.8-0.4-1.1c-0.3-0.3-0.6-0.4-1-0.4c-0.4,0-0.8,0.2-1.1,0.4c-0.3,0.3-0.4,0.6-0.4,1v10.2
			H34v-7.6c0-3.3-2.8-6-6.1-6H5.8v-14.1c0-0.4-0.1-0.8-0.4-1.1c-0.3-0.3-0.6-0.4-1-0.4l-0.1-1.5l0,1.5c-0.4,0-0.8,0.2-1,0.4
			c-0.3,0.3-0.4,0.6-0.4,1l0,60.2c0,0.4,0.1,0.8,0.4,1.1c0.3,0.3,0.6,0.4,1,0.4c0.8,0,1.5-0.6,1.5-1.4V1020.3z M94.2,1017.4H5.8
			v-14.6h88.3V1017.4z M8.7,1014.5h82.5v-8.7H8.7V1014.5z M31.1,999.9H5.8v-10.7h22.1c1.8,0,3.2,1.3,3.2,3.1V999.9z M8.7,997h19.4
			v-4.6c0-0.1,0-0.2-0.2-0.2H8.7V997z"/>
	</g>
</g>
</svg>
