<?xml version="1.0" encoding="utf-8"?>
<!-- Generator: Adobe Illustrator 23.0.4, SVG Export Plug-In . SVG Version: 6.00 Build 0)  -->
<svg version="1.0" id="Layer_1" xmlns="http://www.w3.org/2000/svg" xmlns:xlink="http://www.w3.org/1999/xlink" x="0px" y="0px"
	 viewBox="0 0 507.4 507.4" style="enable-background:new 0 0 507.4 507.4;" xml:space="preserve">
<g>
	<path d="M506,227.6c0-11.4-9.2-20.7-20.6-20.7l-57.5,0v-2.7c0-16.1-13.1-29.2-29.2-29.2H30.3c-16.1,0-29.2,13.1-29.2,29.2v29.9
		c0,86.7,52,163.3,129.9,196.4H75.1C54,430.5,37,447.6,37,468.7v0c0,21.1,17.1,38.1,38.1,38.1h294.5c0.2,0,1.8,0,4.4,0
		c20.9-0.1,39-16.2,39.6-37c0.6-21.6-16.7-39.3-38.1-39.3h-77.7c18.1-7.7,35.2-18,50.5-30.4C458.7,380.6,506,328.9,506,227.6z
		 M427.9,238h46.8c-2.5,65.5-28.4,101.7-87.3,120.9C412.9,323.7,427.1,281.5,427.9,238z M214.5,416.4
		c-100.5,0-182.3-81.8-182.3-182.3v-28h364.5v28C396.8,334.7,315,416.4,214.5,416.4z M384.9,480.2H75.2c-1.2,0-2.1-1-2.1-2.1v-18.6
		c0-1.2,1-2.1,2.1-2.1h309.7c1.2,0,2.1,1,2.1,2.1V478C387,479.2,386.1,480.2,384.9,480.2z"/>
	<path d="M291,66.4c-4.7-14.8-8.7-27.7,0.2-44.1c5.1-8.6,2-16.6-3.7-20.1c-5.8-3.5-14.7-2.6-20,6c-15.6,25.5-9.3,45.5-3.2,64.9
		l0.4,1.4c5.7,18.1,11.1,35.2-4.5,61.2c-3.1,5-3.5,10.5-1,14.9c2.4,4.2,7.1,7,12.1,7c0,0,0.1,0,0.1,0c5.2,0,9.8-2.9,12.3-7.7
		C305.8,113.4,297.9,88.4,291,66.4z"/>
	<path d="M237.5,85.6l-2.4,0.7l0,0l0,0l0,0L237.5,85.6c-3.5-11.1-6.3-19.9-0.1-31.2c4.7-7.9,1.7-15.3-3.6-18.6
		c-5.4-3.3-13.7-2.5-18.5,5.4c-12.4,20.2-7.2,36.6-2.7,51.1l0.3,1.1c4.3,13.7,8,25.5-3.1,44.1c-2.9,4.6-3.2,9.6-0.8,13.8
		c2.2,4,6.7,6.6,11.4,6.6c4.8,0,9.1-2.7,11.5-7C249,122.1,242.9,102.7,237.5,85.6z"/>
	<path d="M185.1,94.6l-0.6-1.8l0,0c-2.7-8.7-4.3-15.2,0.3-23.7c4.7-7.9,1.7-15.4-3.8-18.7c-5.5-3.3-13.9-2.6-18.7,5.3
		c-11.2,18.3-6.6,32.9-2.5,45.9l0.3,0.9c3.7,11.9,6.7,21.3-2.5,36.7c-2.9,4.6-3.1,9.7-0.7,14c2.3,4,6.8,6.7,11.6,6.7
		c4.9,0,9.2-2.7,11.6-7C195.3,127,189.9,109.8,185.1,94.6z"/>
	<path d="M158.5,347.6c-31.4-16.7-55.9-45.6-67.1-79.2c-3-9.1-12-11.7-18.9-9.6c-6.7,2.1-12.5,9.1-9.3,19.7
		c13.7,40.7,43.5,75.6,81.8,95.7c3.1,1.8,6.3,2.6,9.3,2.6c2.7,0,5.4-0.7,7.7-2.2c4.5-2.8,7.1-7.8,6.8-13.1
		C168.5,355.7,164.7,350.5,158.5,347.6z"/>
</g>
</svg>
