<?xml version="1.0" encoding="utf-8"?>
<!-- Generator: Adobe Illustrator 23.0.4, SVG Export Plug-In . SVG Version: 6.00 Build 0)  -->
<svg version="1.0" id="Layer_1" xmlns="http://www.w3.org/2000/svg" xmlns:xlink="http://www.w3.org/1999/xlink" x="0px" y="0px"
	 viewBox="0 0 507.4 507.4" style="enable-background:new 0 0 507.4 507.4;" xml:space="preserve">
<g>
	<path d="M461.8,328.2H333.6V140.1c10.3-5.7,16.6-16.3,16.6-28c0-17.7-14.6-32.1-32.5-32.1c-17.9,0-32.5,14.4-32.5,32.1
		c0,11.8,6.3,22.4,16.6,28v188.1H44.1c-24.5,0-44.5,19.7-44.5,43.9v91.5c0,24.2,20,43.9,44.5,43.9h417.7c24.5,0,44.5-19.7,44.5-43.9
		v-91.5C506.3,347.9,486.3,328.2,461.8,328.2z M474.4,463.5c0,6.9-5.7,12.4-12.6,12.4H44.1c-7,0-12.6-5.6-12.6-12.4V372
		c0-6.9,5.7-12.4,12.6-12.4h417.7c7,0,12.6,5.6,12.6,12.4V463.5z"/>
	<path d="M400.3,373c-24,0-43.5,19.3-43.5,43.1c0,23.7,19.5,43.1,43.5,43.1s43.5-19.3,43.5-43.1C443.7,392.3,424.2,373,400.3,373z
		 M400.3,428.9c-7.2,0-13-5.8-13-12.9c0-7.1,5.8-12.9,13-12.9c7.2,0,13,5.8,13,12.9C413.2,423.1,407.4,428.9,400.3,428.9z"/>
	<path d="M287.1,373c-24,0-43.5,19.3-43.5,43.1c0,23.7,19.5,43.1,43.5,43.1c24,0,43.5-19.3,43.5-43.1
		C330.6,392.3,311.1,373,287.1,373z M287.1,428.9c-7.2,0-13-5.8-13-12.9c0-7.1,5.8-12.9,13-12.9c7.2,0,13,5.8,13,12.9
		C300.1,423.1,294.3,428.9,287.1,428.9z"/>
	<path d="M177.8,223c2.7,3,6.7,4.8,11.2,4.9c4,0,7.7-1.5,10.7-4.3c5.7-5.6,5.9-14.6,0.6-20.6c-22.2-24.1-34.8-55.5-35.5-88.3
		c-0.8-32.7,10.3-64.6,31.1-89.7c5-5.9,4.5-14.6-1-20.1c-3-2.9-7-4.5-11.3-4.3c-4.1,0.2-8.1,2.1-10.9,5.4
		c-25.5,30.5-39,69.3-38.1,109.2C135.4,155.3,150.8,193.6,177.8,223z"/>
	<path d="M210,200.6c7.8,8.6,20.4,4.8,26.6-3.6c1.3-1.7,2.3-3.7,2.4-5.8c0.2-2.9-1.4-5.6-3.4-7.8c-7.3-8.1-13.7-15.6-18.6-25.5
		c-6.5-13-10.2-27.4-10.8-41.9c-1.1-24.7,6.9-49.3,22.2-68.8c4.7-5.9,4.2-14.4-1.3-19.8c-3.1-3.1-7.3-4.6-11.6-4.3
		c-4.2,0.3-8.3,2.4-10.8,5.7c-19.3,24.5-29.5,55.2-28.6,86.5C177,146.8,189,177.1,210,200.6z"/>
	<path d="M241.5,178.6c4.6,5.3,13.3,5.7,19.3,2.7c2.5-1.2,4.6-3.2,5.8-5.7c2.2-4.7,1.3-12.6-2.1-16.6c-22.1-25.8-23.6-63.1-3.7-90.6
		c4.3-5.9,3.7-14-1.5-19.3c-3.1-3.1-7.3-4.6-11.7-4.3c-4.3,0.3-8.5,2.6-11.1,6.2c-13.6,18.6-20.6,41.5-19.6,64.5
		C217.7,138.8,226.5,161.1,241.5,178.6z"/>
	<path d="M462,6c-2.8-3.3-6.8-5.2-10.9-5.4c-4.3-0.1-8.3,1.4-11.3,4.3c-5.5,5.5-6,14.1-1,20.1c20.8,25.1,31.9,57,31.1,89.7
		c-0.8,32.8-13.4,64.2-35.5,88.3c-5.4,5.9-5.1,14.9,0.6,20.6c3,2.8,6.7,4.3,10.7,4.3c4.4-0.1,8.4-1.9,11.2-4.9
		c27-29.5,42.4-67.7,43.3-107.8C501,75.3,487.4,36.5,462,6z"/>
	<path d="M428.4,116c-0.6,14.5-4.3,28.9-10.8,41.9c-4.9,9.9-11.4,17.4-18.6,25.5c-1.9,2.2-3.5,4.9-3.4,7.8c0.1,2.1,1.1,4.1,2.4,5.8
		c6.2,8.5,18.8,12.2,26.6,3.6c21-23.5,33-53.8,34-85.2c0.9-31.3-9.2-62-28.6-86.5c-2.5-3.3-6.6-5.4-10.8-5.7
		c-4.3-0.3-8.5,1.3-11.6,4.3c-5.4,5.4-6,13.9-1.3,19.8C421.5,66.7,429.5,91.3,428.4,116z"/>
	<path d="M373.7,181.3c6,3,14.7,2.6,19.3-2.7c15-17.5,23.8-39.8,24.7-63c0.9-23-6-45.9-19.6-64.5c-2.6-3.6-6.7-5.9-11.1-6.2
		c-4.4-0.3-8.6,1.3-11.7,4.3c-5.2,5.3-5.8,13.4-1.5,19.3c19.9,27.5,18.4,64.7-3.7,90.6c-3.4,4-4.3,11.9-2.1,16.6
		C369.1,178.1,371.2,180.1,373.7,181.3z"/>
	<ellipse cx="178.2" cy="417.3" rx="15.2" ry="15.1"/>
	<ellipse cx="138.7" cy="417.3" rx="15.2" ry="15.1"/>
	<ellipse cx="99.3" cy="417.3" rx="15.2" ry="15.1"/>
</g>
</svg>
