<?xml version="1.0" encoding="utf-8"?>
<!-- Generator: Adobe Illustrator 23.0.1, SVG Export Plug-In . SVG Version: 6.00 Build 0)  -->
<svg version="1.1" id="Layer_1" xmlns="http://www.w3.org/2000/svg" xmlns:xlink="http://www.w3.org/1999/xlink" x="0px" y="0px"
	 viewBox="0 0 100 100" style="enable-background:new 0 0 100 100;" xml:space="preserve">
<path d="M9.9,71.4c-1,1-1.6,2.4-1.6,3.9v10.9c0,3,2.4,5.5,5.5,5.5h10.9c1.4,0,2.8-0.6,3.9-1.6l54.1-54.1L64.1,17.2L9.9,71.4z"/>
<path d="M94.1,16.8L83.2,5.9c-2.1-2.1-5.6-2.1-7.7,0L68.4,13L87,31.6l7.1-7.1C96.2,22.4,96.2,18.9,94.1,16.8L94.1,16.8z"/>
<polyline points="8.3,75.2 8.3,91.6 25,91.6 "/>
</svg>
