<svg height="464pt" viewBox="0 0 464 464" width="464pt" xmlns="http://www.w3.org/2000/svg"><path d="m168 64h128v16h-128zm0 0"/><path d="m298.289062 17.910156-10.289062-17.910156-94.113281 48h44.226562zm0 0"/><path d="m160 200h16v48h-16zm0 0"/><path d="m168 96h128v48h-128zm0 0"/><path d="m224 200h16v48h-16zm0 0"/><path d="m152 144h-48v104h40v-64h48v64h16v-64h48v64h16v-64h48v64h40v-104h-48v16h-160zm0 0"/><path d="m288 200h16v48h-16zm0 0"/><path d="m312 112h64v16h-64zm0 0"/><path d="m392 296h-320v152h-40v16h400v-16h-40zm-16 80v72h-16v-56h-16v56h-16v-72zm-64-48v120h-16v-104h-56v104h-16v-104h-56v104h-16v-120zm-56 88v-32h16v32zm-64 0v-32h16v32zm-104-40h48v72h-16v-56h-16v56h-16zm0 0"/><path d="m56 264h352v16h-352zm0 0"/><path d="m88 112h64v16h-64zm0 0"/><path d="m448 448h16v16h-16zm0 0"/><path d="m0 448h16v16h-16zm0 0"/></svg>