<?xml version="1.0" encoding="utf-8"?>
<!-- Generator: Adobe Illustrator 23.0.1, SVG Export Plug-In . SVG Version: 6.00 Build 0)  -->
<svg version="1.1" id="Layer_1" xmlns="http://www.w3.org/2000/svg" xmlns:xlink="http://www.w3.org/1999/xlink" x="0px" y="0px"
	 viewBox="0 0 512 512" style="enable-background:new 0 0 512 512;" xml:space="preserve">
<style type="text/css">
	.st0{stroke:#000000;stroke-width:6;stroke-miterlimit:10;}
</style>
<g>
	<path class="st0" d="M411.66,368.07h25.17c30.47,0,55.17-24.7,55.17-55.17V112.07c0-30.47-24.7-55.17-55.17-55.17H75.16
		C44.7,56.9,20,81.6,20,112.06V312.9c0,30.47,24.7,55.16,55.16,55.16h25.17h30h30.33v35.41c0,8.08,6.21,15.03,14.28,15.41
		c8.61,0.4,15.72-6.46,15.72-14.98v-35.83H241v75.41c0,8.08,6.21,15.03,14.28,15.41c8.61,0.4,15.72-6.46,15.72-14.98v-75.83h50.33
		v35.41c0,8.08,6.21,15.03,14.28,15.41c8.61,0.4,15.72-6.46,15.72-14.98v-35.83h30.33H411.66z M462,312.9
		c0,13.88-11.29,25.17-25.17,25.17H75.16C61.29,338.07,50,326.78,50,312.9v-9.1h412V312.9z M462,273.8H50v-34.27h412V273.8z
		 M462,209.53H50v-97.46C50,98.19,61.29,86.9,75.16,86.9h361.67c13.88,0,25.17,11.29,25.17,25.17V209.53z"/>
	<path class="st0" d="M288.13,145.27h-64.27c-8.28,0-15,6.71-15,15s6.72,15,15,15h64.27c8.29,0,15-6.71,15-15
		S296.42,145.27,288.13,145.27z"/>
</g>
<g>
	<path class="st0" d="M312.33,1931.89v1.56c0,8.1,6.23,15.1,14.32,15.46c8.59,0.38,15.68-6.48,15.68-14.98v-2.03
		c0-8.28-6.72-15-15-15h0C319.05,1916.89,312.33,1923.61,312.33,1931.89z"/>
	<path class="st0" d="M151.66,1931.89v1.6c0,8.08,6.21,15.03,14.28,15.41c8.61,0.4,15.72-6.46,15.72-14.98v-2.03
		c0-8.28-6.72-15-15-15h0C158.38,1916.89,151.66,1923.61,151.66,1931.89z"/>
	<path class="st0" d="M232,1916.89v56.6c0,8.08,6.21,15.03,14.28,15.41c8.61,0.4,15.72-6.46,15.72-14.98v-57.03H232z"/>
</g>
</svg>
