<svg id="Capa_1" enable-background="new 0 0 512 512" height="512" viewBox="0 0 512 512" width="512" xmlns="http://www.w3.org/2000/svg"><g><path d="m505.421 91.432-84.853-84.853c-8.773-8.772-23.047-8.772-31.82 0-8.773 8.773-8.773 23.047 0 31.82l15.91 15.91-31.82 31.82-47.73-47.73c-8.772-8.772-23.047-8.772-31.82 0-8.772 8.773-8.772 23.047 0 31.82l37.123 37.123-111.523 111.524c-2.929 2.929-2.929 7.677 0 10.607l58.336 58.336-67.021 67.02-53.033-53.033 51.111-51.11c2.929-2.929 2.929-7.677 0-10.607-2.929-2.929-7.677-2.929-10.607 0l-56.414 56.414c-2.929 2.929-2.929 7.677 0 10.607l15.91 15.91-10.606 10.606c-2.929-2.929-7.677-2.929-10.607 0l-45.056 45.056c-9.866 9.866-11.41 24.952-4.632 36.452l-84.072 84.073c-2.929 2.929-2.929 7.677 0 10.606s7.677 2.929 10.606 0l84.073-84.072c11.5 6.778 26.585 5.234 36.452-4.632l45.056-45.056c2.929-2.929 2.929-7.677 0-10.607l10.606-10.607 15.91 15.91c2.929 2.929 7.677 2.929 10.607 0l189.151-189.151 37.123 37.123c8.772 8.772 23.047 8.772 31.82 0 8.772-8.772 8.772-23.047 0-31.82l-47.73-47.73 31.82-31.82 15.91 15.91c8.772 8.773 23.047 8.773 31.82 0 8.772-8.772 8.772-23.046 0-31.819zm-382.7 319.06c-5.849 5.849-15.365 5.849-21.213 0s-5.849-15.364 0-21.213l39.753-39.753 21.213 21.213zm45.056-55.663-10.607-10.607 10.607-10.607 10.607 10.607zm173.241-236.88 10.607 10.607-74.401 74.401-10.607-10.607zm21.213 21.213 10.607 10.607-74.401 74.401-10.607-10.607zm-74.4 138.04-53.033-53.033 21.213-21.213 53.033 53.033zm31.819-31.819-10.607-10.607 74.401-74.401 10.606 10.607zm143.344-47.885c2.924 2.924 2.924 7.682 0 10.606-2.924 2.925-7.682 2.925-10.606 0l-148.493-148.492c-2.924-2.924-2.924-7.682 0-10.607 2.925-2.925 7.682-2.925 10.607 0zm-47.73-68.943-31.82-31.82 31.82-31.82 31.82 31.82zm79.55-15.91c-2.924 2.924-7.682 2.924-10.606 0l-84.853-84.853c-2.924-2.924-2.924-7.682 0-10.607 2.925-2.924 7.682-2.924 10.607 0l84.853 84.853c2.923 2.925 2.923 7.683-.001 10.607z"/></g></svg>